<svg width="32" height="20" viewBox="0 0 32 20" fill="rgb(194, 197, 204)" xmlns="http://www.w3.org/2000/svg">
<path fill-rule="evenodd" clip-rule="evenodd" d="M22.1491 11.4158L18.2184 10.6049L22.1481 8.92752L22.9186 9.87882L22.1491 11.4158ZM3.84112 18.3279V18.3332L3.84882 18.3279H3.84112Z" fill=""/>
<path fill-rule="evenodd" clip-rule="evenodd" d="M20.3556 11.9359C20.2146 12.1438 19.8856 12.5304 19.402 12.4515C19.1662 12.4116 9.55912 10.4707 9.53542 10.469C9.46772 10.4507 9.47682 10.3067 9.59922 10.3214L20.292 11.7902C20.3595 11.8013 20.3959 11.8776 20.3556 11.9359ZM19.9951 8.45192L18.5529 9.18822C18.5529 9.18822 18.2178 8.98612 18.5949 8.81632C18.692 8.77292 18.9134 8.64712 19.0926 8.55392C19.1356 8.53142 19.1625 8.48692 19.1625 8.43842C19.1625 8.38492 19.1297 8.33672 19.0799 8.31722L18.0074 7.88862C18.1888 7.74482 18.4705 7.65922 18.7395 7.73932C18.8952 7.78652 19.5469 8.06002 19.9749 8.23862C20.1068 8.29342 20.0755 8.41212 19.9951 8.45192ZM16.5959 9.43622C16.4422 9.54572 15.4292 9.35742 15.4292 9.35742C15.4292 9.35742 16.5501 8.36562 17.6163 8.23872C17.9334 8.20112 18.5748 8.44832 18.5748 8.44832C18.5748 8.44832 17.145 9.04272 16.5959 9.43622ZM27.5337 9.38312C27.0598 8.35012 26.712 7.46782 26.5876 7.25662C26.2254 6.64612 25.6854 6.67872 25.2223 6.75892C23.9869 6.97042 23.5053 7.18742 21.3274 7.76312C21.0072 7.85082 20.4031 8.02742 20.0702 7.91252C19.1879 7.61192 18.9208 7.37142 18.4981 7.41872C17.8428 7.49332 16.4955 8.12412 15.0335 9.18822C14.5756 9.51612 14.6287 9.90752 14.5483 10.1664C14.5457 10.1751 14.5443 10.1843 14.5443 10.1933C14.5443 10.2406 14.5802 10.2801 14.6271 10.2847C14.8391 10.3068 17.1599 10.5076 17.2661 10.5222C17.2336 10.5059 17.213 10.4728 17.213 10.4364C17.213 10.4055 17.2276 10.3744 17.2606 10.3581C17.9233 10.0025 20.3282 8.73432 21.7814 8.16402C23.769 7.37882 24.2485 7.29472 24.8526 7.23832C24.9936 7.22562 25.1913 7.23482 25.3359 7.24392C25.4528 7.25302 25.5554 7.32402 25.5919 7.43132C25.8664 8.23322 26.6702 10.0446 27.0946 10.6442C27.0946 10.6442 27.0197 10.7863 26.8767 10.7935C26.765 10.7957 26.5383 10.5862 26.3973 10.462C26.3801 10.4479 26.3586 10.4403 26.3365 10.4403C26.3185 10.4403 26.3009 10.4453 26.2857 10.4547C23.9027 11.9181 22.184 12.556 21.9371 12.6433C21.9279 12.6468 21.9182 12.6485 21.9083 12.6485C21.8968 12.6485 21.8855 12.6461 21.8749 12.6414L20.6578 12.1897C20.6578 12.1897 20.7035 12.1512 20.8171 11.9254C20.8406 11.8726 20.8535 11.8123 20.8517 11.7742C20.8426 11.581 20.6559 11.5373 20.5716 11.5262C20.2479 11.4861 11.5485 10.2088 9.36702 9.99562C8.44082 9.90272 7.56052 10.3744 7.17982 10.8685L7.18182 10.8813L8.41722 12.163C8.44482 12.1921 8.48692 12.1995 8.52172 12.183L9.49352 11.7378C9.49352 11.7378 9.62672 12.1479 9.50262 12.217C8.69522 12.6579 7.91392 13.0519 7.15792 13.447C6.85392 13.6074 6.86132 13.9093 6.76252 14.3345C6.72102 14.5126 6.70032 14.6754 6.70032 14.6754C6.70032 14.6754 8.39522 13.8296 9.43292 13.3358C9.44502 13.3301 9.45832 13.3272 9.47182 13.3272C9.49712 13.3272 9.52142 13.3376 9.53892 13.3559C9.68712 13.5143 9.73582 13.5508 9.83652 13.6509C9.85392 13.6681 9.86372 13.6915 9.86372 13.716C9.86372 13.75 9.84482 13.7812 9.81462 13.7969C9.56942 13.926 9.31692 14.059 9.12282 14.174C8.96912 14.2652 9.12532 14.5694 9.12532 14.5694L11.9455 13.2396C11.9455 13.2396 12.1214 13.4124 11.8101 13.6038C11.3291 13.9042 6.88152 16.1617 6.49902 16.1713C5.49072 16.1967 3.58732 14.3069 2.89912 14.0191C2.31872 13.7767 1.69482 14.172 0.847321 14.6678C0.616621 14.8044 0.757422 15.1343 0.757422 15.1343L1.98562 14.5149C1.98562 14.5149 2.13762 14.6896 1.96732 14.7953C1.37262 15.1707 0.512522 15.5462 0.380322 15.6411C0.186722 15.7793 0.261121 16.4283 0.261121 16.4283L1.42302 15.8919C1.45782 15.8756 1.50172 15.8811 1.51812 15.8974L4.00802 18.2577C4.16572 18.2197 4.32092 18.1677 4.46952 18.103L2.39232 15.9035C2.37602 15.8863 2.36702 15.8637 2.36702 15.8401C2.36702 15.8052 2.38662 15.7734 2.41782 15.7577C2.62982 15.6498 2.88452 15.5716 3.24312 15.8451C3.54502 16.0729 4.60122 16.9239 5.62252 16.8327C5.96292 16.8036 5.96842 16.9073 5.96842 16.9073C5.96842 16.9073 5.53472 17.1152 5.02012 17.3958C4.76582 17.5359 4.97292 17.906 4.97292 17.906C7.60482 16.831 10.846 15.4933 11.3 15.2984C11.3112 15.2939 11.3234 15.2916 11.3355 15.2916C11.3564 15.2916 11.3768 15.2985 11.3934 15.3112L12.1545 15.9126C12.2624 16.0801 17.6766 14.0081 19.3459 13.1681C19.4391 13.1224 20.2882 13.1607 20.6982 13.157C20.8868 13.157 20.8797 13.2392 20.8797 13.2392C20.8797 13.2392 7.33022 18.6168 4.00632 18.4926L4.00072 18.4962L3.29262 18.7989C3.70822 19.0721 3.60922 19.5441 4.31572 19.1796C4.35772 19.2764 4.40722 19.3784 4.45862 19.4876C4.59572 19.7848 4.59572 19.7864 5.49432 19.482C8.03662 18.6258 19.4702 15.2233 22.0309 14.1683C23.4767 13.5744 25.4754 12.7543 26.7218 11.9851C27.9516 11.2289 28.2017 10.839 27.5337 9.38312ZM27.1428 7.54782C27.1298 7.55032 27.1146 7.55282 27.1016 7.55802C27.0881 7.56312 27.076 7.57112 27.0658 7.58112L27.204 7.54482C27.1808 7.54482 27.1632 7.54782 27.1428 7.54782ZM30.8917 14.9805L30.8734 15.0093L30.8532 14.9805C30.8405 14.9622 29.5833 13.1363 29.1288 12.4294C28.9914 12.2162 29.1526 12.1095 29.1526 12.1095L29.1709 12.0985L29.1838 12.1151C29.248 12.1944 30.7305 14.1002 30.9229 14.4508C31.0694 14.7129 30.8991 14.9696 30.8917 14.9805ZM31.1958 14.6044C31.1153 14.2859 30.5253 12.1763 30.1844 11.4025L28.6302 8.65102C28.4817 8.84802 28.3075 9.05962 28.1408 9.21342C28.1096 9.23852 28.0767 9.26042 28.0385 9.27842C27.9933 9.29772 27.9447 9.30892 27.8954 9.31102L28.7328 12.0244C28.8573 12.4603 29.1489 12.8309 29.3999 13.2069C29.5263 13.393 30.4168 14.7038 30.7597 15.2065C30.8311 15.3115 30.9905 15.3148 31.0602 15.2081C31.1847 15.0201 31.2456 14.7927 31.1958 14.6044Z" fill=""/>
<path fill-rule="evenodd" clip-rule="evenodd" d="M26.7405 4.26312L26.7217 4.27412L26.7087 4.25752C26.6451 4.17402 25.1377 2.22532 24.9384 1.86452C24.7927 1.59442 24.9644 1.33332 24.9718 1.32242L24.9903 1.29472L25.011 1.32242C25.024 1.34252 26.3055 3.21362 26.7667 3.93512C26.9063 4.15352 26.7423 4.26152 26.7405 4.26312ZM27.2066 4.45722C27.0333 3.87442 26.7366 3.49672 26.4792 3.10992C26.0585 2.51502 25.5328 1.63892 25.0947 1.02552C25.047 0.988918 24.9983 0.963318 24.9463 0.963318C24.8936 0.963318 24.8442 0.989718 24.8151 1.03372C24.6787 1.23552 24.6192 1.48882 24.6715 1.69232C24.7555 2.01632 25.3359 4.16492 25.6828 4.95672L27.1267 7.47912C27.1623 7.44042 27.2068 7.40722 27.2574 7.38482C27.2918 7.37032 27.3285 7.36142 27.3657 7.35892C27.5562 7.34602 27.8545 7.34792 28.1249 7.35342L27.2066 4.45722Z" fill=""/>
<path fill-rule="evenodd" clip-rule="evenodd" d="M27.5337 8.32662L27.3054 7.84192C27.3054 7.84192 27.2639 7.76952 27.3579 7.73142C27.3654 7.72802 27.3729 7.72452 27.3823 7.72282C27.3823 7.72282 28.3276 7.69192 28.6234 7.74522C28.7805 7.77442 28.7862 7.82612 28.7862 7.82612L27.5337 8.32662ZM28.831 7.61932C28.4362 7.53802 27.6891 7.53282 27.2417 7.55882C27.2229 7.55882 27.21 7.55882 27.193 7.56052C27.1836 7.56252 27.1724 7.56412 27.1613 7.56742C27.1508 7.57132 27.1412 7.57712 27.1331 7.58482C27.0825 7.61932 27.0507 7.68652 27.0731 7.73822C27.2761 8.21732 27.5059 8.68642 27.7566 9.14222C27.7904 9.20602 27.8893 9.21662 27.9607 9.18892C27.9751 9.18312 27.989 9.17492 28.0018 9.16552C28.3833 8.83762 28.7428 8.37342 28.9694 7.91282C29.0385 7.76792 28.9954 7.65362 28.831 7.61932ZM24.0351 7.54492C24.0351 7.54492 23.8659 8.24532 23.5996 9.05402L23.1064 8.42942L22.7066 8.61172L23.4338 9.53382C23.207 10.1558 22.9334 10.7747 22.6422 11.1393L23.371 10.8075C23.537 10.6532 23.671 10.3413 23.7752 9.96752L24.1755 10.4754L24.5775 10.2921L23.8987 9.43252C24.0455 8.65552 24.0877 7.81042 24.0351 7.54492Z" fill=""/>
</svg>
