<?xml version="1.0" encoding="UTF-8"?>
<!DOCTYPE svg PUBLIC "-//W3C//DTD SVG 1.1//EN" "http://www.w3.org/Graphics/SVG/1.1/DTD/svg11.dtd">
<!-- Creator: CorelDRAW -->
<svg xmlns="http://www.w3.org/2000/svg" xml:space="preserve" width="22.5776mm" height="22.5776mm" version="1.1" style="shape-rendering:geometricPrecision; text-rendering:geometricPrecision; image-rendering:optimizeQuality; fill-rule:evenodd; clip-rule:evenodd"
viewBox="0 0 2257.76 2257.76"
 xmlns:xlink="http://www.w3.org/1999/xlink"
 xmlns:xodm="http://www.corel.com/coreldraw/odm/2003">
 <defs>
  <style type="text/css">
   <![CDATA[
    .fil0 {fill:#C1C6CC}
   ]]>
  </style>
 </defs>
 <g id="Katman_x0020_1">
  <metadata id="CorelCorpID_0Corel-Layer"/>
  <path class="fil0" d="M769.07 1704.57l719.62 0 0 161.91 -719.62 0 0 -161.91zm490.24 -553.2c0,-46.79 15.36,-100.5 40.38,-135.02l28.06 -34.91c8.89,-9.49 20.88,-18.09 31.82,-26.65 146.18,-114.34 380.98,-6.14 380.98,192.08 0,207.26 -244.09,325.67 -407.2,173.33 -36.19,-33.81 -74.04,-100.91 -74.04,-168.83zm-503.73 238.37c-69.5,0 -131.81,-34.84 -167.66,-70.71 -151.47,-151.56 -43.53,-406.03 172.16,-406.03 125.69,0 233.87,112.44 233.87,238.37 0,128.05 -110.31,238.37 -238.37,238.37zm287.85 -1376.26l0 494.74 -787.08 0c-41.48,0 -80.95,39.47 -80.95,80.95l0 364.31c-69.46,0 -197.9,-20.82 -197.9,80.95l0 553.2c0,96.36 120.3,76.46 197.9,76.46l0 508.23c0,48.04 42.51,85.45 89.95,85.45l1727.06 0c47.44,0 89.95,-37.41 89.95,-85.45l0 -508.23c77.6,0 197.9,19.9 197.9,-76.46l0 -553.2c0,-101.77 -128.44,-80.95 -197.9,-80.95l0 -364.31c0,-41.48 -39.47,-80.95 -80.95,-80.95l-787.08 0 0 -494.74c0,-10.36 -3.13,-13.49 -13.49,-13.49l-143.92 0c-10.36,0 -13.49,3.13 -13.49,13.49z"/>
 </g>
</svg>
