<svg xmlns="http://www.w3.org/2000/svg" viewBox="0 0 110 110" fill="#fff">
    <path d="m60.039 17.908 19.795-7.1918c2.5986-0.94412 5.4725 0.39361 6.4193 2.9904l8.3282 22.841c0.9475 2.5986-0.39445 5.4713-2.9949 6.4161l-0.52675 0.19138c5.13 3.8863 8.843 9.3134 10.614 15.614l0.082097 0.29203v0.0073735c2.0371 7.5442 1.0536 15.451-2.7774 22.278-3.8822 6.9158-10.234 11.913-17.871 14.059l-27.481 7.7206c-7.6399 2.1424-15.663 1.185-22.577-2.6969-6.9159-3.8807-11.914-10.233-14.058-17.868-2.1448-7.6361-1.1868-15.661 2.6955-22.577 0.36767-0.65483 0.75749-1.2925 1.1684-1.9121l-9.7768-3.5585c-3.4193-1.2445-5.185-5.0223-3.9413-8.4392l12.99-35.689c1.2436-3.4169 5.0246-5.1759 8.4438-3.9313l31.468 11.454zm3.2184 1.1714 1.0656 0.38784c3.4193 1.2445 5.185 5.0223 3.9413 8.4392l-3.8084 10.463 0.58236-0.16359c2.6511-0.74533 5.3648-1.1206 8.0773-1.1206 5.0571 0 10.025 1.3025 14.5 3.8146 0.4132 0.232 0.81955 0.47282 1.2189 0.72221l2.0001-0.7267c1.4581-0.52977 2.2099-2.1392 1.6792-3.5947l-8.3282-22.841c-0.53072-1.4555-2.143-2.206-3.6011-1.6762l-17.327 6.2955zm-1.4093 20.023 4.3489-11.948c0.82777-2.2743-0.34814-4.7902-2.6265-5.6194l-35.752-13.013c-2.2783-0.82924-4.7963 0.34219-5.6241 2.6165l-12.99 35.689c-0.82777 2.2743 0.34814 4.7902 2.6265 5.6194l10.359 3.7705c3.8676-4.9624 9.198-8.5567 15.366-10.291l24.292-6.824zm4.2095 14.261s1.2326 4.3566 1.3921 4.9278c0.42983 1.5502 1.3963 5.1178 1.3963 5.1178 0.25513 0.94979 0.51025 1.8996 0.75429 2.8521l0.5879 2.2781c0.020798 0.085966 0.030504 0.13311 0.04437 0.23294 0.052689 0.38546 0.030504 0.74735-0.070714 1.1384-0.10538 0.38962-0.28979 0.74597-0.53382 1.0344-0.23433 0.27731-0.55046 0.50609-0.94147 0.6808-0.074874 0.033277-1.6181 0.43538-1.7276 0.46034-1.0829 0.26206-3.4761 0.80975-3.4761 0.80975l-0.27038-0.96227s2.3225-0.77924 3.3901-1.1203c0.65861-0.20937 1.3921-0.45063 1.4822-0.49361 0.30782-0.1442 0.51718-0.41874 0.58374-0.75567 0.037437-0.17055 0.041597-0.36328 0.0097059-0.51996-0.022185-0.08874-0.42983-1.4434-0.69882-2.3294-0.31475-1.0302-1.8871-6.4211-2.3128-7.9172-0.16084-0.57126-1.3796-4.9375-1.3796-4.9375-0.17471-0.62118-0.51025-1.8663-0.64613-2.3752-0.85966 0.23017-1.6153 0.42983-2.3322 0.61424-1.069 0.2787-2.1325 0.55462-3.1988 0.82084-2.3558 0.59622-6.6444 1.5932-6.6444 1.5932l-0.27038-0.96227 0.20798-0.070714c1.9134-0.64752 3.9725-1.3117 6.2963-2.0299 1.0316-0.32307 5.7209-1.7318 5.7209-1.7318l1.4517-0.4229 0.065168 0.22046s0.89571 3.0518 1.1203 3.8477zm-18.085 11.378c0.10676 0.33832 0.72378 2.4403 0.72378 2.4403l0.40349 1.4905c0.090126 0.31752 0.37021 1.4462 0.37021 1.4462 0.22601 0.90958 0.43122 1.8053 0.59345 2.5929 0.29256 1.3768 0.43954 2.3779 0.46727 2.5651l0.1955 1.4171-0.60454 0.17055-0.56849-1.3047c-0.077647-0.18164-0.47143-1.1134-0.94008-2.4431-0.27315-0.76122-0.56433-1.632-0.84303-2.5166l-0.14836-0.48113-0.0041597-0.0097059c-0.097059-0.3092-0.71408-2.4126-0.71408-2.4126s-0.56155-2.0923-0.63504-2.3904c-0.052689-0.21353-0.094286-0.3813-0.13727-0.54492-0.094286-0.36744-0.17887-0.73071-0.2579-1.0787 0 0-0.25513-1.1328-0.33416-1.5155-0.29395-1.3768-0.44231-2.3766-0.46866-2.5637l-0.20244-1.4531 0.5976-0.16777 0.58097 1.338c0.077647 0.18164 0.96088 2.5013 0.96088 2.5013 0.12479 0.3508 0.4742 1.3893 0.4742 1.3893 0.11508 0.34387 0.23571 0.7016 0.34803 1.0732l0.14282 0.45756zm10.576-4.446c-0.23571 0.07626-0.4742 0.15252-0.71824 0.22324l-0.37021 0.10954c0.0097059 0.033277 0.020798 0.066555 0.031891 0.10122l0.074874 0.23987c0.059622 0.19134 0.13034 0.41874 0.14836 0.47975l0.024958 0.077647 1.0233 0.57819c0.21908 0.12202 1.0552 0.61147 1.2382 0.71962 0.40071 0.23433 1.6611 1.0039 1.6736 1.0122 0.18996 0.11647 1.4864 0.9484 1.5003 0.95672 0.22739 0.15391 1.5335 1.0496 1.858 1.3172l0.68218 0.5671-0.83887 0.2884c-0.23571 0.067941-0.28147 0.090126-2.3932-0.9484l-0.13034-0.063782c-2.4001-1.1994-3.4484-1.7332-3.899-1.9675l0.21076 0.77786c0.056849 0.21214 0.18718 0.73349 0.26899 1.0635 0.031891 0.12895 0.056849 0.22878 0.066555 0.27038 0.20521 0.83471 0.39101 1.6611 0.5366 2.3918 0.11508 0.55324 0.41042 2.3558 0.41181 2.3738l0.17055 1.4143-0.52828 0.14836-0.026344-0.059622-0.56155-1.2326c-0.0097059-0.019412-0.69744-1.7152-0.88878-2.249-0.25374-0.69328-0.52412-1.4933-0.78479-2.3142l-0.074874-0.23849c-0.10261-0.32723-0.27176-0.86521-0.33416-1.0774l-0.22046-0.75567c-0.59345 0.98168-2.3488 3.7797-2.3668 3.8089-1.1633 1.8718-1.295 1.9883-1.5058 2.0479-0.026344 0.0069327-0.049916 0.011092-0.07626 0.015252l-0.87492 0.13588 0.055462-0.12895c0.27315-0.6392 1.1633-2.7301 1.1703-2.7468l0.48529-1.0053c0.11508-0.2371 0.98861-1.937 1.2257-2.3793 0.10399-0.19689 0.54214-1.008 0.66139-1.2202l0.55462-0.99693-0.022185-0.090126c-0.012479-0.049916-0.052689-0.20521-0.091513-0.36744-0.038824-0.14975-0.07626-0.30227-0.094286-0.37576-0.0097059-0.033277-0.018025-0.067941-0.026345-0.10399l-0.37437 0.099832c-0.24403 0.067941-0.48945 0.12756-0.73349 0.1858l-0.03605 0.0097059c-0.14282 0.033277-0.27731 0.065168-0.40903 0.098445-0.31475 0.08042-0.62534 0.14836-0.89017 0.20521 0 0-0.8971 0.19134-1.2021 0.24958-0.51718 0.1026-1.0399 0.19273-1.5502 0.2676-0.37437 0.055462-0.59761 0.077647-0.59899 0.077647l-1.1342 0.11508-0.15945-0.5671 1.0288-0.49223c0.018025-0.0069328 1.5113-0.6392 1.9869-0.81391 0.29534-0.10954 1.7568-0.62118 2.0507-0.7113l0.21492-0.069328c0.28286-0.090126 0.75567-0.23987 0.94563-0.29534l0.45618-0.1345c-0.034664-0.16639-0.069328-0.33-0.10122-0.48668-0.12063-0.5879-0.22878-1.1716-0.32029-1.736-0.067941-0.41735-0.26067-2.0091-0.26206-2.0258l-0.0083194-0.065168 0.52689-0.14836 0.027731 0.061008c0.0055462 0.013866 0.66971 1.4739 0.82916 1.8663 0.22878 0.56155 0.43261 1.0926 0.62256 1.6264 0.056849 0.15529 0.11508 0.32029 0.17471 0.48945 0.23849-0.062395 1.0233-0.2676 1.2382-0.32029 0.13034-0.030504 1.8885-0.43676 2.5277-0.55878 0.49223-0.097059 2.0979-0.33416 2.1145-0.33693l1.2021-0.12063 0.15252 0.54214-1.0871 0.52134c-0.0013865 0.0013865-0.20244 0.098445-0.55046 0.24681-0.49223 0.20937-0.96227 0.39517-1.4365 0.56987-0.61979 0.23294-1.3269 0.47836-2.0438 0.70853-0.11508 0.037437-0.22878 0.073487-0.34248 0.10954l-0.10538 0.034664zm-8.6754-3.7142c0.04021 0.061008 0.1442 0.1858 0.13727 0.25929-0.015252 0.17471-0.21353 0.46866-0.37992 0.52412-0.069328 0.023572-0.25374-0.026344-0.33555-0.045756-0.073487-0.019412-0.11092-0.026344-0.28702-0.092899-0.17748-0.065168-0.40071-0.16084-0.62256-0.27038-0.51441-0.25097-1.1176-0.63782-1.6555-1.0607-0.53382-0.42013-1.051-0.91374-1.4198-1.3561-0.15945-0.19134-0.30643-0.38546-0.41181-0.54492-0.10399-0.15113-0.15668-0.24819-0.15668-0.24819s-0.14282-0.18996-0.14282-0.26483c0.0013865-0.17471 0.26899-0.49084 0.43399-0.54769 0.069328-0.023572 0.28702 0.070714 0.28702 0.070714s0.10954 0.027731 0.28702 0.095672c0.17748 0.063782 0.39933 0.16084 0.62256 0.26899 0.5158 0.25374 1.1189 0.64059 1.6528 1.0593 0.53798 0.42151 1.0566 0.91513 1.4226 1.3561 0.15807 0.18857 0.30366 0.38269 0.41319 0.54492 0.10261 0.15391 0.11508 0.18996 0.15529 0.25235zm-7.8982 30.35 0.82361 2.9284 0.94424-0.26483c0.63366-0.17748 1.051-0.34387 1.2534-0.49639s0.34387-0.36605 0.42567-0.63782c0.079034-0.27592 0.072101-0.57819-0.023572-0.91929-0.095672-0.34109-0.25235-0.61008-0.46866-0.80143-0.2163-0.19134-0.44508-0.2995-0.68912-0.31475-0.24265-0.018025-0.71962 0.072101-1.4337 0.27315l-0.83193 0.23294zm0.70437 9.0334-2.8924-10.297 2.7384-0.76954c1.0205-0.28702 1.7027-0.42567 2.0438-0.41597 0.54492 0.018025 1.0538 0.24265 1.5252 0.67109 0.47282 0.42706 0.82223 1.051 1.0524 1.8718 0.20937 0.74458 0.24542 1.4074 0.10538 1.9883-0.14004 0.58374-0.39101 1.0358-0.75567 1.3574-0.36328 0.32168-1.0607 0.62811-2.0923 0.91651l-1.1176 0.31336 1.0912 3.8851-1.6985 0.47836zm7.9311-2.2293-2.8702-10.212 1.6999-0.47697 2.3807 8.4705 4.2429-1.1924 0.48807 1.7415-5.9414 1.6694zm10.51-7.3471-2.2393-3.4941-0.070714 4.143 2.31-0.64891zm4.2817 3.1918-1.8497 0.51996-1.3935-2.1242-3.379 0.9484-0.04437 2.5277-1.8108 0.51025 0.39378-11.22 1.8053-0.50748 6.2783 9.3454zm2.0445-0.57445-1.2188-4.3358-4.7656-5.0928 1.9966-0.56017 3.1267 3.5149 0.81113-4.6214 1.962-0.55046-1.4268 6.8468 1.2146 4.3205-1.6999 0.47836zm5.6681-1.5923-2.8937-10.297 6.2672-1.7595 0.48807 1.7415-4.5659 1.2812 0.64197 2.2837 4.2429-1.1924 0.48668 1.7346-4.2415 1.1924 0.78479 2.7953 4.7198-1.3255 0.48807 1.7415-6.4184 1.8039zm7.9118-8.6335 1.2645-0.35496c0.77231-0.21769 1.2534-0.38962 1.4462-0.5158 0.19134-0.12756 0.32307-0.31197 0.39655-0.55601 0.073487-0.24265 0.062395-0.53521-0.033277-0.87769-0.092899-0.32584-0.23294-0.57126-0.41874-0.73349-0.18718-0.16223-0.40349-0.24958-0.64891-0.26067-0.17471-0.0083193-0.64336 0.095672-1.4074 0.31059l-1.3353 0.37437 0.73626 2.6137zm-0.031891 6.4184-2.891-10.295 3.5884-1.008c0.91929-0.25929 1.6001-0.3508 2.0452-0.27592 0.44508 0.074874 0.85828 0.30366 1.2382 0.68912 0.38269 0.38546 0.66139 0.89849 0.84025 1.5335 0.22601 0.80559 0.2163 1.51-0.031891 2.1089-0.24819 0.60038-0.70992 1.0635-1.3866 1.3893 0.43954 0.16084 0.82084 0.36189 1.1481 0.60731 0.32584 0.24403 0.80836 0.7113 1.4462 1.4004l1.5904 1.7193-2.0341 0.57126-1.8621-1.894c-0.67248-0.68218-1.1162-1.1065-1.3325-1.2645-0.21769-0.15945-0.42429-0.25235-0.62534-0.28147-0.19828-0.026345-0.495 0.016639-0.88878 0.12618l-0.3508 0.099832 1.2077 4.2969-1.7013 0.47697zm-28.109-51.462c-2.2783-0.82924-3.4542-3.3451-2.6265-5.6194s3.3458-3.4457 5.6241-2.6165c2.2783 0.82924 3.4542 3.3451 2.6265 5.6194s-3.3458 3.4457-5.6241 2.6165zm-16.683 7.3725c-2.2783-0.82924-3.4542-3.3451-2.6265-5.6194s3.3458-3.4457 5.6241-2.6165c2.2783 0.82924 3.4542 3.3451 2.6265 5.6194s-3.3458 3.4457-5.6241 2.6165zm-7.6195-16.218c-2.2783-0.82924-3.4542-3.3451-2.6265-5.6194s3.3458-3.4457 5.6241-2.6165c2.2783 0.82924 3.4542 3.3451 2.6265 5.6194-0.82777 2.2743-3.3458 3.4457-5.6241 2.6165zm-8.8038 24.188c-2.2783-0.82924-3.4542-3.3451-2.6265-5.6194s3.3458-3.4457 5.6241-2.6165c2.2783 0.82924 3.4542 3.3451 2.6265 5.6194s-3.3458 3.4457-5.6241 2.6165zm41.553-9.8309-2.1241 0.59669 2.1241-0.59669zm19.038-16.618c-1.4581 0.52977-3.0704-0.22071-3.6011-1.6762-0.53072-1.4555 0.2211-3.065 1.6792-3.5947 1.4581-0.52977 3.0704 0.22071 3.6011 1.6762 0.53072 1.4555-0.2211 3.065-1.6792 3.5947zm-5.1395 11.002c-1.4581 0.52977-3.0704-0.22071-3.6011-1.6762-0.53072-1.4555 0.2211-3.065 1.6792-3.5947 1.4581-0.52977 3.0704 0.22071 3.6011 1.6762 0.53072 1.4555-0.2211 3.065-1.6792 3.5947zm-2.1145 5.6536c-2.4972 0-5.011 0.34387-7.4818 1.0385l-27.483 7.7203c-7.0728 1.9883-12.949 6.6111-16.546 13.017-3.5967 6.4073-4.4827 13.831-2.4958 20.905 1.9869 7.0728 6.6097 12.949 13.017 16.544 6.4087 3.5981 13.831 4.4813 20.906 2.4972l27.48-7.7203c7.0742-1.9883 12.95-6.6111 16.547-13.018 3.5953-6.4073 4.4827-13.831 2.4958-20.904-1.9883-7.0742-6.6111-12.95-13.017-16.547-4.1694-2.3405-8.77-3.5329-13.423-3.5329z"/>
</svg>
