<svg xmlns="http://www.w3.org/2000/svg" viewBox="0 0 110 110" fill="#fff">
    <path d="m64.456 38.37 3.8084-10.463c1.2436-3.4169-0.52209-7.1947-3.9413-8.4392l-1.0656-0.38784 17.327-6.2955c1.4581-0.52977 3.0704 0.22071 3.6011 1.6762l8.3282 22.841c0.53072 1.4555-0.2211 3.065-1.6792 3.5947l-2.0001 0.7267c-0.39931-0.24939-0.80566-0.49021-1.2189-0.72221-4.4751-2.5121-9.4432-3.8146-14.5-3.8146-2.7125 0-5.4262 0.37531-8.0773 1.1206l-0.58236 0.16359zm15.914-15.74c1.4581-0.52977 2.2099-2.1392 1.6792-3.5947-0.53072-1.4555-2.143-2.206-3.6011-1.6762-1.4581 0.52977-2.2099 2.1392-1.6792 3.5947 0.53072 1.4555 2.143 2.206 3.6011 1.6762zm-5.1395 11.002c1.4581-0.52977 2.2099-2.1392 1.6792-3.5947-0.53072-1.4555-2.143-2.206-3.6011-1.6762-1.4581 0.52977-2.2099 2.1392-1.6792 3.5947 0.53072 1.4555 2.143 2.206 3.6011 1.6762zm-2.1145 5.6536c4.6533 0 9.2539 1.1924 13.423 3.5329 6.4059 3.5967 11.029 9.4729 13.017 16.547 1.9869 7.0728 1.0995 14.496-2.4958 20.904-3.5967 6.4073-9.4729 11.03-16.547 13.018l-27.48 7.7203c-7.0756 1.9842-14.498 1.1009-20.906-2.4972-6.4073-3.5953-11.03-9.4716-13.017-16.544-1.9869-7.0742-1.1009-14.498 2.4958-20.905 3.5967-6.4059 9.4729-11.029 16.546-13.017l27.483-7.7203c2.4708-0.69466 4.9847-1.0385 7.4818-1.0385zm-7.058 14.078c-0.22462-0.79588-1.1203-3.8477-1.1203-3.8477l-0.065168-0.22046-1.4517 0.4229s-4.6893 1.4087-5.7209 1.7318c-2.3239 0.71824-4.3829 1.3824-6.2963 2.0299l-0.20798 0.070714 0.27038 0.96227s4.2886-0.99693 6.6444-1.5932c1.0663-0.26622 2.1297-0.54214 3.1988-0.82084 0.71685-0.18441 1.4725-0.38408 2.3322-0.61424 0.13588 0.50887 0.47143 1.754 0.64613 2.3752 0 0 1.2188 4.3663 1.3796 4.9375 0.42567 1.4961 1.998 6.887 2.3128 7.9172 0.26899 0.88601 0.67664 2.2407 0.69882 2.3294 0.031891 0.15668 0.027731 0.34941-0.0097059 0.51996-0.066555 0.33693-0.27592 0.61147-0.58374 0.75567-0.090126 0.042983-0.82361 0.28424-1.4822 0.49361-1.0676 0.34109-3.3901 1.1203-3.3901 1.1203l0.27038 0.96227s2.3932-0.54769 3.4761-0.80975c0.10954-0.024958 1.6528-0.42706 1.7276-0.46034 0.39101-0.17471 0.70714-0.40349 0.94147-0.6808 0.24403-0.2884 0.42845-0.64475 0.53382-1.0344 0.10122-0.39101 0.1234-0.7529 0.070714-1.1384-0.013866-0.099832-0.023571-0.14697-0.04437-0.23294l-0.5879-2.2781c-0.24403-0.95256-0.49916-1.9024-0.75429-2.8521 0 0-0.96643-3.5676-1.3963-5.1178-0.15945-0.57126-1.3921-4.9278-1.3921-4.9278zm-18.085 11.378-0.14282-0.45756c-0.11231-0.3716-0.23294-0.72933-0.34803-1.0732 0 0-0.34941-1.0385-0.4742-1.3893 0 0-0.88324-2.3197-0.96088-2.5013l-0.58097-1.338-0.5976 0.16777 0.20244 1.4531c0.026344 0.18718 0.17471 1.1869 0.46866 2.5637 0.079034 0.38269 0.33416 1.5155 0.33416 1.5155 0.079034 0.34803 0.16361 0.7113 0.2579 1.0787 0.042983 0.16361 0.08458 0.33139 0.13727 0.54492 0.073487 0.29811 0.63504 2.3904 0.63504 2.3904s0.61702 2.1034 0.71408 2.4126l0.0041597 0.0097059 0.14836 0.48113c0.2787 0.88462 0.56987 1.7554 0.84303 2.5166 0.46866 1.3297 0.86244 2.2615 0.94008 2.4431l0.56849 1.3047 0.60454-0.17055-0.1955-1.4171c-0.027731-0.18718-0.17471-1.1883-0.46727-2.5651-0.16223-0.78756-0.36744-1.6833-0.59345-2.5929 0 0-0.28008-1.1287-0.37021-1.4462l-0.40349-1.4905s-0.61702-2.102-0.72378-2.4403zm10.576-4.446 0.10538-0.034664c0.1137-0.03605 0.22739-0.072101 0.34248-0.10954 0.71685-0.23017 1.424-0.47559 2.0438-0.70853 0.4742-0.17471 0.94424-0.3605 1.4365-0.56987 0.34803-0.14836 0.54908-0.24542 0.55046-0.24681l1.0871-0.52134-0.15252-0.54214-1.2021 0.12063c-0.016639 0.0027731-1.6223 0.23987-2.1145 0.33693-0.6392 0.12202-2.3974 0.52828-2.5277 0.55878-0.21492 0.052689-0.99971 0.2579-1.2382 0.32029-0.059622-0.16916-0.11786-0.33416-0.17471-0.48945-0.18996-0.53382-0.39378-1.0649-0.62256-1.6264-0.15945-0.3924-0.82361-1.8524-0.82916-1.8663l-0.027731-0.061008-0.52689 0.14836 0.0083194 0.065168c0.0013865 0.016639 0.19412 1.6084 0.26206 2.0258 0.091513 0.56433 0.19966 1.1481 0.32029 1.736 0.031891 0.15668 0.066555 0.32029 0.10122 0.48668l-0.45618 0.1345c-0.18996 0.055462-0.66277 0.20521-0.94563 0.29534l-0.21492 0.069328c-0.29395 0.090126-1.7554 0.60176-2.0507 0.7113-0.47559 0.17471-1.9689 0.80697-1.9869 0.81391l-1.0288 0.49223 0.15945 0.5671 1.1342-0.11508c0.0013865 0 0.22462-0.022185 0.59899-0.077647 0.51025-0.074874 1.033-0.165 1.5502-0.2676 0.30504-0.058235 1.2021-0.24958 1.2021-0.24958 0.26483-0.056849 0.57542-0.12479 0.89017-0.20521 0.13172-0.033277 0.26622-0.065168 0.40903-0.098445l0.03605-0.0097059c0.24403-0.058235 0.48945-0.11786 0.73349-0.1858l0.37437-0.099832c0.0083194 0.03605 0.016639 0.070714 0.026345 0.10399 0.018025 0.073487 0.055462 0.22601 0.094286 0.37576 0.038824 0.16223 0.079034 0.31752 0.091513 0.36744l0.022185 0.090126-0.55462 0.99693c-0.11924 0.21214-0.55739 1.0233-0.66139 1.2202-0.2371 0.44231-1.1106 2.1422-1.2257 2.3793l-0.48529 1.0053c-0.0069328 0.016639-0.8971 2.1076-1.1703 2.7468l-0.055462 0.12895 0.87492-0.13588c0.026345-0.0041597 0.049916-0.0083194 0.07626-0.015252 0.21076-0.059622 0.34248-0.17609 1.5058-2.0479 0.018025-0.029118 1.7734-2.8272 2.3668-3.8089l0.22046 0.75567c0.062395 0.21214 0.23155 0.75013 0.33416 1.0774l0.074874 0.23849c0.26067 0.82084 0.53105 1.6209 0.78479 2.3142 0.19134 0.53382 0.87908 2.2296 0.88878 2.249l0.56155 1.2326 0.026344 0.059622 0.52828-0.14836-0.17055-1.4143c-0.0013866-0.018025-0.29672-1.8205-0.41181-2.3738-0.14559-0.73071-0.33139-1.5571-0.5366-2.3918-0.0097059-0.041597-0.034664-0.14143-0.066555-0.27038-0.081807-0.33-0.21214-0.85134-0.26899-1.0635l-0.21076-0.77786c0.45063 0.23433 1.4989 0.76815 3.899 1.9675l0.13034 0.063782c2.1117 1.0385 2.1575 1.0163 2.3932 0.9484l0.83887-0.2884-0.68218-0.5671c-0.32445-0.2676-1.6306-1.1633-1.858-1.3172-0.013866-0.0083193-1.3103-0.84025-1.5003-0.95672-0.012479-0.0083193-1.2729-0.77786-1.6736-1.0122-0.18303-0.10815-1.0191-0.59761-1.2382-0.71962l-1.0233-0.57819-0.024958-0.077647c-0.018025-0.061008-0.08874-0.2884-0.14836-0.47975l-0.074874-0.23987c-0.011092-0.034664-0.022185-0.067941-0.031891-0.10122l0.37021-0.10954c0.24403-0.070714 0.48252-0.14697 0.71824-0.22324zm-8.6754-3.7142c-0.04021-0.062395-0.052689-0.098445-0.15529-0.25235-0.10954-0.16223-0.25513-0.35634-0.41319-0.54492-0.36605-0.44092-0.88462-0.93454-1.4226-1.3561-0.53382-0.41874-1.137-0.80559-1.6528-1.0593-0.22324-0.10815-0.44508-0.20521-0.62256-0.26899-0.17748-0.067941-0.28702-0.095672-0.28702-0.095672s-0.21769-0.094286-0.28702-0.070714c-0.165 0.056849-0.43261 0.37298-0.43399 0.54769 0 0.074874 0.14282 0.26483 0.14282 0.26483s0.052689 0.097059 0.15668 0.24819c0.10538 0.15945 0.25235 0.35357 0.41181 0.54492 0.36882 0.44231 0.88601 0.93592 1.4198 1.3561 0.53798 0.4229 1.1411 0.80975 1.6555 1.0607 0.22185 0.10954 0.44508 0.20521 0.62256 0.27038 0.17609 0.066555 0.21353 0.073487 0.28702 0.092899 0.081807 0.019412 0.26622 0.069328 0.33555 0.045756 0.16639-0.055462 0.36466-0.34941 0.37992-0.52412 0.0069327-0.073487-0.097059-0.19828-0.13727-0.25929zm-7.8982 30.35 0.83193-0.23294c0.71408-0.20105 1.1911-0.29118 1.4337-0.27315 0.24403 0.015252 0.47282 0.1234 0.68912 0.31475 0.2163 0.19134 0.37298 0.46034 0.46866 0.80143 0.095672 0.34109 0.10261 0.64336 0.023572 0.91929-0.081807 0.27176-0.22324 0.48529-0.42567 0.63782s-0.61979 0.31891-1.2534 0.49639l-0.94424 0.26483-0.82361-2.9284zm0.70437 9.0334 1.6985-0.47836-1.0912-3.8851 1.1176-0.31336c1.0316-0.2884 1.729-0.59483 2.0923-0.91651 0.36466-0.32168 0.61563-0.7737 0.75567-1.3574 0.14004-0.58097 0.10399-1.2437-0.10538-1.9883-0.23017-0.82084-0.57958-1.4448-1.0524-1.8718-0.47143-0.42845-0.98029-0.65307-1.5252-0.67109-0.34109-0.0097059-1.0233 0.12895-2.0438 0.41597l-2.7384 0.76954 2.8924 10.297zm7.9311-2.2293 5.9414-1.6694-0.48807-1.7415-4.2429 1.1924-2.3807-8.4705-1.6999 0.47697 2.8702 10.212zm10.51-7.3471-2.31 0.64891 0.070714-4.143 2.2393 3.4941zm4.2817 3.1918-6.2783-9.3454-1.8053 0.50748-0.39378 11.22 1.8108-0.51025 0.04437-2.5277 3.379-0.9484 1.3935 2.1242 1.8497-0.51996zm2.0445-0.57445 1.6999-0.47836-1.2146-4.3205 1.4268-6.8468-1.962 0.55046-0.81113 4.6214-3.1267-3.5149-1.9966 0.56017 4.7656 5.0928 1.2188 4.3358zm5.6681-1.5923 6.4184-1.8039-0.48807-1.7415-4.7198 1.3255-0.78479-2.7953 4.2415-1.1924-0.48668-1.7346-4.2429 1.1924-0.64197-2.2837 4.5659-1.2812-0.48807-1.7415-6.2672 1.7595 2.8937 10.297zm7.9118-8.6335-0.73626-2.6137 1.3353-0.37437c0.76399-0.21492 1.2326-0.31891 1.4074-0.31059 0.24542 0.011092 0.46172 0.098445 0.64891 0.26067 0.1858 0.16223 0.32584 0.40765 0.41874 0.73349 0.095672 0.34248 0.10676 0.63504 0.033277 0.87769-0.073487 0.24403-0.20521 0.42845-0.39655 0.55601-0.19273 0.12618-0.67387 0.29811-1.4462 0.5158l-1.2645 0.35496zm-0.031891 6.4184 1.7013-0.47697-1.2077-4.2969 0.3508-0.099832c0.39378-0.10954 0.6905-0.15252 0.88878-0.12618 0.20105 0.029118 0.40765 0.12202 0.62534 0.28147 0.2163 0.15807 0.66 0.58235 1.3325 1.2645l1.8621 1.894 2.0341-0.57126-1.5904-1.7193c-0.63782-0.68912-1.1203-1.1564-1.4462-1.4004-0.32723-0.24542-0.70853-0.44647-1.1481-0.60731 0.67664-0.32584 1.1384-0.78895 1.3866-1.3893 0.24819-0.59899 0.2579-1.3034 0.031891-2.1089-0.17887-0.63504-0.45756-1.1481-0.84025-1.5335-0.37992-0.38546-0.79311-0.61424-1.2382-0.68912-0.44508-0.074874-1.1259 0.016639-2.0452 0.27592l-3.5884 1.008 2.891 10.295zm-19.147-46.096-24.292 6.824c-6.1676 1.7338-11.498 5.3281-15.366 10.291l-10.359-3.7705c-2.2783-0.82924-3.4542-3.3451-2.6265-5.6194l12.99-35.689c0.82777-2.2743 3.3458-3.4457 5.6241-2.6165l35.752 13.013c2.2783 0.82924 3.4542 3.3451 2.6265 5.6194l-4.3489 11.948zm-8.9628-5.3665c2.2783 0.82924 4.7963-0.34219 5.6241-2.6165s-0.34814-4.7902-2.6265-5.6194c-2.2783-0.82924-4.7963 0.34219-5.6241 2.6165s0.34814 4.7902 2.6265 5.6194zm-16.683 7.3725c2.2783 0.82924 4.7963-0.34219 5.6241-2.6165s-0.34814-4.7902-2.6265-5.6194c-2.2783-0.82924-4.7963 0.34219-5.6241 2.6165s0.34814 4.7902 2.6265 5.6194zm-7.6195-16.218c2.2783 0.82924 4.7963-0.34219 5.6241-2.6165 0.82777-2.2743-0.34814-4.7902-2.6265-5.6194-2.2783-0.82924-4.7963 0.34219-5.6241 2.6165s0.34814 4.7902 2.6265 5.6194zm-8.8038 24.188c2.2783 0.82924 4.7963-0.34219 5.6241-2.6165s-0.34814-4.7902-2.6265-5.6194c-2.2783-0.82924-4.7963 0.34219-5.6241 2.6165s0.34814 4.7902 2.6265 5.6194z"/>
</svg>
