<svg xmlns="http://www.w3.org/2000/svg" viewBox="0 0 110 110" fill="#fff">
    <path
        d="M93.75,11H53.87a3.35,3.35,0,0,0-3.35,3.35V27.57H15.32A3.36,3.36,0,0,0,12,30.93V94.32a3.35,3.35,0,0,0,3.35,3.35H55.19a3.35,3.35,0,0,0,3.35-3.35l0-63.39a3.36,3.36,0,0,0-3.35-3.36H52.7V14.38a1.17,1.17,0,0,1,1.17-1.17H93.75a1.18,1.18,0,0,1,1.17,1.17V77.77a1.17,1.17,0,0,1-1.17,1.17H58.55v2.18h35.2a3.35,3.35,0,0,0,3.35-3.35V14.38A3.35,3.35,0,0,0,93.75,11ZM55.23,29.76a1.17,1.17,0,0,1,1.17,1.17l0,63.39a1.18,1.18,0,0,1-1.17,1.17H15.32a1.18,1.18,0,0,1-1.17-1.17V30.93a1.17,1.17,0,0,1,1.17-1.17Z"
    />
    <path
        d="M34.41,59.89H32.48L33,57.1h4.39L38,59.82H36.34V63.1h7V59.82h-1.7L37.12,39.24h-3.7L28.88,59.72H27.26V63h7.15ZM35.28,46,36.89,54H33.73Z"
    />
    <path
        d="M35.44,70.47a42,42,0,0,0-5.17,6.14c-2.37,3.6-1.18,7,1.63,7.17a2.57,2.57,0,0,0,2.62-2.09c.07-.37.29-.28.29-.28v.15a9,9,0,0,1-1.16,4.71,7,7,0,0,1,3.45,0A9.14,9.14,0,0,1,36,81.56v-.15s.22-.09.29.28a2.57,2.57,0,0,0,2.62,2.09c2.87-.19,4-3.57,1.74-7.17A42.6,42.6,0,0,0,35.44,70.47Z"
    />
    <path
        d="M74.61,64.72a2.57,2.57,0,0,0,2.62,2.09c2.87-.17,4.13-3.57,1.74-7.17a42.6,42.6,0,0,0-5.16-6.14,43.32,43.32,0,0,0-5.17,6.14c-2.37,3.6-1.18,7,1.63,7.17a2.57,2.57,0,0,0,2.62-2.09c.07-.37.29-.28.29-.28v.15A9,9,0,0,1,72,69.3a7,7,0,0,1,3.46,0,9,9,0,0,1-1.16-4.71v-.15S74.54,64.35,74.61,64.72Z"
    />
    <path
        d="M66.93,39.46v.8S66.63,47,73,47c5.82-.09,5.66-6.72,5.66-6.72v-15h1.63V22.69H73.91v2.52h1.6V40.16s0,3.6-2.56,3.6-2.8-3.5-2.8-3.5v-.8Z"
    />
</svg>
