<svg xmlns="http://www.w3.org/2000/svg" viewBox="0 0 110 110" fill="#fff">
    <path d="m51.412 82.532 1.4029 19.471h-11.986l0.78174-19.09c1.2735 1.0564 2.9083 1.6921 4.6893 1.6921 1.9848 0 3.7883-0.79041 5.112-2.0732zm1.7726-7.8499c-1.0451-2.7874-3.7367-4.7755-6.8846-4.7755-0.17248 0-0.34359 0.0059614-0.51313 0.017689l1.8741-3.5991c1.3692 1.2194 2.9154 2.2851 4.6256 3.1565 1.0412 0.53049 2.1049 0.9695 3.182 1.32l-2.2839 3.8805zm-1.7352 2.5738c0 2.8397-2.3124 5.1494-5.1494 5.1494-2.8397 0-5.1521-2.3097-5.1521-5.1494 0-2.8397 2.3124-5.1494 5.1521-5.1494 2.8369 0 5.1494 2.3097 5.1494 5.1494zm-7.6187-34.191 9.8025 4.9946c1.041 0.5304 2.3148 0.1165 2.8452-0.92446 0.5304-1.041 0.1165-2.3148-0.92446-2.8452l-9.9056-5.0472 1.7796-3.4928 10.039 5.115c1.041 0.5304 2.3148 0.1165 2.8452-0.92446 0.5304-1.041 0.1165-2.3148-0.92446-2.8452l-10.039-5.115 1.7796-3.4928 10.172 5.1828c1.041 0.5304 2.3148 0.1165 2.8452-0.92446s0.1165-2.3148-0.92446-2.8452l-10.172-5.1828 1.7796-3.4928 10.305 5.2506c1.041 0.5304 2.3148 0.1165 2.8452-0.92446s0.1165-2.3148-0.92446-2.8452l-10.179-5.1867c5.4592-8.1435 16.268-11.105 25.222-6.5427 8.8196 4.4938 12.792 14.735 9.6785 23.837l-10.45-5.3245c-1.041-0.5304-2.3148-0.1165-2.8452 0.92446-0.5304 1.041-0.1165 2.3148 0.92446 2.8452l10.626 5.4144-1.7796 3.4928-10.759-5.4822c-1.041-0.5304-2.3148-0.1165-2.8452 0.92446-0.5304 1.041-0.1165 2.3148 0.92446 2.8452l10.759 5.4822-1.7796 3.4928-10.892-5.55c-1.041-0.5304-2.3148-0.1165-2.8452 0.92446s-0.1165 2.3148 0.92446 2.8452l10.892 5.55-1.7796 3.4928-11.026-5.6178c-1.041-0.5304-2.3148-0.1165-2.8452 0.92446-0.5304 1.041-0.1165 2.3148 0.92446 2.8452l10.96 5.5845c-5.3334 8.56-16.426 11.759-25.579 7.095-9.0205-4.5962-12.97-15.204-9.4547-24.457zm43.218 36.28c1.424-1.424 1.9893-5.5723 2.2743-7.8649 0.049014-0.39426 0.20196-0.39085 0.25143 0.0059389 0.28598 2.2938 0.85146 6.4361 2.2743 7.8589 1.4146 1.4135 4.1212 1.9809 5.9966 2.2687 0.33883 0.051991 0.35653 0.20945 0.028839 0.25946-1.8764 0.28639-4.6036 0.85242-6.0254 2.2742-1.434 1.434-1.9972 5.6306-2.281 7.9121-0.046494 0.37373-0.19224 0.37498-0.23849 0.0021868-0.28299-2.281-0.84602-6.4798-2.2805-7.9142-1.4399-1.4399-4.2186-2.0021-6.0966-2.285-0.30026-0.045236-0.29729-0.18864 0.0048299-0.23419 1.8779-0.28314 4.6531-0.84548 6.0918-2.2831zm-67.671-55.291c2.2931-2.2931 3.2032-8.9729 3.6622-12.664 0.078925-0.63486 0.32521-0.62937 0.40487 0.0095632 0.4605 3.6936 1.3711 10.364 3.6622 12.655 2.2778 2.2762 6.6362 3.1898 9.6561 3.6531 0.54561 0.083719 0.5741 0.33726 0.046439 0.4178-3.0214 0.46116-7.413 1.3726-9.7025 3.6621-2.3092 2.3092-3.2159 9.0668-3.673 12.74-0.074868 0.6018-0.30956 0.60382-0.38404 0.0035214-0.45569-3.6729-1.3623-10.434-3.6722-12.744-2.3186-2.3186-6.7931-3.2239-9.8171-3.6795-0.4835-0.072842-0.47872-0.30376 0.0077774-0.37711 3.0239-0.45592 7.4927-1.3614 9.8093-3.6764zm7.9329 36.771c1.424-1.424 1.9893-5.5723 2.2743-7.8649 0.049014-0.39426 0.20196-0.39085 0.25143 0.0059389 0.28598 2.2938 0.85146 6.4361 2.2743 7.8589 1.4146 1.4135 4.1212 1.9809 5.9966 2.2687 0.33883 0.051991 0.35653 0.20945 0.028839 0.25946-1.8764 0.28639-4.6036 0.85242-6.0254 2.2742-1.434 1.434-1.9972 5.6306-2.281 7.9121-0.046494 0.37373-0.19224 0.37498-0.23849 0.0021868-0.28299-2.281-0.84602-6.4798-2.2805-7.9142-1.4399-1.4399-4.2186-2.0021-6.0966-2.285-0.30026-0.045236-0.29729-0.18864 0.0048299-0.23419 1.8779-0.28314 4.6531-0.84548 6.0918-2.2831zm69.534-21.819c0.66781-0.034998 1.3057 0.36683 1.5411 1.027 0.0026034 0.010178 0.0061851 0.019273 0.0098206 0.029396 0.0024417 0.0070919 0.0060233 0.016187 0.0085728 0.025336 0.28541 0.80502-0.13823 1.6874-0.94624 1.9701-0.14327 0.050828-0.28979 0.079135-0.43533 0.086762-0.66884 0.035052-1.3089-0.36769-1.5433-1.0289l-0.017146-0.050672c-0.28536-0.80399 0.13823-1.6874 0.94619-1.9711 0.1443-0.050882 0.29077-0.080218 0.4363-0.087845zm1.96 7.7556c0.78444-0.041111 1.4874 0.51614 1.6096 1.307 0.00298 0.017378 0.006069 0.036813 0.009157 0.056248 0.13112 0.84301-0.44959 1.6315-1.2956 1.7615-0.052371 0.0079017-0.10485 0.013746-0.15646 0.016451-0.78548 0.041165-1.4895-0.51706-1.6128-1.3079l-0.0079101-0.052188c-0.13014-0.8441 0.44948-1.6336 1.2955-1.7646 0.053403-0.0079558 0.10588-0.0138 0.15852-0.016559zm0.49632 7.9891c0.042319-0.0022178 0.084745-0.0023785 0.12728-4.82e-4 0.85509 0.02326 1.5278 0.73269 1.5041 1.5838-5.47e-4 0.0093114-1.69e-4 0.016512-7.7e-4 0.024794-3.85e-4 0.012397-8.25e-4 0.023766-0.001264 0.035134-0.023742 0.8109-0.66893 1.4553-1.4658 1.4971-0.043351 0.0022719-0.085777 0.0024325-0.12924 0.0026473-0.85629-0.026292-1.5291-0.73778-1.5045-1.592l0.0024655-0.0517c0.023742-0.8109 0.66991-1.4564 1.4677-1.4992zm-0.97289 7.9392c0.13418-0.0070322 0.27346 0.0042339 0.41165 0.034123 0.83438 0.18112 1.3638 1.0002 1.1849 1.8326-0.0026653 0.008391-0.0044062 0.014671-0.0059853 0.024036 1.078e-4 0.0020571-7.627e-4 0.005197-0.001687 0.0073083l1.078e-4 0.0020571c-0.0015792 0.0093655-0.0042444 0.017756-0.0058775 0.026093-0.15298 0.69494-0.75177 1.1781-1.432 1.2137-0.13521 0.0070863-0.27449-0.0041798-0.41371-0.034015-0.83656-0.18307-1.3662-1.0073-1.1832-1.8409l0.010831-0.050075c0.15293-0.69597 0.75378-1.1792 1.435-1.2149zm-2.4323 7.6217c0.22811-0.011955 0.46195 0.026329 0.68529 0.12086 0.78744 0.3321 1.1557 1.2369 0.82218 2.0218-0.0082113 0.021059-0.016477 0.041089-0.02572 0.062201-0.24093 0.55721-0.77241 0.90274-1.3432 0.93266-0.22811 0.011955-0.46195-0.026329-0.68638-0.12183-0.78858-0.33411-1.1559-1.2411-0.82038-2.0271l0.020282-0.047477c0.23958-0.56333 0.77507-0.91113 1.3479-0.94115zm-14.946 18.481c0.51298-0.026884 1.03 0.20181 1.3485 0.65028 0.49498 0.69605 0.32923 1.6609-0.37049 2.1534-0.01603 0.010123-0.030973 0.02122-0.045916 0.032317-0.24855 0.17496-0.53041 0.26709-0.81219 0.28185-0.51402 0.026938-1.03-0.20181-1.3486-0.65131-0.494-0.69713-0.32722-1.662 0.37255-2.1535l0.042874-0.031126c0.24855-0.17496 0.53041-0.26709 0.81322-0.28191zm-6.9527 3.997c0.61723-0.032348 1.2188 0.30744 1.492 0.89959 0.35735 0.77546 0.015176 1.6918-0.76309 2.0482-0.018202 0.0081738-0.034339 0.016239-0.051562 0.023331-0.18397 0.083903-0.37412 0.12894-0.56404 0.13889-0.6162 0.032294-1.2187-0.30641-1.491-0.89964-0.35534-0.7766-0.01322-1.6939 0.7651-2.0493l0.04852-0.02214c0.18299-0.082821 0.37412-0.12894 0.56404-0.13889zm-7.5721 2.6453c0.72767-0.038136 1.4027 0.44013 1.5849 1.1711 0.20691 0.8277-0.29978 1.666-1.1305 1.8714-0.0082034 0.0014613-0.015321 0.0038971-0.022492 0.0053044-0.0081495 0.0024899-0.018363 0.005088-0.027599 0.0066034-9.783e-4 0.0010827-0.0030426 0.0011909-0.005053 0.0023277-0.098117 0.023708-0.19672 0.038158-0.29374 0.043243-0.72767 0.038136-1.4028-0.44116-1.5829-1.1723-0.20588-0.82775 0.30184-1.6661 1.1325-1.8715l0.051069-0.01299c0.098117-0.023708 0.19672-0.038158 0.29374-0.043243zm-7.9383 1.2071c0.8505-0.044573 1.5789 0.60314 1.6296 1.4514 0.050827 0.85135-0.60118 1.5828-1.4565 1.6338l-0.03819 0.0020015-0.0289 0.0015146c-0.84947 0.044519-1.5779-0.6032-1.6276-1.4525-0.048763-0.85145 0.60428-1.5829 1.4586-1.6328l0.062962-0.0032996zm-23.286-5.1486c0.27559-0.014443 0.55913 0.043928 0.8201 0.18496l0.046871 0.025392c0.75205 0.40719 1.0309 1.3446 0.62311 2.0941-0.2672 0.49052-0.76231 0.77947-1.2825 0.80674-0.27559 0.014443-0.55913-0.043928-0.81901-0.18399-0.0085268-0.0047102-0.017054-0.0094204-0.024548-0.014185-0.0020643 1.081e-4 -0.0010322 5.4e-5 -0.0021182-9.204e-4 -0.008473-0.0036817-0.015968-0.0084459-0.023462-0.01321-0.75303-0.40611-1.0309-1.3435-0.62099-2.0932 0.2672-0.49052 0.76236-0.77845 1.2826-0.80571zm-6.669-4.4528c0.36951-0.019365 0.74799 0.09282 1.0581 0.34267l0.041109 0.033945c0.6647 0.5376 0.76638 1.5101 0.22673 2.1737-0.28778 0.35442-0.6999 0.54826-1.1231 0.57044-0.36745 0.019257-0.74381-0.092008-1.0528-0.33986-0.017323-0.014563-0.03242-0.026149-0.049744-0.040712-0.66269-0.53874-0.76328-1.5102-0.22353-2.1718 0.28789-0.35236 0.70001-0.5462 1.1232-0.56838zm-5.7394-5.5948c0.46654-0.02445 0.93782 0.16023 1.2642 0.54228l0.034153 0.039467c0.55465 0.6496 0.47537 1.6253-0.17667 2.1783-0.26954 0.22866-0.59438 0.34986-0.92158 0.367-0.46654 0.02445-0.93782-0.16023-1.2631-0.54131-0.0055381-0.0069297-0.012108-0.013805-0.0177-0.021764 0 0-0.0021182-9.204e-4 -0.0021721-0.001949-0.0010861-9.744e-4 -0.0021722-0.0019489-0.0032582-0.0029234-0.0055382-0.0069297-0.0099903-0.012885-0.015528-0.019814-0.55258-0.64971-0.47212-1.6224 0.17999-2.1744 0.26954-0.22866 0.59449-0.3478 0.92169-0.36495zm-4.6085-6.5493c0.56666-0.029697 1.128 0.2534 1.4286 0.77605l0.026219 0.046071c0.42489 0.74098 0.16804 1.6858-0.57565 2.1095-0.2181 0.12385-0.45368 0.19087-0.68798 0.20314-0.56562 0.029643-1.1259-0.25248-1.4265-0.77615-0.0078181-0.010936-0.01368-0.024037-0.02052-0.036056-0.0010861-9.745e-4 -0.0010322 5.41e-5 -0.0010861-9.745e-4 -0.0011399-0.0020031-0.0011938-0.0030316-0.0022799-0.0040061-0.00114-0.0020031-0.0044521-0.0059552-0.005646-0.0089869-0.42385-0.74103-0.16587-1.6839 0.57788-2.1065 0.21707-0.1238 0.4527-0.18978 0.687-0.20206zm-3.3128-7.2825c0.67297-0.035269 1.3153 0.37251 1.5469 1.038l0.017146 0.050672c0.28031 0.80631-0.14866 1.6859-0.95781 1.9666-0.14131 0.048663-0.28479 0.075779-0.42826 0.083298-0.66987 0.035106-1.3101-0.37072-1.5425-1.0331-0.0049911-0.016241-0.011014-0.032428-0.017092-0.049644-0.0011938-0.0030317-0.0013017-0.0050889-0.0024955-0.0081205-0.28031-0.80631 0.14866-1.6859 0.95895-1.9646 0.14028-0.048608 0.28376-0.075725 0.42517-0.083136zm-1.9007-7.7701c0.7896-0.041381 1.495 0.52193 1.6132 1.3171l0.0079639 0.053216c0.12596 0.84328-0.45904 1.6289-1.3063 1.7548-0.049274 0.0077394-0.099742 0.012447-0.14929 0.015044-0.78857 0.041327-1.4928-0.51999-1.611-1.3142-0.0017329-0.013318-0.0045519-0.02761-0.006231-0.039899-0.0014095-0.007146-0.001679-0.012289-0.0031424-0.020464-0.12281-0.84242 0.46127-1.626 1.3065-1.7507 0.050306-0.0077935 0.099742-0.012447 0.14825-0.01499zm-0.44672-7.9907c0.046447-0.0024342 0.09197-0.0027572 0.13863-0.001077 0.8565 0.030406 1.5254 0.74622 1.4945 1.5988l-0.0013255 0.053703c-0.029172 0.80603-0.67349 1.4473-1.4683 1.489-0.045415 0.0023801-0.090938 0.002703-0.13657 9.688e-4 -0.85541-0.029431-1.5253-0.74519-1.4944-1.5977 6.18e-5 -0.018569 0.0012098-0.036163 0.0023038-0.054786l-1.078e-4 -0.0020572c0.029172-0.80603 0.67256-1.4452 1.4653-1.4867zm1.0332-7.9331c0.13934-0.0073026 0.28069 0.0038553 0.42316 0.036614 0.83574 0.18724 1.3594 1.0148 1.1721 1.8467l-0.011809 0.051158c-0.1563 0.69099-0.75426 1.17-1.4324 1.2055-0.13831 0.0072485-0.27971-0.004938-0.42104-0.035693-0.83362-0.18632-1.358-1.0087-1.1738-1.8394 0.0017948-0.0052511 0.0034279-0.013588 0.0041905-0.018785 0.0017409-0.0062797 0.0025035-0.011477 0.0042983-0.016728 0.0025574-0.010448 0.0041366-0.019814 0.0076723-0.031344 0.15749-0.68796 0.75361-1.1627 1.4276-1.198zm2.4912-7.6042c0.2312-0.012117 0.46825 0.028062 0.6948 0.12449 0.78581 0.34044 1.148 1.2487 0.80826 2.0328l-0.02126 0.048559c-0.24093 0.55721-0.77453 0.90182-1.3443 0.93168-0.2312 0.012117-0.46722-0.028116-0.69376-0.12454-0.78462-0.33741-1.1467-1.2436-0.81098-2.0255 0.0046757-0.0095278 0.0083192-0.019002 0.012017-0.027446 0.0019565-0.0021654 0.0017947-0.0052512 0.0027191-0.0073624l0.012016-0.027447c0.24213-0.55418 0.77278-0.89554 1.3405-0.92529zm15.074-18.374c0.51711-0.027101 1.0354 0.20462 1.3531 0.65933 0.48998 0.6994 0.31695 1.6636-0.38505 2.1521l-0.042928 0.030098c-0.2467 0.17074-0.52547 0.2627-0.80518 0.27736-0.51711 0.027101-1.0364-0.20457-1.3541-0.65824-0.49107-0.70038-0.31896-1.6624 0.38304-2.151 0.0039669-0.0033021 0.0069556-0.0055216 0.0099442-0.0077411 9.783e-4 -0.0010826 0.0010322-5.41e-5 0.0020105-0.0011367 9.782e-4 -0.0010827 9.782e-4 -0.0010827 0.0020104-0.0011368 0.013041-0.0079033 0.024942-0.01781 0.037928-0.026742 0.24577-0.16862 0.52258-0.25842 0.7992-0.27292zm6.9833-3.946c0.6193-0.032456 1.2241 0.31025 1.4935 0.90776 0.35126 0.77784 0.0038764 1.6934-0.77678 2.0437l-0.04852 0.02214c-0.18098 0.081684-0.36918 0.12455-0.556 0.13434-0.62033 0.03251-1.224-0.30922-1.4955-0.90765-0.35224-0.77676-0.0048008-1.6913 0.7758-2.0426 0.0080956-0.0035186 0.016191-0.0070371 0.024287-0.010556 9.782e-4 -0.0010827 0.0030426-0.0011908 0.0040208-0.0022735l0.023255-0.010502c0.18104-0.080655 0.36918-0.12455 0.556-0.13434zm7.5957-2.5898c0.73077-0.038298 1.4072 0.44609 1.5843 1.1794 0.20082 0.83008-0.31119 1.6655-1.1432 1.8659l-0.052155 0.012016c-0.095021 0.023545-0.19058 0.036805-0.28451 0.041727-0.73077 0.038298-1.4082-0.44603-1.5874-1.1803-0.2018-0.82899 0.31026-1.6634 1.1433-1.8639 0.0010322-5.41e-5 9.783e-4 -0.0010827 0.0020104-0.0011368 0.0092356-0.0015154 0.018417-0.0040595 0.026567-0.0065494 0.0092356-0.0015154 0.017385-0.0040053 0.025535-0.0064953 0.096107-0.022571 0.19063-0.035776 0.28559-0.040753zm7.9434-1.1486 0.0010322-5.41e-5c0.85463-0.044789 1.5834 0.6091 1.628 1.4608s-0.61172 1.5792-1.4673 1.6251l-0.053672 0.0028129c-0.85463 0.044789-1.5844-0.60904-1.6301-1.4607-0.04572-0.85265 0.6096-1.5801 1.4653-1.6249l0.056769-0.0029751z"/>
</svg>
