<svg xmlns="http://www.w3.org/2000/svg" viewBox="0 0 110 110" fill="#fff">
    <g transform="translate(7 6.6311)">
        <path d="m46.084 13.172 0.63207-1.2405c0.29902-0.58687 0.62093-1.1544 0.96408-1.7022 0.42871-0.069967 0.88274-0.0089642 1.2994 0.20336l11.074 5.6427c1.041 0.5304 1.4549 1.8042 0.92446 2.8452-0.5304 1.041-1.8042 1.4549-2.8452 0.92446l-11.074-5.6427c-0.4516-0.2301-0.78519-0.60013-0.97485-1.0304zm-3.7509 7.3616 1.5901-3.1207c0.40592-0.05115 0.83096 0.014674 1.223 0.21441l11.074 5.6427c1.041 0.5304 1.4549 1.8042 0.92446 2.8452-0.5304 1.041-1.8042 1.4549-2.8452 0.92446l-11.074-5.6427c-0.39201-0.19974-0.69509-0.50491-0.89231-0.86337zm-3.7424 7.345 1.6742-3.2858c0.35166-0.014874 0.71188 0.057948 1.0478 0.22913l11.074 5.6427c1.041 0.5304 1.4549 1.8042 0.92446 2.8452-0.5304 1.041-1.8042 1.4549-2.8452 0.92446l-11.074-5.6427c-0.33596-0.17118-0.60661-0.4198-0.80127-0.71304zm-3.6733 7.4058c0.24463-0.61024 0.51879-1.2148 0.82304-1.8119l0.85878-1.6855c0.29747 0.011118 0.59732 0.085515 0.88 0.22955l11.074 5.6427c1.041 0.5304 1.4549 1.8042 0.92446 2.8452s-1.8042 1.4549-2.8452 0.92446l-11.074-5.6427c-0.25191-0.12836-0.4671-0.30025-0.64107-0.50185zm51.488-5.6771c-0.22974 0.56162-0.4846 1.1183-0.76503 1.6687l-0.57584 1.1301c-0.50793 0.15746-1.0753 0.12474-1.5866-0.13575l-11.074-5.6427c-1.041-0.5304-1.4549-1.8042-0.92446-2.8452s1.8042-1.4549 2.8452-0.92446l11.074 5.6427c0.47807 0.24359 0.82388 0.64399 1.0067 1.1066zm-3.7379 7.5032-1.2302 2.4144c-0.55676 0.23798-1.2112 0.23645-1.7928-0.059932l-11.074-5.6427c-1.041-0.5304-1.4549-1.8042-0.92446-2.8452s1.8042-1.4549 2.8452-0.92446l11.074 5.6427c0.58168 0.29638 0.96757 0.82491 1.1023 1.4152zm-3.7921 7.4425-1.0467 2.0542c-0.5993 0.34503-1.3556 0.38969-2.0177 0.052335l-11.074-5.6427c-1.041-0.5304-1.4549-1.8042-0.92446-2.8452 0.5304-1.041 1.8042-1.4549 2.8452-0.92446l11.074 5.6427c0.66209 0.33735 1.0705 0.97545 1.1436 1.6631zm-3.8234 7.5038-0.3873 0.76013c-0.14511 0.28479-0.2956 0.56503-0.4513 0.84066-0.62574 0.47205-1.4905 0.57641-2.2359 0.19663l-11.074-5.6427c-1.041-0.5304-1.4549-1.8042-0.92446-2.8452 0.5304-1.041 1.8042-1.4549 2.8452-0.92446l11.074 5.6427c0.76052 0.3875 1.1863 1.1718 1.1537 1.9722z"/>
        <path d="m39.025 58.073c-5.9213-6.5261-7.5219-16.283-3.2839-24.601l10.976-21.541c5.4767-10.749 18.63-15.022 29.379-9.5457s15.022 18.63 9.5457 29.379l-10.976 21.541c-4.5869 9.0022-14.558 13.463-23.992 11.457l-4.1086 6.9807c-0.055314 0.36117-0.13698 0.71368-0.24297 1.0556l1.8979 24.774h-16.703l1.0069-24.095c-0.37053-0.87712-0.57548-1.8407-0.57548-2.8516 0-2.8185 1.5933-5.2699 3.9269-6.5026l3.15-6.0494zm1.6363 1.6213-1.8741 3.5991c0.16954-0.011728 0.34065-0.017689 0.51313-0.017689 3.1478 0 5.8395 1.9881 6.8846 4.7755l2.2839-3.8805c-1.0771-0.3505-2.1408-0.78951-3.182-1.32-1.7102-0.87137-3.2564-1.9371-4.6256-3.1565zm3.751 16.207c-1.3237 1.2828-3.1271 2.0732-5.112 2.0732-1.781 0-3.4158-0.63562-4.6893-1.6921l-0.78174 19.09h11.986l-1.4029-19.471zm0.037392-5.2761c0-2.8397-2.3124-5.1494-5.1494-5.1494-2.8397 0-5.1521 2.3097-5.1521 5.1494s2.3124 5.1494 5.1521 5.1494c2.8369 0 5.1494-2.3097 5.1494-5.1494zm30.647-66.28c-9.6661-4.9251-21.495-1.0818-26.42 8.5843l-10.976 21.541c-4.9251 9.6661-1.0818 21.495 8.5843 26.42 9.6661 4.9251 21.495 1.0818 26.42-8.5843l10.976-21.541c4.9251-9.6661 1.0818-21.495-8.5843-26.42zm4.9519 68.368c-1.4387 1.4376-4.2139 2-6.0918 2.2831-0.30212 0.045552-0.30509 0.18895-0.0048299 0.23419 1.8779 0.28292 4.6567 0.84513 6.0966 2.285 1.4345 1.4345 1.9975 5.6333 2.2805 7.9142 0.046252 0.3728 0.192 0.37154 0.23849-0.0021869 0.28383-2.2814 0.84695-6.478 2.281-7.9121 1.4218-1.4218 4.1491-1.9879 6.0254-2.2742 0.32769-0.050015 0.30999-0.20747-0.028839-0.25946-1.8754-0.28776-4.582-0.8551-5.9966-2.2686-1.4228-1.4228-1.9883-5.5651-2.2743-7.8589-0.04947-0.39679-0.20242-0.4002-0.25143-0.005939-0.28501 2.2926-0.85023 6.4408-2.2743 7.8649zm0.091086-8.1363c0.036709-0.29528 0.10436-0.5733 0.2298-0.85221 0.34531-0.76775 0.98129-1.396 2.1298-1.3695 1.1105 0.025668 1.7042 0.63894 2.0343 1.3865 0.12119 0.27443 0.18755 0.54904 0.22386 0.84031 0.43713 3.5061 1.0136 5.9422 1.6463 6.5749 0.73865 0.73813 2.4368 1.2915 4.7752 1.6503 1.0817 0.16598 1.9561 0.61822 2.1171 2.061 0.11758 1.0534-0.42403 1.81-1.14 2.2236-0.31026 0.17926-0.62236 0.27422-0.95004 0.32423-2.353 0.35914-4.0596 0.91292-4.8017 1.6551-0.63839 0.63839-1.2122 3.0815-1.6535 6.628-0.035913 0.28867-0.10228 0.56171-0.22481 0.83604-0.3344 0.74868-0.94141 1.3633-2.058 1.3733-1.1314 0.010141-1.7549-0.61039-2.0951-1.367-0.12417-0.27615-0.191-0.55058-0.22702-0.84086-0.43959-3.5432-1.0142-5.9908-1.6529-6.6295-0.75092-0.75092-2.4785-1.3051-4.8687-1.6652-0.30957-0.046637-0.60681-0.13496-0.9026-0.29799-0.67799-0.37368-1.2133-1.0395-1.1927-2.0399 0.032446-1.5702 0.97111-2.077 2.0998-2.2472 2.3876-0.35998 4.1139-0.91391 4.8644-1.6636 0.63383-0.63437 1.2107-3.0751 1.6464-6.5804zm-67.762-47.155c-2.3166 2.315-6.7855 3.2205-9.8093 3.6764-0.48649 0.073351-0.49128 0.30427-0.0077774 0.37711 3.024 0.45557 7.4985 1.3609 9.8171 3.6795 2.3099 2.3099 3.2165 9.0711 3.6722 12.744 0.074477 0.6003 0.30917 0.59828 0.38404-0.0035213 0.45704-3.6737 1.3638-10.431 3.673-12.74 2.2895-2.2895 6.6811-3.201 9.7025-3.6621 0.52767-0.080537 0.49917-0.33408-0.046439-0.4178-3.0198-0.46336-7.3783-1.3769-9.6561-3.6531-2.2911-2.2911-3.2017-8.9613-3.6622-12.655-0.07966-0.63894-0.32595-0.64442-0.40487-0.0095632-0.45894 3.6916-1.3691 10.371-3.6622 12.664zm1.479-12.936c0.043927-0.35334 0.12273-0.67723 0.26215-0.9872 0.35854-0.79716 1.0099-1.4406 2.174-1.4137 1.1262 0.02603 1.7352 0.6552 2.0786 1.4328 0.1352 0.30615 0.21277 0.62717 0.25637 0.97687 0.75257 6.0362 1.6989 10.036 3.0342 11.371 1.4593 1.4583 4.395 2.4149 8.4346 3.0348 1.1798 0.18104 2.1136 0.66401 2.2785 2.1406 0.11938 1.0696-0.43355 1.8419-1.173 2.2692-0.3351 0.19361-0.68479 0.30001-1.0607 0.35739-4.0643 0.62034-7.0131 1.5772-8.4788 3.0429-1.345 1.345-2.2858 5.3505-3.0454 11.456-0.042758 0.3437-0.11973 0.66038-0.25555 0.96446-0.34698 0.77684-0.9686 1.4063-2.1001 1.4164-1.1463 0.010275-1.7844-0.62479-2.1372-1.4094-0.13744-0.30566-0.21485-0.62353-0.25768-0.9687-0.75684-6.1003-1.699-10.114-3.0446-11.459-1.4817-1.4817-4.4625-2.438-8.5892-3.0597-0.35377-0.053297-0.68594-0.152-1.0054-0.32806-0.70037-0.38601-1.2473-1.0661-1.2263-2.0812 0.020411-0.98776 0.56274-1.6298 1.2475-1.9995 0.31478-0.16996 0.64277-0.26658 0.99167-0.31919 4.1223-0.62154 7.1012-1.5774 8.582-3.0569 1.3369-1.3373 2.284-5.3446 3.0344-11.38zm6.4539 49.707c-1.4387 1.4376-4.2139 2-6.0918 2.2831-0.30212 0.045552-0.30509 0.18895-0.0048299 0.23419 1.8779 0.28292 4.6567 0.84513 6.0966 2.285 1.4345 1.4345 1.9975 5.6333 2.2805 7.9142 0.046252 0.3728 0.192 0.37154 0.23849-0.0021868 0.28383-2.2814 0.84695-6.478 2.281-7.9121 1.4218-1.4218 4.1491-1.9879 6.0254-2.2742 0.32769-0.050015 0.30999-0.20747-0.028839-0.25946-1.8754-0.28776-4.582-0.8551-5.9966-2.2687-1.4228-1.4228-1.9883-5.5651-2.2743-7.8589-0.04947-0.39679-0.20242-0.4002-0.25143-0.0059389-0.28501 2.2926-0.85023 6.4408-2.2743 7.8649zm0.091086-8.1363c0.036709-0.29528 0.10436-0.5733 0.2298-0.85221 0.34531-0.76775 0.98129-1.396 2.1298-1.3695 1.1105 0.025668 1.7042 0.63894 2.0343 1.3865 0.12119 0.27443 0.18755 0.54904 0.22386 0.84031 0.43713 3.5061 1.0136 5.9422 1.6463 6.5749 0.73865 0.73813 2.4368 1.2915 4.7752 1.6503 1.0817 0.16598 1.9561 0.61822 2.1171 2.061 0.11758 1.0534-0.42403 1.81-1.14 2.2236-0.31026 0.17926-0.62236 0.27422-0.95004 0.32423-2.353 0.35914-4.0596 0.91292-4.8017 1.6551-0.63839 0.63839-1.2122 3.0815-1.6535 6.628-0.035913 0.28867-0.10228 0.56171-0.22481 0.83604-0.3344 0.74868-0.94141 1.3633-2.058 1.3733-1.1314 0.010141-1.7549-0.61039-2.0951-1.367-0.12417-0.27615-0.191-0.55058-0.22702-0.84086-0.43959-3.5432-1.0142-5.9908-1.6529-6.6295-0.75092-0.75092-2.4785-1.3051-4.8687-1.6652-0.30957-0.046637-0.60681-0.13496-0.9026-0.29799-0.67799-0.37368-1.2133-1.0395-1.1927-2.0399 0.032446-1.5702 0.97111-2.077 2.0998-2.2472 2.3876-0.35998 4.1139-0.91391 4.8644-1.6636 0.63383-0.63437 1.2107-3.0751 1.6464-6.5804zm69.443-13.683c0.66781-0.034998 1.3057 0.36683 1.5411 1.027 0.0026034 0.010178 0.0061851 0.019273 0.0098206 0.029396 0.0024417 0.007092 0.0060233 0.016187 0.0085728 0.025336 0.28541 0.80502-0.13823 1.6874-0.94624 1.9701-0.14327 0.050828-0.28979 0.079135-0.43533 0.086762-0.66884 0.035052-1.3089-0.36769-1.5433-1.0289l-0.017146-0.050672c-0.28536-0.80399 0.13823-1.6874 0.94619-1.9711 0.1443-0.050882 0.29077-0.080218 0.4363-0.087845zm1.96 7.7556c0.78444-0.041111 1.4874 0.51614 1.6096 1.307 0.0029807 0.017378 0.0060693 0.036813 0.0091578 0.056248 0.13112 0.84301-0.44959 1.6315-1.2956 1.7615-0.052371 0.0079017-0.10485 0.013746-0.15646 0.016451-0.78548 0.041165-1.4895-0.51706-1.6128-1.3079l-0.0079101-0.052188c-0.13014-0.8441 0.44948-1.6336 1.2955-1.7646 0.053403-0.0079558 0.10588-0.0138 0.15852-0.016559zm0.49632 7.9891c0.042319-0.0022179 0.084745-0.0023785 0.12728-4.82e-4 0.85509 0.02326 1.5278 0.73269 1.5041 1.5838-5.47e-4 0.0093114-1.697e-4 0.016512-7.706e-4 0.024794-3.853e-4 0.012397-8.245e-4 0.023766-0.0012637 0.035134-0.023742 0.8109-0.66893 1.4553-1.4658 1.4971-0.043351 0.0022719-0.085777 0.0024326-0.12924 0.0026473-0.85629-0.026292-1.5291-0.73778-1.5045-1.592l0.0024655-0.0517c0.023742-0.8109 0.66991-1.4564 1.4677-1.4992zm-0.97289 7.9392c0.13418-0.0070321 0.27346 0.004234 0.41165 0.034123 0.83438 0.18112 1.3638 1.0002 1.1849 1.8326-0.0026653 0.008391-0.0044062 0.014671-0.0059853 0.024036 1.078e-4 0.0020572-7.627e-4 0.0051971-0.001687 0.0073083l1.078e-4 0.0020572c-0.0015792 0.0093655-0.0042444 0.017756-0.0058775 0.026093-0.15298 0.69494-0.75177 1.1781-1.432 1.2137-0.13521 0.0070862-0.27449-0.0041799-0.41371-0.034015-0.83656-0.18307-1.3662-1.0073-1.1832-1.8409l0.010831-0.050076c0.15293-0.69597 0.75378-1.1792 1.435-1.2149zm-2.4323 7.6217c0.22811-0.011955 0.46195 0.026329 0.68529 0.12086 0.78744 0.3321 1.1557 1.2369 0.82218 2.0218-0.0082113 0.021059-0.016477 0.041089-0.02572 0.062201-0.24093 0.55721-0.77241 0.90274-1.3432 0.93266-0.22811 0.011955-0.46195-0.026329-0.68638-0.12183-0.78858-0.33411-1.1559-1.2411-0.82038-2.0271l0.020282-0.047476c0.23958-0.56333 0.77507-0.91113 1.3479-0.94115zm-14.946 18.481c0.51298-0.026884 1.03 0.20181 1.3485 0.65028 0.49498 0.69605 0.32923 1.6609-0.37049 2.1534-0.01603 0.010123-0.030973 0.02122-0.045916 0.032317-0.24855 0.17496-0.53041 0.26709-0.81219 0.28185-0.51402 0.026938-1.03-0.20181-1.3486-0.65131-0.494-0.69713-0.32722-1.662 0.37255-2.1535l0.042874-0.031126c0.24855-0.17496 0.53041-0.26709 0.81322-0.28191zm-6.9527 3.997c0.61723-0.032348 1.2188 0.30744 1.492 0.89959 0.35735 0.77546 0.015176 1.6918-0.76309 2.0482-0.018202 0.0081738-0.034339 0.016239-0.051562 0.02333-0.18397 0.083903-0.37412 0.12894-0.56404 0.13889-0.6162 0.032294-1.2187-0.30641-1.491-0.89964-0.35534-0.7766-0.01322-1.6939 0.7651-2.0493l0.04852-0.02214c0.18299-0.082821 0.37412-0.12894 0.56404-0.13889zm-7.5721 2.6453c0.72767-0.038136 1.4027 0.44013 1.5849 1.1711 0.20691 0.8277-0.29978 1.666-1.1305 1.8714-0.0082034 0.0014614-0.015321 0.0038972-0.022492 0.0053044-0.0081495 0.00249-0.018363 0.0050881-0.027599 0.0066035-9.783e-4 0.0010827-0.0030426 0.0011909-0.005053 0.0023276-0.098117 0.023708-0.19672 0.038158-0.29374 0.043243-0.72767 0.038136-1.4028-0.44116-1.5829-1.1723-0.20588-0.82775 0.30184-1.6661 1.1325-1.8715l0.051069-0.012991c0.098117-0.023708 0.19672-0.038158 0.29374-0.043243zm-7.9383 1.2071c0.8505-0.044573 1.5789 0.60314 1.6296 1.4514 0.050827 0.85135-0.60118 1.5828-1.4565 1.6338l-0.01445 7.573e-4 -0.05264 0.0027587c-0.84947 0.044519-1.5779-0.6032-1.6276-1.4525-0.048763-0.85145 0.60428-1.5829 1.4586-1.6328l0.062962-0.0032997zm-23.286-5.1486c0.27559-0.014443 0.55913 0.043928 0.8201 0.18496l0.046871 0.025392c0.75205 0.40719 1.0309 1.3446 0.62311 2.0941-0.2672 0.49052-0.76231 0.77947-1.2825 0.80674-0.27559 0.014443-0.55913-0.043928-0.81901-0.18399-0.0085268-0.0047102-0.017054-0.0094204-0.024548-0.014185-0.0020643 1.082e-4 -0.0010322 5.41e-5 -0.0021182-9.204e-4 -0.008473-0.0036816-0.015968-0.0084459-0.023462-0.01321-0.75303-0.40611-1.0309-1.3435-0.62099-2.0932 0.2672-0.49052 0.76236-0.77845 1.2826-0.80571zm-6.669-4.4528c0.36951-0.019365 0.74799 0.09282 1.0581 0.34267l0.041109 0.033945c0.6647 0.5376 0.76638 1.5101 0.22673 2.1737-0.28778 0.35442-0.6999 0.54826-1.1231 0.57044-0.36745 0.019257-0.74381-0.092008-1.0528-0.33986-0.017323-0.014563-0.03242-0.026149-0.049744-0.040712-0.66269-0.53874-0.76328-1.5102-0.22353-2.1718 0.28789-0.35236 0.70001-0.5462 1.1232-0.56838zm-5.7394-5.5948c0.46654-0.02445 0.93782 0.16023 1.2642 0.54228l0.034153 0.039467c0.55465 0.6496 0.47537 1.6253-0.17667 2.1783-0.26954 0.22866-0.59438 0.34986-0.92158 0.367-0.46654 0.02445-0.93782-0.16023-1.2631-0.54131-0.0055381-0.0069297-0.012108-0.013805-0.0177-0.021764 0 0-0.0021182-9.204e-4 -0.0021721-0.001949-0.0010861-9.745e-4 -0.0021722-0.001949-0.0032582-0.0029235-0.0055382-0.0069296-0.0099903-0.012885-0.015528-0.019814-0.55258-0.64971-0.47212-1.6224 0.17999-2.1744 0.26954-0.22866 0.59449-0.3478 0.92169-0.36495zm-4.6085-6.5493c0.56666-0.029697 1.128 0.2534 1.4286 0.77605l0.026219 0.046071c0.42489 0.74098 0.16804 1.6858-0.57565 2.1095-0.2181 0.12385-0.45368 0.19087-0.68798 0.20314-0.56562 0.029643-1.1259-0.25248-1.4265-0.77615-0.0078181-0.010936-0.01368-0.024037-0.02052-0.036056-0.0010861-9.745e-4 -0.0010322 5.41e-5 -0.0010861-9.745e-4 -0.00114-0.0020031-0.0011939-0.0030317-0.00228-0.0040062-0.00114-0.0020031-0.0044521-0.0059551-0.005646-0.0089868-0.42385-0.74103-0.16587-1.6839 0.57787-2.1065 0.21707-0.1238 0.4527-0.18978 0.687-0.20206zm-3.3128-7.2825c0.67297-0.035269 1.3153 0.37251 1.5469 1.038l0.017146 0.050672c0.28031 0.80631-0.14866 1.6859-0.95781 1.9666-0.14131 0.048662-0.28479 0.075779-0.42826 0.083298-0.66987 0.035107-1.3101-0.37072-1.5425-1.0331-0.0049912-0.016241-0.011014-0.032428-0.017092-0.049644-0.0011939-0.0030316-0.0013017-0.0050888-0.0024956-0.0081205-0.28031-0.80631 0.14866-1.6859 0.95895-1.9646 0.14028-0.048608 0.28376-0.075725 0.42517-0.083135zm-1.9007-7.7701c0.7896-0.041381 1.495 0.52193 1.6132 1.3171l0.0079639 0.053216c0.12596 0.84328-0.45904 1.6289-1.3063 1.7548-0.049274 0.0077394-0.099742 0.012447-0.14929 0.015044-0.78857 0.041327-1.4928-0.51999-1.611-1.3142-0.0017329-0.013318-0.004552-0.02761-0.006231-0.039899-0.0014095-0.007146-0.001679-0.012289-0.0031424-0.020464-0.12281-0.84242 0.46127-1.626 1.3065-1.7507 0.050306-0.0077936 0.099742-0.012447 0.14825-0.01499zm-0.44672-7.9907c0.046447-0.0024342 0.09197-0.0027571 0.13863-0.001077 0.8565 0.030406 1.5254 0.74622 1.4945 1.5988l-0.0013255 0.053703c-0.029172 0.80603-0.67349 1.4473-1.4683 1.489-0.045415 0.0023801-0.090938 0.002703-0.13657 9.688e-4 -0.85541-0.029431-1.5253-0.74519-1.4944-1.5977 6.185e-5 -0.018569 0.0012098-0.036163 0.0023038-0.054786l-1.0781e-4 -0.0020572c0.029172-0.80603 0.67256-1.4452 1.4653-1.4867zm1.0332-7.9331c0.13934-0.0073026 0.28069 0.0038553 0.42316 0.036614 0.83574 0.18724 1.3594 1.0148 1.1721 1.8467l-0.011809 0.051158c-0.1563 0.69099-0.75426 1.17-1.4324 1.2055-0.13831 0.0072485-0.27971-0.004938-0.42104-0.035693-0.83362-0.18632-1.358-1.0087-1.1738-1.8394 0.0017948-0.0052511 0.0034279-0.013588 0.0041905-0.018785 0.0017409-0.0062798 0.0025035-0.011477 0.0042983-0.016728 0.0025574-0.010448 0.0041366-0.019814 0.0076723-0.031344 0.15749-0.68796 0.75361-1.1627 1.4276-1.198zm2.4912-7.6042c0.2312-0.012117 0.46825 0.028062 0.6948 0.12449 0.78581 0.34044 1.148 1.2487 0.80826 2.0328l-0.02126 0.048559c-0.24093 0.55721-0.77453 0.90182-1.3443 0.93168-0.2312 0.012117-0.46722-0.028116-0.69376-0.12454-0.78462-0.33741-1.1467-1.2436-0.81098-2.0255 0.0046757-0.0095277 0.0083192-0.019001 0.012017-0.027446 0.0019565-0.0021654 0.0017948-0.0052511 0.0027192-0.0073624l0.012017-0.027446c0.24213-0.55418 0.77278-0.89554 1.3405-0.92529zm15.074-18.374c0.51711-0.027101 1.0354 0.20462 1.3531 0.65933 0.48998 0.6994 0.31695 1.6636-0.38505 2.1521l-0.042928 0.030098c-0.2467 0.17074-0.52547 0.2627-0.80518 0.27736-0.51711 0.027101-1.0364-0.20457-1.3541-0.65824-0.49107-0.70038-0.31896-1.6624 0.38304-2.151 0.0039669-0.0033022 0.0069556-0.0055216 0.0099442-0.0077411 9.783e-4 -0.0010827 0.0010322-5.41e-5 0.0020105-0.0011368 9.782e-4 -0.0010827 9.782e-4 -0.0010827 0.0020104-0.0011367 0.013041-0.0079034 0.024942-0.01781 0.037928-0.026742 0.24577-0.16862 0.52258-0.25842 0.7992-0.27292zm6.9833-3.946c0.6193-0.032456 1.2241 0.31025 1.4935 0.90776 0.35126 0.77784 0.0038764 1.6934-0.77678 2.0437l-0.04852 0.02214c-0.18098 0.081684-0.36918 0.12455-0.556 0.13434-0.62033 0.03251-1.224-0.30922-1.4955-0.90765-0.35224-0.77676-0.0048008-1.6913 0.7758-2.0426 0.0080956-0.0035185 0.016191-0.007037 0.024287-0.010556 9.782e-4 -0.0010827 0.0030426-0.0011909 0.0040208-0.0022736l0.023255-0.010501c0.18104-0.080655 0.36918-0.12455 0.556-0.13434zm7.5957-2.5898c0.73077-0.038298 1.4072 0.44609 1.5843 1.1794 0.20082 0.83008-0.31119 1.6655-1.1432 1.8659l-0.052155 0.012016c-0.095021 0.023545-0.19058 0.036805-0.28451 0.041727-0.73077 0.038298-1.4082-0.44603-1.5874-1.1803-0.2018-0.82899 0.31026-1.6634 1.1433-1.8639 0.0010322-5.409e-5 9.783e-4 -0.0010827 0.0020104-0.0011368 0.0092356-0.0015154 0.018417-0.0040594 0.026567-0.0065494 0.0092356-0.0015154 0.017385-0.0040054 0.025535-0.0064953 0.096107-0.022571 0.19063-0.035776 0.28559-0.040753zm7.9434-1.1486 0.0010322-5.409e-5c0.85463-0.044789 1.5834 0.6091 1.628 1.4608s-0.61172 1.5792-1.4673 1.6251l-0.05264 0.0027588-0.0010322 5.409e-5c-0.85463 0.044789-1.5844-0.60904-1.6301-1.4607-0.04572-0.85265 0.6096-1.5801 1.4653-1.6249l0.056769-0.0029751z"/>
    </g>
</svg>
