<svg xmlns="http://www.w3.org/2000/svg" viewBox="0 0 110 110" fill="#fff">
    <path
        d="M42.3425289,89.4308578 L79.9221394,92.7186477 C83.7262629,93.0514654 87.0799162,90.2374161 87.4127339,86.4332926 L91.5810891,38.7887745 L101.118705,42.2601827 C103.565315,43.1506759 104.826797,45.8559327 103.936304,48.3025428 L85.1251957,99.985637 C84.2347024,102.432247 81.5294456,103.693729 79.0828355,102.803236 L42.3425289,89.4308578 Z M96.5821073,48.3688728 C97.012527,48.1001479 96.9573486,48.4251409 96.8493946,48.6708326 C96.7414406,48.9165243 96.115615,50.1399036 95.5180816,50.4780335 C95.8652515,50.5169364 96.170044,50.5841434 96.4324589,50.6796546 C96.8260814,50.8229215 97.2631431,51.113184 97.2631431,51.113184 C97.2631431,51.113184 97.0116342,50.4875108 97.3934983,48.8688701 C97.4551835,48.6073998 97.6186449,48.3207568 97.7826144,48.8058216 C97.9447974,49.3218634 98.0672801,49.7449147 98.5731624,50.023395 C99.5404158,50.5520313 100.821748,50.258293 101.259341,49.0560161 C101.573263,48.1935232 101.246874,46.9888627 100.346784,46.7376888 C100.288177,46.7205747 99.8293747,46.6574266 99.7510494,46.4902863 C99.6331397,46.2349419 99.9489372,46.1870031 100.12295,45.7653892 C100.515926,44.7508679 99.9859712,43.8737801 99.0841026,43.4812183 C98.1867004,43.1545906 97.1189307,43.5176256 96.7769447,44.5470158 C96.6362757,44.9812929 96.8487725,45.2215151 96.5957125,45.3418376 C96.4194325,45.4163092 96.0283095,45.1701097 95.9812572,45.1487671 C95.1261073,44.7610857 94.092429,45.4707222 93.7785073,46.3332151 C93.3409143,47.535492 94.1433924,48.5892568 95.2269879,48.8054871 C95.786538,48.9147925 96.1201117,48.6577321 96.5821073,48.3688728 Z M47.1379058,87.6419953 L79.0227945,82.0198291 C82.7834351,81.3567267 85.294486,77.7705744 84.6313836,74.0099338 L76.0776351,25.4992154 L85.7292021,26.3436181 C88.3229226,26.5705392 90.2415926,28.8571211 90.0146714,31.4508416 L85.2211056,86.24155 C84.9941844,88.8352705 82.7076026,90.7539405 80.1138821,90.5270194 L47.1379058,87.6419953 Z M84.266052,37.17959 L87.7284638,33.1324525 L85.0211856,28.5483732 L81.5679327,32.5934759 L84.266052,37.17959 Z M39.1142538,86.7475342 L73.6886041,70.6252499 C77.1494804,69.0114168 78.6468048,64.8975519 77.0329716,61.4366755 L56.9012373,18.264032 L67.4528645,16.4034954 C70.0169377,15.9513801 72.4620415,17.6634602 72.9141568,20.2275334 L82.4648065,74.3919598 C82.9169218,76.956033 81.2048417,79.4011368 78.6407685,79.8532521 L39.9518925,86.6751447 C39.6704196,86.724776 39.3903803,86.7483272 39.1142538,86.7475342 Z M70.8318648,21.0311924 C70.6377547,19.9303391 69.6529545,19.2212713 68.5758108,19.4112007 C67.9896374,19.5145589 67.5191941,20.2635899 67.2203437,20.7976977 C66.7553814,20.3982707 66.0549371,19.8556988 65.462198,19.9602147 C64.3945381,20.1484719 63.7109146,21.1517279 63.9050247,22.2525812 C64.14435,23.6098625 66.0875961,24.919062 68.1798317,26.2392248 C69.694003,24.2831551 71.0711901,22.3884737 70.8318648,21.0311924 Z M45.530153,10.2392568 C47.8898415,9.13891599 50.6947493,10.159819 51.7950901,12.5195074 L75.0390945,62.3664357 C76.1394353,64.7261241 75.1185323,67.531032 72.7588439,68.6313728 L37.1538951,85.2342331 C34.7942067,86.3345738 31.9892988,85.3136709 30.888958,82.9539824 L7.64495364,33.1070541 C6.54461285,30.7473657 7.56551583,27.9424578 9.92520426,26.8421171 L45.530153,10.2392568 Z M31.4588631,48.8284534 C30.4167878,56.5239957 34.9597546,61.1755796 39.8239724,59.2883535 C41.9465845,58.3867735 43.0946057,56.0719951 42.5277923,53.8365867 C42.3675223,53.1786373 42.7847427,53.1306212 42.7959681,53.1546941 C42.8071934,53.178767 42.8408696,53.2509857 42.9082218,53.3954231 C44.2501993,56.0668469 44.8421681,59.0523407 44.6210342,62.0337009 C46.2617493,60.6867647 48.2157937,59.7755789 50.302238,59.384512 C47.8762415,57.637529 45.9697307,55.2650162 44.7859079,52.5198437 C44.6736541,52.2791147 44.6736541,52.2791147 44.6736541,52.2791147 C44.6736541,52.2791147 44.9673953,51.9662967 45.3683942,52.5119922 C46.7164758,54.3830893 49.2276327,54.991565 51.2826718,53.9450742 C55.7587382,51.4768542 55.115581,45.0067593 48.4543289,40.9033375 C44.2559553,38.438059 39.8317412,36.3793605 35.2419378,34.7552784 C33.5357881,39.3152117 32.2690127,44.0276622 31.4588631,48.8284534 Z M43.4726384,17.6315808 C43.1424963,20.0696225 44.5817635,21.5433009 46.122807,20.9454047 C46.7952764,20.6597732 47.1589835,19.9264232 46.9794101,19.2182185 C46.9286346,19.0097721 47.0608151,18.99456 47.0643715,19.0021866 C47.0679278,19.0098132 47.0785968,19.032693 47.0999348,19.0784525 C47.5250896,19.9247921 47.7126326,20.870633 47.6425746,21.8151642 C48.1623732,21.3884384 48.7814383,21.0997636 49.4424493,20.9758689 C48.673864,20.4224034 48.0698581,19.6707624 47.6948086,18.8010583 C47.6592453,18.7247924 47.6592453,18.7247924 47.6592453,18.7247924 C47.6592453,18.7247924 47.7523061,18.6256878 47.8793474,18.7985708 C48.3064361,19.3913572 49.1020012,19.5841297 49.7530626,19.2525887 C51.1711351,18.4706265 50.967375,16.4208216 48.8570091,15.1208075 C47.5269132,14.3397772 46.1252683,13.6875565 44.6711626,13.1730274 C44.1306336,14.6176699 43.7293037,16.1106317 43.4726384,17.6315808 Z M32.8220027,78.4230419 C32.4918605,80.8610836 33.9311278,82.334762 35.4721713,81.7368658 C36.1446406,81.4512343 36.5083478,80.7178843 36.3287744,80.0096796 C36.2779989,79.8012333 36.4101794,79.7860211 36.4137357,79.7936477 C36.4172921,79.8012743 36.4279611,79.8241541 36.4492991,79.8699136 C36.8744539,80.7162532 37.0619968,81.6620941 36.9919389,82.6066253 C37.5117375,82.1798995 38.1308026,81.8912247 38.7918136,81.76733 C38.0232283,81.2138645 37.4192224,80.4622235 37.0441729,79.5925194 C37.0086095,79.5162535 37.0086095,79.5162535 37.0086095,79.5162535 C37.0086095,79.5162535 37.1016703,79.4171489 37.2287117,79.590032 C37.6558004,80.1828183 38.4513655,80.3755908 39.1024269,80.0440498 C40.5204993,79.2620876 40.3167393,77.2122827 38.2063734,75.9122686 C36.8762775,75.1312384 35.4746325,74.4790176 34.0205268,73.9644885 C33.4799978,75.409131 33.0786679,76.9020928 32.8220027,78.4230419 Z"
    />
</svg>
