<svg xmlns="http://www.w3.org/2000/svg" viewBox="0 0 110 110" fill="#fff">
    <g transform="translate(5.0016 7.5959)">
        <path d="m86.778 28.924 10.092 3.673c3.5884 1.3061 5.4385 5.2738 4.1325 8.8621l-18.811 51.683c-1.3061 3.5884-5.2738 5.4385-8.8621 4.1325l-36.916-13.437c-1.6385-0.59636-2.9146-1.7477-3.6933-3.1644 0.89737 0.56241 1.9378 0.9264 3.0653 1.025l1.5566 0.13619 36.74 13.372c2.4466 0.89049 5.1519-0.37099 6.0424-2.8176l18.811-51.683c0.89049-2.4466-0.37099-5.1519-2.8176-6.0424l-9.5376-3.4714 0.19851-2.2689z"/>
        <path d="m50.937 8.6039 11.132-1.9629c3.7606-0.6631 7.3468 1.8479 8.0099 5.6086l0.6014 3.4107 10.239 0.89578c3.8041 0.33282 6.6182 3.6865 6.2854 7.4906l-4.7936 54.791c-0.33282 3.8041-3.6865 6.6182-7.4906 6.2854l-39.136-3.424c-0.57252-0.050089-1.1226-0.1686-1.6429-0.34677-1.343 0.003474-2.6242-0.38588-3.7114-1.0754-2.6986 0.10428-5.3236-1.3877-6.5365-3.9887l-23.244-49.847c-1.6138-3.4609-0.11651-7.5747 3.3444-9.1886l35.605-16.603c3.4609-1.6138 7.5747-0.11651 9.1886 3.3444l2.1497 4.6101zm0.96256 2.0642 20.132 43.173c1.6138 3.4609 0.11651 7.5747-3.3444 9.1886l-34.574 16.122c0.27613 7.93e-4 0.55617-0.022758 0.83764-0.072389l38.689-6.8219c2.5641-0.45212 4.2762-2.8972 3.824-5.4613l-9.5506-54.164c-0.45212-2.5641-2.8972-4.2762-5.4613-3.824l-10.552 1.8605zm-9.7633 69.378 32.976 2.885c2.5937 0.22692 4.8803-1.6917 5.1072-4.2855l4.7936-54.791c0.22692-2.5937-1.6917-4.8803-4.2855-5.1072l-9.6516-0.8444 8.5537 48.511c0.6631 3.7606-1.8479 7.3468-5.6086 8.0099l-31.885 5.6222zm-1.6078-77.403-35.605 16.603c-2.3597 1.1003-3.3806 3.9052-2.2803 6.2649l23.244 49.847c1.1003 2.3597 3.9052 3.3806 6.2649 2.2803l35.605-16.603c2.3597-1.1003 3.3806-3.9052 2.2803-6.2649l-23.244-49.847c-1.1003-2.3597-3.9052-3.3806-6.2649-2.2803zm51.052 38.13c-0.462 0.28886-0.79557 0.54592-1.3551 0.43661-1.0836-0.21623-1.8861-1.27-1.4485-2.4723 0.31392-0.86249 1.3476-1.5721 2.2028-1.1844 0.047052 0.021343 0.43818 0.26754 0.61446 0.19307 0.25306-0.12032 0.040563-0.36054 0.18123-0.79482 0.34199-1.0294 1.4098-1.3924 2.3072-1.0658 0.90187 0.39256 1.4318 1.2696 1.0388 2.2842-0.17401 0.42161-0.48981 0.46955-0.3719 0.7249 0.078325 0.16714 0.53713 0.23029 0.59573 0.2474 0.90009 0.25117 1.2265 1.4558 0.91256 2.3183-0.43759 1.2023-1.7189 1.496-2.6862 0.96738-0.50588-0.27848-0.62836-0.70153-0.79055-1.2176-0.16397-0.48506-0.32743-0.19842-0.38912 0.063048-0.38186 1.6186-0.13036 2.2443-0.13036 2.2443s-0.43706-0.29026-0.83068-0.43353c-0.26242-0.095511-0.56721-0.16272-0.91438-0.20162 0.59753-0.33813 1.2234-1.5615 1.3313-1.8072s0.16313-0.57068-0.26729-0.30196zm-12.316-11.189-2.6981-4.5861 3.4533-4.0451 2.7073 4.5841-3.4624 4.0471zm-13.434-16.148c0.23933 1.3573-1.1379 3.252-2.652 5.208-2.0922-1.3202-4.0355-2.6294-4.2748-3.9866-0.19411-1.1009 0.48951-2.1041 1.5572-2.2924 0.59274-0.10452 1.2932 0.43806 1.7581 0.83748 0.29885-0.53411 0.76929-1.2831 1.3555-1.3865 1.0771-0.18993 2.0619 0.51914 2.2561 1.62zm-39.373 27.797c0.81015-4.8008 2.0769-9.5132 3.7831-14.073 4.5898 1.6241 9.014 3.6828 13.212 6.1481 6.6613 4.1034 7.3044 10.574 2.8283 13.042-2.055 1.0465-4.5662 0.43802-5.9143-1.4331-0.401-0.5457-0.69474-0.23288-0.69474-0.23288l0.11225 0.24073c1.1838 2.7452 3.0903 5.1177 5.5163 6.8647-2.0864 0.39107-4.0405 1.3023-5.6812 2.6492 0.22113-2.9814-0.37083-5.9669-1.7128-8.6383-0.067352-0.14444-0.10103-0.21666-0.11225-0.24073s-0.42845 0.023943-0.26818 0.68189c0.56681 2.2354-0.58121 4.5502-2.7038 5.4518-4.8642 1.8872-9.4072-2.7644-8.3651-10.46zm12.014-31.197c0.25667-1.5209 0.658-3.0139 1.1985-4.4586 1.4541 0.51453 2.8558 1.1667 4.1858 1.9478 2.1104 1.3 2.3141 3.3498 0.89605 4.1318-0.65106 0.33154-1.4466 0.13877-1.8737-0.45402-0.12704-0.17288-0.2201-0.073778-0.2201-0.073778l0.035563 0.076266c0.37505 0.8697 0.97906 1.6213 1.7476 2.1748-0.66101 0.12389-1.2801 0.41257-1.7999 0.8393 0.070058-0.94453-0.11748-1.8904-0.54264-2.7367-0.021338-0.04576-0.032007-0.068639-0.035563-0.076266-0.0035563-0.0076265-0.13574 0.0075856-0.084961 0.21603 0.17957 0.7082-0.18413 1.4416-0.8566 1.7272-1.541 0.5979-2.9803-0.87578-2.6502-3.3138zm-10.651 60.791c0.25667-1.5209 0.658-3.0139 1.1985-4.4586 1.4541 0.51453 2.8558 1.1667 4.1858 1.9478 2.1104 1.3 2.3141 3.3498 0.89605 4.1318-0.65106 0.33154-1.4466 0.13877-1.8737-0.45402-0.12704-0.17288-0.2201-0.073778-0.2201-0.073778l0.035563 0.076266c0.37505 0.8697 0.97906 1.6213 1.7476 2.1748-0.66101 0.12389-1.2801 0.41257-1.7999 0.8393 0.070058-0.94453-0.11748-1.8904-0.54264-2.7367-0.021338-0.04576-0.032007-0.068639-0.035563-0.076266-0.0035564-0.0076265-0.13574 0.0075856-0.084961 0.21603 0.17957 0.7082-0.18413 1.4416-0.8566 1.7272-1.541 0.5979-2.9803-0.87578-2.6502-3.3138z"/>
    </g>
</svg>
