<svg xmlns="http://www.w3.org/2000/svg" viewBox="0 0 110 110" fill="#fff">
    <path
        d="m55 101.2c-25.516 0-46.2-20.684-46.2-46.2s20.684-46.2 46.2-46.2 46.2 20.684 46.2 46.2-20.684 46.2-46.2 46.2zm0-2.2c24.301 0 44-19.699 44-44s-19.699-44-44-44-44 19.699-44 44 19.699 44 44 44zm19.711-77.127c0.11988 0.026939 5.8929 1.1503 8.5665 7.1805l-7.6762 4.8045c-2.0218-2.4407-4.228-3.5748-4.255-3.5829l3.3647-8.4022zm18.693 33.477c0.037714 0.11584 1.9504 5.6787-1.9342 11.009l-8.0008-4.2442c1.1031-2.9713 0.98192-5.4497 0.97653-5.4753l8.9585-1.289zm-30.47 27.705c3.1249-0.53069 5.21-1.8749 5.2302-1.8924l5.5952 7.1145c-0.082163 0.090245-3.9425 4.5284-10.502 3.8293l-0.32327-9.0514zm-28.403-7.3139c2.0204 2.442 4.228 3.5748 4.255 3.5829l-3.3647 8.4036c-0.11988-0.025592-5.8929-1.1503-8.5679-7.1805l7.6776-4.8059zm-15.868-32.5 7.9995 4.2469c-1.1018 2.97-0.98192 5.4484-0.97384 5.4753l-8.9598 1.2877c-0.037714-0.11718-1.9504-5.6787 1.9342-11.01zm17.711-21.917c0.082163-0.091592 3.9425-4.5284 10.501-3.8293l0.32327 9.0514c-3.1236 0.52935-5.2086 1.8736-5.2302 1.8924l-5.5938-7.1145zm-7.0542 5.2638 4.8059 7.6776c-2.4407 2.0204-3.5748 4.228-3.5829 4.2536l-8.4036-3.3633c0.025592-0.11988 1.1503-5.8929 7.1805-8.5679zm1.9779 7.3061-2.7427-4.3815c-0.86983 0.58668-1.6153 1.2831-2.2498 2.0718-0.59049 0.73405-1.0582 1.5145-1.4159 2.3025l4.777 1.9119c0.45635-0.60858 1.0128-1.2671 1.6314-1.9046zm-4.4863 28.775c0.53069 3.1236 1.8749 5.21 1.8938 5.2302l-7.1145 5.5952c-0.091592-0.082163-4.5284-3.9438-3.8293-10.502l9.0501-0.32327zm-0.90031 4.6287c-0.29934-0.70032-0.59161-1.5117-0.83453-2.3654l-5.1667 0.18455c0.1215 1.7794 0.69394 3.3852 1.5929 4.8177 0.11896 0.18955 0.24066 0.37087 0.36403 0.54375l4.0443-3.1806zm21.842 15.907c2.3881 0.88629 4.457 0.98192 5.1911 0.98192 0.18049 0 0.28016-0.0040408 0.28555-0.0053878l1.2877 8.9585c-0.057918 0.018857-1.4695 0.50376-3.533 0.50376-2.0729 0-4.8032-0.49029-7.4769-2.4393l4.2456-7.9995zm3.5581 3.0917c-0.77886-0.083818-1.6089-0.22926-2.4698-0.44948l-2.4195 4.5588c1.4685 0.71887 3.0037 1.0377 4.5625 1.0377 0.36592 0 0.7199-0.017919 1.0593-0.05076l-0.73253-5.0963zm28.28-15.214 8.4036 3.3647c-0.026939 0.11853-1.1503 5.8929-7.1805 8.5665l-4.8059-7.6776c2.4407-2.0204 3.5748-4.2267 3.5829-4.2536zm5.6529 4.6331-4.777-1.9126c-0.45696 0.60942-1.0135 1.2678-1.6309 1.9044l2.743 4.382c0.86993-0.58665 1.6154-1.2831 2.2499-2.0722 0.59001-0.73371 1.0574-1.5137 1.415-2.3016zm3.2994-39.607c0.090245 0.08351 4.5284 3.9438 3.8293 10.502l-9.0501 0.32327c-0.53069-3.1236-1.8749-5.21-1.8938-5.2302l7.1145-5.5952zm0.087909 3.5612c-0.11918-0.18989-0.24109-0.37152-0.3647-0.5447l-4.0436 3.1801c0.29934 0.70032 0.59161 1.5117 0.83453 2.3654l5.1667-0.18455c-0.12157-1.7787-0.69392-3.3839-1.5929-4.8162zm-29.482-23.71c2.0743 0 4.8045 0.49029 7.4769 2.4393l-4.2456 7.9995c-2.3868-0.88629-4.457-0.98192-5.1911-0.98192-0.17914 0-0.27882 0.0053877-0.28555 0.0067347l-1.2877-8.9598c0.059265-0.018857 1.4709-0.50376 3.533-0.50376zm2.1431 7.7964 2.4196-4.559c-1.4679-0.71868-3.003-1.0374-4.5627-1.0374-0.36589 0-0.71987 0.017943-1.0593 0.050831l0.7324 5.0961c0.77905 0.083791 1.6092 0.22921 2.47 0.44942zm-1.9247 40.717c1.4224 0.014816 2.7531 0.88763 3.2717 2.2992 0.67212 1.8264-0.26669 3.8455-2.0891 4.5163-1.8224 0.67078-3.8455-0.26265-4.5163-2.0878-0.54551-1.4884-0.025592-3.106 1.1732-4.0166l-1.5934-4.3304c-2.4662 0.44988-4.9648-0.68424-6.2431-2.8367l-3.9842 1.4641c0.08351 1.5018-0.8122 2.9458-2.2992 3.494-1.8238 0.67078-3.8455-0.26535-4.5163-2.0891-0.67078-1.8251 0.26535-3.8455 2.0878-4.5163 1.4129-0.51992 2.9417-0.071388 3.8738 1.0021l4.0624-1.4938c-0.39196-2.4474 0.77718-4.9029 2.9309-6.1474l-1.5396-4.1917c-1.5045 0.08351-2.9484-0.81355-3.494-2.3006-0.67078-1.8224 0.26535-3.8455 2.0891-4.5163 1.8224-0.66808 3.8455 0.26535 4.5163 2.0904 0.51722 1.4129 0.071388 2.939-1.0035 3.8724l1.5786 4.2913c2.3787-0.3502 4.756 0.76506 6.0087 2.8272l4.6362-1.7039c0.013469-1.4224 0.89033-2.7518 2.3019-3.2731 1.8264-0.66943 3.8469 0.26669 4.5163 2.0904 0.67078 1.8238-0.264 3.8482-2.0878 4.5176-1.4884 0.54686-3.1047 0.025592-4.0152-1.1745l-4.5607 1.6756c0.40812 2.3976-0.6802 4.8167-2.7343 6.1003l1.6298 4.4368z"
    />
</svg>
