<svg xmlns="http://www.w3.org/2000/svg" viewBox="0 0 110 110" fill="#fff">
    <path
        d="m55 99c-24.301 0-44-19.699-44-44s19.699-44 44-44 44 19.699 44 44-19.699 44-44 44zm19.711-77.127-3.3647 8.4022c0.026939 0.0080817 2.2332 1.1422 4.255 3.5829l7.6762-4.8045c-2.6737-6.0302-8.4467-7.1536-8.5665-7.1805zm18.693 33.477-8.9585 1.289c0.0053877 0.025592 0.12661 2.504-0.97653 5.4753l8.0008 4.2442c3.8846-5.3298 1.9719-10.893 1.9342-11.009zm-30.47 27.705 0.32327 9.0514c6.5596 0.69906 10.42-3.7391 10.502-3.8293l-5.5952-7.1145c-0.020204 0.01751-2.1053 1.3618-5.2302 1.8924zm-28.403-7.3139-7.6776 4.8059c2.675 6.0302 8.448 7.1549 8.5679 7.1805l3.3647-8.4036c-0.026939-0.0080817-2.2346-1.1409-4.255-3.5829zm-15.868-32.5c-3.8846 5.3312-1.9719 10.893-1.9342 11.01l8.9598-1.2877c-0.0080817-0.026939-0.12796-2.5053 0.97384-5.4753l-7.9995-4.2469zm17.711-21.917 5.5938 7.1145c0.021551-0.018857 2.1066-1.3631 5.2302-1.8924l-0.32327-9.0514c-6.5582-0.69906-10.419 3.7378-10.501 3.8293zm22.993 43.148-1.6298-4.4368c2.0541-1.2836 3.1424-3.7027 2.7343-6.1003l4.5607-1.6756c0.91053 1.2001 2.5269 1.7214 4.0152 1.1745 1.8238-0.66943 2.7585-2.6939 2.0878-4.5176-0.66943-1.8238-2.6898-2.7599-4.5163-2.0904-1.4116 0.52127-2.2884 1.8507-2.3019 3.2731l-4.6362 1.7039c-1.2527-2.0622-3.63-3.1774-6.0087-2.8272l-1.5786-4.2913c1.0749-0.93343 1.5207-2.4595 1.0035-3.8724-0.67078-1.8251-2.6939-2.7585-4.5163-2.0904-1.8238 0.67078-2.7599 2.6939-2.0891 4.5163 0.54551 1.487 1.9894 2.3841 3.494 2.3006l1.5396 4.1917c-2.1538 1.2446-3.3229 3.7-2.9309 6.1474l-4.0624 1.4938c-0.93208-1.0735-2.4609-1.522-3.8738-1.0021-1.8224 0.67078-2.7585 2.6912-2.0878 4.5163 0.67078 1.8238 2.6925 2.7599 4.5163 2.0891 1.487-0.5482 2.3827-1.9921 2.2992-3.494l3.9842-1.4641c1.2782 2.1524 3.7768 3.2865 6.2431 2.8367l1.5934 4.3304c-1.1988 0.91053-1.7187 2.5282-1.1732 4.0166 0.67078 1.8251 2.6939 2.7585 4.5163 2.0878 1.8224-0.67078 2.7612-2.6898 2.0891-4.5163-0.51857-1.4116-1.8493-2.2844-3.2717-2.2992zm-30.047-37.884c-6.0302 2.675-7.1549 8.448-7.1805 8.5679l8.4036 3.3633c0.0080817-0.025592 1.1422-2.2332 3.5829-4.2536l-4.8059-7.6776zm1.9779 7.3061c-0.61865 0.63756-1.1751 1.296-1.6314 1.9046l-4.777-1.9119c0.3577-0.788 0.8254-1.5684 1.4159-2.3025 0.63451-0.78878 1.38-1.4851 2.2498-2.0718l2.7427 4.3815zm-4.4863 28.775-9.0501 0.32327c-0.69906 6.5582 3.7378 10.42 3.8293 10.502l7.1145-5.5952c-0.018857-0.020204-1.3631-2.1066-1.8938-5.2302zm-0.90031 4.6287-4.0443 3.1806c-0.12337-0.17288-0.24507-0.3542-0.36403-0.54375-0.899-1.4324-1.4714-3.0383-1.5929-4.8177l5.1667-0.18455c0.24293 0.85365 0.53519 1.665 0.83453 2.3654zm21.842 15.907-4.2456 7.9995c2.6737 1.949 5.4039 2.4393 7.4769 2.4393 2.0635 0 3.4751-0.4849 3.533-0.50376l-1.2877-8.9585c-0.0053877 0.001347-0.10506 0.0053878-0.28555 0.0053878-0.73408 0-2.803-0.095633-5.1911-0.98192zm3.5581 3.0917 0.73253 5.0963c-0.3394 0.032841-0.69338 0.05076-1.0593 0.05076-1.5588 0-3.094-0.31879-4.5625-1.0377l2.4195-4.5588c0.86087 0.22022 1.6909 0.36566 2.4698 0.44948zm28.28-15.214c-0.0080817 0.026939-1.1422 2.2332-3.5829 4.2536l4.8059 7.6776c6.0302-2.6737 7.1536-8.448 7.1805-8.5665l-8.4036-3.3647zm5.6529 4.6331c-0.35762 0.78786-0.82497 1.5679-1.415 2.3016-0.6345 0.78902-1.38 1.4855-2.2499 2.0722l-2.743-4.382c0.61745-0.63653 1.174-1.2949 1.6309-1.9044l4.777 1.9126zm3.2994-39.607-7.1145 5.5952c0.018857 0.020204 1.3631 2.1066 1.8938 5.2302l9.0501-0.32327c0.69906-6.5582-3.7391-10.419-3.8293-10.502zm0.087909 3.5612c0.89893 1.4323 1.4713 3.0375 1.5929 4.8162l-5.1667 0.18455c-0.24293-0.85365-0.53519-1.665-0.83453-2.3654l4.0436-3.1801c0.12361 0.17319 0.24553 0.35482 0.3647 0.5447zm-29.482-23.71c-2.0622 0-3.4738 0.4849-3.533 0.50376l1.2877 8.9598c0.0067347-0.001347 0.10641-0.0067347 0.28555-0.0067347 0.73408 0 2.8043 0.095633 5.1911 0.98192l4.2456-7.9995c-2.6723-1.949-5.4026-2.4393-7.4769-2.4393zm2.1431 7.7964c-0.86079-0.22021-1.691-0.36563-2.47-0.44942l-0.7324-5.0961c0.33947-0.032888 0.69345-0.050831 1.0593-0.050831 1.5596 0 3.0948 0.31869 4.5627 1.0374l-2.4196 4.559z"
    />
</svg>
