<svg xmlns="http://www.w3.org/2000/svg" viewBox="0 0 110 110" fill="#fff">
    <path d="M14.34 91.26V63h26.5V40.28h28V72H95.4v19.26h8.1v9.17H6.23v-9.17h8.1zm1.4 0h25.1V64.42h-25.1v26.84zm26.52 0h25.18V41.7H42.26v49.56zm26.6 0h25.12V73.43H68.85v17.83zm-6.34-38l.94 1.05-16.28 14.46-.93-1.06 16.27-14.44zm0 9l.94 1.04-16.28 14.45-.93-1.06 16.27-14.45zM51.95 32.8h5.5V9.65H52.4l-7.62 5.6 2.85 3.9 4.32-3.35v17zm-1.42-14.13l-3.2 2.46-4.52-6.2 9.14-6.7h6.92v26h-8.33V18.66zM22.36 55.54h12.5v-3.57h-7.05l4.02-3.57c.4-.35.77-.72 1.13-1.08.37-.37.7-.77.98-1.2.3-.4.5-.87.67-1.37.17-.5.25-1.05.25-1.67 0-.9-.18-1.68-.53-2.35-.35-.67-.82-1.22-1.4-1.66-.6-.44-1.26-.77-2-.98-.76-.22-1.53-.33-2.33-.33-.85 0-1.66.13-2.4.38-.77.26-1.44.62-2.03 1.1-.6.48-1.07 1.07-1.45 1.75-.4.68-.63 1.47-.73 2.35l3.93.53c.08-.78.34-1.4.77-1.9.43-.47 1-.7 1.67-.7.65 0 1.18.18 1.57.56.4.4.58.9.58 1.5 0 .53-.13 1-.4 1.42-.25.43-.6.84-1 1.25l-6.76 6.12v3.42zm13.93-4.98v6.4H20.94v-5.47l.46-.43L28.14 45c.34-.34.6-.66.8-.98.12-.2.18-.4.18-.67 0-.26-.04-.4-.15-.5-.12-.1-.28-.17-.58-.17-.3 0-.46.08-.62.25-.22.25-.36.6-.42 1.1l-.15 1.45-6.74-.92.15-1.37c.1-1.07.4-2.04.88-2.9.47-.83 1.07-1.55 1.8-2.14.72-.6 1.54-1.04 2.46-1.35.9-.3 1.86-.44 2.85-.44.92 0 1.82.13 2.7.37.9.26 1.74.66 2.47 1.2.75.58 1.36 1.3 1.8 2.14.47.9.7 1.9.7 3 0 .77-.1 1.48-.32 2.12-.2.6-.5 1.2-.85 1.72-.33.5-.72.97-1.15 1.4-.38.38-.77.75-1.2 1.14l-1.23 1.1h4.77zm51.9 8.56c0-.48-.07-.94-.23-1.36-.16-.43-.4-.82-.68-1.16-.3-.35-.64-.65-1.05-.9-.4-.24-.84-.42-1.32-.54v-.07c.83-.23 1.52-.67 2.06-1.32.53-.66.8-1.46.8-2.4 0-.82-.18-1.54-.52-2.14-.35-.6-.8-1.1-1.36-1.5-.57-.4-1.2-.7-1.92-.9-.72-.2-1.45-.3-2.2-.3-.7 0-1.4.1-2.08.3-.68.18-1.3.45-1.87.8-.57.37-1.07.82-1.48 1.36-.42.54-.73 1.17-.94 1.9l3.76.86c.12-.58.4-1.04.82-1.38.43-.35.93-.52 1.5-.52s1.07.16 1.5.48c.44.32.65.8.65 1.4 0 .42-.08.75-.25 1-.17.27-.4.47-.67.63-.3.15-.6.25-.96.3-.36.07-.73.1-1.12.1H79.5v2.96h1.1c.4 0 .82.04 1.24.1.42.08.8.2 1.12.37.33.17.6.4.8.7.2.28.3.64.3 1.07 0 .4-.08.74-.23 1.02-.15.26-.35.48-.58.65-.23.17-.5.3-.8.37-.3.08-.58.12-.87.12-.78 0-1.4-.2-1.9-.64-.5-.42-.84-.92-1-1.48l-3.76 1c.22.8.56 1.48 1 2.05.46.57 1 1.04 1.6 1.4.6.36 1.26.63 2 .8.73.2 1.48.27 2.25.27.8 0 1.56-.1 2.33-.32.76-.22 1.45-.55 2.06-1 .6-.43 1.1-1 1.48-1.68.38-.68.57-1.5.57-2.42zm-8.16-.5c.08.3.26.56.55.8.22.2.53.3.98.3.16 0 .33 0 .5-.06.14-.04.25-.1.34-.16.07-.04.12-.1.18-.2.02-.05.05-.15.05-.33 0-.16-.03-.24-.05-.28-.07-.1-.16-.18-.28-.24-.2-.1-.44-.18-.72-.23-.34-.06-.68-.1-1-.1h-.7l.14.5zm-1.95-5.66l-4.45-1.02.42-1.44c.26-.9.65-1.68 1.18-2.37.52-.66 1.13-1.22 1.84-1.67.68-.44 1.44-.77 2.25-1 .8-.2 1.6-.32 2.44-.32.87 0 1.73.1 2.57.34.87.23 1.67.6 2.37 1.1.73.53 1.32 1.18 1.77 1.96.48.83.7 1.78.7 2.84 0 1.26-.37 2.38-1.12 3.3-.1.13-.22.25-.34.37.23.2.44.4.63.64.4.46.7.98.92 1.56.2.58.32 1.2.32 1.86 0 1.16-.24 2.2-.74 3.1-.48.87-1.1 1.6-1.9 2.15-.74.54-1.58.95-2.5 1.2-.9.26-1.8.4-2.7.4-.9 0-1.76-.1-2.6-.32-.87-.2-1.67-.53-2.4-.97-.75-.45-1.4-1.03-1.96-1.73-.57-.73-1-1.58-1.26-2.56l-.4-1.4 4.93-1.28v-4.76zm2.58-.6c.32 0 .6-.03.9-.08.2-.03.36-.08.5-.16.07-.04.12-.08.16-.14 0 0 .02-.08.02-.24 0-.18-.02-.22-.08-.27-.2-.13-.4-.2-.65-.2-.26 0-.45.06-.62.2-.16.14-.27.32-.33.6l-.07.28h.18zM7.65 92.65v6.36h94.44v-6.35H7.64z"/>
</svg>
