<svg xmlns="http://www.w3.org/2000/svg" viewBox="0 0 110 110" fill="#fff">
    <path d="M40.85 91.26h-25.1V64.42h25.1v26.84zm28 0V73.43h25.13v17.83H68.85zm-1.4 0h-25.2V41.7h25.2v49.56zm-4.93-38L46.25 67.7l.93 1.06L63.46 54.3l-.94-1.04zm0 9L46.25 76.68l.93 1.05L63.46 63.3l-.94-1.05zM51.95 32.8v-17l-4.32 3.33-2.85-3.9 7.62-5.6h5.04v23.18h-5.5zm-29.6 22.74v-3.42l6.76-6.1c.43-.42.77-.83 1.03-1.26.26-.42.4-.9.4-1.4 0-.63-.2-1.13-.6-1.52-.38-.38-.9-.57-1.56-.57-.68 0-1.24.24-1.67.72-.43.47-.7 1.1-.77 1.88L22 43.35c.1-.88.33-1.67.72-2.35.38-.68.86-1.27 1.45-1.75.6-.48 1.26-.84 2.02-1.1.74-.25 1.55-.38 2.4-.38.8 0 1.56.1 2.3.32.76.2 1.43.53 2.02.97.58.44 1.05 1 1.4 1.66.35.67.53 1.45.53 2.35 0 .62-.08 1.17-.25 1.67-.16.5-.38.96-.67 1.38-.28.42-.6.82-.98 1.2-.36.35-.74.72-1.13 1.07l-4 3.57h7.05v3.57h-12.5zm65.86 3.58c0 .93-.18 1.74-.56 2.42-.38.68-.87 1.25-1.48 1.7-.6.43-1.3.76-2.06.98-.77.22-1.54.32-2.33.32-.77 0-1.52-.08-2.26-.26-.72-.18-1.38-.45-2-.8-.6-.37-1.12-.84-1.57-1.4-.45-.58-.8-1.27-1-2.07l3.75-.98c.16.56.5 1.06 1 1.48.5.43 1.12.64 1.9.64.3 0 .58-.04.88-.12.3-.08.56-.2.8-.37.22-.17.42-.4.57-.66.15-.3.23-.63.23-1.03 0-.43-.1-.8-.3-1.08-.2-.3-.47-.53-.8-.7-.33-.17-.7-.3-1.12-.36-.42-.07-.84-.1-1.25-.1h-1.1v-2.98h1.18c.4 0 .76-.02 1.1-.08.37-.06.68-.16.97-.3.28-.17.5-.37.67-.63.17-.26.25-.6.25-1 0-.62-.2-1.1-.65-1.4-.43-.33-.93-.5-1.5-.5s-1.07.18-1.5.53c-.43.34-.7.8-.83 1.38l-3.77-.87c.2-.73.52-1.36.94-1.9.4-.54.9-1 1.48-1.35.57-.36 1.2-.63 1.87-.82.67-.18 1.37-.28 2.07-.28.75 0 1.48.1 2.2.3.7.2 1.35.48 1.92.88.56.4 1 .9 1.36 1.5.34.6.52 1.33.52 2.15 0 .94-.27 1.74-.8 2.4-.55.65-1.24 1.1-2.07 1.3v.08c.48.12.92.3 1.32.55.4.25.75.55 1.04.9.28.34.5.73.67 1.16.16.42.24.88.24 1.36zM7.66 92.67h94.44v6.35H7.64v-6.35z"/>
</svg>
