<?xml version="1.0" standalone="no"?>
<!DOCTYPE svg PUBLIC "-//W3C//DTD SVG 1.1//EN" "http://www.w3.org/Graphics/SVG/1.1/DTD/svg11.dtd" >
<svg xmlns="http://www.w3.org/2000/svg">
<metadata>Generated by IcoMoon</metadata>
<defs>
<font id="custom-icons" horiz-adv-x="1024">
<font-face units-per-em="1024" ascent="960" descent="-64" />
<missing-glyph horiz-adv-x="1024" />
<glyph unicode="&#x20;" horiz-adv-x="512" d="" />
<glyph unicode="&#xe900;" glyph-name="DoubleScoreForBoy" d="M776.533 874.667h-529.067c-0.141 0.002-0.306 0.003-0.473 0.003-18.592 0-33.664-15.072-33.664-33.664 0-0.166 0.001-0.332 0.004-0.498v0.025-759.467c1.276-18.315 15.818-32.857 34.018-34.127l0.115-0.006h529.067c0.141-0.002 0.306-0.003 0.473-0.003 18.592 0 33.664 15.072 33.664 33.664 0 0.166-0.001 0.332-0.004 0.498v-0.025 759.467c0.083 0.858 0.131 1.854 0.131 2.861 0 17.343-14.059 31.403-31.403 31.403-1.007 0-2.004-0.047-2.987-0.14l0.126 0.010zM473.6 264.533h162.133v-76.8h-251.733v68.267c0 157.867 170.667 187.733 170.667 341.333 0 46.933-17.067 64-46.933 64-25.6 0-46.933-12.8-46.933-55.467v-59.733h-81.067v51.2c0 85.333 42.667 136.533 128 136.533s128-51.2 128-136.533c0-170.667-170.667-234.667-170.667-324.267 4.267 0 4.267-4.267 8.533-8.533z" />
<glyph unicode="&#xe901;" glyph-name="Alert" d="M42.667 64h938.667l-469.333 810.667zM554.667 192h-85.333v85.333h85.333zM554.667 362.667h-85.333v170.667h85.333z" />
<glyph unicode="&#xe902;" glyph-name="ArrowLeft" d="M341.333 448l256-256 59.733 59.733-196.267 196.267 196.267 196.267-59.733 59.733z" />
<glyph unicode="&#xe903;" glyph-name="ArrowRight" d="M682.667 448l-256 256-59.733-59.733 196.267-196.267-196.267-196.267 59.733-59.733z" />
<glyph unicode="&#xe904;" glyph-name="Beaver" d="M503.467 422.4h-34.133v-153.6h42.667c25.6 0 38.4 12.8 38.4 46.933v42.667c4.267 51.2-12.8 64-46.933 64zM546.133 546.133v29.867q0 51.2-38.4 51.2h-38.4v-132.267h29.867c29.867 0 46.933 12.8 46.933 51.2zM512 840.533c-216.79 0-392.533-175.743-392.533-392.533s175.743-392.533 392.533-392.533c216.79 0 392.533 175.743 392.533 392.533v0c0.001 0.304 0.001 0.665 0.001 1.025 0 216.225-175.285 391.509-391.509 391.509-0.36 0-0.721 0-1.081-0.001h0.055zM631.467 315.733c0.614-4.289 0.964-9.242 0.964-14.276 0-58.628-47.527-106.155-106.155-106.155-5.035 0-9.988 0.351-14.836 1.028l0.559-0.064h-123.733v499.2h119.467c81.067 0 115.2-38.4 115.2-115.2v-17.067c0-51.2-17.067-85.333-51.2-98.133 36.007-16.395 60.587-52.064 60.587-93.474 0-4.651-0.31-9.23-0.911-13.717l0.057 0.525z" />
<glyph unicode="&#xe905;" glyph-name="ChangeCard" d="M442.965 369.579v-207.189c-0.82-13.264-11.268-23.845-24.399-24.869l-0.091-0.006h-351.317c-13.223 1.030-23.671 11.611-24.487 24.799l-0.004 0.075v559.403c0.82 13.264 11.268 23.845 24.399 24.869l0.091 0.006h351.275c7.919-0.171 15.079-3.288 20.456-8.295l-0.019 0.017-212.395-182.315zM956.843 742.4h-351.317c-13.223-1.030-23.671-11.611-24.487-24.799l-0.004-0.075v-207.189l216.491-186.453-212.395-182.315c5.358-4.989 12.518-8.106 20.404-8.277l0.034-0.001h351.275c13.223 1.030 23.671 11.611 24.487 24.799l0.004 0.075v559.488c0.014 0.31 0.023 0.672 0.023 1.037 0 13.102-10.621 23.723-23.723 23.723-0.278 0-0.555-0.005-0.831-0.014l0.040 0.001zM519.765 605.867h-76.8v53.76l-126.635-107.733 126.635-107.733v53.845h76.8zM504.277 266.069h76.8v-53.888l126.635 107.733-126.635 107.733v-53.888h-76.8z" />
<glyph unicode="&#xe906;" glyph-name="CheckboxEnabled" d="M810.667 746.667v-597.333h-597.333v597.333zM810.667 832h-597.333c-47.070-0.145-85.188-38.264-85.333-85.319v-597.347c0.145-47.070 38.264-85.188 85.319-85.333h597.347c47.070 0.145 85.188 38.264 85.333 85.319v597.347c-0.145 47.070-38.264 85.188-85.319 85.333h-0.014z" />
<glyph unicode="&#xe907;" glyph-name="ChevronLeft" d="M308.303 312.359c-46.66 27.919-77.414 78.189-77.414 135.641s30.754 107.721 76.698 135.243l0.716 0.398 399.281 236.308c22.914 13.754 50.561 21.888 80.108 21.888 87.003 0 157.533-70.527 157.538-157.528v-472.616c-0.229-86.833-70.674-157.135-157.538-157.135-29.547 0-57.195 8.134-80.825 22.286l0.717-0.398z" />
<glyph unicode="&#xe908;" glyph-name="ChevronRight" d="M715.697 583.641c46.66-27.919 77.414-78.189 77.414-135.641s-30.754-107.721-76.698-135.243l-0.716-0.398-399.281-236.308c-22.914-13.754-50.561-21.888-80.108-21.888-87.003 0-157.533 70.527-157.538 157.528v472.616c0.229 86.833 70.674 157.135 157.538 157.135 29.547 0 57.195-8.134 80.825-22.286l-0.717 0.398z" />
<glyph unicode="&#xe909;" glyph-name="Close" d="M810.656 686.944l-59.744 59.744-238.944-238.944-238.944 238.944-59.744-59.744 238.944-238.944-238.944-238.944 59.744-59.744 238.944 238.944 238.944-238.944 59.744 59.744-238.944 238.944z" />
<glyph unicode="&#xe90a;" glyph-name="Koks" d="M512 840.533c-216.79 0-392.533-175.743-392.533-392.533s175.743-392.533 392.533-392.533c216.79 0 392.533 175.743 392.533 392.533v0c0.001 0.304 0.001 0.665 0.001 1.025 0 216.225-175.285 391.509-391.509 391.509-0.36 0-0.721 0-1.081-0.001h0.055zM627.2 529.067h-72.533v51.2c0 34.133-17.067 46.933-38.4 46.933-25.6 0-38.4-12.8-38.4-46.933v-268.8c0-34.133 17.067-46.933 38.4-46.933 25.6 0 38.4 12.8 38.4 46.933v72.533h72.533v-64c0-81.067-38.4-123.733-115.2-123.733s-115.2 46.933-115.2 123.733v256c0 81.067 38.4 123.733 115.2 123.733s115.2-46.933 115.2-123.733z" />
<glyph unicode="&#xe90b;" glyph-name="Cube" d="M823.467 354.133v145.067l-55.467-162.133zM955.733 708.267c0 4.267-4.267 8.533-4.267 12.8-4.267 4.267-4.267 4.267-8.533 4.267h-12.8l-418.133-132.267c-4.267 0-8.533-4.267-12.8-8.533l-12.8-12.8c-4.267-4.267-4.267-12.8-8.533-17.067 0-4.267-4.267-12.8-4.267-17.067l12.8-503.467c-0.076-0.58-0.12-1.251-0.12-1.931 0-4.224 1.672-8.057 4.391-10.873l-0.004 0.005c0.319-4.579 3.955-8.214 8.504-8.532l0.029-0.002c4.267 0 8.533-4.267 12.8-4.267 0.58-0.076 1.251-0.12 1.931-0.12 4.224 0 8.057 1.672 10.873 4.391l-0.005-0.004 384 174.933c4.267 0 8.533 4.267 12.8 8.533s8.533 8.533 8.533 12.8c4.267 4.267 4.267 8.533 8.533 12.8 0 4.267 4.267 8.533 4.267 17.067l21.333 460.8c-8.533 0-8.533 4.267-8.533 8.533zM704 465.067l-46.933-17.067v12.8c0 25.6-8.533 34.133-25.6 29.867-18.125-8.58-30.437-26.72-30.437-47.735 0-2.728 0.207-5.408 0.608-8.024l-0.037 0.293v-68.267c7.31 23.461 24.411 41.959 46.397 51.005l0.536 0.195c38.4 12.8 55.467-8.533 55.467-68.267v-68.267c0.183-2.508 0.287-5.433 0.287-8.383 0-52.893-33.535-97.953-80.503-115.079l-0.851-0.271c-51.2-17.067-76.8 8.533-76.8 68.267l4.267 196.267c-0.568 4.376-0.892 9.437-0.892 14.574 0 52.565 33.949 97.201 81.117 113.178l0.842 0.248c51.2 17.067 76.8-8.533 76.8-68.267zM896 324.267l-25.6-8.533v-68.267l-51.2-17.067v68.267l-98.133-34.133v55.467l98.133 294.4 55.467 21.333-4.267-260.267 25.6 8.533zM597.333 234.667q0-38.4 25.6-25.6c15.49 7.387 26.003 22.921 26.003 40.911 0 2.124-0.147 4.213-0.43 6.259l0.027-0.237v68.267c0 25.6-8.533 34.133-25.6 29.867s-25.6-21.333-25.6-46.933zM435.2 554.667c-1.135 6.686-4.179 12.52-8.545 17.078l0.011-0.012c-4.267 4.267-4.267 8.533-8.533 12.8s-8.533 8.533-12.8 8.533l-315.733 149.333h-8.533c-4.267 0-4.267-4.267-8.533-4.267 0-4.267-4.267-4.267-4.267-8.533v-12.8l34.133-452.267c-0.076-0.58-0.12-1.251-0.12-1.931 0-4.224 1.672-8.057 4.391-10.873l-0.004 0.005c0-4.267 4.267-8.533 4.267-12.8 4.267-4.267 4.267-8.533 8.533-12.8s4.267-8.533 8.533-8.533l294.4-200.533c2.812-2.714 6.645-4.386 10.869-4.386 0.681 0 1.351 0.043 2.009 0.128l-0.078-0.008c4.267 0 4.267 0 8.533 4.267 4.267 0 4.267 4.267 4.267 8.533v12.8l-12.8 503.467zM230.4 260.267l89.6-59.733v-59.733l-136.533 93.867v51.2c4.267 119.467 98.133 76.8 102.4 192 0.485 3.213 0.763 6.921 0.763 10.693 0 20.82-8.444 39.668-22.095 53.306l-0.001 0.001c-17.067 8.533-25.6 4.267-25.6-21.333v-42.667l-42.667 29.867v38.4c4.267 64 29.867 85.333 72.533 55.467 41.853-33.059 68.472-83.807 68.472-140.772 0-3.011-0.074-6.005-0.221-8.98l0.016 0.419c-4.267-128-102.4-110.933-102.4-179.2-2.182-3.682-3.695-8.015-4.251-12.643l-0.015-0.157zM576 768l46.933-21.333c9.149-4.447 19.903-7.047 31.263-7.047 7.1 0 13.963 1.015 20.452 2.909l-0.515-0.129c17.067 4.267 21.333 8.533 0 17.067l-46.933 21.333c-9.189 4.404-19.975 6.976-31.362 6.976-7.061 0-13.892-0.989-20.36-2.837l0.522 0.128c-17.067 0-21.333-8.533 0-17.067zM494.933 622.933l418.133 128c3.365 0.478 6.304 2.018 8.532 4.266l4.268 4.268c0 2.356-1.91 4.267-4.267 4.267v0c-4.267 0-4.267 4.267-8.533 4.267l-337.067 115.2c-0.58-0.076-1.251-0.12-1.931-0.12-4.224 0-8.057 1.672-10.873 4.391l0.005-0.004c-4.267 4.267-8.533 0-12.8 0h-12.8c-0.58 0.076-1.251 0.12-1.931 0.12-4.224 0-8.057-1.672-10.873-4.391l0.005 0.004-405.333-93.867c-4.267 0-8.533-4.267-12.8-4.267s-4.267-4.267-8.533-4.267v-4.267l4.267-4.267 320-145.067c4.267 0 8.533-4.267 12.8-4.267h34.133c12.8-4.267 17.067 0 25.6 0zM439.467 844.8c17.258 4.769 37.074 7.509 57.53 7.509 29.996 0 58.617-5.893 84.766-16.584l-1.496 0.541 8.533-4.267-46.933-12.8-8.533 4.267c-9.981 4.458-21.63 7.055-33.886 7.055-7.672 0-15.106-1.017-22.175-2.925l0.594 0.137c-17.067-4.267-21.333-12.8 4.267-21.333l51.2-21.333c-8.533 8.533 0 17.067 21.333 21.333 13.167 2.657 28.303 4.178 43.794 4.178 27.104 0 53.12-4.656 77.293-13.212l-1.621 0.5 51.2-21.333c42.667-17.067 42.667-38.4-8.533-51.2-18.243-5.744-39.222-9.054-60.974-9.054-30.422 0-59.331 6.474-85.426 18.119l1.333-0.531-136.533 59.733c-46.933 21.333-46.933 38.4 4.267 51.2zM337.067 772.267l-38.4-12.8-29.867 12.8c38.4 12.8 29.867 21.333 21.333 29.867l34.133 8.533 268.8-115.2-51.2-12.8z" />
<glyph unicode="&#xe90c;" glyph-name="DoubleScoreForKaput" d="M417.707 625.408l83.072-226.133h-170.667zM482.133 145.323c0.064 62.35 15.426 121.098 42.536 172.711l-0.978-2.044h-226.133l-46.037-124.501h-83.115l207.744 535.467h78.464l27.52-69.248v9.259c-0.401 5.594-0.63 12.12-0.63 18.7 0 70.899 26.568 135.594 70.291 184.67l-0.242-0.277h-429.269c-1.269 0.174-2.735 0.274-4.224 0.274-18.035 0-32.662-14.589-32.725-32.609v-752.39c-0.008-0.305-0.013-0.665-0.013-1.026 0-21.163 16.15-38.553 36.798-40.519l0.164-0.013h359.851zM583.68 403.84c17.953 21.725 36.085 41.29 55.255 59.786l0.212 0.203c13.427 12.551 25.553 26.139 36.378 40.75l0.571 0.807h-133.76zM694.613 177.707c0 133.845 263.125 230.784 263.125 489.301 4.651 133.803-64.597 207.659-194.005 207.659s-198.485-73.856-198.485-207.701v-78.507h124.629v87.723c0 59.989 27.691 83.072 69.248 83.072s69.248-18.475 69.248-92.331c0-235.435-263.125-276.949-263.125-516.992v-106.155h383.147v115.2h-253.867c0.128 9.429 0.128 14.037 0.128 18.688z" />
<glyph unicode="&#xe90d;" glyph-name="DoubleStake" d="M281.344 521.813h36.779l116.992 116.992 63.531-63.531c9.435 6.135 17.246 13.947 23.197 23.080l0.184 0.301v70.229c-33.451 46.933-127.019 80.213-237.355 80.213s-203.904-33.451-237.355-76.8v-76.8c33.451-40.277 123.691-73.685 234.027-73.685zM281.344 398.080c31.119 0.484 61.202 2.903 90.696 7.145l-3.784-0.446 16.725 16.725-46.592 50.133c-14.214-2.207-30.609-3.468-47.299-3.468-3.352 0-6.693 0.051-10.021 0.152l0.488-0.012c-110.336 0-203.904 33.451-237.355 76.8v-69.973c36.565-46.933 126.805-77.013 237.141-77.013zM405.077 230.912c-37.059-10.443-79.644-16.536-123.624-16.725h-0.109c-110.336 0-203.947 33.451-237.355 76.8v-70.187c33.451-43.477 127.019-76.8 237.355-76.8s207.275 33.451 237.355 80.213v63.573l-86.912-86.912zM281.344 271.019c27.499 0.472 54.039 2.89 79.969 7.126l-3.169-0.427-56.832 56.832 6.699 6.699h-26.752c-110.336 0-203.904 33.451-237.355 76.8v-70.187c36.864-43.392 127.104-76.8 237.44-76.8zM605.611 565.419l-86.912-86.912-86.912 86.912-56.832-56.832 86.912-86.912-86.912-86.912 56.832-56.832 86.912 86.912 86.912-86.912 56.832 56.832-86.912 86.912 87.125 86.741zM786.133 241.152c0 100.309 193.877 170.667 193.877 361.045 0 96.939-50.133 150.443-143.744 150.443-96.939 0-143.744-56.832-143.744-150.443v-60.16h93.611v63.317c0 43.477 20.053 60.16 50.133 60.16s50.133-13.355 50.133-70.187c0-173.824-193.877-203.947-193.877-381.099v-73.557h280.832v86.997h-183.851c-2.125 3.625-3.38 7.983-3.38 12.633 0 0.239 0.003 0.477 0.010 0.714l-0.001-0.035z" />
<glyph unicode="&#xe90e;" glyph-name="Dropdown" d="M768 576h-512l256-256z" />
<glyph unicode="&#xe90f;" glyph-name="DropdownTop" d="M256 320h512l-256 256z" />
<glyph unicode="&#xe910;" glyph-name="Filter" d="M426.667 192h170.667v85.333h-170.667zM128 704v-85.333h768v85.333zM256 405.333h512v85.333h-512z" />
<glyph unicode="&#xe911;" glyph-name="PlayBorder" d="M450.56 248.32l239.104 179.2c6.246 4.72 10.24 12.134 10.24 20.48s-3.994 15.76-10.176 20.433l-0.064 0.047-239.104 179.2c-4.225 3.196-9.568 5.12-15.36 5.12-14.138 0-25.6-11.462-25.6-25.6v0-358.4c0-14.138 11.462-25.6 25.6-25.6 5.792 0 11.135 1.924 15.424 5.167l-0.064-0.047zM512 960c-282.77 0-512-229.23-512-512s229.23-512 512-512c282.77 0 512 229.23 512 512v0c0 282.77-229.23 512-512 512v0zM512 38.4c-226.216 0-409.6 183.384-409.6 409.6s183.384 409.6 409.6 409.6c226.216 0 409.6-183.384 409.6-409.6v0c-0.32-226.087-183.513-409.28-409.569-409.6h-0.031z" />
<glyph unicode="&#xe912;" glyph-name="Incognito" d="M157.312 517.589c18.101-8.873 39.967-17.561 62.536-24.659l3.469-0.941c82.465-20.619 177.216-32.623 274.712-32.981l0.232-0.001c4.214-0.063 9.189-0.099 14.172-0.099 61.049 0 120.842 5.375 178.933 15.678l-6.139-0.902c48.44 6.628 91.773 16.878 133.426 30.798l-5.127-1.486c19.488 5.625 36.481 13.127 52.18 22.562l-0.98-0.546c4.857 2.303 8.155 7.166 8.155 12.8s-3.299 10.497-8.070 12.763l-0.086 0.037c-8.421 6.007-18.133 10.988-28.537 14.454l-0.775 0.224c-43.94 16.49-99.119 32.881-155.605 45.846l-9.387 1.813h-11.008c-29.109-11.892-62.819-19.774-98.069-21.97l-0.918-0.046c-16.493-1.752-35.628-2.751-54.997-2.751s-38.505 0.999-57.359 2.948l2.362-0.198c-36.168 2.242-69.878 10.124-101.14 22.787l2.153-0.771c-3.669 0-7.339 3.669-11.008 0l-87.979-22.016c-36.261-9.289-67.975-21.835-97.595-37.771l2.278 1.12c-7.339-3.669-18.347-7.339-18.347-18.347s11.221-14.677 18.517-18.347zM362.667 678.869c43.214-9.379 92.857-14.751 143.755-14.751 3.597 0 7.187 0.027 10.771 0.080l-0.541-0.006c2.12-0.062 4.614-0.097 7.117-0.097 15.575 0 30.83 1.37 45.651 3.997l-1.567-0.23c26.14 3.1 49.736 8.253 72.433 15.43l-2.758-0.752c3.669 0 7.339 3.669 3.669 7.339-11.008 54.997-22.016 113.664-36.651 168.619-3.092 17.987-9.517 34.031-18.651 48.161l0.304-0.502c-7.339 11.008-14.677 14.677-25.6 7.339-8.438-5.186-15.684-11.264-21.934-18.253l-0.082-0.094c-9.209-10.325-20.129-18.888-32.354-25.301l-0.627-0.299c-5.154-3.462-11.499-5.525-18.325-5.525s-13.172 2.063-18.445 5.601l0.119-0.075-22.016 22.016c-4.219 7.853-10.494 14.128-18.112 18.231l-0.235 0.116c-14.677 11.008-22.016 7.339-32.981-7.339-7.339-14.677-11.008-29.312-18.347-47.659-12.794-45.231-24.33-101.094-32.205-158.127l-0.776-6.865c3.348-6.607 10.089-11.057 17.87-11.057 0.183 0 0.365 0.002 0.547 0.007l-0.027-0.001zM919.893 286.592c-47.659 32.981-95.317 66.005-139.307 102.656-3.669 3.669-3.669 3.669-7.339 3.669-22.016-3.669-43.989-7.339-69.675-11.008-3.669 0-3.669 0-3.669-3.669-0.092-22.383-4.119-43.798-11.424-63.627l0.416 1.291c0-3.669-3.669-7.339-7.339-11.008-17.932-13.046-33.567-27.517-47.35-43.62l-0.309-0.37c-50.493-45.647-90.397-102.014-116.246-165.594l-1.087-3.025c-10.277-25.629-16.238-55.34-16.238-86.442 0-9.592 0.567-19.051 1.669-28.347l-0.109 1.125c56.973 106.97 158.913 183.565 279.908 204.964l2.375 0.348-87.979 43.989c65.114 27.946 140.678 48.594 219.628 58.301l4.073 0.408zM498.304 132.608c-78.536 61.926-139.944 142.177-178.214 234.449l-1.413 3.845c-3.669 3.669-3.669 7.339-11.008 7.339-18.347 3.669-36.651 3.669-54.997 7.339-0.497 0.065-1.072 0.102-1.655 0.102-3.634 0-6.932-1.438-9.357-3.775l0.004 0.004-109.995-98.987-3.669-3.669c74.413-7.407 142.741-24.257 206.865-49.468l-5.222 1.809c-25.6-22.016-51.2-43.989-73.344-66.005 44.555-12.012 83.595-29.539 119.025-52.213l-1.692 1.013c36.651-18.347 76.8-40.32 113.664-58.667 2.995 19.17 8.113 36.392 15.206 52.55l-0.528-1.35c7.296 14.72 3.627 18.389-3.712 25.728zM589.952 400.213c-14.244-0.877-30.893-1.376-47.659-1.376s-33.416 0.5-49.935 1.485l2.276-0.108c-6.69-0.284-14.54-0.445-22.427-0.445-40.075 0-79.177 4.171-116.893 12.101l3.683-0.648c-3.669 0-3.669 0-3.669-3.669-0.605-3.037-0.951-6.528-0.951-10.1 0-21.2 12.194-39.552 29.95-48.425l0.313-0.142c9.699-3.963 20.93-6.591 32.675-7.323l0.306-0.015c3.641-0.835 7.822-1.314 12.114-1.314 21.753 0 40.634 12.295 50.073 30.315l0.148 0.311c5.347 9.904 15.65 16.52 27.499 16.52s22.152-6.616 27.417-16.355l0.082-0.165c8.59-17.589 26.347-29.491 46.883-29.491 1.52 0 3.024 0.065 4.511 0.193l-0.193-0.013c0.305-0.005 0.666-0.007 1.027-0.007 11.627 0 22.62 2.712 32.382 7.537l-0.428-0.191c23.815 8.674 40.515 31.12 40.515 57.467 0 1.714-0.071 3.411-0.209 5.089l0.015-0.22c0 7.339 0 7.339-7.339 3.669-18.249-8.3-39.483-13.583-61.826-14.621l-0.382-0.014z" />
<glyph unicode="&#xe913;" glyph-name="Info" d="M469.333 661.333h85.333v-85.333h-85.333zM469.333 490.667h85.333v-256h-85.333zM512 874.667c-235.641 0-426.667-191.025-426.667-426.667s191.025-426.667 426.667-426.667c235.641 0 426.667 191.025 426.667 426.667v0c0 235.641-191.025 426.667-426.667 426.667v0zM512 106.667c-188.513 0-341.333 152.82-341.333 341.333s152.82 341.333 341.333 341.333c188.513 0 341.333-152.82 341.333-341.333v0c-0.267-188.406-152.928-341.067-341.308-341.333h-0.025z" />
<glyph unicode="&#xe914;" glyph-name="JacobyRule" d="M512 840.533c-216.79 0-392.533-175.743-392.533-392.533s175.743-392.533 392.533-392.533c216.79 0 392.533 175.743 392.533 392.533v0c0.001 0.304 0.001 0.665 0.001 1.025 0 216.225-175.285 391.509-391.509 391.509-0.36 0-0.721 0-1.081-0.001h0.055zM558.933 324.267c0-98.133-51.2-123.733-110.933-123.733h-38.4v72.533h25.6c25.6 0 42.667 8.533 42.667 46.933v375.467h76.8v-371.2z" />
<glyph unicode="&#xe915;" glyph-name="Logout" d="M430.507 294.827l60.16-60.16 213.333 213.333-213.333 213.333-60.16-60.16 110.080-110.507h-412.587v-85.333h412.587zM810.667 832h-597.333c-47.128 0-85.333-38.205-85.333-85.333v0-170.667h85.333v170.667h597.333v-597.333h-597.333v170.667h-85.333v-170.667c0-47.128 38.205-85.333 85.333-85.333v0h597.333c47.070 0.145 85.188 38.264 85.333 85.319v597.347c-0.145 47.070-38.264 85.188-85.319 85.333h-0.014z" />
<glyph unicode="&#xe916;" glyph-name="Reject" d="M512 960c-282.77 0-512-229.23-512-512s229.23-512 512-512c282.77 0 512 229.23 512 512v0c0 0.137 0 0.299 0 0.461 0 282.515-229.024 511.539-511.539 511.539-0.162 0-0.325 0-0.487 0h0.026zM512 38.4c-226.216 0-409.6 183.384-409.6 409.6s183.384 409.6 409.6 409.6c226.216 0 409.6-183.384 409.6-409.6v0c-0.32-226.087-183.513-409.28-409.569-409.6h-0.031zM695.808 704l-183.808-183.808-183.808 183.808-72.192-72.192 183.808-183.808-183.808-183.808 72.192-72.192 183.808 183.808 183.808-183.808 72.192 72.192-183.808 183.808 183.808 183.808z" />
<glyph unicode="&#xe917;" glyph-name="Shop" horiz-adv-x="1122" d="M411.237 960c-1.169 0.032-2.545 0.050-3.925 0.050-84.747 0-153.448-68.701-153.448-153.448 0-19.497 3.636-38.146 10.268-55.303l-0.356 1.048h-161.726c-56.36 0-102.049-45.689-102.049-102.049v0-102.049c0-28.18 22.844-51.025 51.025-51.025v0h459.175v153.074h102.049v-153.074h459.175c28.18 0 51.025 22.844 51.025 51.025v0 102.049c0 56.36-45.689 102.049-102.049 102.049v0h-161.726c5.657 15.332 8.93 33.038 8.93 51.51 0 84.515-68.513 153.027-153.027 153.027-50.985 0-96.146-24.934-123.955-63.273l-0.306-0.444-29.090-38.771-29.090 39.8c-26.475 39.379-70.608 65.118-120.793 65.802l-0.104 0.001zM408.15 854.396c0.028 0 0.061 0 0.093 0 28.232 0 51.118-22.886 51.118-51.118s-22.886-51.118-51.118-51.118c-28.232 0-51.118 22.886-51.118 51.118 0 0.033 0 0.066 0 0.099v-0.005c0.080 28.148 22.877 50.945 51.017 51.025h0.008zM714.251 854.396c0.028 0 0.061 0 0.093 0 28.232 0 51.118-22.886 51.118-51.118s-22.886-51.118-51.118-51.118c-28.232 0-51.118 22.886-51.118 51.118 0 0.033 0 0.066 0 0.099v-0.005c0.080 28.148 22.877 50.945 51.017 51.025h0.008zM51.025 446.246v-408.15c0-56.36 45.689-102.049 102.049-102.049v0h816.3c56.36 0 102.049 45.689 102.049 102.049v0 408.15h-459.175v-408.15h-102.049v408.15z" />
<glyph unicode="&#xe918;" glyph-name="Boy" d="M605.867 832h-174.933l-128-763.733h110.933l21.333 140.8h145.067l21.333-140.8h119.467l-115.2 763.733zM507.733 695.467l55.467-388.267h-115.2l59.733 388.267z" />
<glyph unicode="&#xe919;" glyph-name="OnlyTierce" d="M413.781 20.267c-6.5-1.42-13.966-2.233-21.623-2.233-50.462 0-92.674 35.324-103.258 82.594l-0.133 0.706-102.827 481.28-60.16-19.627c-23.647-7.69-40.438-29.532-40.438-55.297 0-6.468 1.058-12.689 3.011-18.499l-0.119 0.409 161.707-500.053c8.012-23.635 29.998-40.342 55.886-40.342 6.405 0 12.571 1.023 18.344 2.914l-0.416-0.118 333.227 107.947c10.919 3.402 20.078 9.802 26.795 18.236l0.085 0.111zM528.128 170.752c-2.811-0.266-6.077-0.418-9.38-0.418-54.896 0-99.988 41.973-104.936 95.577l-0.031 0.415-41.813 471.893-71.253-14.933c-25.545-6.628-44.104-29.479-44.104-56.665 0-4.567 0.524-9.011 1.514-13.276l-0.077 0.394 109.653-512c5.571-27.437 29.497-47.798 58.179-47.798 3.564 0 7.055 0.314 10.446 0.917l-0.358-0.053 341.333 73.387c16.506 3.773 30.109 14.029 38.249 27.881l0.151 0.279zM904.021 864.085l46.507-523.52c0.156-1.596 0.245-3.45 0.245-5.325 0-30.331-23.272-55.227-52.934-57.806l-0.218-0.015-349.013-31.147c-1.491-0.134-3.224-0.211-4.976-0.211-30.489 0-55.566 23.174-58.577 52.869l-0.020 0.249-46.080 523.52c-0.141 1.529-0.222 3.307-0.222 5.103 0 30.493 23.18 55.572 52.88 58.578l0.248 0.020 349.013 30.72c1.596 0.156 3.45 0.245 5.325 0.245 30.331 0 55.227-23.272 57.806-52.934l0.015-0.218z" />
<glyph unicode="&#xe91a;" glyph-name="Play" d="M341.333 746.667v-597.333l469.333 298.667z" />
<glyph unicode="&#xe91b;" glyph-name="ShowToGuest" d="M527.936 659.968c99.784-0.434 180.558-81.208 180.992-180.95v-0.042c0.054-1.468 0.084-3.193 0.084-4.925 0-22.743-5.275-44.255-14.668-63.377l0.376 0.847 106.496-106.496c53.094 45.816 95.26 102.779 123.077 167.375l1.147 2.993c-63.964 159.28-217.118 269.698-396.061 269.698-0.485 0-0.969-0.001-1.454-0.002h0.075c-52.378-1.132-102.268-10.132-149.067-25.861l3.531 1.029 78.080-78.080c17.326 11.261 38.52 17.957 61.278 17.957 2.151 0 4.287-0.060 6.408-0.178l-0.295 0.013zM165.952 759.36l99.328-99.584c-59.447-46.698-105.667-107.649-133.828-177.795l-1.020-2.877c63.964-159.28 217.118-269.698 396.061-269.698 0.507 0 1.014 0.001 1.521 0.003h-0.079c0.883-0.007 1.927-0.011 2.972-0.011 56.727 0 110.705 11.775 159.621 33.014l-2.593-1.003 14.208-14.208 106.112-106.496 46.144 46.144-638.784 638.656zM368.256 557.056l56.768-56.768c-2.391-5.804-3.78-12.543-3.78-19.605 0-1.841 0.094-3.659 0.278-5.452l-0.019 0.225c0.325-60.629 49.387-109.691 109.985-110.016h0.031c0.853-0.038 1.853-0.059 2.858-0.059 7.862 0 15.418 1.31 22.461 3.724l-0.487-0.145 56.768-56.768c-22.891-10.807-49.675-17.296-77.929-17.726l-0.151-0.002c-99.784 0.434-180.558 81.208-180.992 180.95v0.042c-1.852 7.349-2.914 15.786-2.914 24.471 0 21.26 6.367 41.032 17.299 57.514l-0.24-0.386zM520.832 585.472l113.536-113.536v7.168c-0.325 60.629-49.387 109.691-109.985 110.016h-0.031z" />
<glyph unicode="&#xe91c;" glyph-name="WithRating" d="M840.533 832h125.141c0.594 0.090 1.279 0.142 1.977 0.142 7.635 0 13.824-6.189 13.824-13.824 0-0.697-0.052-1.383-0.151-2.052l0.009 0.076v-750.933c0.090-0.594 0.142-1.279 0.142-1.977 0-7.635-6.189-13.824-13.824-13.824-0.697 0-1.383 0.052-2.052 0.151l0.076-0.009h-907.349c-0.594-0.090-1.279-0.142-1.977-0.142-7.635 0-13.824 6.189-13.824 13.824 0 0.697 0.052 1.383 0.151 2.052l-0.009-0.076v438.059c-0.090 0.594-0.142 1.279-0.142 1.977 0 7.635 6.189 13.824 13.824 13.824 0.697 0 1.383-0.052 2.052-0.151l-0.076 0.009h125.141c0.594 0.090 1.279 0.142 1.977 0.142 7.635 0 13.824-6.189 13.824-13.824 0-0.697-0.052-1.383-0.151-2.052l0.009 0.076v-385.877c-0.090-0.594-0.142-1.279-0.142-1.977 0-7.635 6.189-13.824 13.824-13.824 0.697 0 1.383 0.052 2.052 0.151l-0.076-0.009h72.96c0.594-0.090 1.279-0.142 1.977-0.142 7.635 0 13.824 6.189 13.824 13.824 0 0.697-0.052 1.383-0.151 2.052l0.009-0.076v229.419c-0.090 0.594-0.142 1.279-0.142 1.977 0 7.635 6.189 13.824 13.824 13.824 0.697 0 1.383-0.052 2.052-0.151l-0.076 0.009h125.141c0.594 0.090 1.279 0.142 1.977 0.142 7.635 0 13.824-6.189 13.824-13.824 0-0.697-0.052-1.383-0.151-2.052l0.009 0.076v-229.461c-0.090-0.594-0.142-1.279-0.142-1.977 0-7.635 6.189-13.824 13.824-13.824 0.697 0 1.383 0.052 2.052 0.151l-0.076-0.009h73.003c0.594-0.090 1.279-0.142 1.977-0.142 7.635 0 13.824 6.189 13.824 13.824 0 0.697-0.052 1.383-0.151 2.052l0.009-0.076v490.197c-0.090 0.594-0.142 1.279-0.142 1.977 0 7.635 6.189 13.824 13.824 13.824 0.697 0 1.383-0.052 2.052-0.151l-0.076 0.009h125.141c0.594 0.090 1.279 0.142 1.977 0.142 7.635 0 13.824-6.189 13.824-13.824 0-0.697-0.052-1.383-0.151-2.052l0.009 0.076v-490.155c-0.090-0.594-0.142-1.279-0.142-1.977 0-7.635 6.189-13.824 13.824-13.824 0.697 0 1.383 0.052 2.052 0.151l-0.076-0.009h73.003c0.594-0.090 1.279-0.142 1.977-0.142 7.635 0 13.824 6.189 13.824 13.824 0 0.697-0.052 1.383-0.151 2.052l0.009-0.076v698.752c0.495 8.412 7.17 15.117 15.524 15.656l0.049 0.003z" />
<glyph unicode="&#xe91d;" glyph-name="Success" d="M512 955.733c-281.6 0-512-230.4-512-512s230.4-512 512-512 512 230.4 512 512v0c0 281.6-230.4 512-512 512v0zM409.6 187.733l-256 256 72.533 72.533 183.467-183.467 388.267 388.267 72.533-72.533-460.8-460.8z" />
<glyph unicode="&#xe91e;" glyph-name="User" d="M682.667 490.667c70.692 0 128 57.308 128 128s-57.308 128-128 128c-70.692 0-128-57.308-128-128v0c-0.001-0.165-0.001-0.36-0.001-0.556 0-70.386 57.059-127.445 127.445-127.445 0.195 0 0.391 0 0.586 0.001h-0.030zM341.333 490.667c70.692 0 128 57.308 128 128s-57.308 128-128 128c-70.692 0-128-57.308-128-128v0c-0.001-0.165-0.001-0.36-0.001-0.556 0-70.386 57.059-127.445 127.445-127.445 0.195 0 0.391 0 0.586 0.001h-0.030zM341.333 405.333c-99.413 0-298.667-49.92-298.667-149.333v-106.667h597.333v106.667c0 99.413-199.253 149.333-298.667 149.333zM682.667 405.333c-12.373 0-26.453-0.853-41.387-2.133 49.442-31.487 82.22-85.325 84.047-146.935l0.006-0.265v-106.667h256v106.667c0 99.413-199.253 149.333-298.667 149.333z" />
<glyph unicode="&#xe91f;" glyph-name="IncludeHeapPips" d="M238.251 752.341c0.519 23.37 7.741 44.953 19.812 63.022l-0.27-0.43c-32.681-1.285-58.688-28.090-58.688-60.969 0-0.571 0.008-1.14 0.023-1.706l-0.002 0.083v-625.749c-0.014-0.483-0.022-1.052-0.022-1.623 0-32.879 26.007-59.684 58.572-60.965l0.116-0.004h3.925c-11.8 17.64-19.023 39.223-19.539 62.46l-0.002 0.132v625.749zM85.675 752.341c0.532 23.374 7.769 44.956 19.854 63.021l-0.27-0.429c-0.243 0.003-0.529 0.005-0.816 0.005-34.121 0-61.781-27.66-61.781-61.781 0-0.287 0.002-0.573 0.006-0.859v0.043-625.749c-0.014-0.483-0.022-1.052-0.022-1.623 0-32.879 26.007-59.684 58.572-60.965l0.116-0.004h3.925c-11.8 17.64-19.023 39.223-19.539 62.46l-0.002 0.132zM390.784 752.341c0.519 23.37 7.741 44.953 19.812 63.022l-0.27-0.43c-32.681-1.285-58.688-28.090-58.688-60.969 0-0.571 0.008-1.14 0.023-1.706l-0.002 0.083v-625.749c-0.014-0.483-0.022-1.052-0.022-1.623 0-32.879 26.007-59.684 58.572-60.965l0.116-0.004h3.925c-11.8 17.64-19.023 39.223-19.539 62.46l-0.002 0.132v625.749zM543.317 752.341c0.519 23.37 7.741 44.953 19.812 63.022l-0.27-0.43c-32.681-1.285-58.688-28.090-58.688-60.969 0-0.571 0.008-1.14 0.023-1.706l-0.002 0.083v-625.749c-0.014-0.483-0.022-1.052-0.022-1.623 0-32.879 26.007-59.684 58.572-60.965l0.116-0.004h3.925c-11.8 17.64-19.023 39.223-19.539 62.46l-0.002 0.132v625.749zM918.741 814.933h-250.283c-0.243 0.003-0.529 0.005-0.816 0.005-34.121 0-61.781-27.66-61.781-61.781 0-0.287 0.002-0.573 0.006-0.859v0.043-621.867c-0.003-0.243-0.005-0.529-0.005-0.816 0-34.121 27.66-61.781 61.781-61.781 0.287 0 0.573 0.002 0.859 0.006h250.282c0.23-0.003 0.501-0.005 0.773-0.005 34.121 0 61.781 27.66 61.781 61.781 0 0.287-0.002 0.573-0.006 0.859v-0.043 621.867c0.003 0.243 0.005 0.529 0.005 0.816 0 34.121-27.66 61.781-61.781 61.781-0.287 0-0.573-0.002-0.859-0.006h0.043zM887.467 760.192c19.44 0 35.2-15.76 35.2-35.2s-15.76-35.2-35.2-35.2c-19.44 0-35.2 15.76-35.2 35.2v0c0 0.038 0 0.083 0 0.128 0 19.37 15.702 35.072 35.072 35.072 0.045 0 0.090 0 0.135 0h-0.007zM926.592 533.333c0-19.44-15.76-35.2-35.2-35.2s-35.2 15.76-35.2 35.2c0 19.44 15.76 35.2 35.2 35.2v0c18.895-1.3 33.9-16.306 35.194-35.082l0.006-0.118zM703.659 760.192c19.44 0 35.2-15.76 35.2-35.2s-15.76-35.2-35.2-35.2c-19.44 0-35.2 15.76-35.2 35.2v0c0 0.038 0 0.083 0 0.128 0 19.37 15.702 35.072 35.072 35.072 0.045 0 0.090 0 0.135 0h-0.007zM742.741 533.333c0-19.44-15.76-35.2-35.2-35.2s-35.2 15.76-35.2 35.2v0c-0.312 1.622-0.491 3.487-0.491 5.394 0 16.495 13.372 29.867 29.867 29.867 0.668 0 1.331-0.022 1.988-0.065l-0.089 0.005c0.255 0.006 0.556 0.010 0.858 0.010 20.085 0 36.568-15.42 38.257-35.067l0.010-0.143zM703.616 114.859c-19.44 0-35.2 15.76-35.2 35.2s15.76 35.2 35.2 35.2c19.44 0 35.2-15.76 35.2-35.2v0c3.925-15.659-15.616-35.2-35.157-35.2zM668.459 345.6c0 19.44 15.76 35.2 35.2 35.2s35.2-15.76 35.2-35.2c0-19.44-15.76-35.2-35.2-35.2v0c-0.038 0-0.083 0-0.128 0-19.37 0-35.072 15.702-35.072 35.072 0 0.045 0 0.090 0 0.135v-0.007zM820.992 224.341c-6.461-6.246-15.274-10.094-24.985-10.094-19.865 0-35.968 16.103-35.968 35.968 0 9.711 3.849 18.524 10.104 24.995l-0.010-0.010c6.158 7.218 15.263 11.765 25.429 11.765s19.271-4.547 25.391-11.718l0.039-0.046c5.501-6.921 8.826-15.787 8.826-25.429s-3.325-18.508-8.891-25.514l0.065 0.084zM887.467 114.859c-19.44 0-35.2 15.76-35.2 35.2s15.76 35.2 35.2 35.2c19.44 0 35.2-15.76 35.2-35.2v0c3.925-19.584-15.659-35.2-35.2-35.2zM852.267 345.6c0 19.44 15.76 35.2 35.2 35.2s35.2-15.76 35.2-35.2c0-19.44-15.76-35.2-35.2-35.2v0c-0.038 0-0.083 0-0.128 0-19.37 0-35.072 15.702-35.072 35.072 0 0.045 0 0.090 0 0.135v-0.007zM938.325 431.659v0l-289.408-3.925c-0.026-0.001-0.056-0.001-0.086-0.001-2.121 0-3.84 1.719-3.84 3.84 0 0.030 0 0.061 0.001 0.091v-0.004 15.659c-0.001 0.026-0.001 0.056-0.001 0.086 0 2.121 1.719 3.84 3.84 3.84 0.030 0 0.061 0 0.091-0.001h285.479c0.026 0.001 0.056 0.001 0.086 0.001 2.121 0 3.84-1.719 3.84-3.84 0-0.030 0-0.061-0.001-0.091v0.004z" />
<glyph unicode="&#xe920;" glyph-name="WithoutFourCards" d="M987.947 84.395l-790.272 790.272-56.704-56.704 52.949-56.747v-597.333c-0.005-0.18-0.007-0.392-0.007-0.604 0-14.28 11.576-25.856 25.856-25.856 0.213 0 0.424 0.003 0.636 0.008l-0.031-0.001h64.299c-2.495 6.591-3.94 14.212-3.94 22.17 0 1.507 0.052 3.002 0.154 4.484l-0.011-0.2v514.176l68.267-68.267v-445.995c-0.005-0.18-0.007-0.392-0.007-0.604 0-14.28 11.576-25.856 25.856-25.856 0.213 0 0.424 0.003 0.636 0.008l-0.031-0.001h64.043c-2.495 6.591-3.94 14.212-3.94 22.17 0 1.507 0.052 3.002 0.154 4.484l-0.011-0.2v359.211l68.267-68.267v-291.157c-0.005-0.18-0.007-0.392-0.007-0.604 0-14.28 11.576-25.856 25.856-25.856 0.213 0 0.424 0.003 0.636 0.008l-0.031-0.001h291.157l109.653-109.653zM439.68 810.368h-60.501l56.704-56.704c0 15.104-7.552 45.355 3.797 56.704zM976.597 780.16c0.005 0.18 0.007 0.392 0.007 0.604 0 14.28-11.576 25.856-25.856 25.856-0.213 0-0.424-0.003-0.636-0.008l0.031 0.001h-423.509c-0.18 0.005-0.392 0.007-0.604 0.007-14.28 0-25.856-11.576-25.856-25.856 0-0.213 0.003-0.424 0.008-0.636l-0.001 0.031v-98.133l476.416-476.629zM133.419 810.368h-64.299c-14.914-1.452-26.476-13.924-26.476-29.097 0-0.406 0.008-0.81 0.025-1.211l-0.002 0.058v-616.32c-0.005-0.18-0.007-0.392-0.007-0.604 0-14.28 11.576-25.856 25.856-25.856 0.213 0 0.424 0.003 0.636 0.008l-0.031-0.001h64.299c-2.495 6.591-3.94 14.212-3.94 22.17 0 1.507 0.052 3.002 0.154 4.484l-0.011-0.2v616.32c-0.093 1.474-0.146 3.197-0.146 4.933 0 9.045 1.443 17.753 4.11 25.907l-0.167-0.589z" />
<glyph unicode="&#xe921;" glyph-name="Backgammon" d="M929.493 607.189l-158.037 240.427c-10.661 16.295-28.825 26.911-49.468 26.911-5.286 0-10.41-0.696-15.285-2.002l0.412 0.094c-6.842-2.024-12.811-4.936-18.166-8.667l0.203 0.134-236.544-160.512c-13.079-8.774-22.4-22.282-25.537-38.019l-0.063-0.381c-0.715-3.549-1.125-7.63-1.125-11.805 0-12.38 3.599-23.92 9.808-33.63l-0.15 0.251 157.099-240.683c10.661-16.295 28.825-26.911 49.468-26.911 5.286 0 10.41 0.696 15.285 2.002l-0.412-0.094c6.613 1.92 254.507 168.32 254.507 168.32 13.079 8.774 22.4 22.282 25.537 38.019l0.063 0.381c1.089 4.267 1.715 9.165 1.715 14.209 0 11.855-3.454 22.904-9.41 32.194l0.143-0.238zM568.149 611.029c-5.436-3.748-12.164-5.987-19.416-5.987-12.012 0-22.589 6.143-28.761 15.459l-0.080 0.128c-3.702 5.541-5.907 12.356-5.907 19.686 0 12.124 6.035 22.839 15.264 29.305l0.115 0.076c5.436 3.748 12.164 5.987 19.416 5.987 12.012 0 22.589-6.143 28.761-15.459l0.080-0.128c3.821-5.552 6.103-12.42 6.103-19.822 0-12.128-6.126-22.825-15.452-29.166l-0.123-0.079zM674.816 448.512c-5.436-3.748-12.164-5.987-19.416-5.987-12.012 0-22.589 6.143-28.761 15.459l-0.080 0.128c-3.702 5.541-5.907 12.356-5.907 19.686 0 12.124 6.035 22.839 15.264 29.305l0.115 0.076c5.436 3.748 12.164 5.987 19.416 5.987 12.012 0 22.589-6.143 28.761-15.459l0.080-0.128c3.894-5.556 6.222-12.458 6.222-19.903 0-12.131-6.182-22.818-15.567-29.084l-0.127-0.080zM728.747 719.744c-5.434-3.744-12.158-5.98-19.405-5.98-11.937 0-22.457 6.067-28.645 15.285l-0.078 0.124c-3.702 5.541-5.907 12.356-5.907 19.686 0 12.124 6.035 22.839 15.264 29.305l0.115 0.076c5.436 3.748 12.164 5.987 19.416 5.987 12.012 0 22.589-6.143 28.761-15.459l0.080-0.128c3.625-5.534 5.782-12.313 5.782-19.596 0-12.123-5.977-22.851-15.144-29.396l-0.11-0.074zM835.669 557.184c-5.436-3.748-12.164-5.987-19.416-5.987-12.012 0-22.589 6.143-28.761 15.459l-0.080 0.128c-3.702 5.541-5.907 12.356-5.907 19.686 0 12.124 6.035 22.839 15.264 29.305l0.115 0.076c5.436 3.748 12.164 5.987 19.416 5.987 12.012 0 22.589-6.143 28.761-15.459l0.080-0.128c3.702-5.541 5.907-12.356 5.907-19.686 0-12.124-6.035-22.839-15.264-29.305l-0.115-0.076zM405.291 492.715l-275.328-72.107c-25.984-7.105-44.767-30.504-44.767-58.289 0-5.614 0.767-11.048 2.201-16.205l-0.101 0.424 71.253-279.851c6.496-26.161 29.777-45.244 57.515-45.244 5.339 0 10.513 0.707 15.433 2.032l-0.414-0.095 274.389 72.149c25.984 7.105 44.767 30.504 44.767 58.289 0 5.614-0.767 11.048-2.201 16.205l0.101-0.424-70.912 279.851c-6.818 26.041-30.138 44.943-57.873 44.943-4.991 0-9.839-0.612-14.474-1.766l0.411 0.087zM257.707 104.192c-2.588-0.686-5.559-1.081-8.623-1.081-16.505 0-30.337 11.442-33.996 26.827l-0.048 0.238c-0.703 2.643-1.107 5.677-1.107 8.805 0 16.498 11.227 30.374 26.458 34.403l0.248 0.056c2.588 0.686 5.559 1.081 8.623 1.081 16.505 0 30.337-11.442 33.996-26.827l0.048-0.238c0.703-2.643 1.107-5.677 1.107-8.805 0-16.498-11.227-30.374-26.458-34.403l-0.248-0.056zM209.451 293.632c-2.507-0.643-5.385-1.012-8.35-1.012-16.465 0-30.27 11.387-33.97 26.715l-0.049 0.239c-0.703 2.643-1.107 5.677-1.107 8.805 0 16.498 11.227 30.374 26.458 34.403l0.248 0.056c2.588 0.686 5.559 1.081 8.623 1.081 16.505 0 30.337-11.442 33.996-26.827l0.048-0.238c0.641-2.544 1.009-5.464 1.009-8.47 0-16.552-11.154-30.499-26.355-34.734l-0.254-0.060zM328.661 217.643c-2.588-0.686-5.559-1.081-8.623-1.081-16.505 0-30.337 11.442-33.996 26.827l-0.048 0.238c-0.703 2.643-1.107 5.677-1.107 8.805 0 16.498 11.227 30.374 26.458 34.403l0.248 0.056c2.588 0.686 5.559 1.081 8.623 1.081 16.505 0 30.337-11.442 33.996-26.827l0.048-0.238c0.604-2.481 0.95-5.329 0.95-8.258 0-16.587-11.11-30.58-26.294-34.943l-0.257-0.063zM444.117 153.173c-2.588-0.686-5.559-1.081-8.623-1.081-16.505 0-30.337 11.442-33.996 26.827l-0.048 0.238c-0.703 2.643-1.107 5.677-1.107 8.805 0 16.498 11.227 30.374 26.458 34.403l0.248 0.056c2.588 0.686 5.559 1.081 8.623 1.081 16.505 0 30.337-11.442 33.996-26.827l0.048-0.238c0.703-2.643 1.107-5.677 1.107-8.805 0-16.498-11.227-30.374-26.458-34.403l-0.248-0.056zM395.861 342.699c-2.588-0.686-5.559-1.081-8.623-1.081-16.505 0-30.337 11.442-33.996 26.827l-0.048 0.238c-0.703 2.643-1.107 5.677-1.107 8.805 0 16.498 11.227 30.374 26.458 34.403l0.248 0.056c2.588 0.686 5.559 1.081 8.623 1.081 16.505 0 30.337-11.442 33.996-26.827l0.048-0.238c0.641-2.544 1.009-5.464 1.009-8.47 0-16.552-11.154-30.499-26.355-34.734l-0.254-0.060z" />
<glyph unicode="&#xe922;" glyph-name="Belote" d="M394.453 82.56l-210.645-18.176c-1.65-0.196-3.561-0.308-5.498-0.308-25.326 0-46.19 19.104-48.966 43.688l-0.021 0.225-43.52 446.891c-0.193 1.64-0.304 3.54-0.304 5.465 0 25.318 19.076 46.18 43.639 48.999l0.228 0.021 83.541 7.253-25.6-428.757c-0.205-2.242-0.322-4.848-0.322-7.482 0-46.954 37.179-85.224 83.704-86.977l0.16-0.005zM365.397 158.848c-42.114 7.866-73.566 44.337-73.566 88.154 0 4.787 0.375 9.487 1.099 14.071l-0.066-0.507 68.992 414.208-54.485 3.627c-0.78 0.042-1.692 0.065-2.611 0.065-27.082 0-49.338-20.665-51.858-47.087l-0.016-0.21-29.056-446.933c-0.040-0.768-0.063-1.667-0.063-2.572 0-27.090 20.66-49.355 47.084-51.897l0.212-0.016 297.813-18.176c1.587-0.291 3.413-0.458 5.278-0.458 7.813 0 14.942 2.924 20.353 7.738l-0.031-0.027zM470.741 227.883c-37.819 13.096-64.489 48.408-64.489 89.95 0 8.056 1.003 15.877 2.891 23.346l-0.141-0.656 112.597 388.779-61.781 10.88c-2.112 0.301-4.55 0.473-7.029 0.473-24.717 0-45.443-17.087-51.010-40.093l-0.073-0.358-72.533-443.307c-0.305-2.127-0.48-4.583-0.48-7.080 0-24.704 17.069-45.421 40.057-51.001l0.359-0.074 294.101-47.36c3.202-0.899 6.879-1.416 10.677-1.416 11.459 0 21.819 4.705 29.253 12.289l0.007 0.007zM953.728 642.048l-127.104-428.715c-6.877-20.273-25.738-34.602-47.945-34.602-4.912 0-9.661 0.701-14.151 2.009l0.357-0.089-286.933 83.584c-20.276 6.891-34.604 25.76-34.604 47.976 0 4.916 0.702 9.669 2.010 14.162l-0.089-0.357 126.933 428.715c6.877 20.273 25.738 34.602 47.945 34.602 4.912 0 9.661-0.701 14.151-2.009l-0.357 0.089 286.933-83.584c20.731-4.941 35.91-23.306 35.91-45.216 0-5.956-1.122-11.65-3.165-16.882l0.109 0.316zM783.061 489.429c-3.627 0-3.627 0-7.253 3.627 8.809 8.142 16.109 17.759 21.54 28.483l0.263 0.573c2.857 7.022 4.515 15.168 4.515 23.701 0 35.601-28.861 64.462-64.462 64.462-27.068 0-50.239-16.683-59.792-40.328l-0.154-0.433c-2.394-8.179-3.771-17.575-3.771-27.293 0-1.896 0.052-3.78 0.156-5.65l-0.011 0.26h-3.755c-6.998 2.838-15.115 4.484-23.616 4.484-35.584 0-64.431-28.847-64.431-64.431 0-27.083 16.71-50.263 40.382-59.793l0.433-0.154c6.553-2.491 14.129-3.933 22.043-3.933 13.48 0 25.982 4.184 36.28 11.324l-0.211-0.138-18.005-50.944 18.176-7.253 18.176 50.859c4.82-20.696 19.905-37.011 39.471-43.484l0.422-0.121c7.216-3.124 15.618-4.942 24.445-4.942 26.99 0 50.012 16.991 58.953 40.859l0.143 0.434c1.725 5.583 2.719 12.001 2.719 18.651 0 27.938-17.538 51.779-42.206 61.114l-0.449 0.149z" />
<glyph unicode="&#xe923;" glyph-name="Hokm" d="M568.875 307.627v0l-121.6 443.605c-6.455 22.086-26.525 37.946-50.299 37.946-4.672 0-9.202-0.613-13.512-1.762l0.365 0.083-302.421-78.763c-22.362-5.815-38.605-25.824-38.605-49.627 0-4.469 0.573-8.805 1.649-12.937l-0.079 0.356 121.6-443.733c6.455-22.086 26.525-37.946 50.299-37.946 4.672 0 9.202 0.613 13.512 1.762l-0.365-0.083 302.379 78.933c22.41 5.526 38.767 25.452 38.767 49.199 0 4.61-0.617 9.077-1.772 13.321l0.082-0.355zM358.443 361.515l-29.611 104.704-38.059-10.368 29.611-104.619-53.931-14.507-66.645 240.384 53.931 14.507 26.325-97.451 38.059 10.368-26.453 97.408 53.931 14.507 67.797-240.427zM965.547 695.253c-5.004 4.834-10.98 8.699-17.602 11.269l-0.361 0.123c-1.067 0-3.157 1.024-4.267 1.024h-1.067l-301.312 79.829c-4.076 1.159-8.757 1.825-13.593 1.825-10.268 0-19.834-3.002-27.869-8.177l0.204 0.123c-3.878-1.905-7.081-4.656-9.462-8.029l-0.052-0.078-3.157-3.115c-1.284-1.192-2.342-2.606-3.12-4.183l-0.037-0.084c-3.115-4.454-5.634-9.615-7.284-15.151l-0.097-0.38-43.392-159.701 75.093-272.597c2.046-7.095 3.222-15.244 3.222-23.668 0-16.904-4.738-32.702-12.958-46.138l0.221 0.388c-6.474-9.824-13.797-18.327-22.071-25.796l-0.116-0.103 217.813-57.003c3.157-1.024 6.357-1.024 10.581-2.091h6.357c22.611 1.030 41.241 16.903 46.435 38.056l0.071 0.344 121.6 443.733c1.301 4.158 2.050 8.94 2.050 13.896 0 14.132-6.091 26.842-15.791 35.646l-0.040 0.036zM757.248 336.853l-53.931 14.507 29.611 104.661-38.059 10.368-29.525-104.875-54.997 14.507 66.603 240.427 54.997-14.507-27.563-97.579 38.059-10.368 26.453 97.408 53.931-14.507z" />
<glyph unicode="&#xe924;" glyph-name="Joker" d="M942.805 665.344l-301.824 79.317c-4.028 1.106-8.653 1.741-13.427 1.741-23.861 0-44.015-15.872-50.478-37.635l-0.095-0.373-43.776-159.488 74.965-273.579c2.106-7.217 3.317-15.508 3.317-24.082 0-16.933-4.724-32.762-12.926-46.242l0.223 0.394c-6.067-9.994-13.519-18.466-22.213-25.455l-0.187-0.145 217.6-57.173c4.028-1.106 8.653-1.741 13.427-1.741 23.861 0 44.015 15.872 50.478 37.635l0.095 0.373 121.301 443.733c1.239 4.155 1.952 8.93 1.952 13.871 0 23.56-16.21 43.334-38.086 48.777l-0.346 0.073zM860.032 405.077c-2.187-5.323-7.332-9.004-13.336-9.004-1.751 0-3.43 0.313-4.982 0.887l0.1-0.032c-5.495 1.881-9.375 7.001-9.375 13.027 0 1.363 0.199 2.68 0.568 3.923l-0.025-0.097c-33.005-0.379-61.314-20.097-74.158-48.337l-0.21-0.517c-2.091-6.144-29.867-2.048-60.928 9.173s-54.656 25.003-52.565 31.147l1.579 6.144c20.309 75.563 0 98.56-15.616 105.173 0-0.512 0-1.024-0.512-1.024-2.187-5.323-7.332-9.004-13.336-9.004-1.751 0-3.43 0.313-4.982 0.887l0.1-0.032c-5.496 1.942-9.363 7.092-9.363 13.145 0 1.698 0.304 3.324 0.861 4.828l-0.031-0.096c2.187 5.323 7.332 9.004 13.336 9.004 1.751 0 3.43-0.313 4.982-0.887l-0.1 0.032c4.5-1.635 7.848-5.436 8.817-10.109l0.015-0.089c3.704 0.791 7.96 1.244 12.322 1.244 27.046 0 50.024-17.415 58.333-41.642l0.129-0.434c15.744 26.209 44.022 43.475 76.331 43.475 1.35 0 2.694-0.030 4.029-0.090l-0.19 0.007c0.099 1.683 0.466 3.253 1.059 4.706l-0.035-0.098c2.187 5.323 7.332 9.004 13.336 9.004 1.751 0 3.43-0.313 4.982-0.887l-0.1 0.032c5.496-1.942 9.363-7.092 9.363-13.145 0-1.698-0.304-3.324-0.861-4.828l0.031 0.096c-2.187-5.323-7.332-9.004-13.336-9.004-1.751 0-3.43 0.313-4.982 0.887l0.1-0.032c-2.8 1-5.117 2.78-6.755 5.077l-0.029 0.043c-29.141-22.955-15.616-68.907-15.616-68.907 5.567 1.96 11.987 3.093 18.671 3.093 22.004 0 41.141-12.275 50.937-30.35l0.152-0.306c2.251 1.412 4.987 2.25 7.919 2.25 1.637 0 3.213-0.261 4.689-0.744l-0.107 0.030c5.685-1.719 9.753-6.911 9.753-13.053 0-1.686-0.307-3.3-0.867-4.79l0.031 0.094zM568.704 265.045l-121.387 443.691c-6.54 22.138-26.688 38.017-50.544 38.017-4.784 0-9.419-0.639-13.825-1.835l0.369 0.085-301.995-79.147c-22.395-5.792-38.67-25.817-38.67-49.643 0-4.68 0.628-9.214 1.804-13.521l-0.084 0.359 121.301-443.733c6.54-22.138 26.688-38.017 50.544-38.017 4.784 0 9.419 0.639 13.825 1.835l-0.369-0.085 301.952 79.147c22.461 5.745 38.801 25.802 38.801 49.676 0 4.684-0.629 9.221-1.807 13.531l0.084-0.359zM432.171 461.611c-1.444-0.553-3.114-0.874-4.859-0.874-5.74 0-10.671 3.467-12.812 8.421l-0.035 0.090c-17.382-14.648-28.349-36.43-28.349-60.774 0-8.182 1.239-16.074 3.539-23.5l-0.15 0.562c2.091-6.144-21.333-19.925-52.565-31.147s-58.368-15.317-60.373-9.173l-3.115 5.589c-34.347 70.357-64.555 75.605-81.237 70.997 0-0.512 0.512-0.512 0.512-1.024 0.526-1.408 0.83-3.034 0.83-4.732 0-6.054-3.867-11.204-9.266-13.115l-0.097-0.030c-1.453-0.541-3.131-0.854-4.882-0.854-6.004 0-11.149 3.68-13.301 8.908l-0.035 0.096c-0.526 1.408-0.83 3.034-0.83 4.732 0 6.054 3.867 11.204 9.266 13.115l0.097 0.030c1.392 0.449 2.992 0.708 4.654 0.708 3.316 0 6.391-1.031 8.923-2.789l-0.052 0.034c11.608 13.817 28.894 22.537 48.218 22.537 12.153 0 23.5-3.45 33.117-9.423l-0.267 0.155c-0.879 4.588-1.381 9.864-1.381 15.258 0 28.013 13.56 52.86 34.474 68.334l0.231 0.163c-0.986 1.186-1.714 2.622-2.077 4.198l-0.013 0.069c-0.526 1.408-0.83 3.034-0.83 4.732 0 6.054 3.867 11.204 9.266 13.115l0.097 0.030c1.453 0.541 3.131 0.854 4.882 0.854 6.004 0 11.149-3.68 13.301-8.908l0.035-0.096c0.526-1.408 0.83-3.034 0.83-4.732 0-6.054-3.867-11.204-9.266-13.115l-0.097-0.030c-1.314-0.484-2.833-0.764-4.416-0.764s-3.102 0.28-4.507 0.793l0.091-0.029c-7.296-36.267 33.323-62.805 33.323-62.805 10.516 16.47 28.698 27.234 49.394 27.234 7.91 0 15.452-1.572 22.332-4.421l-0.388 0.142c1.43 4.004 4.529 7.103 8.436 8.503l0.097 0.030c1.453 0.541 3.131 0.854 4.882 0.854 6.004 0 11.149-3.68 13.301-8.908l0.035-0.096c0.461-1.395 0.727-3.002 0.727-4.67 0-6.44-3.963-11.955-9.584-14.237l-0.103-0.037z" />
<glyph unicode="&#xe925;" glyph-name="Back" d="M896 490.667h-604.587l152.747 153.173-60.16 60.16-256-256 256-256 60.16 60.16-152.747 153.173h604.587z" />
<glyph unicode="&#xe926;" glyph-name="Apps" d="M170.688 789.312h298.688v-298.688h-298.688v298.688zM170.688 405.312h298.688v-298.688h-298.688v298.688zM554.688 789.312h298.688v-298.688h-298.688v298.688zM554.688 405.312h298.688v-298.688h-298.688v298.688z" />
<glyph unicode="&#xe927;" glyph-name="Wallet" d="M896 192v-42.667c-0.145-47.070-38.264-85.188-85.319-85.333h-597.347c-47.128 0-85.333 38.205-85.333 85.333v0 597.333c0 47.128 38.205 85.333 85.333 85.333v0h597.333c47.070-0.145 85.188-38.264 85.333-85.319v-42.681h-384c-47.128 0-85.333-38.205-85.333-85.333v0-341.333c0-47.128 38.205-85.333 85.333-85.333v0zM512 277.333h426.667v341.333h-426.667zM682.667 384c-35.346 0-64 28.654-64 64s28.654 64 64 64c35.346 0 64-28.654 64-64v0c0-35.346-28.654-64-64-64v0z" />
<glyph unicode="&#xe928;" glyph-name="Competitions" d="M512 223.147l263.68-159.147-69.973 299.947 232.96 201.813-306.773 26.027-119.893 282.88-119.893-282.88-306.773-26.027 232.96-201.813-69.973-299.947z" />
<glyph unicode="&#xe929;" glyph-name="Promotions" d="M984.576 522.965c0 193.237-56.448 349.525-125.909 351.701h-78.165c-130.064-91.063-283.345-159.303-448.736-194.985l-8.267-1.495c-8.323-43.462-13.084-93.45-13.084-144.551 0-3.752 0.026-7.497 0.077-11.236l-0.006 0.566c-0.002-0.752-0.004-1.643-0.004-2.534 0-53.943 4.735-106.781 13.813-158.12l-0.796 5.432c173.66-37.178 326.94-105.418 461.069-199.173l-4.067 2.693h78.165c69.461 2.176 125.909 158.507 125.909 351.701zM831.531 225.536c-8.533 0-18.475 9.771-23.893 15.189-14.189 17.271-25.627 37.459-33.25 59.43l-0.414 1.37c-22.112 62.056-34.892 133.637-34.892 208.204 0 5.044 0.058 10.075 0.175 15.091l-0.014-0.745c-0.103 4.283-0.162 9.327-0.162 14.386 0 74.568 12.78 146.15 36.269 212.677l-1.376-4.471c8.037 23.342 19.476 43.529 33.936 61.141l-0.272-0.341c5.419 5.419 15.189 15.189 23.893 15.189s18.475-9.771 23.893-15.189c14.173-17.272 25.597-37.46 33.208-59.429l0.413-1.371c22.112-62.056 34.892-133.637 34.892-208.204 0-5.044-0.058-10.075-0.175-15.091l0.014 0.745c0.103-4.271 0.161-9.301 0.161-14.346 0-74.566-12.779-146.148-36.267-212.674l1.376 4.471c-8.037-23.342-19.476-43.529-33.936-61.141l0.272 0.341c-5.255-8.183-13.801-13.86-23.724-15.171l-0.169-0.018zM242.091 522.965c-0.017 2.017-0.027 4.402-0.027 6.79 0 48.19 3.951 95.458 11.547 141.496l-0.683-5.011c-39.817-6.22-85.739-9.773-132.491-9.773-0.746 0-1.493 0.001-2.238 0.003h-64.993l-53.205-90.112v-84.651l53.205-91.179h64c0.858 0.003 1.874 0.005 2.89 0.005 46.483 0 92.136-3.554 136.701-10.405l-4.978 0.63c-6.223 41.628-9.777 89.671-9.777 138.544 0 1.288 0.002 2.576 0.007 3.863l-0.001-0.199zM353.92 318.891l-122.667 23.893 79.232-309.376c2.837-11.81 13.308-20.452 25.797-20.452 3.621 0 7.073 0.727 10.217 2.042l-0.175-0.065 113.963 45.611c10.221 4.003 17.327 13.778 17.327 25.213 0 4.673-1.187 9.068-3.275 12.902l0.071-0.142zM831.573 409.003c-3.59 0.515-6.627 2.527-8.505 5.373l-0.028 0.046c-5.209 6.871-9.601 14.766-12.799 23.247l-0.214 0.646c-8.294 23.813-13.084 51.261-13.084 79.828 0 2.086 0.026 4.166 0.076 6.24l-0.006-0.307c-0.045 1.766-0.070 3.846-0.070 5.932 0 28.567 4.79 56.015 13.611 81.585l-0.527-1.757c3.721 9.132 8.088 16.999 13.257 24.254l-0.244-0.36c2.176 2.176 5.419 5.419 8.533 5.419 3.59-0.515 6.627-2.527 8.505-5.373l0.028-0.046c5.209-6.871 9.601-14.766 12.799-23.247l0.214-0.646c8.294-23.813 13.084-51.261 13.084-79.828 0-2.086-0.026-4.166-0.076-6.24l0.006 0.307c0.055-1.955 0.086-4.256 0.086-6.564 0-28.349-4.717-55.596-13.41-80.999l0.523 1.76c-3.721-9.132-8.088-16.999-13.257-24.254l0.244 0.36c-1.906-2.891-4.944-4.904-8.468-5.411l-0.065-0.008z" />
<glyph unicode="&#xe92a;" glyph-name="Tournaments" d="M910.251 760.875l-0.853 28.459h-190.293v-58.581h129.323c-3.655-60.501-16.409-116.968-36.928-169.548l1.302 3.788c-33.646-97.803-114.663-171.174-214.918-193.427l-1.957-0.365v-59.733c128.742 23.034 232.014 112.957 273.715 231.841l0.759 2.485c25.091 63.823 39.688 137.731 39.808 215.033v0.049zM428.117 371.2c-102.203 22.61-183.217 95.964-216.254 191.68l-0.621 2.069c-19.218 48.792-31.972 105.259-35.551 164.203l-0.076 1.557h129.28v58.624h-190.251l-0.853-28.459c0.104-77.335 14.702-151.231 41.223-219.157l-1.415 4.117c42.473-121.354 145.713-211.276 272.277-234.046l2.155-0.322zM557.525 218.24v217.259c93.162 34.746 158.309 122.958 158.309 226.386 0 5.135-0.161 10.232-0.477 15.287l0.035-0.692c0 0.111 0 0.242 0 0.373 0 16.436-1.319 32.565-3.857 48.285l0.23-1.725h-395.093c-2.308-13.995-3.627-30.124-3.627-46.56 0-0.131 0-0.262 0-0.393v0.020c-0.283-4.372-0.444-9.479-0.444-14.624 0-103.421 65.149-191.626 156.647-225.812l1.664-0.545v-217.259c-53.971-18.652-96.267-58.97-117.166-110.28l-0.466-1.293h322.176c-21.427 52.659-63.839 92.994-116.571 111.166l-1.359 0.407z" />
<glyph unicode="&#xe92b;" glyph-name="Games" d="M864 729.6l-51.2 22.4v-345.6l92.8 224c16 38.4-3.2 83.2-41.6 99.2zM118.4 588.8l188.8-454.4c16-38.4 57.6-57.6 96-44.8 0 0 3.2 0 3.2 0l281.6 115.2c28.8 12.8 44.8 38.4 48 67.2 0 9.6 0 22.4-6.4 32l-192 454.4c-9.6 28.8-38.4 48-70.4 48-9.6 0-19.2-3.2-28.8-6.4l-278.4-112c-38.4-16-57.6-60.8-41.6-99.2zM736 732.8c0 41.6-35.2 76.8-76.8 76.8h-54.4l131.2-316.8z" />
<glyph unicode="&#xe92c;" glyph-name="Race" d="M85.333 40.363l276.309 732.672 22.357 58.965c23.062-49.746 66.621-86.66 119.535-100.249l1.255-0.273c23.203-4.074 49.92-6.403 77.181-6.403 25.667 0 50.852 2.065 75.398 6.037l-2.691-0.359c26.271 4.25 56.555 6.678 87.407 6.678 22.117 0 43.943-1.248 65.411-3.677l-2.631 0.242c60.063-10.525 109.222-49.382 133.847-102.013l0.468-1.113-167.637-444.587c-25.099 53.739-74.255 92.593-133.225 102.967l-1.090 0.159c-18.854 2.197-40.698 3.45-62.836 3.45-30.847 0-61.126-2.434-90.655-7.119l3.261 0.426c-21.863-3.625-47.057-5.696-72.734-5.696-27.267 0-53.988 2.336-79.975 6.818l2.778-0.397c-33.158 7.531-61.626 24.289-83.423 47.407l-0.076 0.081-117.76-312.363zM694.869 425.045l-29.611-78.507c32.473-6.364 60.896-20.617 84.159-40.688l-0.233 0.197 29.611 78.507c-23.037 19.859-51.457 34.109-82.773 40.301l-1.152 0.19q16.128 42.667 32.299 85.589c32.458-6.367 60.867-20.62 84.115-40.687l-0.233 0.196q16.171 42.667 32.299 85.632c-23.028 19.837-51.433 34.071-82.73 40.258l-1.153 0.19 29.611 78.507c-19.046 2.869-41.025 4.507-63.386 4.507-12.229 0-24.344-0.49-36.326-1.451l1.579 0.102-29.611-78.507c-34.133-2.688-68.267-6.571-102.741-9.259l29.611 78.507c-10.403-0.86-22.518-1.35-34.747-1.35-22.362 0-44.341 1.638-65.823 4.802l2.437-0.295q-14.805-39.211-29.568-78.507c-32.474 6.356-60.9 20.61-84.158 40.687l0.232-0.196-32.256-85.632c23.035-19.843 51.459-34.068 82.779-40.218l1.146-0.188-32.256-85.675c19.042-2.87 41.016-4.509 63.373-4.509 12.234 0 24.354 0.491 36.34 1.454l-1.579-0.102-29.611-78.507c34.133 2.688 68.267 6.571 102.741 9.259l29.611 78.507c-34.133-2.688-68.267-6.571-102.741-9.259l32.299 85.589c-10.403-0.86-22.518-1.35-34.747-1.35-22.362 0-44.341 1.638-65.823 4.802l2.437-0.295 32.213 85.419c19.046-2.869 41.025-4.507 63.386-4.507 12.229 0 24.344 0.49 36.326 1.451l-1.579-0.102-32.256-85.589c34.133 2.688 68.267 6.571 102.741 9.259l-32.299-85.589c12.8 0.768 25.6 1.237 37.973 1.237 1.052 0.010 2.295 0.016 3.54 0.016 19.951 0 39.545-1.526 58.672-4.468l-2.137 0.27zM282.453 384c23.029-19.874 51.453-34.127 82.777-40.302l1.149-0.189 29.611 78.507c-32.478 6.337-60.907 20.595-84.155 40.685l0.23-0.194zM629.077 513.707l32.256 85.675c10.403 0.86 22.518 1.35 34.747 1.35 22.362 0 44.341-1.638 65.823-4.802l-2.437 0.295q-16.128-42.667-32.299-85.589c-19.038 2.869-41.006 4.507-63.358 4.507-12.224 0-24.334-0.49-36.311-1.452l1.578 0.102z" />
<glyph unicode="&#xe92d;" glyph-name="Settings" d="M829.013 406.187c1.779 12.456 2.861 26.947 2.986 41.666l0.001 0.147c-0.126 14.866-1.207 29.357-3.186 43.561l0.199-1.748 90.027 70.4c4.883 3.942 7.98 9.928 7.98 16.637 0 3.929-1.062 7.609-2.914 10.77l0.055-0.101-85.333 147.627c-3.757 6.423-10.621 10.669-18.476 10.669-0.104 0-0.209-0.001-0.313-0.002h0.016c-0.066 0.001-0.145 0.001-0.224 0.001-2.526 0-4.942-0.47-7.166-1.327l0.136 0.046-106.24-42.667c-20.81 16.273-44.57 30.306-70.057 41.047l-2.050 0.767-16.213 113.067c-1.473 10.184-10.142 17.922-20.618 17.922-0.101 0-0.202-0.001-0.303-0.002h-170.652c-0.086 0.001-0.187 0.002-0.288 0.002-10.477 0-19.146-7.738-20.605-17.81l-0.013-0.112-16.213-113.067c-27.528-11.715-51.268-25.73-72.873-42.381l0.766 0.568-106.24 42.667c-2.289 0.803-4.928 1.271-7.676 1.28h-0.004c-7.805-0.049-14.611-4.281-18.292-10.566l-0.055-0.101-85.333-147.627c-1.853-3.070-2.95-6.778-2.95-10.742 0-6.706 3.138-12.678 8.025-16.53l0.045-0.034 90.027-70.4c-1.763-12.439-2.844-26.929-2.985-41.644l-0.001-0.169c0.143-14.884 1.224-29.374 3.187-43.582l-0.2 1.769-90.027-70.4c-4.883-3.942-7.98-9.928-7.98-16.637 0-3.929 1.062-7.609 2.914-10.77l-0.055 0.101 85.333-147.627c3.757-6.423 10.621-10.669 18.476-10.669 0.104 0 0.209 0.001 0.313 0.002h-0.016c0.066-0.001 0.145-0.001 0.224-0.001 2.526 0 4.942 0.47 7.166 1.327l-0.136-0.046 106.24 42.667c20.81-16.273 44.57-30.306 70.057-41.047l2.050-0.767 16.213-113.067c1.473-10.184 10.142-17.922 20.618-17.922 0.101 0 0.202 0.001 0.303 0.002h170.652c0.086-0.001 0.187-0.002 0.288-0.002 10.477 0 19.146 7.738 20.605 17.81l0.013 0.112 16.213 113.067c27.528 11.715 51.268 25.73 72.873 42.381l-0.766-0.568 106.24-42.667c2.289-0.803 4.928-1.271 7.676-1.28h0.004c7.805 0.049 14.611 4.281 18.292 10.566l0.055 0.101 85.333 147.627c1.798 3.061 2.86 6.741 2.86 10.67 0 6.709-3.097 12.695-7.939 16.605l-0.041 0.032zM744.533 479.147c1.358-9.348 2.133-20.141 2.133-31.115 0-0.011 0-0.023 0-0.034v0.002c0-8.96-0.853-18.347-2.133-31.147l-5.973-48.213 37.973-29.867 46.080-35.84-29.867-51.627-54.187 21.76-44.373 17.92-38.4-29.013c-15.426-11.894-32.975-22.324-51.725-30.52l-1.609-0.627-45.227-18.347-6.827-48.213-8.533-57.6h-59.733l-8.107 57.6-6.827 48.213-45.227 18.347c-20.035 8.525-37.31 18.678-53.064 30.722l0.584-0.428-38.827 29.867-45.227-18.347-54.187-21.76-29.867 51.627 46.080 35.84 37.973 29.867-5.973 48.213c-1.28 13.227-2.133 23.040-2.133 31.573s0.853 18.347 2.133 31.147l5.973 48.213-37.973 29.867-46.080 35.84 29.867 51.627 54.187-21.76 44.373-17.92 38.4 29.013c15.426 11.894 32.975 22.324 51.725 30.52l1.609 0.627 45.227 18.347 6.827 48.213 8.533 57.6h59.307l8.107-57.6 6.827-48.213 45.227-18.347c20.035-8.525 37.31-18.678 53.064-30.722l-0.584 0.428 38.827-29.867 45.227 18.347 54.187 21.76 29.867-51.627-45.653-36.267-37.973-29.867 5.973-48.213zM512 618.667c-94.257 0-170.667-76.41-170.667-170.667s76.41-170.667 170.667-170.667c94.257 0 170.667 76.41 170.667 170.667v0c0 94.257-76.41 170.667-170.667 170.667v0zM512 362.667c-47.128 0-85.333 38.205-85.333 85.333s38.205 85.333 85.333 85.333c47.128 0 85.333-38.205 85.333-85.333v0c-0.145-47.070-38.264-85.188-85.319-85.333h-0.014z" />
<glyph unicode="&#xe92e;" glyph-name="Home" d="M426.667 106.667v256h170.667v-256h213.333v341.333h128l-426.667 384-426.667-384h128v-341.333z" />
<glyph unicode="&#xe92f;" glyph-name="Help" d="M469.333 192h85.333v85.333h-85.333zM512 874.667c-235.641 0-426.667-191.025-426.667-426.667s191.025-426.667 426.667-426.667c235.641 0 426.667 191.025 426.667 426.667v0c0 235.641-191.025 426.667-426.667 426.667v0zM512 106.667c-188.513 0-341.333 152.82-341.333 341.333s152.82 341.333 341.333 341.333c188.513 0 341.333-152.82 341.333-341.333v0c-0.267-188.406-152.928-341.067-341.308-341.333h-0.025zM512 704c-94.257 0-170.667-76.41-170.667-170.667v0h85.333c0 47.128 38.205 85.333 85.333 85.333s85.333-38.205 85.333-85.333v0c0-85.333-128-74.667-128-213.333h85.333c0 96 128 106.667 128 213.333 0 94.257-76.41 170.667-170.667 170.667v0z" />
<glyph unicode="&#xe930;" glyph-name="AMD" horiz-adv-x="839" d="M536.597-64v250.067h-140.101v120.107h140.101v90.619h-140.101v120.107h140.101v101.767c0.004 0.54 0.007 1.178 0.007 1.816 0 26.187-4.106 51.415-11.708 75.076l0.482-1.735c-7.509 23.674-19.040 44.148-33.939 61.671l0.208-0.251c-15.232 17.595-33.964 31.721-55.164 41.375l-1.006 0.41c-21.964 9.801-47.596 15.508-74.561 15.508-1.449 0-2.893-0.016-4.334-0.049l0.214 0.004c-1.901 0.071-4.135 0.111-6.377 0.111-29.672 0-57.695-7.055-82.486-19.578l1.048 0.48c-22.493-11.879-41.256-27.953-55.865-47.333l-0.304-0.422c-13.234-17.764-23.498-38.63-29.555-61.217l-0.292-1.281c-5.302-18.669-8.487-40.152-8.773-62.333l-0.002-0.165c-0.039-1.832-0.062-3.991-0.062-6.155 0-42.906 8.803-83.755 24.701-120.841l-0.762 1.999-161.173-49.122c-23.136 48.254-36.652 104.897-36.652 164.698 0 3.338 0.042 6.667 0.126 9.985l-0.010-0.491c-0.021 1.44-0.033 3.139-0.033 4.841 0 48.439 9.821 94.585 27.58 136.554l-0.865-2.301c17.879 41.972 43.063 77.623 74.272 106.935l0.166 0.154c31.555 29.248 69.071 52.582 110.463 67.934l2.308 0.75c41.173 15.366 88.747 24.258 138.398 24.258 1.458 0 2.914-0.008 4.369-0.023l-0.221 0.002c1.214 0.012 2.65 0.019 4.086 0.019 47.837 0 93.904-7.583 137.062-21.613l-3.134 0.881c42.559-13.675 79.248-35.066 110.182-62.752l-0.288 0.254c31.135-28.573 55.832-63.633 72.015-103.086l0.696-1.917c16.72-41.573 26.42-89.774 26.42-140.24 0-3.036-0.035-6.064-0.105-9.083l0.008 0.449v-106.082h134.85v-120.107h-134.85v-90.619h134.85v-120.107h-134.85v-249.923z" />
<glyph unicode="&#xe931;" glyph-name="Minesweeper" d="M866.432 755.115c-3.372 5.282-9.203 8.733-15.84 8.733-1.649 0-3.248-0.213-4.771-0.613l0.13 0.029-67.413-15.317-55.125 38.4c-3.059 2.152-6.862 3.439-10.965 3.439s-7.906-1.287-11.027-3.48l0.061 0.041c-5.012-3.459-8.255-9.171-8.255-15.64 0-1.705 0.225-3.358 0.648-4.93l-0.030 0.133 11.733-45.44c-119.467 22.443-196.053-68.949-226.688-133.76l-49.024 19.925c-2.181 0.971-4.726 1.536-7.403 1.536s-5.222-0.565-7.521-1.583l0.119 0.047c-4.561-2.062-8.135-5.637-10.146-10.071l-0.051-0.126-30.123-73.003c-86.004-1.935-159.021-55.515-189.409-130.863l-0.5-1.404c-10.414-24.438-16.468-52.867-16.468-82.709s6.054-58.272 17-84.125l-0.532 1.416c22.314-53.157 63.75-94.592 115.491-116.378l1.415-0.529c24.154-10.334 52.259-16.342 81.768-16.342 0.159 0 0.317 0 0.476 0.001h-0.025c89.587 0.059 166.413 54.631 199.107 132.338l0.531 1.422c10.421 24.282 16.48 52.542 16.48 82.218 0 56.292-21.803 107.492-57.425 145.616l0.113-0.122 30.165 73.003c0.747 2.009 1.179 4.33 1.179 6.752 0 8.112-4.848 15.092-11.804 18.201l-0.126 0.050-48 19.925c19.968 39.808 78.635 132.736 186.88 110.933l-29.611-38.4c-2.439-3.181-3.908-7.217-3.908-11.596 0-4.072 1.271-7.848 3.437-10.952l-0.041 0.062c3.62-5.019 9.451-8.249 16.036-8.249 1.73 0 3.409 0.223 5.008 0.642l-0.137-0.031 63.317 18.389 58.197-41.344c3.175-2.089 7.028-3.4 11.174-3.582l0.047-0.002c4.302 0.089 8.215 1.688 11.245 4.287l-0.024-0.020c4.894 3.516 8.045 9.193 8.045 15.605 0 2.045-0.321 4.016-0.914 5.864l0.038-0.136-22.485 65.835 44.416 53.589c2.84 3.232 4.572 7.497 4.572 12.167 0 3.777-1.133 7.289-3.079 10.215l0.043-0.068zM281.899 336.981c-2.862-7.222-9.783-12.237-17.876-12.245h-0.001c-0.064-0.001-0.139-0.001-0.215-0.001-2.509 0-4.886 0.567-7.009 1.58l0.098-0.042c-7.127 2.967-12.046 9.875-12.046 17.932 0 2.545 0.491 4.975 1.383 7.201l-0.046-0.13c24.182 58.082 80.482 98.171 146.145 98.171 1.211 0 2.419-0.014 3.624-0.041l-0.179 0.003c10.533-0.446 18.903-9.093 18.903-19.695 0-0.081 0-0.162-0.001-0.242v0.012c-0.509-10.267-8.958-18.399-19.306-18.399-0.218 0-0.435 0.004-0.651 0.011l0.031-0.001h-2.048c-0.194 0.001-0.424 0.002-0.654 0.002-49.547 0-92.024-30.27-109.946-73.326l-0.291-0.788z" />
<glyph unicode="&#xe932;" glyph-name="Pasoor" d="M272.128 468.48c10.715 16.782 26.249 29.658 44.639 36.819l0.63 0.216-144 87.211-88.064-199.125 186.368-112.725 25.941 59.264c-24.517 17.338-40.33 45.574-40.33 77.503 0 18.87 5.523 36.45 15.040 51.212l-0.225-0.373zM482.773 362.752c-15.225 17.472-24.508 40.468-24.508 65.633 0 30.074 13.258 57.052 34.247 75.408l0.117 0.1 3.285 3.285c-0.466 0.014-1.013 0.022-1.563 0.022-5.308 0-10.44-0.756-15.293-2.167l0.387 0.096h-0.811c-0.567 0.221-0.961 0.762-0.961 1.395 0 0.238 0.055 0.462 0.154 0.662l-0.004-0.009c6.041 10.537 9.604 23.163 9.604 36.622 0 18.959-7.070 36.267-18.718 49.431l0.069-0.079c-13.973 15.705-34.226 25.561-56.782 25.6h-0.007c-19.077-0.012-36.515-7.021-49.888-18.599l0.096 0.081c-15.802-13.743-25.734-33.881-25.734-56.339 0-10.568 2.199-20.623 6.166-29.731l-0.187 0.481c2.623-7.496 6.548-13.936 11.555-19.366l-0.035 0.038c0.427-0.427 0.811-1.237 1.237-1.664s0.427-0.427 0.427-0.811c-0.043-0.665-0.572-1.194-1.233-1.237h-2.479c-3.851-0.072-7.558-0.364-11.198-0.866l0.489 0.055c-21.804-3.046-40.203-15.485-51.238-33.024l-0.175-0.299c-7.543-11.319-12.037-25.233-12.037-40.196 0-23.514 11.097-44.435 28.34-57.814l0.166-0.124c1.683-1.605 3.573-3.019 5.618-4.192l0.142-0.075c0.818-0.676 1.763-1.238 2.789-1.64l0.070-0.024c2.698-1.987 5.857-3.54 9.271-4.476l0.201-0.047c7.958-3.64 17.262-5.762 27.062-5.762 0.176 0 0.352 0.001 0.528 0.002h-0.027c0.002 0 0.003 0 0.005 0 26.125 0 49.104 13.471 62.369 33.846l0.175 0.287 6.571-61.312 27.563 2.901-7.424 65.835c10.908-12.703 26.041-21.505 43.198-24.224l0.407-0.053zM687.701 552.832l-50.603 58.837-115.627-108.587-14.805-13.995c-16.979-14.839-27.645-36.536-27.645-60.723 0-20.075 7.347-38.433 19.499-52.534l-0.088 0.105 2.859-2.901c4.017-4.307 8.624-7.991 13.71-10.941l0.285-0.152c3.691-2.732 7.913-5.086 12.424-6.867l0.376-0.131c4.512-1.901 9.77-3.39 15.243-4.22l0.373-0.046c3.705-0.782 7.964-1.232 12.327-1.237h0.004c19.939 0.050 38.041 7.873 51.446 20.596l-0.033-0.031 2.475 2.048-2.901-46.933 27.563-1.237 2.859 47.744 2.901-3.285c0.811-0.811 1.664-2.048 2.475-2.901 11.13-11.967 26.263-20.079 43.258-22.194l0.347-0.035-21.333 118.485c-1.67 6.978-2.627 14.99-2.627 23.225 0 26.019 9.556 49.805 25.351 68.041l-0.11-0.13zM973.653 420.352c-6.857 37.895-39.593 66.261-78.955 66.261-0.007 0-0.015 0-0.022 0h0.001c-5.109-0.021-10.098-0.471-14.952-1.314l0.531 0.076c-1.355-0.079-2.619-0.369-3.793-0.839l0.081 0.029-24.277-4.949-4.949 24.277c-6.842 38-39.58 66.481-79.001 66.645h-0.018c-5.083-0.005-10.058-0.455-14.892-1.313l0.513 0.076c-1.092-0.441-2.357-0.731-3.679-0.809l-0.033-0.002c-13.35-2.986-25.002-8.944-34.675-17.162l0.115 0.095c-2.896-1.932-5.352-4.252-7.37-6.922l-0.054-0.075c-2.703-2.283-5.131-4.697-7.352-7.295l-0.072-0.087c-11.042-14.239-17.701-32.36-17.701-52.035 0-6.646 0.76-13.115 2.197-19.324l-0.112 0.575 22.229-123.435 1.664-9.856 2.048-10.709 7.808-44.416 186.368 42.667c40.005 7.579 69.851 42.263 69.851 83.917 0 5.631-0.545 11.135-1.587 16.462l0.088-0.539z" />
<glyph unicode="&#xe933;" glyph-name="Penalty" d="M275.115 265.984c-20.091 34.671-32.922 75.839-35.381 119.777l-0.032 0.714v18.816c1.362 139.552 101.696 255.276 234.106 280.42l1.798 0.284h2.347c14.165 0 30.549 2.389 44.8 2.389 117.813-0.389 218.672-72.566 261.155-175.058l0.691-1.88c13.489-30.853 21.338-66.806 21.338-104.592 0-0.549-0.002-1.098-0.005-1.647v0.084c-0.484-156.145-126.945-282.591-283.050-283.051h-0.044c-105.366 0.482-197.292 57.564-246.988 142.388l-0.734 1.356zM298.667 254.208c19.449-7.584 41.956-12.65 65.437-14.132l0.654-0.033c23.644-25.191 51.803-45.817 83.235-60.646l1.671-0.709c0-9.472 2.389-23.595 2.389-37.76 0.666 0.053 1.442 0.083 2.225 0.083 4.303 0 8.393-0.91 12.089-2.548l-0.191 0.075c-2.831 11.057-5.32 24.685-6.938 38.58l-0.145 1.527c27.429 7.474 51.173 20.601 70.922 38.13l-0.18-0.157c33.625-4.55 72.491-7.147 111.964-7.147 3.748 0 7.491 0.023 11.229 0.070l-0.569-0.006 9.429-35.413c52.242 30.864 92.508 77.23 114.975 132.707l0.652 1.821c-11.776 0-32.981-2.347-44.8-2.347-11.819 37.76-42.667 101.461-44.8 108.501 11.921 26.63 18.864 57.715 18.864 90.421 0 0.567-0.002 1.133-0.006 1.698l0.001-0.087h70.741c-2.347 4.693-2.347 7.040-4.693 11.776h-70.784c-22.531 21.724-48.112 40.516-75.983 55.621l-1.841 0.913c-7.53 29.531-18.864 55.474-33.688 78.996l0.664-1.129 23.595 4.693c-25.733 10.484-55.588 16.569-86.865 16.569-1.817 0-3.629-0.021-5.436-0.061l0.269 0.005c-1.766 0.063-3.842 0.098-5.926 0.098-10.4 0-20.593-0.889-30.505-2.596l1.061 0.151c30.677-4.821 77.867-16.512 92.032-18.859 12.872-22.419 23.387-48.362 30.194-75.769l0.441-2.097c-29.593-11.297-54.791-28.144-75.425-49.439l-0.052-0.054c-36.505 10.991-78.582 17.809-122.090 18.848l-0.577 0.011c-4.736 11.819-16.555 40.107-21.333 56.619 7.083 7.083 23.552 21.333 42.667 37.76 16.427 11.733 35.285 25.899 47.104 35.328-11.819-2.347-21.333-4.736-30.677-7.083-25.421-18.159-47.743-37.529-68.103-58.793l-0.164-0.172c-30.497-9.042-56.226-26.337-75.407-49.292l-0.199-0.244c-14.713-22.162-23.476-49.383-23.476-78.651 0-1.36 0.019-2.715 0.056-4.065l-0.004 0.199h-2.56c-8.215-13.978-16.892-31.028-24.629-48.586l-1.313-3.339v-35.371c8.808 28.807 20.029 53.816 33.899 77.060l-0.875-1.583 49.536-16.512c4.736-9.429 30.677-82.56 47.189-115.627-10.483-23.186-18.7-50.143-23.336-78.308l-0.259-1.905c-13.321 0.994-25.428 2.674-37.281 5.056l1.91-0.32-21.333 7.083c-7.22 3.757-13.393 7.679-19.197 12.063l0.338-0.245zM534.571 228.267c-7.083 18.859-23.552 66.048-30.677 84.907 18.859 21.333 58.965 77.824 75.52 99.072l94.336-4.693c15.434-29.86 30.589-65.73 43.128-102.805l1.672-5.696c-11.776-16.555-44.8-58.965-61.312-77.867-0.574-0.001-1.252-0.002-1.931-0.002-42.551 0-84.49 2.621-125.665 7.709l4.929-0.497zM395.392 336.939c-15.588 31.075-31.544 69.262-45.098 108.568l-2.091 6.973 61.355 80.213c44.775-0.621 87.711-7.468 128.308-19.712l-3.295 0.854c12.174-25.661 24.208-56.911 34.061-89.113l1.352-5.138c-21.333-28.288-58.965-80.213-75.52-99.029-21.248 2.176-80.213 11.605-99.072 16.384z" />
<glyph unicode="&#xe934;" glyph-name="Chingachoong" d="M412.16 637.653c-18.159 0.121-33.235 13.173-36.486 30.402l-0.036 0.232c-0.34 1.883-0.535 4.050-0.535 6.262 0 0.454 0.008 0.905 0.024 1.355l-0.002-0.065c0 0.009 0 0.020 0 0.030 0 17.884 12.735 32.794 29.632 36.155l0.235 0.039 184.021 36.224c1.116-0.003 2.142-0.388 2.954-1.032l-0.010 0.008c1.016-0.87 1.658-2.151 1.664-3.583v-66.604c0-0.011 0-0.024 0-0.038 0-2.22-1.584-4.069-3.683-4.48l-0.029-0.005-170.283-34.133c-2.237-0.471-4.814-0.75-7.453-0.768h-0.014zM589.099 790.741c-0.493 0.011-0.961 0.104-1.395 0.266l0.029-0.010-169.856 53.248c-9.491 3.027-17.163 9.452-21.747 17.81l-0.098 0.195c-2.751 4.992-4.37 10.942-4.37 17.27 0 4.236 0.725 8.303 2.059 12.083l-0.078-0.254c4.704 15.163 18.604 25.984 35.033 25.984 0.029 0 0.058 0 0.087 0h-0.005c4.204-0.001 8.255-0.656 12.057-1.869l-0.281 0.077 162.133-50.389c1.418-0.45 2.517-1.535 2.977-2.912l0.009-0.032c0.171-0.465 0.27-1.002 0.27-1.562 0-1.015-0.325-1.954-0.877-2.718l0.009 0.014c-6.897-9.115-11.093-20.61-11.221-33.079v-29.555c-0.007-1.529-0.737-2.885-1.866-3.746l-0.012-0.008c-0.761-0.509-1.698-0.813-2.705-0.813-0.054 0-0.108 0.001-0.161 0.003h0.008zM575.36 566.101c-19.888 0.277-35.903 16.464-35.903 36.391 0 0.977 0.039 1.945 0.114 2.903l-0.008-0.127c0 0.052 0 0.113 0 0.174 0 19.488 15.798 35.285 35.285 35.285 0.18 0 0.36-0.001 0.54-0.004h13.712c2.55-0.024 4.608-2.097 4.608-4.65 0 0 0 0 0 0v0-9.984c0.145-26.941 22.019-48.726 48.981-48.726 0.045 0 0.091 0 0.136 0h-0.007c23.833 0.331 43.452 17.95 46.901 40.866l0.033 0.265c0.369 2.026 1.997 3.582 4.030 3.838l0.023 0.002h0.512c0.006 0 0.014 0 0.021 0 1.898 0 3.528-1.147 4.234-2.786l0.011-0.030c2.531-5.269 4.085-11.434 4.265-17.943l0.001-0.063c0-0.038 0-0.084 0-0.129 0-19.383-15.628-35.115-34.971-35.284h-0.016zM588.757 468.907c-20.621 0.284-37.262 16.926-37.546 37.52v0.027c0.232 20.432 16.601 36.965 36.946 37.46l0.046 0.001h104.192c20.508-0.145 37.078-16.804 37.078-37.332 0-0.045 0-0.091 0-0.136v0.007c0-0.051 0-0.111 0-0.172 0-20.537-16.564-37.206-37.062-37.375h-0.016zM746.923 468.907c-1.72 0.011-3.216 0.963-3.999 2.366l-0.012 0.023c-0.404 0.664-0.644 1.467-0.644 2.325s0.239 1.662 0.655 2.345l-0.011-0.020c5.351 8.697 8.524 19.23 8.533 30.504v0.003c0 0.087 0.001 0.189 0.001 0.291 0 24.404-14.783 45.356-35.882 54.389l-0.385 0.147c-1.297 0.545-2.278 1.624-2.679 2.954l-0.009 0.033c-0.112 0.379-0.177 0.814-0.177 1.264 0 0.979 0.306 1.887 0.827 2.634l-0.010-0.015c7.234 10.305 11.595 23.087 11.691 36.883v0.024c0 0.033 0 0.071 0 0.109 0 21.514-12.248 40.167-30.152 49.366l-0.312 0.146c-1.485 0.797-2.477 2.338-2.477 4.112 0 0.055 0.001 0.109 0.003 0.163v-0.008 39.979c-0.001 0.034-0.001 0.074-0.001 0.114 0 1.851 1.111 3.441 2.703 4.142l0.029 0.011c0.52 0.243 1.129 0.385 1.772 0.385 0.037 0 0.074 0 0.111-0.001h-0.005c0.007 0 0.016 0 0.024 0 1.171 0 2.24-0.437 3.053-1.156l-0.005 0.004c35.391-33.635 81.776-56.005 133.232-61.191l0.954-0.078h1.109c5.69 0.169 10.285 4.631 10.665 10.249l0.002 0.034c0.003 0.101 0.005 0.22 0.005 0.339 0 2.884-1.105 5.509-2.914 7.477l0.007-0.008c-1.811 2.079-4.399 3.439-7.308 3.625l-0.031 0.002c-58.624 7.948-109.26 37.179-144.779 79.519l-0.288 0.353-0.768 0.853-0.64 0.768c-1.855 2.597-4.859 4.271-8.254 4.271-0.098 0-0.196-0.001-0.294-0.004h0.014c-1.189 0-2.333-0.188-3.407-0.534l0.079 0.022c-4.3-1.738-7.296-5.842-7.381-10.656v-110.944c-0.309-14.745-12.277-26.593-27.039-26.709h-0.011c-0.051 0-0.111-0.001-0.172-0.001-14.794 0-26.801 11.933-26.922 26.698v199.008c0.169 18.888 15.519 34.134 34.431 34.134 0.060 0 0.121 0 0.181 0h120.738c107.574-0.146 194.737-87.324 194.859-194.89v-0.012c0-0.013 0-0.028 0-0.043 0-107.703-87.189-195.042-194.835-195.285h-0.023zM280.235 18.005c-107.592 0.121-194.78 87.309-194.901 194.89v0.012c0.121 107.592 87.309 194.78 194.89 194.901h121.142c18.851 0 34.133-15.282 34.133-34.133v0-198.613c-0.048-14.944-12.15-27.045-27.089-27.093h-0.005c-14.782 0.145-26.71 12.161-26.71 26.964 0 0.045 0 0.091 0 0.136v-0.007 110.933c0.001 0.055 0.002 0.121 0.002 0.186 0 4.756-2.982 8.816-7.178 10.412l-0.076 0.026c-1.058 0.348-2.275 0.551-3.539 0.555h-0.002c-3.603-0.016-6.818-1.666-8.944-4.247l-0.357-0.447c-35.726-42.975-86.354-72.487-143.858-80.586l-1.209-0.14c-3.109-0.261-5.843-1.686-7.8-3.831l-0.008-0.009c-1.595-1.78-2.57-4.144-2.57-6.736 0-0.363 0.019-0.721 0.056-1.074l-0.004 0.044c0.046-5.615 4.55-10.164 10.144-10.282h1.206c52.553 5.206 99.081 27.602 134.669 61.405l-0.098-0.093c0.817 0.714 1.894 1.15 3.072 1.152v0c0.052 0.003 0.114 0.004 0.176 0.004 0.619 0 1.204-0.143 1.725-0.398l-0.023 0.010c1.646-0.727 2.774-2.346 2.774-4.227 0-0.014 0-0.028 0-0.042v0.002-39.979c0.002-0.046 0.003-0.101 0.003-0.155 0-1.773-0.993-3.315-2.452-4.099l-0.025-0.012c-18.311-10.211-30.492-29.463-30.492-51.559 0-0.639 0.010-1.275 0.030-1.909l-0.002 0.092c-0.001-0.139-0.002-0.303-0.002-0.467 0-12.268 4.055-23.59 10.898-32.697l-0.101 0.14c0.567-0.771 0.907-1.739 0.907-2.787 0-0.404-0.051-0.797-0.146-1.171l0.007 0.033c-0.365-1.385-1.342-2.487-2.616-3.018l-0.030-0.011c-21.333-9.493-35.944-30.493-35.968-54.909v-0.003c0.039-11.061 3.211-21.374 8.673-30.107l-0.14 0.24c0.392-0.667 0.623-1.469 0.623-2.325s-0.231-1.658-0.635-2.347l0.012 0.022c-0.809-1.433-2.319-2.385-4.053-2.389h-0.001zM359.381 18.005c-0.051 0-0.111 0-0.172 0-20.537 0-37.206 16.564-37.375 37.062v0.016c-0.002 0.128-0.002 0.278-0.002 0.429 0 20.501 16.619 37.12 37.12 37.12 0.151 0 0.302-0.001 0.452-0.003h104.041c20.321-0.592 36.583-17.152 36.693-37.536v-0.011c-0.145-20.508-16.804-37.078-37.332-37.078-0.060 0-0.121 0-0.181 0h0.009zM383.488 114.645c-19.394 1.054-34.722 17.037-34.722 36.6 0 1.039 0.043 2.068 0.128 3.085l-0.009-0.133c0.075 5.493 1.487 10.639 3.926 15.15l-0.086-0.174c0.747 1.529 2.291 2.564 4.077 2.564 0.067 0 0.133-0.001 0.2-0.004h0.759c1.973-0.34 3.501-1.897 3.794-3.857l0.003-0.025c3.027-23.562 22.83-41.624 46.905-41.898h0.028c27.094 0.049 49.042 22.012 49.067 49.107v9.986c0 2.568 2.082 4.651 4.651 4.651h14.123c19.79-0.723 35.559-16.94 35.559-36.841 0-0.969-0.037-1.929-0.111-2.88l0.008 0.126c-0.143-19.615-16.076-35.461-35.711-35.461-0.646 0-1.287 0.017-1.925 0.051l0.089-0.004zM462.165 233.685c-0.013 0-0.028 0-0.043 0-2.545 0-4.608 2.063-4.608 4.608 0 0 0 0 0 0v0 65.749c0 2.568 2.082 4.651 4.651 4.651v0h36.224c20.514-0.169 37.078-16.837 37.078-37.375 0-0.060 0-0.121 0-0.181v0.009c0-0.051 0-0.111 0-0.172 0-20.529-16.569-37.188-37.064-37.332h-0.014zM462.165 331.136c-0.004 0-0.008 0-0.013 0-1.237 0-2.361 0.488-3.189 1.282l0.002-0.002c-0.887 0.836-1.442 2.016-1.451 3.326v37.89c0 0.025 0 0.055 0 0.085 0 10.009-2.709 19.385-7.435 27.434l0.138-0.255c-0.384 0.662-0.611 1.456-0.611 2.304s0.227 1.642 0.623 2.326l-0.012-0.022c0.833 1.375 2.313 2.284 4.008 2.304h52.44c0.128 0.002 0.278 0.002 0.429 0.002 20.501 0 37.12-16.619 37.12-37.12 0-0.151-0.001-0.302-0.003-0.452v0.023c-0.020-20.486-16.632-37.084-37.12-37.084-0.255 0-0.51 0.003-0.763 0.008l0.038-0.001-43.989-2.091z" />
<glyph unicode="&#xe935;" glyph-name="COIN" horiz-adv-x="778" d="M777.56 267.419c-4.249-97.726-46.739-182.705-114.722-242.191v0c-67.983-55.237-152.963-84.979-246.44-84.979-8.498 0-12.747 0-21.245 0v0c-4.249 0-4.249 0-8.498 0-72.232 0-140.216 21.245-195.452 55.237v0c-59.485 38.241-106.224 89.228-135.967 152.963v4.249c-29.743 67.983-50.988 148.714-50.988 229.444 0 0 0 4.249 0 4.249v0 89.228c0 4.249 0 8.498 0 12.747 0 84.979 16.996 161.461 50.988 233.693v-4.249c33.992 63.734 80.73 118.971 140.216 157.212v0c59.485 33.992 127.469 55.237 203.95 55.237 4.249 0 4.249 0 8.498 0v0c4.249 0 12.747 0 16.996 0 93.477 0 174.207-33.992 242.191-89.228v0c63.734-63.734 106.224-148.714 114.722-246.44v0h-165.71c-4.249 59.485-25.494 110.473-59.485 148.714v0c-33.992 29.743-80.73 46.739-127.469 46.739-4.249 0-8.498 0-16.996 0v0c-4.249 0-4.249 0-8.498 0-63.734 0-123.22-29.743-157.212-80.73v0c-38.241-59.485-59.485-131.718-59.485-212.448 0-8.498 0-16.996 0-25.494v0-84.979c0-8.498 0-16.996 0-25.494 0-76.481 21.245-152.963 59.485-212.448v0c33.992-50.988 89.228-80.73 152.963-80.73 4.249 0 8.498 0 8.498 0v0c4.249 0 8.498 0 16.996 0 50.988 0 97.726 16.996 131.718 46.739v0c38.241 38.241 59.485 89.228 63.734 148.714v0l157.212 4.249z" />
<glyph unicode="&#xe936;" glyph-name="NoFilter" d="M426.667 192h170.667v85.333h-170.667zM128 704v-85.333h768v85.333zM256 405.333h512v85.333h-512zM184.235 836.267l-60.501-60.501 716.032-716.032 60.501 60.501z" />
<glyph unicode="&#xe937;" glyph-name="Domino" d="M610.133 776.533h-482.133c-25.6 0-42.667-21.333-42.667-42.667v-217.6c0-25.6 21.333-42.667 42.667-42.667h482.133c25.6 0 42.667 21.333 42.667 42.667v217.6c4.267 25.6-17.067 42.667-42.667 42.667zM157.867 516.267c-17.067 0-29.867 8.533-29.867 25.6 0 12.8 12.8 25.6 25.6 25.6s25.6-12.8 25.6-25.6c4.267-17.067-8.533-25.6-21.333-25.6zM157.867 678.4c-17.067 0-29.867 12.8-29.867 25.6 0 17.067 12.8 25.6 25.6 25.6 17.067 4.267 29.867-8.533 29.867-25.6 0-12.8-12.8-25.6-25.6-25.6zM226.133 597.333c-12.8 0-25.6 12.8-25.6 25.6s12.8 25.6 25.6 25.6c17.067 0 25.6-12.8 25.6-25.6s-12.8-25.6-25.6-25.6zM294.4 516.267c-17.067 0-25.6 12.8-25.6 25.6s12.8 25.6 25.6 25.6c12.8 0 25.6-12.8 25.6-25.6 0-17.067-12.8-25.6-25.6-25.6zM294.4 678.4c-17.067 0-29.867 12.8-29.867 25.6 0 17.067 12.8 25.6 25.6 25.6s25.6-12.8 25.6-25.6c4.267-12.8-8.533-25.6-21.333-25.6zM379.733 512h-17.067v221.867h12.8v-221.867zM448 516.267c-17.067 0-25.6 12.8-25.6 25.6s12.8 25.6 25.6 25.6c12.8 0 25.6-12.8 25.6-25.6 0-17.067-12.8-25.6-25.6-25.6zM448 678.4c-12.8 0-25.6 12.8-25.6 25.6 0 17.067 12.8 25.6 25.6 25.6s25.6-12.8 25.6-25.6c0-12.8-12.8-25.6-25.6-25.6zM584.533 516.267c-12.8 0-25.6 12.8-25.6 25.6s12.8 25.6 25.6 25.6c17.067 0 25.6-12.8 25.6-25.6 0-17.067-12.8-25.6-25.6-25.6zM584.533 678.4c-17.067 0-29.867 12.8-29.867 25.6 0 17.067 12.8 25.6 25.6 25.6 17.067 0 25.6-12.8 25.6-25.6 4.267-12.8-8.533-25.6-21.333-25.6zM413.867 119.467h482.133c25.6 0 42.667 21.333 42.667 42.667v217.6c0 25.6-21.333 42.667-42.667 42.667h-482.133c-25.6 0-42.667-21.333-42.667-42.667v-217.6c-4.267-25.6 17.067-42.667 42.667-42.667zM797.867 298.667c12.8 0 25.6-12.8 25.6-25.6s-12.8-25.6-25.6-25.6c-17.067 0-25.6 12.8-25.6 25.6s12.8 25.6 25.6 25.6zM644.267 384h12.8v-217.6h-12.8v217.6zM576 379.733c17.067 0 25.6-12.8 25.6-25.6s-12.8-25.6-25.6-25.6c-12.8 0-25.6 12.8-25.6 25.6 0 17.067 12.8 25.6 25.6 25.6zM576 217.6c12.8 0 25.6-12.8 25.6-25.6 0-17.067-12.8-25.6-25.6-25.6s-25.6 12.8-25.6 25.6c0 12.8 12.8 25.6 25.6 25.6zM439.467 379.733c12.8 0 25.6-12.8 25.6-25.6s-12.8-25.6-25.6-25.6c-17.067 0-25.6 12.8-25.6 25.6 0 17.067 12.8 25.6 25.6 25.6zM439.467 217.6c12.8 0 25.6-12.8 25.6-25.6 0-17.067-12.8-25.6-25.6-25.6-17.067 0-25.6 12.8-25.6 25.6s12.8 25.6 25.6 25.6z" />
<glyph unicode="&#xe938;" glyph-name="Open" d="M170.667 405.333h520.533l-238.933-238.933 59.733-59.733 341.333 341.333-341.333 341.333-59.733-59.733 238.933-238.933h-520.533v-85.333z" />
<glyph unicode="&#xe939;" glyph-name="View" d="M512 704c0.412 0.001 0.899 0.002 1.386 0.002 163.929 0 305.757-94.625 373.844-232.234l1.090-2.435c-69.781-140.104-212.007-234.669-376.32-234.669s-306.539 94.565-375.223 232.24l-1.097 2.428c69.177 140.044 211.005 234.669 374.934 234.669 0.487 0 0.974-0.001 1.461-0.003h-0.075zM512 789.333c-212.119-0.13-393.612-131.12-468.129-316.605l-1.205-3.395c75.632-188.944 257.181-319.975 469.333-319.975s393.701 131.032 468.131 316.581l1.202 3.394c-75.722 188.88-257.214 319.87-469.317 320h-0.016zM512 576c58.91 0 106.667-47.756 106.667-106.667s-47.756-106.667-106.667-106.667c-58.91 0-106.667 47.756-106.667 106.667v0c0 58.91 47.756 106.667 106.667 106.667v0zM512 661.333c-106.039 0-192-85.961-192-192s85.961-192 192-192c106.039 0 192 85.961 192 192v0c-0.17 105.97-86.030 191.83-191.984 192h-0.016z" />
<glyph unicode="&#xe93a;" glyph-name="KES" d="M125.389 406.323l-49.254-52.531v-136.192h-76.134v436.787h76.134v-204.8l41.984 51.917 128 152.986h91.136l-162.304-193.485 171.827-243.405h-90.010zM621.722 330.24c0.041 0.782 0.065 1.698 0.065 2.619 0 16.951-7.998 32.034-20.425 41.682l-0.12 0.089c-20.909 13.616-45.182 24.399-71.119 31.020l-1.687 0.365c-31.959 8.939-59.863 21.012-85.656 36.276l1.637-0.897c-35.408 18.996-59.195 55.559-59.699 97.723l-0.001 0.069c-0.007 0.451-0.011 0.984-0.011 1.517 0 34.92 16.815 65.913 42.791 85.323l0.279 0.2c28.608 21.441 64.699 34.333 103.801 34.333 2.803 0 5.59-0.066 8.36-0.197l-0.391 0.015c1.012 0.020 2.206 0.031 3.402 0.031 28.234 0 55.021-6.199 79.073-17.309l-1.17 0.485c23.281-10.671 42.373-27.050 56.016-47.391l0.304-0.481c12.834-19.104 20.484-42.624 20.484-67.93 0-0.328-0.001-0.657-0.004-0.984v0.050h-75.93c0.064 1.103 0.1 2.394 0.1 3.693 0 19.639-8.27 37.347-21.518 49.83l-0.034 0.032c-15.040 12.18-34.406 19.554-55.494 19.554-2.092 0-4.167-0.073-6.223-0.215l0.277 0.015c-1.682 0.109-3.646 0.171-5.625 0.171-19.472 0-37.537-6.019-52.439-16.297l0.31 0.202c-12.547-9.776-20.54-24.889-20.54-41.868 0-0.887 0.022-1.769 0.065-2.646l-0.005 0.123c0.064-16.853 8.827-31.646 22.031-40.129l0.19-0.114c21.059-13.213 45.462-23.764 71.447-30.341l1.769-0.379c31.143-8.622 58.359-20.405 83.465-35.361l-1.545 0.853c18.669-11.047 33.923-26.006 44.991-43.835l0.321-0.555c9.074-16.123 14.42-35.394 14.42-55.913 0-0.971-0.012-1.94-0.036-2.905l0.003 0.143c0.041-1.089 0.064-2.368 0.064-3.652 0-34.027-16.352-64.235-41.626-83.195l-0.269-0.193c-28.926-20.358-64.887-32.536-103.693-32.536-3.544 0-7.064 0.102-10.557 0.302l0.483-0.022c-0.665-0.007-1.451-0.012-2.237-0.012-30.663 0-59.815 6.467-86.167 18.111l1.364-0.538c-25.17 10.617-46.049 27.202-61.52 48.042l-0.279 0.393c-13.817 19.371-22.091 43.526-22.091 69.613 0 0.835 0.008 1.668 0.025 2.498l-0.002-0.124h75.878c-0.070-1.178-0.11-2.556-0.11-3.943 0-21.424 9.535-40.621 24.593-53.579l0.093-0.078c17.54-12.941 39.584-20.712 63.442-20.712 2.484 0 4.948 0.084 7.39 0.25l-0.33-0.018c2.037-0.158 4.412-0.248 6.807-0.248 19.698 0 37.975 6.085 53.053 16.478l-0.314-0.205c12.278 9.559 20.1 24.341 20.1 40.95 0 0.616-0.011 1.229-0.032 1.84l0.002-0.089zM835.174 506.778c21.085 25.394 52.663 41.445 87.989 41.445 0.819 0 1.635-0.009 2.45-0.026l-0.122 0.002q103.782 0 105.318-118.477v-212.122h-72.909v209.408c0.211 1.952 0.331 4.217 0.331 6.51 0 15.666-5.62 30.020-14.954 41.155l0.081-0.1c-10.297 8.763-23.751 14.094-38.449 14.094-1.568 0-3.122-0.061-4.66-0.18l0.204 0.013c-0.727 0.027-1.582 0.042-2.44 0.042-27.433 0-51.194-15.726-62.758-38.654l-0.184-0.403v-231.885h-72.858v460.8h72.96z" />
<glyph unicode="&#xe93b;" glyph-name="KRW" d="M619.383 665.839h140.629l41.301 260.028h168.004l-53.316-260.028h90.658v-106.701h-112.026l-21.982-107.93h134.007v-106.906h-155.989l-78.643-389.12h-166.298l-62.396 389.12h-82.671l-63.966-389.12h-166.025l-79.326 389.12h-151.347v106.906h129.707l-21.982 107.998h-107.725v106.633h86.016l-52.634 260.028h167.322l41.984-260.028h144.589l40.96 260.028h150.187zM277.367 451.14h75.776l17.34 107.998h-110.455zM653.38 451.14h72.636l17.34 107.998h-107.383zM478.071 451.14h47.787l-17.203 108.066h-12.629zM316.006 213.163l20.48 131.345h-41.984zM690.039 219.989l19.319 124.314h-39.39z" />
<glyph unicode="&#xe93c;" glyph-name="KZT" d="M851.237 583.534h-264.704v-647.826h-175.543v647.826h-264.704v147.822h704.951zM146.213 838.51v121.198h705.024v-121.417z" />
<glyph unicode="&#xe93d;" glyph-name="LAK" d="M893.294-64.293h-213.577l-259.218 399.287q-12.142 20.699-17.481 31.451l-11.045 21.943h-3.657v-452.681h-169.326v464.969h-109.275v125.001h109.275v434.030h169.326v-431.543h3.584q12.142 20.699 28.599 45.714t28.599 42.862l234.715 342.967h196.608l-314.295-434.030h255.049v-125.001h-248.686z" />
<glyph unicode="&#xe93e;" glyph-name="MYR" d="M200.64 400h-105.728v-209.984h-94.912v545.984h192c4.262 0.29 9.239 0.455 14.253 0.455 49.48 0 95.203-16.089 132.221-43.321l-0.618 0.434c31.636-27.649 51.508-68.075 51.508-113.142 0-3.381-0.112-6.737-0.332-10.062l0.024 0.452c0.062-1.635 0.098-3.556 0.098-5.485 0-32.217-9.919-62.117-26.869-86.813l0.339 0.522c-18.645-25.187-43.59-44.718-72.535-56.428l-1.129-0.404 122.816-227.328v-4.864h-101.632zM94.912 476.8h97.472c1.943-0.124 4.214-0.195 6.501-0.195 26.073 0 49.996 9.203 68.697 24.539l-0.191-0.152c16.689 15.458 27.102 37.487 27.102 61.949 0 1.397-0.034 2.786-0.101 4.166l0.008-0.194c0.114 1.696 0.18 3.675 0.18 5.67 0 24.189-9.585 46.139-25.164 62.259l0.025-0.026c-18.305 15.514-42.192 24.947-68.282 24.947-2.164 0-4.312-0.065-6.444-0.193l0.293 0.014h-100.096zM609.92 736l157.44-418.496 157.184 418.496h122.624v-545.984h-94.208v179.968l9.344 240.768-161.472-420.736h-67.904l-160.896 420.352 9.408-240.384v-179.968h-94.528v545.984z" />
<glyph unicode="&#xe93f;" glyph-name="RUB" d="M593.042 84.261h-230.034v-164.279h-180.005v164.279h-146.286v145.701h146.286v75.703h-146.286v145.774h146.286v508.562h397.897c6.172 0.337 13.396 0.53 20.665 0.53 96.76 0 185.564-34.062 255.076-90.849l-0.724 0.573c63.309-55.439 103.068-136.424 103.068-226.695 0-4.133-0.083-8.246-0.248-12.338l0.019 0.587c0.258-4.658 0.405-10.11 0.405-15.596 0-87.941-37.798-167.053-98.033-221.978l-0.237-0.213c-68.771-55.321-157.157-88.792-253.362-88.792-6.613 0-13.19 0.158-19.726 0.471l0.923-0.035h-225.719v-75.703h230.034zM363.008 451.438h215.040c4.467-0.325 9.677-0.51 14.93-0.51 50.531 0 97.066 17.115 134.122 45.864l-0.498-0.372c31.88 30.774 51.676 73.886 51.676 121.622 0 4.458-0.173 8.876-0.512 13.248l0.036-0.579c0.079 1.984 0.125 4.312 0.125 6.652 0 48.145-19.158 91.815-50.267 123.803l0.040-0.041c-34.665 32.801-81.58 52.968-133.204 52.968-2.028 0-4.049-0.031-6.062-0.093l0.295 0.007h-225.719z" />
<glyph unicode="&#xe940;" glyph-name="TND" d="M643.719 345.6c0.819 0.055 1.776 0.086 2.741 0.086 11.815 0 22.537-4.676 30.418-12.279l-0.013 0.013c7.25-7.573 11.714-17.866 11.714-29.201 0-0.44-0.007-0.877-0.020-1.314l0.002 0.064c0.013-0.378 0.020-0.822 0.020-1.268 0-11.142-4.472-21.239-11.72-28.595l0.005 0.005c-7.928-7.401-18.606-11.945-30.345-11.945-0.985 0-1.963 0.032-2.932 0.095l0.132-0.007c-0.646-0.033-1.402-0.052-2.163-0.052-11.651 0-22.258 4.465-30.206 11.776l0.032-0.029c-7.527 7.29-12.199 17.488-12.199 28.778 0 0.436 0.007 0.871 0.021 1.304l-0.002-0.063c-0.012 0.372-0.018 0.81-0.018 1.25 0 11.335 4.463 21.628 11.728 29.216l-0.015-0.015c7.803 7.583 18.467 12.258 30.222 12.258 0.915 0 1.823-0.028 2.723-0.084l-0.123 0.006zM74.213 470.043q-2.533-10.402-4.258-19.24t-3.18-16.869q-1.401-8.030-2.048-15.791t-0.647-16.168c0-0.065 0-0.143 0-0.22 0-4.993 0.294-9.917 0.865-14.756l-0.056 0.587c0.564-4.81 1.625-9.185 3.147-13.338l-0.129 0.403c1.628-4.464 3.702-8.328 6.24-11.835l-0.096 0.14c2.911-3.948 6.292-7.329 10.111-10.149l0.129-0.091c6.733-5.002 14.625-8.907 23.162-11.255l0.498-0.117c10.426-2.907 22.696-5.085 35.294-6.098l0.708-0.046q21.558-2.048 52.44-2.695t72.973-0.647q47.050 0 78.632 1.24c18.091 0.324 35.477 2.663 52.152 6.803l-1.599-0.336c10.91 2.278 20.205 8.059 26.885 16.092l0.062 0.077c4.989 7.701 7.955 17.115 7.955 27.222 0 1.041-0.031 2.075-0.093 3.1l0.007-0.141v142.929h62.733v-145.516c0.027-1.022 0.043-2.226 0.043-3.433 0-17.189-3.138-33.645-8.873-48.826l0.315 0.951c-5.557-13.786-13.786-25.458-24.122-34.855l-0.077-0.069c-10.653-9.469-23.175-17.121-36.906-22.31l-0.82-0.272c-13.887-5.374-30.216-9.768-47.12-12.432l-1.385-0.18c-16.773-2.766-36.647-4.7-56.842-5.369l-0.771-0.020q-30.936-1.132-64.081-1.132-37.726 0-70.602 0.647t-59.823 3.773c-18.086 1.978-34.529 5.524-50.299 10.574l1.793-0.496c-14.161 4.443-26.457 11.007-37.227 19.433l0.255-0.192c-7.187 5.731-13.307 12.401-18.287 19.893l-0.198 0.317c-4.616 6.946-8.669 14.915-11.763 23.347l-0.256 0.797c-2.845 7.714-5.16 16.8-6.538 26.191l-0.091 0.756c-1.434 8.239-2.348 17.844-2.53 27.627l-0.003 0.183c0 0.114 0 0.249 0 0.384 0 14.57 1.156 28.87 3.382 42.813l-0.202-1.536q3.18 20.211 8.192 40.098zM235.251 599.39h-70.063v64.189h70.063zM341.693 599.39h-70.063v64.189h70.063zM907.587 588.126c29.675-32.123 55.759-68.293 77.162-107.391l1.416-2.824c16.718-30.11 26.821-65.92 27.484-104.032l0.003-0.2c0.053-1.374 0.083-2.988 0.083-4.609 0-19.15-4.2-37.32-11.73-53.637l0.329 0.795c-7.22-14.729-17.732-26.865-30.629-35.801l-0.306-0.201c-13.121-8.789-28.566-15.29-45.18-18.519l-0.792-0.128c-16.511-3.43-35.485-5.393-54.918-5.393-0.512 0-1.024 0.001-1.535 0.004h0.079q-18.001 0-42.307 2.048t-51.2 6.521l-15.144 78.309q34.115-4.419 62.195-6.791t49.907-2.371c2.086-0.132 4.523-0.208 6.978-0.208 17.158 0 33.455 3.688 48.141 10.315l-0.739-0.298c10.881 6.223 18.095 17.76 18.095 30.982 0 1.141-0.054 2.27-0.159 3.384l0.011-0.142c-0.188 16.686-3.476 32.552-9.312 47.122l0.311-0.88c-7.495 19.181-15.824 35.559-25.521 50.989l0.73-1.244c-12.975 20.889-25.25 38.466-38.345 55.377l1.104-1.482q-21.504 28.403-46.727 60.308z" />
<glyph unicode="&#xe941;" glyph-name="TRY" d="M912.018 467.822v-63.561c0.027-2.142 0.042-4.672 0.042-7.205 0-92.795-20.277-180.853-56.642-259.987l1.597 3.878c-33.428-72.684-85.49-131.938-150.152-173.187l-1.619-0.966c-62.112-38.612-137.488-61.501-218.211-61.501-2.511 0-5.018 0.022-7.519 0.066l0.376-0.005c-62.955 0.824-123.975 6.113-183.608 15.568l7.187-0.939v432.128l-157.111-62.171v142.043l157.111 62.171v97.938l-157.111-62.171v142.848l157.111 62.171v224.987h180.005v-153.6l160.695 64.512v-142.848l-160.914-64.293v-97.865l160.914 64.293v-142.848l-160.914-63.561v-369.298c2.646-0.116 5.75-0.182 8.869-0.182 72.579 0 136.785 35.847 175.88 90.801l0.448 0.663c40.601 67.437 64.618 148.846 64.618 235.863 0 10.997-0.384 21.905-1.138 32.71l0.082-1.456v55.003z" />
<glyph unicode="&#xe942;" glyph-name="USD" horiz-adv-x="518" d="M387.074 254.16c0.037 1.032 0.058 2.245 0.058 3.462 0 28.046-11.098 53.499-29.142 72.209l0.030-0.031c-26.93 24.046-59.358 42.555-95.12 53.394l-1.8 0.469c-41.452 13.988-76.32 29.010-109.734 46.436l4.214-2c-74.636 34.673-125.46 108.997-125.46 195.191 0 1.405 0.014 2.807 0.040 4.206l-0.003-0.21c-0.089 2.261-0.14 4.915-0.14 7.58 0 53.863 20.72 102.886 54.623 139.534l-0.124-0.136c38.009 38.555 89.393 63.836 146.621 68.312l0.799 0.050v117.374h86.225v-118.421c58.914-6.307 109.934-35.767 144.501-78.965l0.328-0.424c32.152-44.103 51.44-99.372 51.44-159.147 0-4.33-0.101-8.636-0.301-12.916l0.023 0.606h-130.274c0.158 2.74 0.248 5.945 0.248 9.172 0 36.57-11.572 70.438-31.254 98.14l0.353-0.524c-18.313 23.868-46.848 39.104-78.942 39.104-1.32 0-2.635-0.026-3.942-0.077l0.188 0.006c-1.977 0.125-4.287 0.196-6.614 0.196-28.517 0-54.536-10.698-74.262-28.299l0.11 0.096c-17.971-18.979-29.020-44.671-29.020-72.943 0-2.52 0.088-5.020 0.26-7.496l-0.019 0.334c-0.067-1.374-0.105-2.983-0.105-4.601 0-27.47 11.027-52.365 28.896-70.499l-0.012 0.012c27.472-23.347 60.039-41.669 95.708-53.041l1.984-0.546c42.701-15.060 78.42-30.872 112.708-49.028l-4.486 2.166c25.362-13.704 47.141-30.104 66.137-49.267l0.020-0.020c17.368-17.828 31.389-39.014 40.986-62.48l0.473-1.306c9.313-23.768 14.711-51.289 14.711-80.070 0-1.602-0.017-3.2-0.050-4.794l0.004 0.238c0.11-2.484 0.172-5.397 0.172-8.324 0-54.031-21.306-103.086-55.976-139.22l0.066 0.069c-40.722-38.596-94.857-63.399-154.721-66.735l-0.637-0.028v-104.749h-85.563v104.197c-64.835 4.010-122.318 32.549-163.856 76.356l-0.103 0.11c-35.853 42.765-57.63 98.387-57.63 159.096 0 4.251 0.107 8.476 0.318 12.675l-0.024-0.59h130.825c-0.184-2.778-0.289-6.023-0.289-9.293 0-36.407 13.022-69.773 34.664-95.694l-0.193 0.238c22.658-23.083 54.188-37.389 89.059-37.389 2.669 0 5.318 0.084 7.945 0.249l-0.359-0.018c2.8-0.21 6.064-0.33 9.357-0.33 31.986 0 61.332 11.298 84.268 30.12l-0.233-0.185c19.791 18.638 32.115 45.015 32.115 74.27 0 1.451-0.030 2.895-0.090 4.332l0.007-0.205z" />
<glyph unicode="&#xe943;" glyph-name="Conventions" d="M810.667 832h-178.347c-17.931 50.124-65.013 85.342-120.32 85.342s-102.389-35.218-120.042-84.452l-0.278-0.89h-178.347c-47.070-0.145-85.188-38.264-85.333-85.319v-597.347c0.145-47.070 38.264-85.188 85.319-85.333h597.347c47.070 0.145 85.188 38.264 85.333 85.319v597.347c-0.145 47.070-38.264 85.188-85.319 85.333h-0.014zM512 832c23.564 0 42.667-19.103 42.667-42.667s-19.103-42.667-42.667-42.667c-23.564 0-42.667 19.103-42.667 42.667v0c0 23.564 19.103 42.667 42.667 42.667v0zM597.333 234.667h-298.667v85.333h298.667zM725.333 405.333h-426.667v85.333h426.667zM725.333 576h-426.667v85.333h426.667z" />
<glyph unicode="&#xe944;" glyph-name="EUR" d="M690.722 327.987h-237.363c-0.123-2.973-0.193-6.463-0.193-9.969 0-62.227 22.084-119.295 58.842-163.796l-0.349 0.435c36.744-35.739 86.975-57.777 142.352-57.777 4.678 0 9.319 0.157 13.919 0.467l-0.623-0.034c1.020-0.009 2.226-0.014 3.433-0.014 47.645 0 93.408 8.054 136.004 22.875l-2.904-0.879 18.842-135.782c-49.356-12.406-106.016-19.525-164.339-19.525-0.352 0-0.705 0-1.057 0.001h0.054c-6.070-0.358-13.169-0.562-20.316-0.562-95.866 0-183.157 36.716-248.577 96.853l0.264-0.24c-64.054 67.218-103.467 158.42-103.467 258.826 0 3.207 0.040 6.404 0.12 9.592l-0.009-0.471h-114.688v94.003h114.688v85.333h-114.688v94.003h115.302c-0.001 0.272-0.001 0.595-0.001 0.917 0 102.791 41.517 195.885 108.698 263.428l-0.016-0.016c65.956 58.71 153.366 94.58 249.155 94.58 6.874 0 13.706-0.185 20.489-0.55l-0.946 0.041c56.944-0.842 111.754-8.261 164.234-21.53l-4.9 1.050-18.637-136.533c-40.319 14.172-86.81 22.454-135.207 22.664h-0.097c-3.941 0.274-8.541 0.43-13.177 0.43-55.112 0-105.075-22.049-141.548-57.806l0.033 0.032c-37.326-44.163-60.015-101.744-60.015-164.625 0-0.732 0.003-1.464 0.009-2.195l-0.001 0.112h236.681v-94.003h-237.363v-85.333h237.363z" />
<glyph unicode="&#xe945;" glyph-name="IQD" d="M524.288 438.272c1.112 0.074 2.411 0.116 3.719 0.116 16.034 0 30.586-6.346 41.281-16.664l-0.018 0.017c9.84-10.278 15.897-24.246 15.897-39.629 0-0.596-0.009-1.191-0.027-1.783l0.002 0.087c0.017-0.513 0.027-1.115 0.027-1.72 0-15.121-6.070-28.825-15.905-38.808l0.007 0.007c-10.759-10.044-25.251-16.211-41.183-16.211-1.337 0-2.664 0.043-3.979 0.129l0.179-0.009c-0.876-0.045-1.903-0.071-2.935-0.071-15.811 0-30.208 6.059-40.993 15.982l0.043-0.039c-10.215 9.893-16.556 23.734-16.556 39.056 0 0.592 0.009 1.182 0.028 1.77l-0.002-0.086c-0.016 0.505-0.025 1.1-0.025 1.696 0 15.383 6.057 29.352 15.917 39.65l-0.020-0.021c10.59 10.291 25.062 16.636 41.016 16.636 1.241 0 2.473-0.038 3.696-0.114l-0.167 0.008zM324.389 495.689c-45.89-11.626-85.409-25.716-123.159-43.005l4.448 1.825c-27.925-12.569-51.997-27.618-73.711-45.435l0.568 0.452c-15.417-12.473-27.908-27.91-36.724-45.508l-0.359-0.791c-6.286-13.177-10.062-28.609-10.312-44.896l-0.001-0.087c0.068-14.537 2.963-28.379 8.164-41.029l-0.265 0.728c6.175-14.727 15.613-27.031 27.461-36.428l0.187-0.143c14.823-11.614 32.258-20.712 51.205-26.276l1.092-0.275c22.572-6.602 48.503-10.4 75.321-10.4 2.449 0 4.89 0.032 7.324 0.095l-0.36-0.007c27.917 0.233 55.072 2.778 81.49 7.452l-2.935-0.43c32.864 5.486 61.505 12.653 89.235 21.82l-4.17-1.194v-99.474c-23.614-8.042-52.389-15.33-81.9-20.472l-3.604-0.52c-23.897-4.089-51.426-6.429-79.5-6.437h-0.007c-2.174-0.046-4.736-0.072-7.304-0.072-37.822 0-74.32 5.667-108.692 16.197l2.625-0.692c-30.414 9.307-56.733 23.994-79.154 43.117l0.306-0.255c-19.975 17.506-35.732 39.32-45.884 64.028l-0.415 1.142c-9.724 23.813-15.368 51.445-15.368 80.395 0 0.665 0.003 1.329 0.009 1.993l-0.001-0.102c-0.015 0.965-0.024 2.105-0.024 3.246 0 34.446 7.916 67.043 22.028 96.071l-0.573-1.306c16.116 31.438 37.734 57.847 63.834 78.928l0.459 0.358c-16.319 18.595-29.884 40.138-39.728 63.627l-0.574 1.544c-9.255 22.103-14.632 47.788-14.632 74.728 0 0.394 0.001 0.788 0.003 1.181v-0.060c-0.009 0.651-0.014 1.421-0.014 2.191 0 26.394 5.855 51.421 16.336 73.853l-0.45-1.073c10.749 22.858 25.416 42.182 43.323 57.906l0.197 0.17c18.454 16.037 40.184 28.886 63.985 37.378l1.405 0.437c23.57 8.579 50.778 13.54 79.145 13.54 0.719 0 1.436-0.003 2.153-0.010l-0.11 0.001c18.983-0.080 37.481-1.94 55.4-5.421l-1.86 0.301v-102.839q-14.994 2.121-32.329 3.877t-33.646 1.682c-0.12 0-0.261 0-0.403 0-13.963 0-27.597-1.411-40.766-4.1l1.305 0.223c-13.051-2.543-24.64-7.33-34.906-13.983l0.383 0.233c-10.229-6.736-18.485-15.67-24.239-26.17l-0.191-0.381c-5.849-11.397-9.278-24.867-9.278-39.137 0-1.155 0.022-2.306 0.067-3.45l-0.005 0.165c0.041-17.703 3.256-34.643 9.104-50.298l-0.327 0.999c6.021-16.652 15.315-30.841 27.185-42.399l0.024-0.024c22.408 12.498 48.947 24.628 76.473 34.71l3.984 1.276q42.862 15.433 91.721 27.867zM882.395 767.415c40.217-43.595 75.569-92.683 104.574-145.738l1.922-3.839c22.761-40.848 36.547-89.439 37.518-141.165l0.004-0.293c0.068-1.82 0.107-3.959 0.107-6.106 0-26.048-5.726-50.758-15.987-72.941l0.447 1.077c-9.799-19.99-24.065-36.459-41.568-48.587l-0.416-0.272c-17.808-11.928-38.769-20.751-61.316-25.133l-1.075-0.174c-22.408-4.655-48.158-7.319-74.531-7.319-0.695 0-1.389 0.002-2.084 0.006h0.107q-24.43 0-57.417 2.779t-69.413 8.85l-20.626 106.277q46.299-5.998 84.407-9.216t67.73-3.218c2.928-0.192 6.347-0.302 9.792-0.302 23.303 0 45.435 5.013 65.377 14.019l-1.002-0.405c14.572 8.492 24.21 24.045 24.21 41.849 0 1.619-0.080 3.219-0.235 4.797l0.016-0.2c-0.255 22.646-4.717 44.178-12.637 63.951l0.422-1.194c-10.172 26.032-21.475 48.259-34.636 69.2l0.99-1.689c-17.609 28.35-34.268 52.205-52.039 75.154l1.498-2.011q-29.184 38.546-63.415 81.847z" />
<glyph unicode="&#xe946;" glyph-name="IRR" d="M431.673 412.217c0.085-1.902 0.133-4.132 0.133-6.374 0-50.109-24.102-94.589-61.345-122.479l-0.398-0.285c-43.728-29.54-97.624-47.156-155.634-47.156-5.929 0-11.815 0.184-17.653 0.547l0.8-0.040c-6.664-0.676-14.401-1.062-22.228-1.062-48.654 0-93.829 14.897-131.212 40.379l0.807-0.519c-28.383 30.090-45.829 70.767-45.829 115.518 0 6.079 0.322 12.084 0.95 17.996l-0.063-0.736c0.041 22.099 1.446 43.827 4.133 65.155l-0.265-2.577q3.868 32.256 4.267 35.385h66.901v-3.868q-1.195-5.689-5.689-38.912c-2.602-16.082-4.284-34.898-4.659-54.035l-0.006-0.408c-0.046-1.493-0.072-3.249-0.072-5.011 0-15.213 1.935-29.975 5.573-44.051l-0.267 1.219c3.34-11.555 9.754-21.338 18.299-28.722l0.076-0.064c11.279-8.518 24.91-14.544 39.746-16.994l0.531-0.072c19.177-3.648 41.236-5.735 63.782-5.735 2.017 0 4.030 0.017 6.039 0.050l-0.303-0.004c1.523-0.030 3.319-0.048 5.118-0.048 25.351 0 49.903 3.423 73.218 9.831l-1.935-0.453c20.042 5.443 37.567 13.956 53.042 25.131l-0.477-0.328c12.517 9.109 22.71 20.629 30.052 33.942l0.269 0.533c5.987 11.366 9.501 24.838 9.501 39.13 0 0.043 0 0.087 0 0.13v-0.007 428.942h64.569zM686.023 241.095h-24.519c-2.333-0.149-5.058-0.234-7.803-0.234-41.103 0-77.758 19.044-101.624 48.789l-0.198 0.255c-23.72 32.74-37.942 73.71-37.942 118.002 0 3.356 0.082 6.694 0.243 10.010l-0.018-0.467v428.942h64.512v-424.277c-0.003-0.408-0.004-0.891-0.004-1.374 0-13.594 1.285-26.888 3.741-39.767l-0.209 1.319c2.448-12.779 7.043-24.14 13.436-34.252l-0.238 0.403c6.137-10.241 14.301-18.66 23.995-24.909l0.297-0.179c10.466-5.832 22.958-9.266 36.253-9.266 1.416 0 2.822 0.039 4.219 0.116l-0.194-0.009h26.055zM858.681 417.451c0.229-3.543 0.36-7.681 0.36-11.85 0-44.492-14.891-85.505-39.96-118.329l0.346 0.473c-24.677-28.724-61.044-46.805-101.633-46.805-2.271 0-4.529 0.057-6.772 0.168l0.315-0.013h-51.2v73.102h52.907c1.192-0.073 2.585-0.114 3.988-0.114 23.037 0 43.467 11.16 56.18 28.368l0.134 0.191c13.064 20.225 20.828 44.937 20.828 71.462 0 2.778-0.085 5.537-0.253 8.273l0.018-0.375v97.849h64.74zM606.322 117.419h-57.572v57.572h57.572zM710.542 117.419h-57.344v57.572h57.344zM1037.198 313.401c0.094-2.744 0.147-5.969 0.147-9.206 0-39.782-8.064-77.681-22.646-112.151l0.71 1.89c-17.046-33.306-43.241-59.867-75.272-76.903l-0.959-0.466c-24.422-13.947-52.7-25.183-82.596-32.224l-2.168-0.43c-22.041-4.83-47.403-7.662-73.403-7.793h-0.097v73.216c19.895 0.169 39.253 1.921 58.112 5.136l-2.133-0.301c23.917 4.145 45.323 11.249 65.162 21.043l-1.39-0.62c23.474 11.531 42.12 29.865 53.734 52.414l0.311 0.663c9.714 20.699 15.383 44.95 15.383 70.526 0 0.986-0.008 1.97-0.025 2.952l0.002-0.148c-0.175 24.601-4.942 48.038-13.483 69.568l0.455-1.301c-10.030 26.095-21.993 48.599-36.279 69.381l0.724-1.114v4.665h75.264c9.487-16.999 18.854-37.251 26.755-58.221l1.064-3.219c7.899-19.975 12.525-43.11 12.629-67.313v-0.043z" />
</font>
</defs>
</svg>
