<?xml version="1.0" encoding="UTF-8"?>
<svg width="77px" height="39px" viewBox="0 0 77 39" version="1.1" xmlns="http://www.w3.org/2000/svg" xmlns:xlink="http://www.w3.org/1999/xlink">
    <!-- Generator: Sketch 52.1 (67048) - http://www.bohemiancoding.com/sketch -->
    <title>Artboard</title>
    <desc>Created with Sketch.</desc>
    <defs>
        <radialGradient cx="48.9968887%" cy="42.7071583%" fx="48.9968887%" fy="42.7071583%" r="104.408481%" gradientTransform="translate(0.489969,0.427072),scale(0.492063,1.000000),rotate(6.903659),scale(1.000000,0.495095),translate(-0.489969,-0.427072)" id="radialGradient-1">
            <stop stop-color="#000000" offset="0%"></stop>
            <stop stop-color="#000000" stop-opacity="0.953153306" offset="86.1226517%"></stop>
            <stop stop-color="#000000" stop-opacity="0.0652740036" offset="100%"></stop>
        </radialGradient>
        <linearGradient x1="0.0217820985%" y1="50.0822098%" x2="100.022841%" y2="50.0822098%" id="linearGradient-2">
            <stop stop-color="#765628" offset="7%"></stop>
            <stop stop-color="#825E2F" offset="24%"></stop>
            <stop stop-color="#815D2F" offset="27%"></stop>
            <stop stop-color="#5D4320" offset="87%"></stop>
        </linearGradient>
        <linearGradient x1="39.4470423%" y1="-6.09318996%" x2="60.6038988%" y2="106.518817%" id="linearGradient-3">
            <stop stop-color="#D71B1B" offset="0%"></stop>
            <stop stop-color="#98191C" offset="100%"></stop>
        </linearGradient>
        <linearGradient x1="0.000487914704%" y1="50%" x2="100.038892%" y2="50%" id="linearGradient-4">
            <stop stop-color="#C7B45E" offset="0%"></stop>
            <stop stop-color="#DCCC6E" offset="23%"></stop>
            <stop stop-color="#9C853E" offset="99%"></stop>
        </linearGradient>
        <linearGradient x1="39.4810664%" y1="-6.26654898%" x2="60.5335943%" y2="106.560753%" id="linearGradient-5">
            <stop stop-color="#F4EEA9" offset="0%"></stop>
            <stop stop-color="#ECE493" offset="34%"></stop>
            <stop stop-color="#E6DD8E" offset="38%"></stop>
            <stop stop-color="#8D6C3A" offset="99%"></stop>
        </linearGradient>
        <linearGradient x1="22.9146776%" y1="102.732975%" x2="77.1478795%" y2="-2.35215054%" id="linearGradient-6">
            <stop stop-color="#F3EBB0" offset="10%"></stop>
            <stop stop-color="#DDD082" offset="61%"></stop>
            <stop stop-color="#D5C779" offset="70%"></stop>
            <stop stop-color="#BEAD60" offset="86%"></stop>
            <stop stop-color="#AB984B" offset="97%"></stop>
        </linearGradient>
    </defs>
    <g id="Page-1" stroke="none" stroke-width="1" fill="none" fill-rule="evenodd">
        <g id="active">
            <g id="Group-3" transform="translate(6.000000, 0.000000)">
                <g id="active">
                    <path d="M28.2547788,3.4820354 C13.6452212,3.4820354 1.85672566,9.21274336 0.814159292,16.810531 C0.44619469,19.5361947 1.44106195,22.3504425 3.70336283,24.939823 C9.15469027,31.1747788 20.9227434,35.2087611 33.6856637,35.2087611 C46.0261062,35.2087611 56.0156637,31.5427434 59.749823,25.6689381 C61.4848915,23.055313 61.6801157,19.7104715 60.260885,16.9127434 C56.6902655,9.24 42.8915929,3.4820354 28.2547788,3.4820354 Z" id="Path" fill="#000000" opacity="0.3"></path>
                    <path d="M33.6924779,35.6789381 C20.8000885,35.6789381 8.89575221,31.5904425 3.36265487,25.2464602 C1.01176991,22.5207965 -0.0444247788,19.6111504 0.357610619,16.7423894 C1.42061947,8.91292035 13.4067257,3.00504425 28.2547788,3.00504425 C43.1028319,3.00504425 57.010531,8.85840708 60.6969912,16.6742478 C62.1921763,19.6198739 61.9865116,23.1422064 60.1586726,25.8938053 C56.3359292,31.9311504 46.1964602,35.6789381 33.6924779,35.6789381 Z M28.2411504,3.47522124 C13.6452212,3.4820354 1.85672566,9.21274336 0.814159292,16.810531 C0.44619469,19.5361947 1.44106195,22.3504425 3.70336283,24.939823 C9.15469027,31.1747788 20.9227434,35.2087611 33.6856637,35.2087611 C46.0261062,35.2087611 56.0156637,31.5427434 59.749823,25.6689381 C61.4848915,23.055313 61.6801157,19.7104715 60.260885,16.9127434 C56.6902655,9.24 42.8915929,3.4820354 28.2547788,3.4820354 L28.2411504,3.47522124 Z" id="Shape" fill="#F4F4F4" fill-rule="nonzero" opacity="0.2"></path>
                    <path d="M37.3029487,35.274719 C57.644996,34.8446189 69.651716,25.7708744 65.0029733,16.7208318 C61.1087651,9.13286633 46.4282585,4.08177886 31.666728,4.39388784 C16.9051976,4.70599681 4.19458306,10.3362258 3.08050529,18.0397438 C1.75373995,27.2016384 16.9811574,35.7043908 37.3029487,35.274719 Z" id="Shape" fill="url(#radialGradient-1)" fill-rule="nonzero" opacity="0.354352679"></path>
                    <path d="M60.4516814,16.5856637 C60.4993805,24.0812389 49.9238053,30.4184071 33.6038938,30.4184071 C15.2942478,30.4184071 1.43424779,22.4049558 1.49557522,13.8054867 C1.49557522,13.8054867 1.49557522,17.6350442 1.49557522,17.6827434 C1.35929204,21.1784071 3.53982301,24.5854867 7.38982301,27.4065487 C13.1069027,31.7335398 22.5104425,34.5273451 33.5493805,34.5273451 L33.5902655,34.5273451 C49.7738938,34.5273451 60.3153982,28.2719469 60.4380531,20.8990265 L60.4380531,16.5379646 L60.4516814,16.5856637 Z" id="Path" fill="url(#linearGradient-2)"></path>
                    <path d="M33.6038938,30.4184071 C52.6426549,30.4184071 63.8792035,21.7644248 59.4976991,12.7833628 C55.8861947,5.26053097 42.1420354,0 28.3433628,0 C14.5446903,0 2.6199115,5.26053097 1.57734513,12.7833628 C0.337168142,21.7576106 14.5719469,30.4184071 33.6038938,30.4184071 Z" id="Path" fill="url(#linearGradient-3)"></path>
                    <path d="M33.6038938,30.4184071 C52.6426549,30.4184071 63.8792035,21.7644248 59.4976991,12.7833628 C55.8861947,5.26053097 42.1420354,0 28.3433628,0 C14.5446903,0 2.6199115,5.26053097 1.57734513,12.7833628 C0.337168142,21.7576106 14.5719469,30.4184071 33.6038938,30.4184071 Z M32.7657522,25.5735398 C18.8444248,25.5735398 7.86,19.4407965 8.18026549,12.6811504 C8.46646018,6.73238938 17.6655752,2.40539823 28.7522124,2.40539823 C39.8388496,2.40539823 50.5575221,6.73238938 52.8879646,12.6811504 C55.5454867,19.4135398 46.6870796,25.5667257 32.7657522,25.5667257 L32.7657522,25.5735398 Z" id="Shape" fill="url(#linearGradient-4)" fill-rule="nonzero"></path>
                    <path d="M52.8879646,12.6811504 C50.5575221,6.73238938 39.8524779,2.40539823 28.7522124,2.40539823 C17.6519469,2.40539823 8.46646018,6.73238938 8.18026549,12.6811504 C7.94858407,17.5464602 13.6315929,22.1051327 22.0266372,24.2652212 C13.8360177,22.1460177 8.30973451,17.7168142 8.55504425,13.0286726 C8.83442478,7.24345133 17.8495575,3.03230088 28.7930973,3.03230088 C39.7366372,3.03230088 50.2236283,7.24345133 52.5268142,13.0286726 C55.1366372,19.5770796 46.4349558,25.5667257 32.7657522,25.5667257 C46.6870796,25.5667257 55.5454867,19.4135398 52.8879646,12.6811504 Z" id="Path" fill="url(#linearGradient-5)"></path>
                    <path d="M16.2141593,16.3539823 C16.297671,16.6039975 16.3547671,16.862072 16.3845133,17.1239823 C16.4133881,17.3224376 16.3724417,17.524761 16.2686726,17.6963717 C16.1416591,17.871656 15.9591762,17.9989139 15.7507965,18.0575221 C15.4189519,18.1538474 15.0740538,18.1975345 14.7286726,18.1869912 L14.449292,18.1869912 L14.149469,18.1869912 L13.8632743,18.1461062 L13.6179646,18.0915929 L13.7951327,17.410177 L14.1358407,17.4851327 C14.2582909,17.4951545 14.3813552,17.4951545 14.5038053,17.4851327 C14.6640195,17.4927745 14.824086,17.4672566 14.9739823,17.410177 C15.0697409,17.3707411 15.1457853,17.2946966 15.1852212,17.1989381 C15.216463,17.0898325 15.216463,16.9741498 15.1852212,16.8650442 C15.1530691,16.7128866 15.1121154,16.5627228 15.0625664,16.4153097 L14.2857522,14.0099115 L15.4441593,14.0099115 L16.2141593,16.3539823 Z" id="Path" fill="#DECF70"></path>
                    <path d="M21.9380531,18.0711504 L21.3111504,17.2875221 L18.8989381,17.2875221 L18.7353982,18.0779646 L17.5224779,18.0779646 L18.4900885,14.0507965 L19.8052212,14.0507965 L23.2123009,18.0643363 L21.9380531,18.0643363 L21.9380531,18.0711504 Z M20.139115,15.7952212 L19.8938053,15.4749558 L19.6416814,15.1410619 L19.3623009,14.7662832 L19.3146018,15.1410619 C19.3146018,15.2500885 19.3146018,15.359115 19.2669027,15.4749558 L19.2123894,15.7952212 L19.0352212,16.6538053 L20.8137168,16.6538053 L20.139115,15.7952212 Z" id="Shape" fill="#DECF70" fill-rule="nonzero"></path>
                    <path d="M28.2479646,17.7168142 C28.0410658,17.8686643 27.8109512,17.9860228 27.5665487,18.0643363 C27.2265217,18.1672209 26.8723275,18.2155201 26.5171681,18.2074336 C26.1110944,18.2110704 25.7060856,18.1653067 25.3110619,18.0711504 C24.9520564,17.9860175 24.60762,17.848243 24.2889381,17.6623009 C23.9876485,17.4831171 23.7201157,17.2524854 23.4984956,16.980885 C23.2748616,16.7092299 23.1059417,16.3968438 23.0010619,16.0609735 C22.9003689,15.7795919 22.8676791,15.4783787 22.9056637,15.1819469 C22.9406843,14.9233594 23.0605141,14.6836999 23.2463717,14.500531 C23.45464,14.3032469 23.7069149,14.1584225 23.9823009,14.0780531 C24.3568286,13.9723276 24.7447807,13.9218249 25.1338938,13.9281416 C25.361731,13.9248976 25.5894949,13.9385634 25.8153097,13.9690265 C25.9990865,13.9941436 26.181142,14.0305547 26.3604425,14.0780531 C26.5161798,14.1193024 26.6687548,14.1716789 26.8169912,14.2347788 L27.2122124,14.4255752 L26.7488496,14.9911504 C26.5344872,14.8643794 26.3057214,14.7637224 26.0674336,14.6913274 C25.8457041,14.628622 25.6164425,14.5965253 25.3860177,14.5959292 C24.9890967,14.5569448 24.5939151,14.6853788 24.2957522,14.9502655 C24.0683711,15.2673315 24.0343098,15.6839268 24.2071681,16.0337168 C24.2762129,16.2467917 24.3798057,16.4470711 24.5138053,16.6265487 C24.6474269,16.8051424 24.8084055,16.9615215 24.9907965,17.0899115 C25.1784969,17.2209477 25.3853789,17.32209 25.6040708,17.3897345 C25.8354334,17.4631147 26.0768395,17.4999004 26.3195575,17.4987611 C26.5320572,17.4976788 26.7432575,17.4655396 26.9464602,17.4033628 C27.1535322,17.3414253 27.3475232,17.2421203 27.5188496,17.110354 L28.2479646,17.7168142 Z" id="Path" fill="#DECF70"></path>
                    <polygon id="Path" fill="#DECF70" points="32.6158407 18.0438938 29.9446903 16.3539823 30.4966372 18.0643363 29.3382301 18.0643363 28.0367257 14.0439823 29.1951327 14.0439823 29.6857522 15.5635398 31.1167257 14.0371681 32.5545133 14.0371681 30.7146903 15.9178761 34.1217699 18.0575221 32.6158407 18.0575221"></polygon>
                    <path d="M38.2034513,15.3318584 C38.2719846,15.5305393 38.2719846,15.7464519 38.2034513,15.9451327 C38.1385891,16.1211313 38.016114,16.2700226 37.8559292,16.3676106 C37.6466943,16.4911675 37.4151311,16.5722146 37.1745133,16.6061062 C36.87301,16.6584141 36.5674133,16.6835003 36.2614159,16.6810619 L35.7026549,16.6810619 L36.1387611,18.0438938 L34.980354,18.0438938 L33.6788496,14.0235398 L35.3755752,14.0235398 C36.0191247,13.9993129 36.6604018,14.1131628 37.2562832,14.3574336 C37.698396,14.5294856 38.0440083,14.8850436 38.2034513,15.3318584 Z M37.0109735,15.3318584 C36.9752914,15.2182827 36.9120897,15.1152874 36.8269912,15.0320354 C36.7351553,14.9462288 36.6290897,14.8770556 36.5135398,14.8276106 C36.3850405,14.7719432 36.2499232,14.7330111 36.1115044,14.7117699 C35.9582322,14.6878439 35.803265,14.6764492 35.6481416,14.6776991 L35.0553097,14.6776991 L35.4982301,16.040531 L36.0978761,16.040531 C36.2203609,16.0496667 36.343356,16.0496667 36.4658407,16.040531 C36.5826274,16.0238626 36.6956157,15.9869684 36.7997345,15.9315044 C36.8979003,15.8721333 36.9725267,15.7806557 37.0109735,15.6725664 C37.055657,15.5633922 37.055657,15.4410326 37.0109735,15.3318584 Z" id="Shape" fill="#DECF70" fill-rule="nonzero"></path>
                    <path d="M44.9290265,16.0473451 C45.0437418,16.3474591 45.0651181,16.6752278 44.990354,16.9876991 C44.9233386,17.2547006 44.7729633,17.4933917 44.5610619,17.669115 C44.3303215,17.8511667 44.0630376,17.9813224 43.7774336,18.050708 C43.4478209,18.1341455 43.1089416,18.1753606 42.7689381,18.1733628 C42.4078522,18.1634868 42.0490081,18.1132029 41.699115,18.0234513 C41.3468594,17.9470458 41.0072834,17.8208521 40.6906195,17.6486726 C40.3768754,17.4703178 40.0957565,17.2398925 39.859292,16.9672566 C39.6100888,16.6876913 39.4241462,16.3576432 39.3141593,15.999646 C39.2020321,15.6994323 39.1737644,15.3743538 39.2323894,15.059292 C39.286575,14.7952381 39.4253171,14.5560275 39.6276106,14.3778761 C39.8483665,14.1894046 40.1094814,14.0541844 40.3907965,13.9826549 C40.7309151,13.8928107 41.0815998,13.8492616 41.4333628,13.8531858 C41.8163905,13.8526265 42.1982147,13.8960675 42.5713274,13.9826549 C42.9267303,14.0624623 43.2687117,14.1932874 43.5866372,14.3710619 C43.8966835,14.5490249 44.1733808,14.779606 44.4043363,15.0524779 C44.6464973,15.3440156 44.8251982,15.6828511 44.9290265,16.0473451 Z M43.7433628,16.0132743 C43.6132015,15.5789315 43.3423289,15.2001893 42.9733628,14.9366372 C42.5736711,14.6618567 42.0950293,14.5254438 41.610531,14.5482301 C41.2181464,14.5034699 40.8287061,14.6536462 40.5679646,14.9502655 C40.3692155,15.2809545 40.3437959,15.6876684 40.499823,16.040531 C40.5661353,16.2424176 40.6626266,16.4331028 40.7860177,16.6061062 C40.9098871,16.7838632 41.0617711,16.9403498 41.2357522,17.069469 C41.4184895,17.2022142 41.6207993,17.3056681 41.8353982,17.3761062 C42.0681692,17.4541267 42.3122041,17.4932644 42.5576991,17.4919469 C42.79038,17.500497 43.0223307,17.4610654 43.239115,17.3761062 C43.4013915,17.3107894 43.5427569,17.2024093 43.6479646,17.0626549 C43.7462993,16.9247831 43.8030538,16.7616137 43.8115044,16.5924779 C43.8249072,16.3968549 43.8018003,16.2004456 43.7433628,16.0132743 Z" id="Shape" fill="#DECF70" fill-rule="nonzero"></path>
                    <polygon id="Path" fill="#DECF70" points="47.8318584 14.6845133 48.9084956 18.009823 47.7500885 18.009823 46.6734513 14.6913274 44.8676991 14.6913274 44.6428319 14.0099115 49.4127434 14.0099115 49.6376106 14.6913274 47.8318584 14.6913274"></polygon>
                    <path d="M36.4045133,8.4359292 C36.050177,8.4359292 35.8457522,8.61309735 35.9411504,8.83115044 L35.9411504,8.88566372 L33.0451327,9.13097345 L31.9344248,7.5500885 C32.2274336,7.5500885 32.3909735,7.35929204 32.3023894,7.16168142 C32.1196713,6.89736039 31.8122745,6.74753675 31.4915044,6.76646018 C31.1371681,6.76646018 30.9327434,6.94362832 31.0281416,7.16168142 C31.0916261,7.27940005 31.1922441,7.37283102 31.3143363,7.42743363 L29.5017699,8.85840708 L26.4353982,7.46150442 C26.5109754,7.39509086 26.5332388,7.28655644 26.4899115,7.19575221 C26.3071934,6.93143118 25.9997966,6.78160754 25.6790265,6.80053097 C25.3246903,6.80053097 25.1202655,6.97769912 25.2156637,7.19575221 C25.369249,7.42499762 25.6215681,7.56881949 25.8970796,7.58415929 L26.1628319,9.16504425 L22.9533628,8.85840708 C22.9562132,8.83578264 22.9562132,8.81288992 22.9533628,8.79026549 C22.7706447,8.52594446 22.4632479,8.37612082 22.1424779,8.39504425 C21.7881416,8.39504425 21.5837168,8.57221239 21.679115,8.79026549 C21.8618332,9.05458652 22.1692299,9.20441016 22.49,9.18548673 C22.6342762,9.19323696 22.7766561,9.14979903 22.8920354,9.06283186 L26.8374336,11.4273451 C26.8374336,11.4273451 29.7811504,10.2689381 34.4761062,11.4273451 L36.3159292,9.11053097 C36.4580727,9.17170893 36.6109243,9.204132 36.7656637,9.2059292 C37.12,9.2059292 37.3244248,9.02876106 37.2290265,8.81070796 C37.0389833,8.54976851 36.7260715,8.40753587 36.4045133,8.4359292 Z" id="Path" fill="#DECF70"></path>
                    <path d="M28.3433628,0.238495575 C42.5031858,0.238495575 55.8248673,5.68982301 59.320531,12.8855752 C60.6644692,15.4674927 60.5080944,18.5741399 58.9116814,21.0080531 C55.3683186,26.6638053 45.6717699,30.1799115 33.610708,30.1799115 C21.120354,30.1799115 9.67256637,26.309469 4.46654867,20.3266372 C2.38141593,17.9348673 1.46150442,15.3386726 1.80902655,12.8310619 C2.80389381,5.64212389 14.2107965,0.238495575 28.3433628,0.238495575 Z M28.3433628,0 C14.5378761,0 2.6199115,5.26053097 1.57734513,12.7833628 C0.337168142,21.7576106 14.5651327,30.4184071 33.6038938,30.4184071 C52.6426549,30.4184071 63.8792035,21.7644248 59.4976991,12.7833628 C55.8861947,5.26053097 42.1420354,0 28.3433628,0 Z" id="Shape" fill="url(#linearGradient-6)" fill-rule="nonzero"></path>
                    <polygon id="Path" fill="#EFDE95" points="28.5614159 1.47185841 27.6619469 2.11920354 26.3536283 1.51955752 27.2530973 0.872212389"></polygon>
                    <polygon id="Path" fill="#F3EBB0" points="16.4322124 3.03230088 16.33 3.86362832 14.6400885 3.62513274 14.749115 2.80061947"></polygon>
                    <polygon id="Path" fill="#F3EBB0" points="7.75778761 7.55690265 8.62318584 8.47 6.71522124 8.71530973 5.84982301 7.79539823"></polygon>
                    <polygon id="Path" fill="#F3EBB0" points="4.88902655 14.1870796 6.64026549 14.8412389 5.19566372 15.6044248 3.43761062 14.9434513"></polygon>
                    <polygon id="Path" fill="#F3EBB0" points="9.27053097 21.2261062 11.4374336 21.3555752 10.9876991 22.4662832 8.80716814 22.3368142"></polygon>
                    <polygon id="Path" fill="#EFDE95" points="20.1323009 26.5411504 22.0743363 26.0641593 22.8102655 27.2021239 20.8614159 27.679115"></polygon>
                    <polygon id="Path" fill="#DECF70" points="34.2989381 28.3060177 35.409646 27.3520354 37.0927434 28.1697345 35.9888496 29.130531"></polygon>
                    <polygon id="Path" fill="#D1BF65" points="47.0959292 26.1050442 47.0686726 24.9670796 49.1469912 25.2464602 49.1878761 26.3912389"></polygon>
                    <polygon id="Path" fill="#D1BF65" points="54.8027434 20.8922124 53.7329204 19.8837168 55.5863717 19.6043363 56.6630088 20.5992035"></polygon>
                    <polygon id="Path" fill="#D1BF65" points="56.6561947 14.1121239 54.9185841 13.4920354 56.0769912 12.7697345 57.8077876 13.389823"></polygon>
                    <polygon id="Path" fill="#DECF70" points="51.3752212 7.70681416 49.4945133 7.57734513 49.7125664 6.66424779 51.5932743 6.79371681"></polygon>
                    <polygon id="Path" fill="#DECF70" points="41.140354 3.15495575 39.6480531 3.46840708 39.0075221 2.64389381 40.499823 2.33044248"></polygon>
                    <polygon id="Path" fill="#AA7A52" points="28.6363717 1.31513274 27.7437168 1.96247788 26.4285841 1.36283186 27.3280531 0.715486726"></polygon>
                    <polygon id="Path" fill="#AA7A52" points="16.5071681 2.87557522 16.4117699 3.7000885 14.7218584 3.46840708 14.830885 2.63707965"></polygon>
                    <polygon id="Path" fill="#BC8D55" points="7.83955752 7.40017699 8.70495575 8.31327434 6.79017699 8.55858407 5.93159292 7.63867257"></polygon>
                    <polygon id="Path" fill="#BC8D55" points="4.9639823 14.0235398 6.71522124 14.6776991 5.27061947 15.4476991 3.51256637 14.7867257"></polygon>
                    <polygon id="Path" fill="#AA7A52" points="9.34548673 21.0693805 11.5192035 21.1988496 11.069469 22.3095575 8.88893805 22.1800885"></polygon>
                    <polygon id="Path" fill="#AA7A52" points="20.2140708 26.3776106 22.1561062 25.9074336 22.8852212 27.0385841 20.9363717 27.5223894"></polygon>
                    <polygon id="Path" fill="#9B7348" points="34.380708 28.149292 35.4846018 27.1953097 37.1676991 28.0130088 36.0638053 28.9738053"></polygon>
                    <polygon id="Path" fill="#91673D" points="47.1776991 25.9483186 47.1436283 24.810354 49.2287611 25.0897345 49.269646 26.2345133"></polygon>
                    <polygon id="Path" fill="#91673D" points="54.8845133 20.7286726 53.8146903 19.7269912 55.6681416 19.4407965 56.7379646 20.4424779"></polygon>
                    <polygon id="Path" fill="#91673D" points="56.7379646 13.9553982 54.9935398 13.3284956 56.1519469 12.6130088 57.8895575 13.2330973"></polygon>
                    <polygon id="Path" fill="#9B7348" points="51.450177 7.5500885 49.569469 7.41380531 49.7943363 6.50070796 51.6682301 6.63699115"></polygon>
                    <polygon id="Path" fill="#9B7348" points="41.2221239 2.99823009 39.729823 3.31168142 39.089292 2.48716814 40.5747788 2.17371681"></polygon>
                </g>
            </g>
        </g>
    </g>
</svg>