<svg width="252" height="215" xmlns="http://www.w3.org/2000/svg" xmlns:xlink="http://www.w3.org/1999/xlink"><defs><filter x="-14.7%" y="-24.8%" width="129.4%" height="149.6%" filterUnits="objectBoundingBox" id="filter-1"><feGaussianBlur stdDeviation="10" in="SourceGraphic"/></filter><filter x="-10.6%" y="-19.7%" width="121.2%" height="139.5%" filterUnits="objectBoundingBox" id="filter-5"><feOffset in="SourceAlpha" result="shadowOffsetOuter1"/><feGaussianBlur stdDeviation="7" in="shadowOffsetOuter1" result="shadowBlurOuter1"/><feColorMatrix values="0 0 0 0 1 0 0 0 0 1 0 0 0 0 1 0 0 0 0.5 0" in="shadowBlurOuter1"/></filter><filter x="-10.3%" y="-18.7%" width="120.6%" height="137.5%" filterUnits="objectBoundingBox" id="filter-8"><feOffset in="SourceAlpha" result="shadowOffsetOuter1"/><feGaussianBlur stdDeviation="7" in="shadowOffsetOuter1" result="shadowBlurOuter1"/><feColorMatrix values="0 0 0 0 1 0 0 0 0 1 0 0 0 0 1 0 0 0 0.5 0" in="shadowBlurOuter1"/></filter><filter x="-5.1%" y="-10.3%" width="110.2%" height="120.5%" filterUnits="objectBoundingBox" id="filter-10"><feMorphology radius="1" operator="dilate" in="SourceAlpha" result="shadowSpreadOuter1"/><feOffset in="shadowSpreadOuter1" result="shadowOffsetOuter1"/><feGaussianBlur stdDeviation="2" in="shadowOffsetOuter1" result="shadowBlurOuter1"/><feColorMatrix values="0 0 0 0 1 0 0 0 0 1 0 0 0 0 1 0 0 0 0.528982736 0" in="shadowBlurOuter1"/></filter><path d="M54.42 84.728a61.121 61.121 0 006.546 3.56c8.574 4.023 18.552 6.556 28.89 7.663l-6.836 19.27c-16.695-1.784-32.294-5.914-45.32-12.028-3.713-1.742-7.152-3.611-10.31-5.592l27.03-12.873zm95.128.01l27.012 12.879c-11.06 6.962-25.19 12.276-40.935 15.388a167.038 167.038 0 01-14.7 2.215l-6.818-19.27c13.302-1.422 25.863-5.188 35.441-11.212zm45.994-40.334c2.675 4.286 4.384 8.787 5.04 13.425 1.064 7.507-.684 14.893-5.015 21.803l-33.879-6.404c4.563-7.3 4.508-15.214.01-22.438l33.844-6.386zM8.439 44.368l33.873 6.403c-4.563 7.3-4.508 15.214-.011 22.438L8.429 79.6c-2.664-4.28-4.365-8.774-5.02-13.403-1.063-7.513.69-14.91 5.03-21.829zM120.945 8.885c16.698 1.775 32.312 5.86 45.343 11.976 3.694 1.733 7.12 3.594 10.266 5.563L149.58 39.271a61.238 61.238 0 00-6.545-3.558c-8.575-4.024-18.553-6.558-28.893-7.664l6.802-19.164zm-37.848-.041l6.796 19.206C76.59 29.472 64.03 33.238 54.452 39.26l-27-12.873c11.056-6.956 25.169-12.224 40.906-15.334 4.807-.949 9.737-1.685 14.74-2.209z" id="path-4"/><path d="M24.51 19.586C48.32 4.314 83.858-2.19 117.569.649c18.155 1.529 35.777 5.768 50.757 12.807 42.796 20.111 47.795 55.46 11.164 78.957-23.807 15.272-59.347 21.777-93.056 18.938-18.155-1.53-35.777-5.768-50.757-12.807C-7.122 78.433-12.12 43.083 24.51 19.586zm29.91 59.142L27.39 91.601c3.158 1.98 6.597 3.85 10.31 5.592 13.026 6.114 28.625 10.244 45.32 12.027l6.837-19.27c-10.34-1.106-20.317-3.639-28.89-7.663a61.121 61.121 0 01-6.547-3.559zm95.128.01c-9.578 6.024-22.139 9.79-35.441 11.211l6.817 19.27c4.99-.53 9.908-1.268 14.7-2.214 15.745-3.112 29.876-8.426 40.936-15.388zM102 23.1c-33.096 0-59.925 14.73-59.925 32.9 0 18.17 26.83 32.9 59.925 32.9 33.096 0 59.925-14.73 59.925-32.9 0-18.17-26.83-32.9-59.925-32.9zm93.542 15.304l-33.843 6.386c4.497 7.224 4.552 15.139-.011 22.438l33.88 6.404c4.33-6.91 6.078-14.296 5.014-21.803-.656-4.638-2.365-9.139-5.04-13.425zM8.439 38.368c-4.34 6.919-6.093 14.316-5.03 21.83.655 4.628 2.356 9.121 5.02 13.402l33.872-6.391c-4.497-7.224-4.552-15.138.011-22.438zM120.945 2.885l-6.802 19.164c10.34 1.106 20.318 3.64 28.893 7.664a61.238 61.238 0 016.545 3.558l26.973-12.847c-3.146-1.969-6.572-3.83-10.266-5.563-13.03-6.116-28.645-10.201-45.343-11.976zm-37.848-.041c-5.002.524-9.932 1.26-14.739 2.21-15.737 3.11-29.85 8.377-40.906 15.333l27 12.874c9.579-6.023 22.138-9.79 35.44-11.21z" id="path-7"/><path d="M61.01 87.708a5.978 5.978 0 015.983 5.974c0 3.3-2.678 5.974-5.982 5.974a5.978 5.978 0 01-5.983-5.974c0-3.3 2.679-5.974 5.983-5.974zm81.872-.11a5.979 5.979 0 015.983 5.975c0 3.3-2.679 5.975-5.983 5.975a5.979 5.979 0 01-5.983-5.975c0-3.3 2.679-5.974 5.983-5.974zm-122.9-34.636a5.978 5.978 0 015.983 5.974c0 3.3-2.679 5.974-5.983 5.974A5.978 5.978 0 0114 58.936c0-3.299 2.678-5.974 5.982-5.974zm163.74-.217a5.978 5.978 0 015.982 5.974c0 3.3-2.679 5.974-5.983 5.974a5.978 5.978 0 01-5.982-5.974c0-3.3 2.678-5.974 5.982-5.974zM60.822 12.11a5.978 5.978 0 015.983 5.974c0 3.299-2.679 5.973-5.983 5.973a5.978 5.978 0 01-5.982-5.973c0-3.3 2.678-5.974 5.982-5.974zm81.87-.11a5.978 5.978 0 015.983 5.974c0 3.3-2.678 5.974-5.982 5.974a5.978 5.978 0 01-5.983-5.974c0-3.3 2.679-5.974 5.983-5.974z" id="path-9"/><radialGradient cx="62.666%" cy="21.935%" fx="62.666%" fy="21.935%" r="93.763%" gradientTransform="scale(-.53785 -1) rotate(-56.364 -.679 1.672)" id="radialGradient-3"><stop stop-color="#FFF" offset="0%"/><stop stop-color="#BEBEBE" offset="100%"/></radialGradient><radialGradient cx="62.666%" cy="21.935%" fx="62.666%" fy="21.935%" r="93.183%" gradientTransform="matrix(-.29978 .83776 -.45995 -.54603 .915 -.186)" id="radialGradient-6"><stop stop-color="#FFF" offset="0%"/><stop stop-color="#BEBEBE" offset="100%"/></radialGradient><linearGradient x1="50%" y1="99.828%" x2="50%" y2="0%" id="linearGradient-2"><stop stop-color="#FFF" offset="0%"/><stop stop-color="#070707" stop-opacity="0" offset="57.496%"/><stop stop-color="#FFF" offset="100%"/></linearGradient></defs><g id="Assets" stroke="none" stroke-width="1" fill="none" fill-rule="evenodd"><g id="Group-4"><g id="Chip-Copy" transform="translate(24 50)"><g id="Group-3"><g id="Group-12"><g id="Group-2"><path d="M24.51 38.586c23.81-15.272 59.347-21.776 93.058-18.937 18.155 1.529 35.777 5.768 50.757 12.807 42.796 20.111 47.795 64.46 11.164 87.957-23.807 15.272-59.347 21.777-93.056 18.938-18.155-1.53-35.777-5.768-50.757-12.807C-7.122 106.433-12.12 62.083 24.51 38.586zM102 51.1c-33.096 0-59.925 14.73-59.925 32.9 0 8.6 26.83 25.13 59.925 25.13 33.096 0 59.925-16.498 59.925-25.13 0-18.17-26.83-32.9-59.925-32.9z" id="Combined-Shape-Copy-12" fill="#FAFAFC" fill-rule="nonzero" opacity=".2" filter="url(#filter-1)"/><path d="M24.51 28.586C48.32 13.314 83.858 6.81 117.569 9.649c18.155 1.529 35.777 5.768 50.757 12.807 42.796 20.111 47.795 64.46 11.164 87.957-23.807 15.272-59.347 21.777-93.056 18.938-18.155-1.53-35.777-5.768-50.757-12.807C-7.122 96.433-12.12 52.083 24.51 28.586zM102 41.1c-33.096 0-59.925 14.73-59.925 32.9 0 8.6 26.83 25.13 59.925 25.13 33.096 0 59.925-16.498 59.925-25.13 0-18.17-26.83-32.9-59.925-32.9z" id="Combined-Shape-Copy-11" stroke-opacity=".375" stroke="#FFF" fill="url(#linearGradient-2)" fill-rule="nonzero" opacity=".2"/><g id="Combined-Shape-Copy-5"><use fill="#000" filter="url(#filter-5)" xlink:href="#path-4"/><use fill="url(#radialGradient-3)" xlink:href="#path-4"/></g><g id="Combined-Shape"><use fill="#000" filter="url(#filter-8)" xlink:href="#path-7"/><use fill="url(#radialGradient-6)" xlink:href="#path-7"/></g><g id="Combined-Shape" fill-rule="nonzero"><use fill="#000" filter="url(#filter-10)" xlink:href="#path-9"/><use fill="#FFF" xlink:href="#path-9"/></g></g></g></g></g></g></g></svg>