<?xml version="1.0" encoding="utf-8"?>
<svg width="288px" height="288px" viewBox="0 0 288 288" version="1.1" xmlns="http://www.w3.org/2000/svg">
  <title>CORNERS</title>
  <desc>Created with Sketch.</desc>
  <defs>
    <linearGradient x1="-1.1102230246251565e-16" y1="0.5" x2="1" y2="0.5" id="linearGradient-1">
      <stop stop-color="#CA9E48" offset="0"/>
      <stop stop-color="#D5B259" stop-opacity="0" offset="1"/>
    </linearGradient>
    <linearGradient x1="0.5" y1="1" x2="0.5" y2="3.06161710499314e-17" id="linearGradient-2">
      <stop stop-color="#EDD97A" stop-opacity="0" offset="0"/>
      <stop stop-color="#D7B55B" offset="1"/>
    </linearGradient>
    <linearGradient x1="0.5" y1="0" x2="0.5" y2="1" id="linearGradient-3">
      <stop stop-color="#505050" offset="0"/>
      <stop stop-color="#000000" offset="1"/>
    </linearGradient>
    <linearGradient x1="0.5" y1="1" x2="0.5" y2="3.06161710499314e-17" id="linearGradient-4">
      <stop stop-color="#F1E07F" offset="0"/>
      <stop stop-color="#BA8433" offset="1"/>
    </linearGradient>
  </defs>
  <g id="GRIDS" stroke="none" stroke-width="1" fill="none" fill-rule="evenodd">
    <g id="MOB_PORT_CORNERS">
      <g id="CORNERS">
        <g id="CORNER_LEFT_BOT" transform="matrix(1, 0, 0, -1, 0, 288)">
          <rect id="Combined-Shape" fill="url(#linearGradient-1)" fill-rule="nonzero" x="7" y="7" width="141" height="1"/>
          <rect id="Combined-Shape" fill="url(#linearGradient-2)" fill-rule="nonzero" x="7" y="4" width="1" height="141"/>
          <circle id="Oval" stroke="url(#linearGradient-4)" fill="url(#linearGradient-3)" cx="7.5" cy="7.5" r="6"/>
        </g>
        <g id="CORNER_RIGHT_BOT" transform="matrix(-1, 0, 0, -1, 288, 288)">
          <rect id="Combined-Shape" fill="url(#linearGradient-1)" fill-rule="nonzero" x="3" y="7" width="141" height="1"/>
          <rect id="Combined-Shape" fill="url(#linearGradient-2)" fill-rule="nonzero" x="7" y="3" width="1" height="141"/>
          <circle id="Oval" stroke="url(#linearGradient-4)" fill="url(#linearGradient-3)" cx="7.5" cy="7.5" r="6"/>
        </g>
        <g id="CORNER_RIGHT_TOP" transform="translate(216.000000, 72.000000) scale(-1, 1) translate(-216.000000, -72.000000) translate(144.000000, 0.000000)">
          <rect id="Combined-Shape" fill="url(#linearGradient-1)" fill-rule="nonzero" x="3" y="7" width="141" height="1"/>
          <rect id="Combined-Shape" fill="url(#linearGradient-2)" fill-rule="nonzero" x="7" y="3" width="1" height="141"/>
          <circle id="Oval" stroke="url(#linearGradient-4)" fill="url(#linearGradient-3)" cx="7.5" cy="7.5" r="6"/>
        </g>
        <g id="CORNER_LEFT_TOP">
          <rect id="Combined-Shape" fill="url(#linearGradient-1)" fill-rule="nonzero" x="7" y="7" width="141" height="1"/>
          <rect id="Combined-Shape" fill="url(#linearGradient-2)" fill-rule="nonzero" x="7" y="7" width="1" height="141"/>
          <circle id="Oval" stroke="url(#linearGradient-4)" fill="url(#linearGradient-3)" cx="7.5" cy="7.5" r="6"/>
        </g>
      </g>
    </g>
  </g>
</svg>