<svg enable-background="new 0 0 36 48" viewBox="0 0 36 48" xmlns="http://www.w3.org/2000/svg" xmlns:xlink="http://www.w3.org/1999/xlink"><linearGradient id="a"><stop offset="0" stop-color="#231f20" stop-opacity=".686"/><stop offset="1" stop-color="#231f20" stop-opacity="0"/></linearGradient><linearGradient id="b" gradientTransform="matrix(1 0 0 -1 .049999 50)" gradientUnits="userSpaceOnUse" x1="25.883" x2="7.758" xlink:href="#a" y1="20.458" y2="8.183"/><linearGradient id="c" gradientTransform="matrix(1 0 0 -1 2.6 24.9)" gradientUnits="userSpaceOnUse" x1="28.454" x2="3.604" xlink:href="#a" y1="23.759" y2="10.059"/><linearGradient id="d" gradientTransform="matrix(1 0 0 -1 .049999 50)" gradientUnits="userSpaceOnUse" x1="27.504" x2="21.804" xlink:href="#a" y1="21.071" y2="15.321"/><linearGradient id="e" gradientTransform="matrix(1 0 0 -1 .049999 50)" gradientUnits="userSpaceOnUse" x1="8.732" x2="34.857" y1="31.73" y2="25.13"><stop offset=".024" stop-color="#ffc66d"/><stop offset=".09" stop-color="#f8c06a"/><stop offset=".184" stop-color="#e5b162"/><stop offset=".298" stop-color="#c59754"/><stop offset=".427" stop-color="#997441"/><stop offset=".51" stop-color="#785a33"/><stop offset=".977" stop-color="#352316"/></linearGradient><linearGradient id="f" gradientTransform="matrix(1 0 0 -1 .049999 50)" gradientUnits="userSpaceOnUse" x1="24.762" x2="33.038" y1="26.1" y2="26.1"><stop offset="0" stop-color="#352316" stop-opacity="0"/><stop offset="1" stop-color="#352316"/></linearGradient><radialGradient id="g" cx="116.576" cy="760.215" gradientTransform="matrix(.9452 .3266 -.3003 .8686 143.1072 -683.6883)" gradientUnits="userSpaceOnUse" r="10.448"><stop offset="0" stop-color="#d8a14c"/><stop offset="1" stop-color="#462e1d"/></radialGradient><radialGradient id="h" cx="-127.345" cy="1369.254" gradientTransform="matrix(.9911 -.1328 .1672 .7747 -73.9265 -1060.7423)" gradientUnits="userSpaceOnUse" r="5.082"><stop offset="0" stop-color="#ffc66d"/><stop offset="1" stop-color="#d8a14c" stop-opacity="0"/></radialGradient><radialGradient id="i" cx="74.809" cy="-92.888" gradientTransform="matrix(.5706 .8212 -.5493 .4853 -71.8062 .5403)" gradientUnits="userSpaceOnUse" r="2.344"><stop offset="0" stop-color="#ffc66d" stop-opacity=".886"/><stop offset="1" stop-color="#d8a14c" stop-opacity="0"/></radialGradient><linearGradient id="j" gradientTransform="matrix(1 0 0 -1 .049999 50)" gradientUnits="userSpaceOnUse" x1="18.363" x2="35.038" y1="31.115" y2="30.84"><stop offset="0" stop-color="#ffc66d"/><stop offset=".486" stop-color="#785a33"/><stop offset="1" stop-color="#352316"/></linearGradient><linearGradient id="k" gradientTransform="matrix(1 0 0 -1 .049999 50)" gradientUnits="userSpaceOnUse" x1="14.872" x2="33.822" y1="37.099" y2="37.149"><stop offset="0" stop-color="#785a33"/><stop offset="1" stop-color="#462e1d"/></linearGradient><radialGradient id="l" cx="-2006.986" cy="444.637" fx="-2017.986" fy="440.137" gradientTransform="matrix(-.9255 -.3786 .3786 -.9255 -1999.0135 -341.6284)" gradientUnits="userSpaceOnUse" r="11.885"><stop offset=".024" stop-color="#ffc66d"/><stop offset=".122" stop-color="#f8c06a"/><stop offset=".259" stop-color="#e5b162"/><stop offset=".423" stop-color="#c59754"/><stop offset=".608" stop-color="#997441"/><stop offset=".729" stop-color="#785a33"/><stop offset=".977" stop-color="#352316"/></radialGradient><radialGradient id="m" cx="83.776" cy="255.819" gradientTransform="matrix(.6983 .7158 -.729 .7071 154.8468 -234.9475)" gradientUnits="userSpaceOnUse" r="5.693"><stop offset="0" stop-color="#fcffb8" stop-opacity=".788"/><stop offset="1" stop-color="#fcffb8" stop-opacity="0"/></radialGradient><radialGradient id="n" cx="83.267" cy="257.424" gradientTransform="matrix(.6998 .7144 -.7289 .7046 156.3774 -236.2242)" gradientUnits="userSpaceOnUse" r="2.572"><stop offset="0" stop-color="#ffffd1" stop-opacity=".788"/><stop offset="1" stop-color="#ffffd1" stop-opacity="0"/></radialGradient><radialGradient id="o" cx="101.66" cy="313.084" gradientTransform="matrix(.7399 .6727 -.6727 .7399 163.9307 -289.9474)" gradientUnits="userSpaceOnUse" r="6.69"><stop offset="0" stop-color="#004637"/><stop offset="1" stop-color="#004637" stop-opacity="0"/></radialGradient><radialGradient id="p" cx="105.215" cy="-42.549" gradientTransform="matrix(.6235 .7819 -.4752 .4988 -62.9658 -50.2406)" gradientUnits="userSpaceOnUse" r="3.709"><stop offset="0" stop-color="#fcffb8" stop-opacity=".686"/><stop offset="1" stop-color="#d8a14c" stop-opacity="0"/></radialGradient><path d="m19 25.8-14.3 8.5c-2 1.2-3.4 2.8-4.2 4.7s-.7 3.6.3 5.3c1.1 1.8 2.9 2.8 5.3 3.2 2.5.4 5-.2 7.3-1.6l17.2-9.9c2.5-1.4 4-3.2 4.4-5.3s-.3-3.8-2.3-5.2c-1.7-1.2-3.9-1.8-6.6-1.8-2.6.1-5 .7-7.1 2.1z" fill="url(#b)" transform="translate(.05)"/><path d="m31.5 6.4c.8-2.2.1-3.9-2.2-5.2-1.9-1-4.3-1.4-7.3-1.1-2.9.3-5.4 1.2-7.6 2.6l-11.5 7.6c-1.3.8-2.2 1.9-2.7 3.3-.5 1.3-.4 2.5.3 3.6.7 1.2 1.9 2 3.5 2.4 1.7.4 3.4.2 5.1-.5l16.3-7.3c3.3-1.5 5.3-3.3 6.1-5.4z" fill="url(#c)" transform="translate(2.6 25.1)"/><path d="m26.9 22.5c-2 0-3.8.6-5.4 1.7s-2.6 2.4-3 4.1c-.4 1.9.1 3.6 1.5 5.2 1.3 1.6 3.2 2.5 5.5 2.9l1.5.1c2 0 3.9-.5 5.5-1.6s2.6-2.5 2.9-4.2c.4-1.9-.1-3.7-1.4-5.3s-3.2-2.5-5.5-2.9z" fill="url(#d)" transform="translate(.05)"/><path d="m30.9 15.4c-1.6.8-3.2 1-5 .7-2.6-.5-4.5-1.8-5.8-4.1-.9 1.3-1.4 2.9-1.4 4.7v11.3c0 2.3.8 4.1 2.5 5.5 1.6 1.3 3.6 2 6 2s4.4-.7 6-2c1.7-1.4 2.5-3.2 2.5-5.5v-11.4c0-1.8-.5-3.3-1.4-4.7-.8 1.5-1.9 2.7-3.4 3.5z" fill="url(#e)" transform="translate(.05)"/><path d="m34.7 12.4.1 1.3v11.2c0 2.6-.9 4.7-2.7 6.5s-3.9 2.7-6.5 2.7c-2 0-3.4-.2-4.1-.6 1.6 1.2 3.5 1.8 5.9 1.8 2.6 0 4.6-.7 6.2-2.1 1.6-1.5 2.3-3.6 2.3-6.4v-10.2c-.1-1.5-.5-2.9-1.2-4.2z" fill="url(#f)" transform="translate(.05)"/><path d="m35.7 17c.4-1.9-.1-3.6-1.5-5.2s-3.2-2.5-5.5-2.9l-1.5-.1c-2 0-3.9.6-5.5 1.6s-2.6 2.5-2.9 4.2c-.4 1.9.1 3.6 1.5 5.2 1.3 1.6 3.1 2.5 5.4 2.9l1.5.1c2.1 0 3.9-.5 5.5-1.6s2.6-2.4 3-4.2z" fill="url(#g)" transform="translate(.05)"/><path d="m25.4 13.7c-1.1.9-1.7 1.9-1.7 3.2s.6 2.3 1.7 3.2 2.5 1.4 4.1 1.4 2.9-.5 4-1.4 1.7-1.9 1.7-3.2-.6-2.3-1.7-3.2-2.5-1.3-4.1-1.3c-1.5 0-2.9.4-4 1.3z" fill="url(#h)" transform="translate(.05)"/><path d="m22.3 14.7c-.6-.3-1.1-.3-1.6-.1-.5.3-.8.7-.9 1.4s.1 1.4.4 2c.3.7.8 1.2 1.5 1.5.6.3 1.1.3 1.6.1s.8-.7.9-1.4-.1-1.4-.4-2.1c-.5-.6-.9-1.1-1.5-1.4z" fill="url(#i)" transform="translate(.05)"/><path d="m25.8 22.8 1.5.1c2 0 3.9-.5 5.5-1.6s2.6-2.5 2.9-4.2c.1-.5.2-1.1.1-1.7l-.2.6c-.3 1.7-1.3 3.2-3 4.3-1.6 1.1-3.5 1.7-5.6 1.7l-1.5-.1c-2.8-.4-4.9-1.7-6.4-3.9.5 1.2 1.3 2.2 2.5 3.1 1.3.9 2.6 1.4 4.2 1.7z" fill="url(#j)" transform="translate(.05)"/><path d="m22.4 11.8c1.5-1 3.1-1.5 5-1.5l1.4.1c2.6.4 4.5 1.6 5.7 3.4-.4-1.1-1.2-2-2.2-2.8-1.1-.8-2.3-1.3-3.8-1.4-.3-.1-.7-.1-1.3-.1-1.8 0-3.5.5-4.9 1.4-1.4 1-2.3 2.3-2.6 3.8-.1.4-.1.9 0 1.5v-.6c.3-1.5 1.2-2.8 2.7-3.8z" fill="url(#k)" transform="translate(.05)"/><path d="m283 192.8c-1.6-.3-3-1-4.3-2.3 1.2 2.1 2.9 3.4 5.3 3.8 1.7.3 3.4 0 4.9-.8s2.6-2 3.3-3.6c-.1-.2-.3-.6-.7-1.2l-.4.5c-1.2 1.8-2.9 2.9-4.9 3.4-.7.2-1.5.2-2.3.2z" fill="#352316" fill-opacity=".792" transform="translate(-257.05 -176.7)"/><path d="m33.9 3.4c-1.3-1.8-3.1-2.9-5.3-3.3s-4.3.1-6 1.4c-1.8 1.3-2.9 3-3.3 5.3-.4 2.2.1 4.2 1.4 6.1s3 2.9 5.3 3.3c2.2.4 4.2-.1 6.1-1.3 1.8-1.3 2.9-3 3.3-5.3s-.2-4.4-1.5-6.2z" fill="url(#l)" transform="translate(.05)"/><path d="m33 7.4c.3-1.7 0-3.2-1-4.6s-2.3-2.3-4-2.6-3.3 0-4.7 1-2.3 2.3-2.6 4 0 3.3 1 4.7 2.3 2.3 4 2.6 3.3 0 4.7-1 2.2-2.3 2.6-4.1z" fill="url(#m)" transform="translate(.05)"/><path d="m29.4 3.2c-.4-.6-1-1-1.8-1.2s-1.5 0-2.1.5c-.7.5-1.1 1.1-1.2 1.8-.1.8 0 1.5.4 2.1s1 1 1.8 1.2c.8.1 1.5 0 2.1-.4.7-.4 1.1-1 1.2-1.8s0-1.5-.4-2.2z" fill="url(#n)" transform="translate(.05)"/><path d="m34.7 6.8c0 .4 0 .9-.1 1.6-.3 2.2-1.4 3.9-3.2 5.1-1.8 1.3-3.8 1.7-5.9 1.4-1.7-.3-3.2-1.1-4.4-2.4 1.2 1.8 2.8 2.9 5 3.3 2.1.4 4 0 5.7-1.3 1.7-1.2 2.7-2.8 3-4.9.1-1.1.1-2-.1-2.8z" fill="url(#o)" transform="translate(.05)"/><path d="m23 7.3c-1-.4-1.8-.4-2.5 0-.7.5-1.1 1.2-1.1 2.3 0 1 .3 2.1.9 3.1.7 1.1 1.5 1.8 2.4 2.3 1 .4 1.8.4 2.5 0s1.1-1.2 1.1-2.2c0-1.1-.3-2.1-.9-3.1-.6-1.2-1.4-2-2.4-2.4z" fill="url(#p)" transform="translate(.05)"/></svg>