<svg width="34px" height="34px" viewBox="0 0 34 34" version="1.1" xmlns="http://www.w3.org/2000/svg" xmlns:xlink="http://www.w3.org/1999/xlink">
    <defs>
        <circle id="path-1" cx="15" cy="15" r="15"></circle>
        <filter x="-11.7%" y="-8.3%" width="123.3%" height="123.3%" filterUnits="objectBoundingBox" id="filter-2">
            <feOffset dx="0" dy="1" in="SourceAlpha" result="shadowOffsetOuter1"></feOffset>
            <feGaussianBlur stdDeviation="1" in="shadowOffsetOuter1" result="shadowBlurOuter1"></feGaussianBlur>
            <feComposite in="shadowBlurOuter1" in2="SourceAlpha" operator="out" result="shadowBlurOuter1"></feComposite>
            <feColorMatrix values="0 0 0 0 0   0 0 0 0 0   0 0 0 0 0  0 0 0 0.5 0" type="matrix" in="shadowBlurOuter1"></feColorMatrix>
        </filter>
    </defs>
    <g id="Page-1" stroke="none" stroke-width="1" fill="none" fill-rule="evenodd">
        <g id="UI-elements" transform="translate(-1215.000000, -256.000000)">
            <g id="Decision-indications" transform="translate(1133.000000, 222.000000)">
                <g id="decision-/-normal-/-double-down" transform="translate(84.000000, 35.000000)">
                    <g id="bg-button">
                        <use fill="black" fill-opacity="1" filter="url(#filter-2)" xlink:href="#path-1"></use>
                        <circle stroke="#FF6400" stroke-width="2" stroke-linejoin="square" fill-opacity="0.8" fill="#FF6400" fill-rule="evenodd" cx="15" cy="15" r="14"></circle>
                    </g>
                    <path d="M14.5,19.0033335 L8,19.0033335 L8,16.3176465 C8,16.1801132 8.01449455,16.0340846 8.04164307,15.8800198 C8.07063217,15.7245774 8.11319553,15.5721198 8.17209401,15.4182846 C8.23122257,15.2662862 8.30829676,15.121176 8.401476,14.9836428 C8.49580561,14.8458799 8.61038157,14.7241894 8.74313323,14.6190304 C8.8774954,14.5124938 9.03049342,14.4282288 9.20419793,14.3648579 C9.37905281,14.3017166 9.57599462,14.2698015 9.79640379,14.2698015 L12.6877212,14.2698015 C12.8630362,14.2698015 12.9916466,14.2204365 13.0760831,14.1221657 C13.1591392,14.0222876 13.2017025,13.8792438 13.2017025,13.6889015 L13.2017025,13.0473857 C13.2017025,12.8494664 13.1582189,12.7009121 13.0747027,12.6001156 C12.9879655,12.5002376 12.8630362,12.4504133 12.6978444,12.4504133 L8.57725117,12.4504133 L8.57725117,11 L12.6978444,11 C12.9143423,11 13.1115142,11.0300782 13.2849887,11.0939084 C13.4584631,11.1568201 13.6130716,11.2417738 13.7474338,11.3480808 C13.8799554,11.4543878 13.9956817,11.5753896 14.0900113,11.71453 C14.1859514,11.8516041 14.2630256,11.9953367 14.3237647,12.1466462 C14.3835835,12.2970373 14.430058,12.4488061 14.4558261,12.6035597 C14.4857355,12.7578541 14.5,12.9027347 14.5,13.0361351 L14.5,13.6889015 C14.5,14.0647645 14.4406414,14.3816191 14.3189332,14.640154 C14.1992956,14.8991482 14.0495186,15.110155 13.869142,15.2711079 C13.6869248,15.4329793 13.4913634,15.5491593 13.282688,15.6230921 C13.0747027,15.6956472 12.8793714,15.7310063 12.6978444,15.7310063 L9.79640379,15.7310063 C9.69195101,15.7310063 9.60705437,15.7484563 9.54562509,15.7819786 C9.48166501,15.8152712 9.43427014,15.859585 9.39906909,15.9162973 C9.36524848,15.9718617 9.33925032,16.035003 9.32383548,16.1054917 C9.30658007,16.1759803 9.29231559,16.2471578 9.28173227,16.3176465 L9.28173227,17.5508537 L14.5,17.5508537 L14.5,19.0033335 Z M21.7082369,13 L19.3861727,15.8297751 L22,19 L20.2220973,19 L18.5034734,16.9075237 L16.7848495,19 L15,19 L17.6091962,15.8192716 L15.2996361,13 L17.068045,13 L18.4928217,14.7371846 L19.9280185,13 L21.7082369,13 Z" id="icon-2x" fill="#FFFFFF" fill-rule="evenodd"></path>
                </g>
            </g>
        </g>
    </g>
</svg>
