<svg width="452" height="341" version="1.1" xmlns="http://www.w3.org/2000/svg" xmlns:xlink="http://www.w3.org/1999/xlink"><defs><filter id="d" x="-46%" y="-99%" width="191.9%" height="298%"><feOffset in="SourceAlpha" result="shadowOffsetOuter1"/><feGaussianBlur in="shadowOffsetOuter1" result="shadowBlurOuter1" stdDeviation="8"/><feColorMatrix in="shadowBlurOuter1" values="0 0 0 0 0.8075 0 0 0 0 0.810333333 0 0 0 0 0.85 0 0 0 0.4 0"/></filter><filter id="f" x="-17.3%" y="-37.1%" width="134.6%" height="174.2%"><feOffset in="SourceAlpha" result="shadowOffsetOuter1"/><feGaussianBlur in="shadowOffsetOuter1" result="shadowBlurOuter1" stdDeviation="8"/><feColorMatrix in="shadowBlurOuter1" values="0 0 0 0 0.8075 0 0 0 0 0.810333333 0 0 0 0 0.85 0 0 0 0.4 0"/></filter><filter id="i" x="-33%" y="-30%" width="165.9%" height="160.1%"><feOffset in="SourceAlpha" result="shadowOffsetOuter1"/><feGaussianBlur in="shadowOffsetOuter1" result="shadowBlurOuter1" stdDeviation="7"/><feColorMatrix in="shadowBlurOuter1" values="0 0 0 0 1 0 0 0 0 1 0 0 0 0 1 0 0 0 0.5 0"/></filter><filter id="l" x="-33%" y="-70.8%" width="165.9%" height="241.6%"><feOffset in="SourceAlpha" result="shadowOffsetOuter1"/><feGaussianBlur in="shadowOffsetOuter1" result="shadowBlurOuter1" stdDeviation="7"/><feColorMatrix in="shadowBlurOuter1" values="0 0 0 0 1 0 0 0 0 1 0 0 0 0 1 0 0 0 0.5 0"/></filter><filter id="o" x="-27.5%" y="-57.9%" width="154.8%" height="215.8%"><feOffset in="SourceAlpha" result="shadowOffsetOuter1"/><feGaussianBlur in="shadowOffsetOuter1" result="shadowBlurOuter1" stdDeviation="8"/><feColorMatrix in="shadowBlurOuter1" values="0 0 0 0 0.8075 0 0 0 0 0.810333333 0 0 0 0 0.85 0 0 0 0.4 0"/></filter><filter id="q" x="-33%" y="-30%" width="165.9%" height="160.1%"><feOffset in="SourceAlpha" result="shadowOffsetOuter1"/><feGaussianBlur in="shadowOffsetOuter1" result="shadowBlurOuter1" stdDeviation="7"/><feColorMatrix in="shadowBlurOuter1" values="0 0 0 0 1 0 0 0 0 1 0 0 0 0 1 0 0 0 0.5 0"/></filter><filter id="s" x="-33%" y="-69.7%" width="165.9%" height="239.5%"><feOffset in="SourceAlpha" result="shadowOffsetOuter1"/><feGaussianBlur in="shadowOffsetOuter1" result="shadowBlurOuter1" stdDeviation="7"/><feColorMatrix in="shadowBlurOuter1" values="0 0 0 0 1 0 0 0 0 1 0 0 0 0 1 0 0 0 0.5 0"/></filter><filter id="u" x="-27.5%" y="-57.9%" width="154.8%" height="215.8%"><feOffset in="SourceAlpha" result="shadowOffsetOuter1"/><feGaussianBlur in="shadowOffsetOuter1" result="shadowBlurOuter1" stdDeviation="8"/><feColorMatrix in="shadowBlurOuter1" values="0 0 0 0 0.8075 0 0 0 0 0.810333333 0 0 0 0 0.85 0 0 0 0.4 0"/></filter><filter id="y" x="-43.4%" y="-38.7%" width="186.8%" height="177.5%"><feOffset in="SourceAlpha" result="shadowOffsetOuter1"/><feGaussianBlur in="shadowOffsetOuter1" result="shadowBlurOuter1" stdDeviation="7"/><feColorMatrix in="shadowBlurOuter1" values="0 0 0 0 1 0 0 0 0 1 0 0 0 0 1 0 0 0 0.5 0"/></filter><filter id="C" x="-36.2%" y="-76.3%" width="172.2%" height="252.6%"><feOffset in="SourceAlpha" result="shadowOffsetOuter1"/><feGaussianBlur in="shadowOffsetOuter1" result="shadowBlurOuter1" stdDeviation="8"/><feColorMatrix in="shadowBlurOuter1" values="0 0 0 0 0.8075 0 0 0 0 0.810333333 0 0 0 0 0.85 0 0 0 0.4 0"/></filter><filter id="G" x="-33.3%" y="-31.6%" width="166.7%" height="163.2%"><feGaussianBlur in="SourceGraphic" stdDeviation="1"/></filter><filter id="H" x="-33.3%" y="-31.6%" width="166.7%" height="163.2%"><feGaussianBlur in="SourceGraphic" stdDeviation="1"/></filter><filter id="I" x="-33.3%" y="-31.6%" width="166.7%" height="163.2%"><feGaussianBlur in="SourceGraphic" stdDeviation="1"/></filter><filter id="K" x="-33.3%" y="-33.3%" width="166.7%" height="166.7%"><feGaussianBlur in="SourceGraphic" stdDeviation="1"/></filter><filter id="L" x="-33.3%" y="-33.3%" width="166.7%" height="166.7%"><feGaussianBlur in="SourceGraphic" stdDeviation="1"/></filter><filter id="M" x="-33.3%" y="-33.3%" width="166.7%" height="166.7%"><feGaussianBlur in="SourceGraphic" stdDeviation="1"/></filter><filter id="N" x="-33.3%" y="-33.3%" width="166.7%" height="166.7%"><feGaussianBlur in="SourceGraphic" stdDeviation="1"/></filter><filter id="O" x="-33.3%" y="-33.3%" width="166.7%" height="166.7%"><feGaussianBlur in="SourceGraphic" stdDeviation="1"/></filter><filter id="Q" x="-33.3%" y="-33.7%" width="166.7%" height="167.5%"><feGaussianBlur in="SourceGraphic" stdDeviation="1"/></filter><filter id="R" x="-33.3%" y="-33.7%" width="166.7%" height="167.5%"><feGaussianBlur in="SourceGraphic" stdDeviation="1"/></filter><filter id="T" x="-33.3%" y="-30.8%" width="166.7%" height="161.6%"><feGaussianBlur in="SourceGraphic" stdDeviation="1"/></filter><filter id="U" x="-33.3%" y="-30.8%" width="166.7%" height="161.6%"><feGaussianBlur in="SourceGraphic" stdDeviation="1"/></filter><filter id="V" x="-27.3%" y="-27.3%" width="154.5%" height="154.5%"><feOffset in="SourceAlpha" result="shadowOffsetOuter1"/><feGaussianBlur in="shadowOffsetOuter1" result="shadowBlurOuter1" stdDeviation="4"/><feColorMatrix in="shadowBlurOuter1" values="0 0 0 0 1 0 0 0 0 1 0 0 0 0 1 0 0 0 0.5 0"/></filter><linearGradient id="a" x1="56.505" x2="56.505" y1="43.602" y2="156.61" gradientTransform="scale(.88985 1.1238)" gradientUnits="userSpaceOnUse"><stop stop-color="#FFF" stop-opacity=".301" offset="0"/><stop stop-color="#FFF" offset="1"/></linearGradient><linearGradient id="b" x1="38.35" x2="38.35" y1="64.244" y2="140.94" gradientTransform="scale(1.3111 .76271)" gradientUnits="userSpaceOnUse"><stop stop-color="#FFF" stop-opacity=".301" offset="0"/><stop stop-color="#FFF" offset="1"/></linearGradient><linearGradient id="c" x1="66.408" x2="66.408" y1="133.47" y2="-.43798" gradientTransform="scale(.75716 1.3207)" gradientUnits="userSpaceOnUse"><stop stop-color="#FFF" offset="0"/><stop stop-color="#070707" stop-opacity="0" offset=".57496"/><stop stop-color="#FFF" offset="1"/></linearGradient><linearGradient id="h" x1="50%" x2="50%" y1="100%"><stop stop-color="#FFF" stop-opacity=".4" offset=".00172"/><stop stop-color="#070707" stop-opacity="0" offset=".57496"/><stop stop-color="#FFF" stop-opacity=".4" offset="1"/></linearGradient><linearGradient id="w" x1="194.83" x2="194.83" y1="98.441" y2="141.91" gradientTransform="scale(1.8366 .5445)" gradientUnits="userSpaceOnUse"><stop stop-color="#FFF" stop-opacity="0" offset="0"/><stop stop-color="#FFF" offset="1"/></linearGradient><linearGradient id="x" x1="33.276" x2="33.276" y1="76.146" y2="10.915" gradientTransform="scale(.75691 1.3212)" gradientUnits="userSpaceOnUse"><stop stop-color="#FFF" stop-opacity=".4" offset=".00172"/><stop stop-color="#070707" stop-opacity="0" offset=".57496"/><stop stop-color="#FFF" stop-opacity=".4" offset="1"/></linearGradient><linearGradient id="E" x1="34.696" x2="34.696" y1="96.839" y2="167.18" gradientTransform="scale(1.0526 .95003)" gradientUnits="userSpaceOnUse"><stop stop-color="#FFF" stop-opacity="0" offset="0"/><stop stop-color="#FFF" offset="1"/></linearGradient><linearGradient id="F" x1="50%" x2="50%" y1="100%" y2=".061%"><stop stop-color="#FFF" offset=".00061"/><stop stop-color="#FFF" stop-opacity="0" offset="1"/></linearGradient><linearGradient id="J" y2="100%"><stop stop-color="#FFF" offset=".00061"/><stop stop-color="#FFF" stop-opacity="0" offset="1"/></linearGradient><linearGradient id="P" x1="50%" x2="50%" y2="100%"><stop stop-color="#FFF" offset=".00061"/><stop stop-color="#FFF" stop-opacity="0" offset="1"/></linearGradient><path id="e" d="M51.212 74.461l19.264 9.755a2 2 0 010 3.568L51.212 97.54a2 2 0 01-1.82-.007l-18.94-9.754a2 2 0 010-3.556l18.94-9.754a2 2 0 011.82-.007z"/><path id="g" d="M62.883 149.464l58.604 29.753a2 2 0 010 3.566l-58.604 29.753a2 2 0 01-1.823-.006L3.441 182.777a2 2 0 010-3.554l57.62-29.753a2 2 0 011.822-.006z"/><path id="j" d="M32.36 65.06c-.255 2.304-1.047 4.784-2.378 7.44h5.96l-.254-.5c-1.237-2.484-1.983-4.793-2.237-6.924a7.237 7.237 0 006.444 3.94 7.235 7.235 0 006.322-3.713l18.505 10.81v40.273L32.862 135 1 116.386V76.114l18.566-10.845a7.235 7.235 0 006.341 3.747 7.237 7.237 0 006.452-3.956z"/><path id="m" d="M32.36 65.06c-.255 2.304-1.047 4.784-2.378 7.44h5.96l-.254-.5c-1.237-2.484-1.983-4.793-2.237-6.924a7.237 7.237 0 006.444 3.94 7.235 7.235 0 006.322-3.713l18.505 10.81-31.86 18.614L1 76.114l18.566-10.845a7.235 7.235 0 006.341 3.747 7.237 7.237 0 006.452-3.956z"/><path id="p" d="M40.088 118.975l35.456 18.247a2 2 0 010 3.556l-35.456 18.247a2 2 0 01-1.842-.006l-34.86-18.247a2 2 0 010-3.544l34.86-18.247a2 2 0 011.842-.006z"/><path id="r" d="M31.36 64.06c-.255 2.304-1.047 4.784-2.378 7.44h5.96l-.254-.5c-1.237-2.484-1.983-4.793-2.237-6.924a7.237 7.237 0 006.444 3.94 7.235 7.235 0 006.322-3.713l18.505 10.81v40.273L31.862 134 0 115.386V75.114l18.566-10.845a7.235 7.235 0 006.341 3.747 7.237 7.237 0 006.452-3.956z"/><path id="t" d="M32.31 63.614a6.928 6.928 0 0012.69.561l18.722 10.939-31.86 18.613L0 75.114l18.708-10.929a6.928 6.928 0 0012.685-.57v-.001l-.002.17c-.072 2.526-.822 5.274-2.25 8.245l-.231.471h6.006l-.236-.463c-1.537-3.076-2.327-5.884-2.37-8.423z"/><path id="v" d="M40.088 117.975l35.456 18.247a2 2 0 010 3.556l-35.456 18.247a2 2 0 01-1.842-.006l-34.86-18.247a2 2 0 010-3.544l34.86-18.247a2 2 0 011.842-.006z"/><path id="z" d="M33.075 45.796l16.298 9.524v30.572l-24.186 14.13L1 85.892V55.32l16.077-9.393c.984.6 1.873 1.298 2.668 2.093 2.24 2.239 3.967 5.487 5.182 9.743.883-3.924 2.521-7.083 4.916-9.478a15.825 15.825 0 013.232-2.489z"/><path id="D" d="M30.654 87.971l25.861 13.31a2 2 0 010 3.556l-25.86 13.308a2 2 0 01-1.843-.006L3.385 104.83a2 2 0 010-3.544l25.427-13.308a2 2 0 011.842-.007z"/><path id="W" d="M205.095 163.095a3.738 3.738 0 015.286 0L226 178.713l15.619-15.618a3.738 3.738 0 015.286 5.286L231.287 184l15.618 15.619a3.738 3.738 0 01.146 5.132l-.146.154a3.738 3.738 0 01-5.286 0L226 189.287l-15.619 15.618a3.738 3.738 0 01-5.286-5.286L220.713 184l-15.618-15.619a3.738 3.738 0 01-.146-5.132z"/><radialGradient id="k" cx="62.666%" cy="21.935%" r="90.121%" gradientTransform="matrix(-.30997 .86623 -.95075 -.28241 1.03 -.262)"><stop stop-color="#FFF" offset="0"/><stop stop-color="#BEBEBE" offset="1"/></radialGradient><radialGradient id="n" cy="100%" r="147.09%" gradientTransform="matrix(0 .67985 -1 0 1.5 .66)"><stop stop-color="#FFF" offset="0"/><stop stop-color="#FFF" stop-opacity="0" offset="1"/></radialGradient><radialGradient id="A" cx="33.154" cy="54.488" r="47.046" gradientTransform="scale(.94449 1.0588)" gradientUnits="userSpaceOnUse"><stop stop-color="#FFF" offset="0"/><stop stop-color="#BEBEBE" offset="1"/></radialGradient><radialGradient id="B" cx="30.039" cy="58.22" r="82.106" gradientTransform="matrix(0 -.81413 1.1929 0 -44.268 93.906)" gradientUnits="userSpaceOnUse"><stop stop-color="#FFF" offset="0"/><stop stop-color="#FFF" stop-opacity="0" offset="1"/></radialGradient><linearGradient id="linearGradient1184" x1="43.451" x2="43.451" y1="102.54" y2="16.957" gradientTransform="scale(.75628 1.3223)" gradientUnits="userSpaceOnUse" xlink:href="#h"/><radialGradient id="radialGradient1186" cx="42.883" cy="76.744" r="60.164" gradientTransform="scale(.95451 1.0477)" gradientUnits="userSpaceOnUse" xlink:href="#k"/><radialGradient id="radialGradient1188" cx="39.453" cy="77.693" r="113.67" gradientTransform="matrix(0 -.80506 1.2128 0 -61.697 125.99)" gradientUnits="userSpaceOnUse" xlink:href="#n"/><linearGradient id="linearGradient1190" x1="42.129" x2="42.129" y1="101.78" y2="16.2" gradientTransform="scale(.75628 1.3223)" gradientUnits="userSpaceOnUse" xlink:href="#h"/><radialGradient id="radialGradient1192" cx="38.64" cy="77.281" r="113.67" gradientTransform="matrix(0 -.79806 1.2128 0 -61.867 124.56)" gradientUnits="userSpaceOnUse" xlink:href="#n"/><radialGradient id="radialGradient1194" cx="41.835" cy="75.79" r="60.164" gradientTransform="scale(.95451 1.0477)" gradientUnits="userSpaceOnUse" xlink:href="#k"/><linearGradient id="linearGradient1196" x1="4.6195" x2="4.6195" y1="18.494" y2="9.2594" gradientTransform="scale(.97408 1.0266)" gradientUnits="userSpaceOnUse" xlink:href="#F"/><linearGradient id="linearGradient1198" x1="4.5753" x2="4.5753" y1="21.642" y2="6.4107" gradientTransform="scale(.98447 1.0158)" gradientUnits="userSpaceOnUse" xlink:href="#F"/><linearGradient id="linearGradient1204" x1="-.997" x2="14.006" y1="11.503" y2="26.506" gradientUnits="userSpaceOnUse" xlink:href="#J"/><linearGradient id="linearGradient1206" x1="68.867" x2="83.87" y1="30.367" y2="45.37" gradientUnits="userSpaceOnUse" xlink:href="#J"/><linearGradient id="linearGradient1208" x1="-1.133" x2="13.87" y1="11.503" y2="26.506" gradientUnits="userSpaceOnUse" xlink:href="#J"/><linearGradient id="linearGradient1214" x1="4.4881" x2="4.4881" y1="6.0253" y2="20.974" gradientTransform="scale(1.0036 .99636)" gradientUnits="userSpaceOnUse" xlink:href="#P"/><linearGradient id="linearGradient1218" x1="4.6162" x2="4.6162" y1="21.908" y2="6.5465" gradientTransform="scale(.97595 1.0246)" gradientUnits="userSpaceOnUse" xlink:href="#F"/></defs><g transform="translate(0 -14.324)" fill="none" fill-rule="evenodd"><g transform="translate(164.33,128)" fill-rule="nonzero"><g transform="translate(12)"><path d="M 0,78.25 50.281,49 100.562,78.25 v 68.5 L 50.281,176 0,146.75 Z" fill="url(#a)" opacity=".1"/><path d="M 50.281,49 100.562,78.25 50.281,107.5 0,78.25 Z" fill="url(#b)" opacity=".2"/><path d="M 0,29.25 50.281,0 100.562,29.25 v 117.5 L 50.281,176 0,146.75 Z" fill="url(#c)" opacity=".2" stroke="#fff" stroke-opacity=".375"/><use width="100%" height="100%" fill="#000000" filter="url(#d)" xlink:href="#e"/></g><use width="100%" height="100%" fill="#000000" filter="url(#f)" opacity=".3" xlink:href="#g"/></g><g transform="translate(65.33,74)"><path transform="translate(7 .5)" d="m1 41.614 31.861-18.614 31.861 18.614v74.773l-31.861 18.614-31.861-18.614z" fill="url(#linearGradient1184)" fill-rule="nonzero" opacity=".332" stroke="#fff" stroke-opacity=".375"/><g transform="translate(7 .5)"><use width="100%" height="100%" fill="#000000" filter="url(#i)" xlink:href="#j"/><use width="100%" height="100%" fill="url(#radialGradient1186)" xlink:href="#j"/></g><g transform="translate(7 .5)"><use width="100%" height="100%" fill="#000000" filter="url(#l)" xlink:href="#m"/><use width="100%" height="100%" fill="#ffffff" xlink:href="#m"/></g><path transform="translate(7 .5)" d="m0.67 0.5h63.72v75l-31.86 18.727-31.86-18.727z" fill="url(#radialGradient1188)"/><path d="m39.901 43c9.487 7.632 14.23 14.004 14.23 19.116v0.163c0 1.279-0.33 2.48-0.913 3.523l-13.358-7.802-13.296 7.768a7.205 7.205 0 0 1-0.894-3.621v-0.031c0-5.103 4.743-11.475 14.23-19.116z" fill="#fff" opacity=".9"/><use width="100%" height="100%" fill="#000000" fill-rule="nonzero" filter="url(#o)" opacity=".3" xlink:href="#p"/></g><g transform="translate(320,119)"><path transform="translate(8 .5)" d="m0 40.614 31.861-18.614 31.861 18.614v74.773l-31.861 18.614-31.861-18.614z" fill="url(#linearGradient1190)" fill-rule="nonzero" opacity=".332" stroke="#fff" stroke-opacity=".375"/><path transform="translate(8 .5)" d="m0 0h63.72v75l-31.86 18.727-31.86-18.727z" fill="url(#radialGradient1192)"/><g transform="translate(8 .5)"><use width="100%" height="100%" fill="#000000" filter="url(#q)" xlink:href="#r"/><use width="100%" height="100%" fill="url(#radialGradient1194)" xlink:href="#r"/></g><g transform="translate(8 .5)"><use width="100%" height="100%" fill="#000000" filter="url(#s)" xlink:href="#t"/><use width="100%" height="100%" fill="#ffffff" xlink:href="#t"/></g><path d="m39.79 43c3.216 0 5.823 3.348 5.823 7.477 0 1.768-0.478 3.393-1.277 4.673a6.926 6.926 0 0 1 8.664 9.526l-13.139-7.676-13.154 7.684a6.926 6.926 0 0 1 8.501-9.593c-0.777-1.27-1.24-2.872-1.24-4.614 0-4.13 2.606-7.477 5.822-7.477z" fill="#fff" opacity=".9"/><use width="100%" height="100%" fill="#000000" fill-rule="nonzero" filter="url(#u)" opacity=".3" xlink:href="#v"/></g><path transform="translate(0,13)" d="m318.14 76.827c33.286-17.673 59.794-25.038 79.522-22.094" stroke="url(#w)"/><path d="m286.27 105c-36.536 19.164-8.941 40.84 27.903 49.5 36.845 8.66 136.48 33.07 77.548 63.243" stroke="#fff"/><g transform="translate(269,13)"><path transform="translate(5.073 .38)" d="m1 29.13 24.187-14.13 24.187 14.13v56.762l-24.187 14.13-24.187-14.13z" fill="url(#x)" fill-rule="nonzero" opacity=".332" stroke="#fff" stroke-opacity=".375"/><g transform="translate(5.073 .38)"><use width="100%" height="100%" fill="#000000" filter="url(#y)" xlink:href="#z"/><use width="100%" height="100%" fill="url(#A)" xlink:href="#z"/></g><path d="m38.147 46.177 16.3 9.523-24.187 14.13-24.187-14.13 16.078-9.393c0.983 0.6 1.873 1.298 2.667 2.093 2.24 2.239 3.967 5.487 5.182 9.743 0.883-3.924 2.521-7.083 4.916-9.478a15.825 15.825 0 0 1 3.23-2.488z" fill="#fff" opacity=".9"/><path transform="translate(5.073 .38)" d="m0.997 0.6204h48.37v54.699l-24.18 14.13-24.19-14.13z" fill="url(#B)"/><path d="m30 29.858c0.827 3.868 2.42 6.981 4.78 9.341s5.481 3.96 9.362 4.801c-2.24 0.427-4.239 1.152-5.995 2.177l-7.887-4.607-8.11 4.737c-1.786-1.09-3.884-1.859-6.292-2.307 3.92-0.878 7.05-2.49 9.395-4.834 2.344-2.343 3.926-5.446 4.747-9.308z" fill="#fff"/><use width="100%" height="100%" fill="#000000" fill-rule="nonzero" filter="url(#C)" opacity=".3" xlink:href="#D"/></g><path d="m123.72 198.23c26.305 13.64 26.305 39.78 52.61 52.731m166.93-7.386c-22.89 17.172-49.49-15.126-66.366-2.601" stroke="#fff"/><path transform="translate(0,13)" d="M 73.33,158.375 C 24.443,135.458 0,113.333 0,92" stroke="url(#E)"/><path d="m350.5 80c3 2.413 4.5 4.428 4.5 6.045a0.16 0.16 0 0 1 0 0.01v0.041a2.288 2.288 0 0 1-4.326 1.044c0.086 0.719 0.348 1.501 0.788 2.347h-1.885c0.42-0.84 0.672-1.625 0.752-2.353a2.287 2.287 0 0 1-4.329-1.081c0-1.622 1.5-3.637 4.5-6.053z" fill="#fff"/><path transform="matrix(1 0 0 -1 346 108.49)" d="m4.5 9.5c3 2.413 4.5 4.428 4.5 6.045a0.16 0.16 0 0 1 0 0.01v0.041a2.288 2.288 0 0 1-4.326 1.043c0.086 0.719 0.348 1.501 0.788 2.347h-1.885c0.42-0.84 0.672-1.625 0.752-2.353a2.287 2.287 0 0 1-4.329-1.08c0-1.622 1.5-3.637 4.5-6.053z" fill="url(#linearGradient1196)" opacity=".3"/><path d="m350.5 80c3 2.413 4.5 4.428 4.5 6.045a0.16 0.16 0 0 1 0 0.01v0.041a2.288 2.288 0 0 1-4.326 1.044c0.086 0.719 0.348 1.501 0.788 2.347h-1.885c0.42-0.84 0.672-1.625 0.752-2.353a2.287 2.287 0 0 1-4.329-1.081c0-1.622 1.5-3.637 4.5-6.053z" fill="#fff"/><path transform="matrix(1 0 0 -1 346 108.49)" d="m4.5 9.5c3 2.413 4.5 4.428 4.5 6.045a0.16 0.16 0 0 1 0 0.01v0.041a2.288 2.288 0 0 1-4.326 1.043c0.086 0.719 0.348 1.501 0.788 2.347h-1.885c0.42-0.84 0.672-1.625 0.752-2.353a2.287 2.287 0 0 1-4.329-1.08c0-1.622 1.5-3.637 4.5-6.053z" fill="url(#linearGradient1198)" filter="url(#G)" opacity=".3"/><path d="m287.5 213c3 2.413 4.5 4.428 4.5 6.045a0.16 0.16 0 0 1 0 0.01v0.041a2.288 2.288 0 0 1-4.326 1.044c0.086 0.719 0.348 1.501 0.788 2.347h-1.885c0.42-0.84 0.672-1.625 0.752-2.353a2.287 2.287 0 0 1-4.329-1.081c0-1.622 1.5-3.637 4.5-6.053z" fill="#fff"/><path transform="matrix(1 0 0 -1 283 241.49)" d="m4.5 9.5c3 2.413 4.5 4.428 4.5 6.045a0.16 0.16 0 0 1 0 0.01v0.041a2.288 2.288 0 0 1-4.326 1.043c0.086 0.719 0.348 1.501 0.788 2.347h-1.885c0.42-0.84 0.672-1.625 0.752-2.353a2.287 2.287 0 0 1-4.329-1.08c0-1.622 1.5-3.637 4.5-6.053z" fill="url(#linearGradient1198)" filter="url(#H)" opacity=".3"/><path d="m149.5 91c3 2.413 4.5 4.428 4.5 6.045a0.16 0.16 0 0 1 0 0.01v0.041a2.288 2.288 0 0 1-4.326 1.044c0.086 0.719 0.348 1.501 0.788 2.347h-1.885c0.42-0.84 0.672-1.625 0.752-2.353a2.287 2.287 0 0 1-4.329-1.081c0-1.622 1.5-3.637 4.5-6.053z" fill="#fff" opacity=".9"/><path transform="matrix(1 0 0 -1 145 119.49)" d="m4.5 9.5c3 2.413 4.5 4.428 4.5 6.045a0.16 0.16 0 0 1 0 0.01v0.041a2.288 2.288 0 0 1-4.326 1.043c0.086 0.719 0.348 1.501 0.788 2.347h-1.885c0.42-0.84 0.672-1.625 0.752-2.353a2.287 2.287 0 0 1-4.329-1.08c0-1.622 1.5-3.637 4.5-6.053z" fill="url(#linearGradient1198)" filter="url(#I)" opacity=".3"/><path d="m345.5 121.14c0.372 1.741 1.089 3.141 2.151 4.203 1.062 1.0622 2.4664 1.7834 4.213 2.161-1.69 0.321-3.0738 1.0218-4.1515 2.0994s-1.8151 2.4982-2.2125 4.2646c-0.5466-1.9156-1.3244-3.3765-2.332-4.3841-1.0077-1.0076-2.3505-1.6674-4.032-1.9799 1.7643-0.3953 3.1728-1.1208 4.2278-2.1758 1.0543-1.0543 1.767-2.45 2.1362-4.1882z" fill="#fff"/><path transform="rotate(45 29.94 488.71)" d="m2 14.5c1.494 0.968 2.991 1.451 4.493 1.451s3.005-0.483 4.507-1.451c-0.968 1.422-1.451 2.896-1.451 4.42s0.483 3.05 1.451 4.58c-1.741-0.968-3.324-1.451-4.749-1.451s-2.842 0.483-4.251 1.451c0.968-1.527 1.451-3.036 1.451-4.528 0-1.491-0.483-2.982-1.451-4.472z" fill="url(#linearGradient1204)" filter="url(#K)" opacity=".3"/><path d="m415.36 140c0.3726 1.7402 1.089 3.141 2.151 4.203 1.062 1.0622 2.4671 1.7827 4.213 2.161-1.69 0.321-3.0738 1.0218-4.1515 2.0994s-1.8151 2.4982-2.2125 4.2646c-0.5466-1.9156-1.3244-3.3765-2.332-4.3841-1.0077-1.0076-2.3512-1.668-4.032-1.9799 1.7636-0.396 3.1728-1.1208 4.2278-2.1758 1.0543-1.0543 1.7664-2.4508 2.1362-4.1882z" fill="#fff"/><path transform="rotate(45 99.804 507.57)" d="m71.864 33.364c1.494 0.967 2.991 1.451 4.493 1.451s3.005-0.484 4.507-1.451c-0.968 1.422-1.451 2.896-1.451 4.42s0.483 3.05 1.451 4.58c-1.741-0.968-3.324-1.451-4.749-1.451s-2.842 0.483-4.251 1.451c0.967-1.527 1.451-3.036 1.451-4.528 0-1.491-0.484-2.982-1.451-4.472z" fill="url(#linearGradient1206)" filter="url(#L)" opacity=".3"/><path d="m445.36 215.14c0.372 1.741 1.089 3.141 2.151 4.203 1.062 1.0622 2.4664 1.7834 4.213 2.161-1.69 0.321-3.0738 1.0218-4.1515 2.0994s-1.8151 2.4982-2.2125 4.2646c-0.5466-1.9156-1.3244-3.3765-2.332-4.3841-1.0077-1.0076-2.3512-1.668-4.032-1.9799 1.7636-0.396 3.1728-1.1208 4.2278-2.1758 1.0543-1.0543 1.7664-2.4508 2.1362-4.1882z" fill="#fff"/><path transform="rotate(45 -33.664 656.42)" d="m1.864 14.5c1.494 0.968 2.991 1.451 4.493 1.451s3.005-0.483 4.507-1.451c-0.968 1.422-1.451 2.896-1.451 4.42s0.483 3.05 1.451 4.58c-1.741-0.968-3.324-1.451-4.749-1.451s-2.842 0.483-4.251 1.451c0.967-1.527 1.451-3.036 1.451-4.528 0-1.491-0.484-2.982-1.451-4.472z" fill="url(#linearGradient1208)" filter="url(#M)" opacity=".3"/><path d="m316.5 279.14c0.372 1.741 1.089 3.141 2.151 4.203 1.062 1.0622 2.4664 1.7834 4.213 2.161-1.69 0.321-3.0738 1.0218-4.1515 2.0994s-1.8151 2.4982-2.2125 4.2646c-0.5466-1.9156-1.3244-3.3765-2.332-4.3841-1.0077-1.0076-2.3505-1.6674-4.032-1.9799 1.7643-0.3953 3.1728-1.1208 4.2278-2.1758 1.0543-1.0543 1.767-2.45 2.1362-4.1882z" fill="#fff"/><path transform="rotate(45 -175.28 532.7)" d="m2 14.5c1.494 0.968 2.991 1.451 4.493 1.451s3.005-0.483 4.507-1.451c-0.968 1.422-1.451 2.896-1.451 4.42s0.483 3.05 1.451 4.58c-1.741-0.968-3.324-1.451-4.749-1.451s-2.842 0.483-4.251 1.451c0.968-1.527 1.451-3.036 1.451-4.528 0-1.491-0.483-2.982-1.451-4.472z" fill="url(#linearGradient1204)" filter="url(#N)" opacity=".3"/><path d="m33.5 202.14c0.372 1.741 1.089 3.141 2.151 4.203 1.062 1.0622 2.4664 1.7834 4.213 2.161-1.69 0.321-3.0738 1.0218-4.1515 2.0994s-1.8151 2.4982-2.2125 4.2646c-0.5466-1.9156-1.3244-3.3765-2.332-4.3841-1.0077-1.0076-2.3505-1.6674-4.032-1.9799 1.7643-0.3953 3.1728-1.1208 4.2278-2.1758 1.0543-1.0543 1.767-2.45 2.1362-4.1882z" fill="#fff" opacity=".9"/><path transform="rotate(45 -223.84 152.59)" d="m2 14.5c1.494 0.968 2.991 1.451 4.493 1.451s3.005-0.483 4.507-1.451c-0.968 1.422-1.451 2.896-1.451 4.42s0.483 3.05 1.451 4.58c-1.741-0.968-3.324-1.451-4.749-1.451s-2.842 0.483-4.251 1.451c0.968-1.527 1.451-3.036 1.451-4.528 0-1.491-0.483-2.982-1.451-4.472z" fill="url(#linearGradient1204)" filter="url(#O)" opacity=".3"/><path d="m131.5 278.89c3-2.547 4.5-4.673 4.5-6.379a0.207 0.207 0 0 0-0.037-0.114c-0.03-1.33-1.062-2.399-2.33-2.399-0.969 0-1.799 0.623-2.151 1.508-0.352-0.885-1.182-1.508-2.15-1.508-1.289 0-2.332 1.1-2.332 2.458v0.056c0 1.701 1.5 3.828 4.5 6.378z" fill="#fff"/><path transform="translate(127,270)" d="m4.5 9c3 2.547 4.5 4.673 4.5 6.379a0.207 0.207 0 0 1-0.037 0.114c-0.03 1.33-1.062 2.399-2.33 2.399-0.969 0-1.799-0.623-2.151-1.508-0.352 0.885-1.182 1.508-2.15 1.508-1.288 0-2.332-1.1-2.332-2.458v-0.056c0-1.701 1.5-3.828 4.5-6.378z" fill="url(#linearGradient1214)" filter="url(#Q)" opacity=".3"/><path d="m246.5 103.89c3-2.547 4.5-4.673 4.5-6.379a0.207 0.207 0 0 0-0.037-0.114c-0.03-1.33-1.062-2.399-2.33-2.399-0.969 0-1.799 0.623-2.151 1.508-0.352-0.885-1.182-1.508-2.15-1.508-1.289 0-2.332 1.1-2.332 2.458v0.056c0 1.701 1.5 3.828 4.5 6.378z" fill="#fff"/><path transform="translate(242,95)" d="m4.5 9c3 2.547 4.5 4.673 4.5 6.379a0.207 0.207 0 0 1-0.037 0.114c-0.03 1.33-1.062 2.399-2.33 2.399-0.969 0-1.799-0.623-2.151-1.508-0.352 0.885-1.182 1.508-2.15 1.508-1.288 0-2.332-1.1-2.332-2.458v-0.056c0-1.701 1.5-3.828 4.5-6.378z" fill="url(#linearGradient1214)" filter="url(#R)" opacity=".3"/><path d="m167.48 133c1.045 0 1.892 1.088 1.892 2.43 0 0.574-0.156 1.103-0.416 1.519a2.25 2.25 0 1 1-1.307 2.91c0.014 0.866 0.297 1.828 0.847 2.887h-1.952c0.539-1.075 0.808-2.062 0.808-2.96v0.073a2.25 2.25 0 1 1-1.359-2.93 2.87 2.87 0 0 1-0.405-1.5c0-1.341 0.847-2.429 1.892-2.429z" fill="#fff" opacity=".9"/><path transform="matrix(1 0 0 -1 163 162.15)" d="m4.48 9.7c1.045 0 1.892 1.088 1.892 2.43 0 0.574-0.156 1.103-0.416 1.519a2.25 2.25 0 1 1-1.307 2.91c0.014 0.866 0.297 1.828 0.847 2.887h-1.952c0.539-1.075 0.808-2.062 0.808-2.96v0.073a2.25 2.25 0 1 1-1.359-2.93 2.87 2.87 0 0 1-0.405-1.5c0-1.341 0.847-2.429 1.892-2.429z" fill="url(#linearGradient1218)" filter="url(#T)" opacity=".3"/><path d="m97.48 221c1.045 0 1.892 1.088 1.892 2.43 0 0.574-0.156 1.103-0.416 1.519a2.25 2.25 0 1 1-1.307 2.91c0.014 0.866 0.297 1.828 0.847 2.887h-1.952c0.539-1.075 0.808-2.062 0.808-2.96v0.073a2.25 2.25 0 1 1-1.359-2.93 2.87 2.87 0 0 1-0.405-1.5c0-1.341 0.847-2.429 1.892-2.429z" fill="#fff" opacity=".9"/><path transform="matrix(1 0 0 -1 93 250.15)" d="m4.48 9.7c1.045 0 1.892 1.088 1.892 2.43 0 0.574-0.156 1.103-0.416 1.519a2.25 2.25 0 1 1-1.307 2.91c0.014 0.866 0.297 1.828 0.847 2.887h-1.952c0.539-1.075 0.808-2.062 0.808-2.96v0.073a2.25 2.25 0 1 1-1.359-2.93 2.87 2.87 0 0 1-0.405-1.5c0-1.341 0.847-2.429 1.892-2.429z" fill="url(#linearGradient1218)" filter="url(#U)" opacity=".3"/><use width="100%" height="100%" fill="#000000" filter="url(#V)" xlink:href="#W"/><use width="100%" height="100%" fill="#ffffff" xlink:href="#W"/></g></svg>
