<svg xmlns="http://www.w3.org/2000/svg" xmlns:xlink="http://www.w3.org/1999/xlink" viewBox="0 0 52 52"><defs><style>.a{opacity:0.6;}.b{fill:url(#a);}.c{fill:#c8aa39;}</style><linearGradient id="a" x1="1.86" y1="29.09" x2="48.57" y2="29.09" gradientTransform="matrix(1, 0, 0, -1, 0, 54.67)" gradientUnits="userSpaceOnUse"><stop offset="0.06" stop-color="#b69553"/><stop offset="0.21" stop-color="#d0bd67"/><stop offset="0.34" stop-color="#eedf8a"/><stop offset="0.42" stop-color="#e5d681"/><stop offset="0.55" stop-color="#cebe6b"/><stop offset="0.7" stop-color="#b99d54"/><stop offset="0.76" stop-color="#b08f4a"/><stop offset="0.89" stop-color="#cdb864"/><stop offset="1" stop-color="#eadb85"/></linearGradient></defs><title>First5_crown</title><g class="a"><path d="M26.14,41.29c-.42,0-8.77-.53-11.76-1.63L14,39.53l-.13-.39A71.24,71.24,0,0,0,4.76,21.38a2.52,2.52,0,0,1-.56.06,2.6,2.6,0,1,1,2.6-2.6,2.57,2.57,0,0,1-.13.8,93.49,93.49,0,0,0,8,5.5,30.82,30.82,0,0,0,.49-3.93,2.39,2.39,0,1,1,2.76-.7,15.77,15.77,0,0,0,3,3.83l.06,0c1.63-1.78,3.07-4.88,4-8.77a2.6,2.6,0,1,1,2.38,0c.91,3.88,2.35,7,4,8.76l.06,0a15.84,15.84,0,0,0,3.09-4,2.38,2.38,0,1,1,2.59.56,32,32,0,0,0,.51,4.29,91.48,91.48,0,0,0,7.8-5.37,2.56,2.56,0,0,1-.19-1,2.6,2.6,0,1,1,2.53,2.67l-.24,0C45.3,24.14,41,31.61,38.36,39.14l-.12.36-.35.13A36.5,36.5,0,0,1,26.14,41.29Z"/></g><path class="b" d="M25.33,39.78c-.07,0-8.32-.51-11.27-1.52-2.88-8.12-7.55-16-9.65-18.41l-.13-.14-.17.09a1.51,1.51,0,0,1-.7.18A1.55,1.55,0,1,1,5,18.43H5a1.53,1.53,0,0,1-.29.9l-.14.2.2.15c1.9,1.42,8.2,6.09,9.64,6.42l.23.05.06-.23a29.85,29.85,0,0,0,.78-5.78v-.2h-.25a1.33,1.33,0,1,1,.77-.2l-.19.12.11.2a17.34,17.34,0,0,0,3.36,4.51,5.84,5.84,0,0,1-2.38,1.65l-.91.42,1,0h.2c2,0,4-1.58,5.55-4.46.83-1.49,2.69-7.31,2.53-7.65l0-.12h-.13a1.55,1.55,0,1,1,.57,0h-.13l0,.12a37.38,37.38,0,0,0,2.67,7.88c1.57,2.68,3.5,4.22,5.4,4.22h.2l1,0-.91-.42a5.84,5.84,0,0,1-2.38-1.65A17.47,17.47,0,0,0,35,19.72l.11-.23-.23-.11a1.24,1.24,0,1,1,.57.13h-.25v.25A30.83,30.83,0,0,0,36,25.9l.06.23.23,0c1.42-.33,7.64-4.92,9.51-6.32L46,19.6l-.18-.2a1.52,1.52,0,0,1-.39-1A1.55,1.55,0,1,1,47,19.95h0a1.52,1.52,0,0,1-.53-.1l-.16-.06-.11.13C44,22.38,39.51,30.14,36.61,38.26a36.43,36.43,0,0,1-11.27,1.52Z"/><path class="c" d="M25.35,11.62a1.29,1.29,0,0,1,.23,2.52H25.1a1.29,1.29,0,0,1,.24-2.57m0,3.81a44.29,44.29,0,0,0,2.55,7.15c1.62,2.86,3.62,4.4,5.62,4.4h.21l2-.1L33.9,26a6.39,6.39,0,0,1-2.15-1.4A17.62,17.62,0,0,0,35,20.21,29.79,29.79,0,0,0,35.76,26l.13.46.47-.11c1.36-.32,6.69-4.2,9.26-6.11-2.3,2.89-6.49,10.19-9.22,17.84a36.57,36.57,0,0,1-11.06,1.47c-.08,0-8.1-.49-11.1-1.47-2.7-7.58-6.93-15-9.21-17.84,2.66,2,7.9,5.8,9.26,6.11l.47.11.13-.46a30.06,30.06,0,0,0,.79-5.77,17.73,17.73,0,0,0,3.22,4.37A6.39,6.39,0,0,1,16.75,26l-1.82.85,2,.1h.21c2.07,0,4.12-1.63,5.76-4.59a47.12,47.12,0,0,0,2.42-6.92M47,17.08a1.3,1.3,0,0,1,0,2.6,1.28,1.28,0,0,1-.44-.08l-.31-.11L46,19.24a1.28,1.28,0,0,1-.33-.85,1.3,1.3,0,0,1,1.3-1.3M35.42,17a1.11,1.11,0,0,1,1,1.23,1.09,1.09,0,0,1-1,1h-.26L35,19.14A1.1,1.1,0,0,1,35.4,17Zm-32,0a1.36,1.36,0,0,1,1.09,2.09l-.18.25L4,19.54a1.28,1.28,0,0,1-.59.15,1.3,1.3,0,1,1,0-2.6m11.85.39a1.08,1.08,0,0,1,.58,2l-.28.18h-.39a1.09,1.09,0,0,1,0-2.17m10.14-6.35A1.79,1.79,0,0,0,25,14.7a46.4,46.4,0,0,1-2.5,7.44c-1.53,2.75-3.4,4.33-5.33,4.33H17a5.59,5.59,0,0,0,2.61-1.9A16.86,16.86,0,0,1,16.14,20a1.59,1.59,0,1,0-.92.24,29.52,29.52,0,0,1-.77,5.67C13,25.56,6.27,20.54,4.9,19.51a1.84,1.84,0,1,0-.65.55c2,2.23,6.69,10,9.64,18.44,2.91,1.07,11.46,1.58,11.46,1.58h0a36.3,36.3,0,0,0,11.46-1.63c2.94-8.34,7.58-16.1,9.6-18.38a1.81,1.81,0,1,0-.74-.5c-1.65,1.23-8,6-9.42,6.28a30.81,30.81,0,0,1-.74-6.1,1.59,1.59,0,1,0-.73-.15,17.07,17.07,0,0,1-3.64,4.92,5.59,5.59,0,0,0,2.61,1.9h-.24c-1.87,0-3.69-1.5-5.2-4.1a46.1,46.1,0,0,1-2.66-7.65,1.79,1.79,0,0,0-.3-3.53Z"/></svg>