<svg xmlns="http://www.w3.org/2000/svg" xmlns:xlink="http://www.w3.org/1999/xlink" viewBox="0 0 63.33 63.33"><defs><style>.a{fill:#470027;opacity:0.7;}.b{fill:#ccb856;}.c{opacity:0.6;}.d{fill:url(#a);}.e{fill:#d1b339;}.f{fill:#eddc87;}</style><linearGradient id="a" x1="1600.98" y1="917.59" x2="1623.42" y2="940.04" gradientUnits="userSpaceOnUse"><stop offset="0.08" stop-color="#d9c667"/><stop offset="0.29" stop-color="#c6ab57"/><stop offset="0.41" stop-color="#cdb65e"/><stop offset="0.53" stop-color="#e4d570"/><stop offset="0.65" stop-color="#f7e893"/><stop offset="0.76" stop-color="#efe08a"/><stop offset="0.94" stop-color="#dbcb70"/><stop offset="0.98" stop-color="#d7c76b"/><stop offset="1" stop-color="#dbcb70"/></linearGradient></defs><title>UI 3.0_CHP_IM_Jumbo7_Info-Crown</title><path class="a" d="M1611.82,896.2a30.47,30.47,0,1,0,30.47,30.47A30.5,30.5,0,0,0,1611.82,896.2Z" transform="translate(-1580.15 -895)"/><path class="b" d="M1611.82,896.2a30.47,30.47,0,1,1-30.47,30.47,30.5,30.5,0,0,1,30.47-30.47m0-1.2a31.67,31.67,0,1,0,31.67,31.67A31.7,31.7,0,0,0,1611.82,895h0Z" transform="translate(-1580.15 -895)"/><path class="c" d="M1637.24,927a1.6,1.6,0,0,0-1.13-.47h0a1.6,1.6,0,0,0-1.6,1.6,1.56,1.56,0,0,0,.26.82l-0.26.13c-0.06,0-6.57,3.32-9.84,1.33-4.54-2.75-2.75-13.84-2.56-14.92l0.08,0a1.93,1.93,0,1,0-.74-0.21c-0.34.93-4.12,10.94-9.42,10.94h-0.12c-5-.14-8-7.55-8.08-7.62l-0.18-.46a1.66,1.66,0,0,0,.18,0,1.61,1.61,0,0,0,1-1.48,1.56,1.56,0,0,0-.24-0.79,1.58,1.58,0,0,0-1.37-.81h0a1.6,1.6,0,1,0,0,3.2v0.51c0,0.08,0,7.85-3.64,9.59-3.25,1.55-7.53.15-7.57,0.14l-0.19-.07a1.57,1.57,0,0,0,.34-0.95,1.6,1.6,0,1,0-1,1.48,1.56,1.56,0,0,0,.25-0.17l8.32,9.36,0.21-.07a27.27,27.27,0,0,1,11.22-.78,45.28,45.28,0,0,1,11.26,3c0.87,0.34,1.62.63,2.25,0.82l0.21,0.06,10.27-11.84a1.57,1.57,0,0,0,1,.37h0A1.6,1.6,0,0,0,1637.24,927Z" transform="translate(-1580.15 -895)"/><path class="d" d="M1598.32,937.14a27.32,27.32,0,0,1,11.37-.8c7,0.91,11.2,3.18,13.56,3.87l9.92-11.43s-6.69,3.43-10.17,1.32c-5-3-2.7-15.39-2.7-15.39s-4,11.43-9.9,11.26c-5.33-.15-8.38-7.83-8.38-7.83s0,8-3.83,9.9c-3.42,1.63-7.82.15-7.82,0.15Z" transform="translate(-1580.15 -895)"/><path class="e" d="M1623.36,940.6l-0.21-.06c-0.63-.18-1.38-0.48-2.25-0.82a45.28,45.28,0,0,0-11.26-3,27.26,27.26,0,0,0-11.22.78l-0.21.07-8.93-10.05,1.2,0.4s4.32,1.41,7.57-.14c3.64-1.74,3.64-9.51,3.64-9.59v-1.79l0.66,1.66c0,0.08,3,7.48,8.08,7.62h0.12c5.52,0,9.41-10.92,9.45-11l0.65,0.17c0,0.12-2.22,12.16,2.54,15,3.28,2,9.78-1.3,9.84-1.33l1.55-.79Zm-17.5-4.84a30,30,0,0,1,3.87.25,45.88,45.88,0,0,1,11.42,3.09c0.76,0.3,1.43.56,2,.73l8.77-10.1c-2.2.9-6.45,2.27-9.09,0.67-3.73-2.26-3.6-9.24-3.21-13.11-1.55,3.38-4.78,9-9.07,9h-0.14c-4.17-.12-6.95-4.52-8.09-6.77-0.18,2.45-.93,7.34-4,8.8a11.24,11.24,0,0,1-7,.46l7.06,7.94A26.36,26.36,0,0,1,1605.87,935.75Z" transform="translate(-1580.15 -895)"/><circle class="f" cx="40.54" cy="18.3" r="1.6"/><path class="e" d="M1620.69,912.37a0.93,0.93,0,1,1-.93.93,0.93,0.93,0,0,1,.93-0.93m0-.67a1.6,1.6,0,1,0,1.6,1.6,1.6,1.6,0,0,0-1.6-1.6h0Z" transform="translate(-1580.15 -895)"/><circle class="f" cx="21.56" cy="21.03" r="1.6"/><path class="e" d="M1601.71,915.11a0.93,0.93,0,1,1-.93.93,0.93,0.93,0,0,1,.93-0.93m0-.67a1.6,1.6,0,1,0,1.61,1.6,1.6,1.6,0,0,0-1.61-1.6h0Z" transform="translate(-1580.15 -895)"/><circle class="f" cx="8.88" cy="31.86" r="1.6"/><path class="e" d="M1589,925.93a0.93,0.93,0,1,1-.93.93,0.93,0.93,0,0,1,.93-0.93m0-.67a1.6,1.6,0,1,0,1.6,1.6,1.6,1.6,0,0,0-1.6-1.6h0Z" transform="translate(-1580.15 -895)"/><circle class="f" cx="54.48" cy="32.52" r="1.6"/><path class="e" d="M1634.63,926.59a0.93,0.93,0,1,1-.93.93,0.93,0.93,0,0,1,.93-0.93m0-.67a1.6,1.6,0,1,0,1.61,1.6,1.6,1.6,0,0,0-1.61-1.6h0Z" transform="translate(-1580.15 -895)"/></svg>