<svg xmlns="http://www.w3.org/2000/svg" xmlns:xlink="http://www.w3.org/1999/xlink" viewBox="0 0 63.33 63.33"><defs><style>.a{isolation:isolate;}.b{fill:#470027;opacity:0.7;}.c{fill:#ccb856;}.d{opacity:0.6;mix-blend-mode:darken;}.e{fill:url(#a);}.f{fill:#c8aa39;}</style><linearGradient id="a" x1="8.35" y1="31.44" x2="55.06" y2="31.44" gradientUnits="userSpaceOnUse"><stop offset="0.06" stop-color="#b69553"/><stop offset="0.21" stop-color="#d0bd67"/><stop offset="0.34" stop-color="#eedf8a"/><stop offset="0.42" stop-color="#e5d681"/><stop offset="0.55" stop-color="#cebe6b"/><stop offset="0.7" stop-color="#b99d54"/><stop offset="0.76" stop-color="#b08f4a"/><stop offset="0.89" stop-color="#cdb864"/><stop offset="1" stop-color="#eadb85"/></linearGradient></defs><title>First5_Info-Crown_1</title><g class="a"><path class="b" d="M31.67,1.2A30.47,30.47,0,1,0,62.13,31.67,30.5,30.5,0,0,0,31.67,1.2Z"/><path class="c" d="M31.67,1.2A30.47,30.47,0,1,1,1.2,31.67,30.5,30.5,0,0,1,31.67,1.2m0-1.2A31.67,31.67,0,1,0,63.33,31.67,31.7,31.7,0,0,0,31.67,0Z"/><g class="d"><path d="M32.63,47.15c-.42,0-8.77-.53-11.76-1.63l-.35-.13L20.39,45a71.24,71.24,0,0,0-9.14-17.76,2.52,2.52,0,0,1-.56.06,2.6,2.6,0,1,1,2.6-2.6,2.57,2.57,0,0,1-.13.8,93.49,93.49,0,0,0,8,5.5,30.82,30.82,0,0,0,.49-3.93,2.39,2.39,0,1,1,2.76-.7,15.77,15.77,0,0,0,3,3.83l.06.05c1.63-1.78,3.07-4.88,4-8.77a2.6,2.6,0,1,1,2.38,0c.91,3.88,2.35,7,4,8.76l.06-.05A15.84,15.84,0,0,0,41,26.15a2.38,2.38,0,1,1,2.59.56A32,32,0,0,0,44.1,31a91.48,91.48,0,0,0,7.8-5.37,2.56,2.56,0,0,1-.19-1A2.6,2.6,0,1,1,54,27.28C51.79,30,47.51,37.47,44.85,45l-.12.36-.35.13A36.5,36.5,0,0,1,32.63,47.15Z"/></g><path class="e" d="M31.82,45.64c-.07,0-8.32-.51-11.27-1.52C17.67,36,13,28.09,10.9,25.71l-.13-.14-.17.09a1.51,1.51,0,0,1-.7.18,1.55,1.55,0,1,1,1.55-1.55,1.53,1.53,0,0,1-.29.9l-.14.2.2.15c1.9,1.42,8.2,6.09,9.64,6.42l.23.05.06-.23A29.85,29.85,0,0,0,21.93,26V25.8h-.25a1.33,1.33,0,1,1,.77-.2l-.19.12.11.2a17.34,17.34,0,0,0,3.36,4.51,5.84,5.84,0,0,1-2.38,1.65l-.91.42,1,.05h.2c2,0,3.95-1.58,5.55-4.46.83-1.49,2.69-7.31,2.53-7.65l-.05-.12-.13,0a1.55,1.55,0,1,1,.57,0l-.13,0-.05.12a37.38,37.38,0,0,0,2.67,7.88C36.17,31,38.1,32.54,40,32.54h.2l1-.05-.91-.42a5.84,5.84,0,0,1-2.38-1.65,17.47,17.47,0,0,0,3.53-4.84l.11-.23-.23-.11a1.33,1.33,0,0,1,.57-2.54,1.34,1.34,0,0,1,0,2.67h-.25v.25a30.83,30.83,0,0,0,.8,6.14l.06.23.23-.05c1.42-.33,7.64-4.92,9.51-6.32l.22-.16-.18-.2a1.52,1.52,0,0,1-.39-1,1.55,1.55,0,1,1,1.55,1.55,1.52,1.52,0,0,1-.53-.1l-.16-.06-.11.13C50.53,28.24,46,36,43.1,44.12a36.43,36.43,0,0,1-11.27,1.52Z"/><path class="f" d="M31.84,17.48A1.29,1.29,0,0,1,32.07,20l-.24,0-.24,0a1.29,1.29,0,0,1,.24-2.57m0,3.81a44.29,44.29,0,0,0,2.55,7.15C36,31.25,38,32.79,40,32.79h.21l2-.1-1.82-.85a6.39,6.39,0,0,1-2.15-1.4,17.62,17.62,0,0,0,3.22-4.37,29.79,29.79,0,0,0,.79,5.77l.13.46.47-.11c1.36-.32,6.69-4.2,9.26-6.11-2.3,2.89-6.49,10.19-9.22,17.84a36.57,36.57,0,0,1-11.06,1.47c-.08,0-8.1-.49-11.1-1.47-2.7-7.58-6.93-15-9.21-17.84,2.66,2,7.9,5.8,9.26,6.11l.47.11.13-.46a30.06,30.06,0,0,0,.79-5.77,17.73,17.73,0,0,0,3.22,4.37,6.39,6.39,0,0,1-2.15,1.4l-1.82.85,2,.1h.21c2.07,0,4.12-1.63,5.76-4.59a47.12,47.12,0,0,0,2.42-6.92m21.68,1.66a1.3,1.3,0,1,1,0,2.6,1.28,1.28,0,0,1-.44-.08l-.31-.11-.22-.25a1.28,1.28,0,0,1-.33-.85,1.3,1.3,0,0,1,1.3-1.3m-11.6,0a1.09,1.09,0,0,1,0,2.17h-.26L41.44,25a1.08,1.08,0,0,1-.62-1,1.09,1.09,0,0,1,1.09-1.09m-32,0a1.3,1.3,0,0,1,1.3,1.3A1.29,1.29,0,0,1,11,25l-.18.25-.29.15a1.28,1.28,0,0,1-.59.15,1.3,1.3,0,0,1,0-2.6m11.85.39a1.08,1.08,0,0,1,.58,2l-.28.18H21.7a1.08,1.08,0,0,1,0-2.17M31.84,17a1.79,1.79,0,0,0-.34,3.56A46.4,46.4,0,0,1,29,28c-1.53,2.75-3.4,4.33-5.33,4.33h-.18a5.59,5.59,0,0,0,2.61-1.9,16.86,16.86,0,0,1-3.47-4.59,1.59,1.59,0,1,0-.92.24,29.52,29.52,0,0,1-.77,5.67c-1.43-.33-8.18-5.35-9.55-6.38a1.84,1.84,0,1,0-.65.55c2,2.23,6.69,10,9.64,18.44,2.91,1.07,11.46,1.58,11.46,1.58h0A36.3,36.3,0,0,0,43.3,44.31c2.94-8.34,7.58-16.1,9.6-18.38a1.81,1.81,0,1,0-.74-.5c-1.65,1.23-8,6-9.42,6.28A30.81,30.81,0,0,1,42,25.61a1.59,1.59,0,1,0-.73-.15,17.07,17.07,0,0,1-3.64,4.92,5.59,5.59,0,0,0,2.61,1.9H40c-1.87,0-3.69-1.5-5.2-4.1a46.1,46.1,0,0,1-2.66-7.65A1.79,1.79,0,0,0,31.84,17Z"/></g></svg>