<svg enable-background="new 0 0 225 164" viewBox="0 0 225 164" xmlns="http://www.w3.org/2000/svg" xmlns:xlink="http://www.w3.org/1999/xlink"><linearGradient id="a"><stop offset="0" stop-color="#faf1ba"/><stop offset=".11" stop-color="#fbeda9"/><stop offset=".16" stop-color="#fbeb9f"/><stop offset=".24" stop-color="#efd77d"/><stop offset=".36" stop-color="#d9b341"/><stop offset=".55" stop-color="#bd8f3a"/><stop offset=".72" stop-color="#d0aa3a"/><stop offset=".86" stop-color="#f5e8ae"/><stop offset="1" stop-color="#b38739"/></linearGradient><linearGradient id="b" gradientTransform="matrix(18.924 0 0 -25.427 3659.8 11899)" gradientUnits="userSpaceOnUse" x1="-184.65" x2="-171.69" xlink:href="#a" y1="466.55" y2="464.54"/><linearGradient id="c" gradientTransform="matrix(18.924 0 0 -24.649 3659.8 11499)" gradientUnits="userSpaceOnUse" x1="-184.37" x2="-171.41" xlink:href="#a" y1="466.13" y2="464.05"/><linearGradient id="d" gradientTransform="matrix(214.2 0 0 -38.908 41153 18387)" gradientUnits="userSpaceOnUse" x1="-192.02" x2="-191.18" y1="471.53" y2="469.37"><stop offset="0" stop-color="#faf1ba"/><stop offset=".11" stop-color="#fbeda9"/><stop offset=".16" stop-color="#fbeb9f"/><stop offset=".22" stop-color="#efd77d"/><stop offset=".31" stop-color="#d9b341"/><stop offset=".45" stop-color="#fcfc97"/><stop offset=".58" stop-color="#eed57b"/><stop offset=".72" stop-color="#d0aa3a"/><stop offset=".98" stop-color="#b38739"/></linearGradient><linearGradient id="e" gradientTransform="matrix(189.99 0 0 -52.928 36480 25045)" gradientUnits="userSpaceOnUse" x1="-190.61" x2="-192.36" y1="471.13" y2="474.05"><stop offset="0" stop-color="#faf1ba"/><stop offset=".1" stop-color="#f6e8a9"/><stop offset=".24" stop-color="#eeda8c"/><stop offset=".33" stop-color="#d9b341"/><stop offset=".46" stop-color="#efdc90"/><stop offset=".59" stop-color="#e9d27d"/><stop offset=".65" stop-color="#d7b762"/><stop offset=".73" stop-color="#bd8f3a"/><stop offset="1" stop-color="#b38739"/></linearGradient><linearGradient id="f"><stop offset="0" stop-color="#faf1ba"/><stop offset=".04" stop-color="#f5e8a9"/><stop offset=".12" stop-color="#e9d17c"/><stop offset=".21" stop-color="#d9b341"/><stop offset=".26" stop-color="#efdc90"/><stop offset=".3" stop-color="#e9d27d"/><stop offset=".34" stop-color="#d7b762"/><stop offset=".4" stop-color="#bd8f3a"/><stop offset="1" stop-color="#b38739"/></linearGradient><linearGradient id="g" gradientTransform="matrix(32.78 0 0 -23.144 6218.2 10844)" gradientUnits="userSpaceOnUse" x1="-182.48" x2="-196.88" xlink:href="#f" y1="464.37" y2="466.42"/><linearGradient id="h" gradientTransform="matrix(27.096 0 0 -23.138 5155.8 10841)" gradientUnits="userSpaceOnUse" x1="-181.54" x2="-198.95" xlink:href="#f" y1="464.52" y2="466.57"/><linearGradient id="i" gradientTransform="matrix(36.901 0 0 -22.987 7077.1 10769)" gradientUnits="userSpaceOnUse" x1="-185.37" x2="-198.15" xlink:href="#f" y1="464.55" y2="466.61"/><linearGradient id="j" gradientTransform="matrix(24.448 0 0 -23.138 4712.6 10841)" gradientUnits="userSpaceOnUse" x1="-183.05" x2="-202.35" xlink:href="#f" y1="464.77" y2="466.82"/><linearGradient id="k"><stop offset="0" stop-color="#faf1ba"/><stop offset=".04" stop-color="#f5e8a9"/><stop offset=".12" stop-color="#e9d17c"/><stop offset=".21" stop-color="#d9b341"/><stop offset=".3" stop-color="#e9d27d"/><stop offset=".34" stop-color="#d7b762"/><stop offset=".4" stop-color="#bd8f3a"/><stop offset="1" stop-color="#b38739"/></linearGradient><linearGradient id="l" gradientTransform="matrix(32.346 0 0 -23.175 6062.9 10859)" gradientUnits="userSpaceOnUse" x1="-188.02" x2="-164.84" xlink:href="#k" y1="464.85" y2="467.15"/><linearGradient id="m" gradientTransform="matrix(31.262 0 0 -23.175 5888 10859)" gradientUnits="userSpaceOnUse" x1="-188.94" x2="-164.96" xlink:href="#k" y1="464.74" y2="467.05"/><linearGradient id="n"><stop offset="0" stop-color="#868288"/><stop offset=".08" stop-color="#a09da2"/><stop offset=".21" stop-color="#c9c7ca"/><stop offset=".33" stop-color="#e7e6e7"/><stop offset=".43" stop-color="#f9f8f9"/><stop offset=".51" stop-color="#fff"/><stop offset=".59" stop-color="#f8f8f8"/><stop offset=".71" stop-color="#e5e5e6"/><stop offset=".85" stop-color="#c6c5c8"/><stop offset="1" stop-color="#9f9ca1"/></linearGradient><linearGradient id="o" gradientTransform="matrix(13.575 0 0 -22.043 3330.7 8099.8)" gradientUnits="userSpaceOnUse" x1="-242.71" x2="-241.68" xlink:href="#n" y1="366" y2="366"/><linearGradient id="p"><stop offset="0" stop-color="#fff"/><stop offset=".13" stop-color="#f8f8f8"/><stop offset=".31" stop-color="#e5e5e6"/><stop offset=".5" stop-color="#c9cacc"/><stop offset=".6" stop-color="#c2c3c5"/><stop offset=".75" stop-color="#afb0b2"/><stop offset=".92" stop-color="#8f9193"/><stop offset="1" stop-color="#7f8183"/></linearGradient><linearGradient id="q" gradientTransform="matrix(16.316 0 0 -11.805 4006.6 3948)" gradientUnits="userSpaceOnUse" x1="-246.06" x2="-244.58" xlink:href="#p" y1="334.93" y2="333.61"/><linearGradient id="r" gradientTransform="matrix(17.334 0 0 -10.918 4267.3 3640.2)" gradientUnits="userSpaceOnUse" x1="-252.73" x2="-251.91" xlink:href="#p" y1="341.58" y2="340.45"/><linearGradient id="s" gradientTransform="matrix(17.334 0 0 -10.92 4267.3 3641)" gradientUnits="userSpaceOnUse" x1="-245.65" x2="-245.67" y1="330.92" y2="332.74"><stop offset=".17" stop-color="#8d9092"/><stop offset=".51" stop-color="#c9cacc"/><stop offset=".77" stop-color="#d9dbde"/><stop offset=".93" stop-color="#fcfcfc"/></linearGradient><linearGradient id="t" gradientTransform="matrix(3.7496 0 0 -6.9715 785.79 2208.1)" gradientUnits="userSpaceOnUse" x1="-205.33" x2="-204.73" y1="315" y2="317.61"><stop offset="0" stop-color="#fcfcfc"/><stop offset=".18" stop-color="#d1d3d4"/><stop offset=".88" stop-color="#a7abb0"/></linearGradient><linearGradient id="u" gradientTransform="matrix(24.731 0 0 -22.669 6232.1 8337.1)" gradientUnits="userSpaceOnUse" x1="-249.12" x2="-248.1" xlink:href="#n" y1="366.39" y2="366.39"/><linearGradient id="v" gradientTransform="matrix(23.51 0 0 -21.47 5918.8 7881.3)" gradientUnits="userSpaceOnUse" x1="-249.52" x2="-248.23" xlink:href="#n" y1="361.83" y2="365.55"/><linearGradient id="w" gradientTransform="matrix(25.261 0 0 -23.743 6348.7 8745.3)" gradientUnits="userSpaceOnUse" x1="-249.28" x2="-248.26" xlink:href="#n" y1="367.01" y2="367.01"/><linearGradient id="x" gradientTransform="matrix(4.8722 0 0 -4.9876 1107.4 1599.1)" gradientUnits="userSpaceOnUse" x1="-220.79" x2="-216.53" xlink:href="#n" y1="313.97" y2="317.68"/><linearGradient id="y" gradientTransform="matrix(4.8722 0 0 -4.9876 1107.4 1599.1)" gradientUnits="userSpaceOnUse" x1="-217.35" x2="-216.25" xlink:href="#n" y1="317.44" y2="317.44"/><linearGradient id="z" gradientTransform="matrix(49.195 0 0 -62.911 12451 23637)" gradientUnits="userSpaceOnUse" x1="-252.5" x2="-252.41" xlink:href="#n" y1="374.7" y2="375.73"/><linearGradient id="A" gradientTransform="matrix(24.072 0 0 -22.554 6043.7 8293.3)" gradientUnits="userSpaceOnUse" x1="-248.31" x2="-249.41" xlink:href="#n" y1="366.69" y2="364.09"/><linearGradient id="B"><stop offset="0" stop-color="#fff"/><stop offset=".09" stop-color="#fff" stop-opacity=".97"/><stop offset=".22" stop-color="#fff" stop-opacity=".9"/><stop offset=".37" stop-color="#fefefe" stop-opacity=".77"/><stop offset=".54" stop-color="#fefefe" stop-opacity=".6"/><stop offset=".73" stop-color="#fdfdfd" stop-opacity=".37"/><stop offset=".93" stop-color="#fcfcfc" stop-opacity=".1"/><stop offset="1" stop-color="#fcfcfc" stop-opacity="0"/></linearGradient><linearGradient id="C" gradientTransform="matrix(15.864 0 0 -12.6 3943.4 4503.6)" gradientUnits="userSpaceOnUse" x1="-244.57" x2="-244" xlink:href="#B" y1="354.47" y2="355.94"/><linearGradient id="D" gradientTransform="matrix(23.058 0 0 -15.118 5803.2 5463)" gradientUnits="userSpaceOnUse" x1="-248.28" x2="-247.83" xlink:href="#B" y1="358.24" y2="360.28"/><linearGradient id="E" gradientTransform="matrix(7.878 0 0 -10.031 1884.9 3527.6)" gradientUnits="userSpaceOnUse" x1="-232.32" x2="-231.58" xlink:href="#B" y1="348.31" y2="349.49"/><linearGradient id="F" gradientTransform="matrix(6.0674 0 0 -6.1813 1413.8 2052.9)" gradientUnits="userSpaceOnUse" x1="-225.15" x2="-224.06" xlink:href="#n" y1="329.56" y2="329.56"/><linearGradient id="G" gradientTransform="matrix(12.382 0 0 -20.854 3024.9 7647.9)" gradientUnits="userSpaceOnUse" x1="-240.14" x2="-242.3" xlink:href="#n" y1="365.89" y2="363.06"/><linearGradient id="H" gradientTransform="matrix(6.7738 0 0 -7.0328 1589.7 2386.1)" gradientUnits="userSpaceOnUse" x1="-228.42" x2="-227.42" xlink:href="#B" y1="335.69" y2="335.69"/><linearGradient id="I" gradientTransform="matrix(4.8847 0 0 -4.9784 1110.6 1595.6)" gradientUnits="userSpaceOnUse" x1="-217.25" x2="-216.66" xlink:href="#B" y1="316.63" y2="317.81"/><linearGradient id="J" gradientTransform="matrix(47.891 0 0 -61.666 12117 23164)" gradientUnits="userSpaceOnUse" x1="-251.91" x2="-253.16" xlink:href="#n" y1="375.54" y2="373.33"/><linearGradient id="K" gradientTransform="matrix(12.428 0 0 -23.712 3031.5 8714.8)" gradientUnits="userSpaceOnUse" x1="-241.44" x2="-240.39" xlink:href="#B" y1="366.36" y2="367.47"/><g><path d="m4 0h216.7c2.2 0 4 1.8 4 4v99.6c0 2.2-1.8 4-4 4h-216.7c-2.2 0-4-1.8-4-4v-99.6c0-2.2 1.8-4 4-4z"/><path d="m217.4 34.1c-1.3-1-3.9-1.4-7.7-1.4h-.9c-3.3 0-5.5.6-6.5 1.8-1.1 1.2-1.6 3.5-1.6 6.8l-.1 4.5.1 4c0 3.6.6 5.9 1.7 6.9 1.2 1 3.6 1.4 7.4 1.4l3.4-.1c2.2 0 3.7-.6 4.7-1.8s1.5-2.8 1.5-5l.1-3.8v-1.8l-.1-4.3c-.1-3.8-.7-6.3-2-7.2zm-2.5 11.7v3c0 1.6-.3 2.6-.9 3s-1.8.6-3.5.6h-1.3l-2.1-.1c-.7 0-1.4-.5-1.7-1.2-.3-.9-.4-1.9-.4-2.9v-5.6-.7c0-.5.1-.9.2-1.4 0-.5.2-1 .6-1.4.4-.3.8-.5 1.3-.6.7-.1 1.5-.2 2.2-.2l2.5.1c1.4 0 2.2.4 2.6 1.1.3.7.5 1.8.5 3.4z" fill="url(#b)"/><path d="m213.2 6.6c-.6.9-.9 1.9-1 3-.3-.8-.6-1.7-.9-2.5-.3-.4-.6-.8-1-1-.4-.3-.9-.5-1.4-.6-.7-.1-1.3-.2-2-.1h-.3c-1 0-1.9.1-2.9.4-.7.2-1.3.6-1.8 1.1-.9 1-1.3 2.6-1.3 5v18.1h18.9v-5.9h-4.8v-9.9c0-1.4.3-2.2.8-2.3.7-.2 1.4-.3 2.2-.2h1.8v-6h-3.6c-1.3-.1-2.2.2-2.7.9zm-3.2 8.5v9h-4.9v-10.8l.2-1c.1-.3.3-.6.6-.8.4-.1.9-.2 1.4-.2 1.1 0 1.9.2 2.2.5s.5 1.2.5 2.5z" fill="url(#c)"/><path d="m5.2 66.2v33.4c0 1.5 1.2 2.7 2.7 2.7h208.7c1.5 0 2.7-1.2 2.7-2.7v-33.4c0-1.5-1.2-2.7-2.7-2.7h-208.6c-1.5-.1-2.8 1.1-2.8 2.7zm209.8 33.5h-205.3c-1 0-1.8-.8-1.8-1.8v-30c0-1 .8-1.8 1.8-1.8h205.3c1 0 1.8.8 1.8 1.8v30c0 1-.8 1.8-1.8 1.8z" fill="url(#d)"/><path d="m7.2 5.2h186c1.1 0 2 .9 2 2v48.9c0 1.1-.9 2-2 2h-186c-1.1 0-2-.9-2-2v-48.9c0-1.1.9-2 2-2z" fill="url(#e)"/><path d="m54.9 18.7c-2.1-1.9-6.2-2.9-12.2-2.9h-29.6v31.8h33.4c3 0 5.5-.7 7.5-2.1s3.2-3 3.5-4.8.5-3.6.6-5.4v-5.1c0-5.8-1.1-9.6-3.2-11.5zm-7.1 13.3c0 3-.4 5.1-1.3 6.2-.8 1.1-2.8 1.7-5.9 1.7h-17.2v-16.2h17.4c3.2 0 5.2.5 5.9 1.6s1.1 3.2 1.1 6.4z"/><path d="m60.7 47.6h37.2v-7.2h-27v-5.6h25.2v-6.3h-25.2v-5.4h27v-7.2h-37.2z"/><path d="m119.2 16.1-18.7 31.5h11.3l3.3-5.7h21.6l3.1 5.7h11.2l-18.3-31.5zm-.5 19.3 7.2-12.5 7.2 12.5z"/><path d="m164.1 39.7v-23.8h-10.3v31.7h33.6v-7.9z"/><path d="m115.1 73.4c-1.5-1.4-4.5-2.1-8.9-2.1h-21.6v23.1h24.3c1.9.1 3.8-.5 5.4-1.5 1.5-1 2.3-2.2 2.6-3.5.2-1.3.4-2.6.5-4v-3.7c0-4.1-.8-6.9-2.3-8.3zm-5.3 9.6c0 2.2-.3 3.7-.9 4.5s-2.1 1.2-4.3 1.2h-12.6v-11.7h12.7c2.4 0 3.8.4 4.3 1.2s.8 2.3.8 4.6z" fill="url(#g)"/><path d="m119.3 94.4h27.1v-5.2h-19.7v-4.1h18.3v-4.6h-18.3v-3.9h19.7v-5.3h-27.1z" fill="url(#h)"/><path d="m161.9 71.5-13.6 23h8.3l2.4-4.2h15.8l2.3 4.2h8.2l-13.3-23zm-.4 14 5.2-9.1 5.2 9.1z" fill="url(#i)"/><path d="m194.6 88.7v-17.4h-7.5v23.1h24.4v-5.7z" fill="url(#j)"/><path d="m38.7 88.6-14.2-17.3h-11.4v23.1h6.8v-17.4l14.2 17.4h11.4v-23.1h-6.8z" fill="url(#l)"/><path d="m76.4 73.4c-1.5-1.3-4.3-2-8.3-2l-5.5-.1-4.9.1c-4.5 0-7.3.7-8.5 2.1s-1.8 4.4-1.8 9l.1 4.2c0 2.7.7 4.6 2.2 5.8 1.4 1.2 3.5 1.8 6.1 1.8l4.7.1h2.2l5.2-.1c4.8 0 7.8-.8 9-2.4s1.8-4.7 1.8-9.5v-1.1c-.1-3.9-.8-6.6-2.3-7.9zm-4.9 11.7c0 1.7-.4 2.7-1.3 3.1s-2.3.6-4.2.6h-7.3c-2 0-3.2-.4-3.7-1.1s-.7-2.2-.7-4.3v-1.4l.2-2.6c.1-1.1.6-1.8 1.4-2.1 1.2-.4 2.4-.5 3.6-.5h7.7c.6 0 1.1.1 1.7.2s1.2.3 1.7.7c.4.4.7 1 .8 1.6.1.9.2 1.8.2 2.7z" fill="url(#m)"/><g transform="translate(63 97.392)"><path d="m51.2 22.2c.1 0 .1.1.2.1h.1l.2.2.1.1c.5.6.8 1.2.9 1.9s0 1.3-.1 1.5c-.6 1.7-1.4 3.4-2.4 5 0 0-.1.1-.2.3s-.2.3-.2.3c-.2.3-.3.5-.4.7-.1.1-.1.3-.2.4 0 0 0 .1-.1.1.9-.2 1.8 0 2.5.6.5.4.8.9.9 1.5 0 .1 0 .2.1.3.7-3.4 1.8-6.6 3.3-9.7.6-1.3 1.5-2.4 2.6-3.2l.1-.1.1-.1c1.9-1.1 4.1-1.1 5.6.3 1.5 1.5 1.4 3.1.3 5.3.4-.5.7-.8 1.1-1.2 2.3-2.6 4.2-4.3 6.3-5.6h.1c2.1-1.2 3.8-1.6 5.4-1.1 1 .4 1.9 1.1 2.4 2.1l.2.4v.1c.2.5.1 1.1 0 1.6 1.2-.9 2.4-1.7 3.7-2.3 3.9-2.1 7.2-2.1 9.3.2 1.6 1.7 1.9 3.8 1.2 5.8h.1c1-.8 1.7-1.2 2.7-1 1.4.2 2.3 1.3 2.1 2.7-.1.9-.7 1.8-1.5 2.9-2 2.6-4.3 4.9-6.7 7.1l-.1.1-.3.2-.4.4c-3.8 3.1-6 4.4-8.7 5.3-1 .4-2.1.5-3.2.5-1.4-.1-2.8-.6-3.9-1.5-1.6-1.3-2.6-3.3-2.8-5.4v-.1c-.1-3.1 1.1-6.2 3.5-9.5.9-1.2 1.9-2.3 2.9-3.3h-.1c-.5 0-.9 0-1.3-.2-.2.1-.4.2-.6.4h-.1c-1.7 1.1-3.2 2.5-5.7 5.3-.2.2-.3.3-.6.7l-.3.4c-2.2 2.4-4.5 5.1-7.1 8.3-.3.3-.5.6-1 1.3-.9 1.2-1.4 1.7-1.8 2.4-.8 1.1-2 1.7-3.4 1.6h-.1c-.5-.1-1-.2-1.5-.5-.8-.4-1.3-1.1-1.7-1.9-.2-.4-.2-.6-.3-1.1v-.1l-.1-.3v-.1c-.1-1.8 0-3.6.3-5.3-.1.2-.2.4-.3.5-1.3 1.5-7.5 7.3-8.6 8-.9.6-1.9.9-3 .8h-.1c-.8-.1-1.5-.4-2.1-.8h-.1c-1.3-1.1-2-2.9-1.7-4.5.1-.4.1-.8.3-1.2.3-1 .6-1.9 1.3-3.3.1-.2.1-.3.3-.6l.3-.6v-.1l.2-.4c0-.1.7-1.4.8-1.5.3-.7.6-1.1.7-1.3.6-1.1 1.1-2 1.5-2.9.8-1.6 1.6-3 2.3-4.2.9-1.6 2.1-2.7 3.6-3.1.7-.2 1.4-.3 2.1-.2-.4-.3-.8-.7-1-1.1l-.1-.1c-.7-1.3-.7-2.8 0-4 1-2 3.1-3.4 5-3.2 1.2.1 2.2.7 2.9 1.7v.1.1c.7 1.3.7 2.9 0 4.1-.9 1.9-2.9 3.3-4.9 3.2h-.1zm-30.1 10.9c0 .6 0 1.2-.1 1.8-1 6.3-5.4 10.7-11.1 11.4-2.9.4-5.9-.2-8.5-1.8l-1.2-.7.6-1.2.4-.8c.1-.1.1-.3.2-.4 1.5-3 2.5-4.5 4.2-6 1.1-.9 2.4-1.6 3.9-2.1-.8-.3-1.6-.8-2.3-1.3-2.2-1.6-3.4-3.6-4.7-6.8-.1-.2-.1-.4-.2-.6 0-.1-.2-.6-.2-.6-.1-.3-.2-.6-.3-.8l-.4-1.2 1.2-.6c.3-.1.5-.2.8-.3 2.5-1 5.3-1.2 7.9-.6 5.6 1.3 9.5 6.1 9.8 12.6zm29.5 17.1c2.3.8 4.4 2.1 5.7 3.5.7.8 1.2 1.5 1.4 2.3.2 1.1-.2 2.2-1.3 2.7-.9.4-1.7.3-2.6-.1-.1 0-.1-.1-.2-.1-.1-.1-.2-.1-.3-.2-.3-.1-.6-.3-.7-.3-.4-.2-.9-.3-1.4-.4-8.9-1.8-19.8-1.1-29.3 1.9-3.9 5.7-12.1 8.9-15.3 5.4-1.8-2-1.1-4.5 1.3-6.8 1.9-1.8 5-3.5 8.5-4.8 7.5-14 15.1-30.2 21.9-46.7v-.1c0-.1.1-.2.1-.3.1-.3.2-.5.3-.6.3-.6.5-1.1.8-1.6 1.5-2.7 3.2-4.1 5.4-3.4 1.7.5 2.5 2.1 2.5 4.2 0 .6-.1 1.1-.2 1.8 0 .1-.1.3-.1.6v.2c-.7 3.4-2.4 7.6-6.7 16.4-3.4 7-10 19.6-14.2 27 10.3-2.4 18.5-2.6 24.4-.6z"/><g transform="translate(.91244 .91244)"><path d="m46.5 21.3c.9-.3 1.9-.2 2.6.4l.1.1c.5.5.7 1.3.5 2-.6 1.7-1.4 3.2-2.3 4.7 0 .1-.3.6-.4.7-.2.3-.3.5-.4.7-.1.1-.2.3-.2.4-.5.9-.9 1.7-1.9 3.3-.7 1.2-1.2 2.1-1.6 2.9.2-.2.5-.4.7-.6.1-.1.3-.2.4-.3.6-.5 1.2-1 1.9-1.6.3-.2 1.1-.9 1.2-1 .3-.2.4-.4.7-.4.4-.2.9-.1 1.3.2.2.2.4.4.4.7.1.4 0 .7-.1 1-.1.1-.1.2-.1.3-.4.7-7.3 7.1-8.4 7.8-.6.4-1.3.6-2.1.6-.5 0-.9-.2-1.3-.5h-.1c-.9-.8-1.4-2-1.2-3.2 0-.3.1-.7.2-1.1.2-.9.6-1.8 1.2-3 .1-.2.1-.3.3-.6.2-.4.3-.6.4-.9l.1-.1c.1-.3 1.2-2.2 1.5-2.8.6-1.1 1-2 1.5-2.9.8-1.6 1.6-2.9 2.3-4.2.7-1.4 1.6-2.3 2.8-2.6z" fill="url(#o)"/><g transform="translate(.38123 19.753)"><path d="m1.5 1.1c7.2-3.4 16.1 1 16.3 10.7-13.1.4-14.4-5.6-16.3-10.7z" fill="url(#q)"/><path d="m.4 21.7c6.8 4.1 16.1.6 17.3-8.9-13-1.7-14.8 4.1-17.3 8.9z" fill="url(#r)"/><path d="m13.6 12.5c-2.3 3-5.9 4.8-9.7 4.6-.3 0-.6 0-.8-.1-1 1.5-1.9 3.1-2.6 4.7 6.8 4.1 16.2.6 17.3-8.9-1.4-.2-2.8-.3-4.2-.3z" fill="url(#s)"/><path d="m15.7 4.8v1.5c-.1 1.9-.7 3.8-1.7 5.4 1.2.1 2.5.1 3.7.1.1-2.5-.6-4.9-2-7z" fill="url(#t)"/></g><path d="m77.5 38.2c1.4.2 4.4-1.2 6.6-2.9.9-.6 2.1-1.5 3.5-2.7.3-.3.7-.6 1-.9 1.2-1 2.4-2.1 3.5-3.2.4-.4.8-.7 1.1-1l.4-.4c.6-.6 1-.8 1.5-.7 1.3.2 1 1.5-.4 3.2-2 2.5-4.2 4.8-6.5 6.9l-.1.1h-.1c-.3.2-.4.3-.6.5-3.5 2.8-5.6 4.2-8.3 5.1-.9.3-1.8.4-2.7.4-1.1-.1-2.2-.4-3-1.1-1.3-1.1-2.1-2.6-2.2-4.4 0-2.7 1-5.6 3.2-8.6s5-5.4 8.3-7.1c3.5-1.9 6-1.7 7.5-.1 1.8 1.9 1.4 4.6-.9 7-.8.8-1.8 1.5-2.8 2-4 2.1-6 3-8.8 3.4-.9 2-1.2 3.4-.8 4.3.2.1.4.2.6.2zm9.7-15c-.7 0-2.3.8-3.5 1.9-1.4 1.2-2.7 2.8-3.9 4.8 2.1-.8 3.7-1.9 4.9-3.1 1.4-1.5 2.5-3.2 2.5-3.6z" fill="url(#u)"/><path d="m95.1 27c-.3 0-.6.1-1 .5 0 0-6 5.8-9.6 8.3-1.7 1.3-5.1 3.2-7 3-.3 0-.7-.2-.9-.5-.7-1.4.2-3.6.9-5.1 3.5-.5 6.3-2 9-3.4 1-.5 1.9-1.1 2.7-1.9 2.2-2.2 2.5-4.5.9-6.2-1-1-2.9-1.8-6.8.2-3.2 1.7-6 4.1-8.1 7s-3.1 5.6-3.1 8.2v.1c.1 1.5.8 2.9 2 3.9.8.6 1.7 1 2.7 1 .8 0 1.6-.1 2.4-.4 3.4-1.1 6.1-3.3 8.7-5.5l.2-.1c2.3-2.1 4.5-4.4 6.5-6.8 1-1.6.9-2.2.5-2.3zm-10 .2c-1.6 1.6-3.8 2.9-6.6 3.8 1.4-2.7 3-4.9 4.8-6.4 1.3-1.1 3-2.1 4-2.1h.1c.1 0 .3.1.3.2.4.7-.9 2.7-2.6 4.5z" fill="url(#v)"/><path d="m75 22.7-.1-.1h-.1c-.5.1-1 .4-1.5.7-1.9 1.3-3.5 2.8-6 5.6-.2.2-.3.3-.6.7l-.4.4c-2.2 2.4-4.5 5.2-7.1 8.3-.3.3-.5.6-1 1.3-.9 1.2-1.4 1.8-1.9 2.5s-1.3 1.1-2.1 1c-.3 0-.7-.1-.9-.3-.5-.3-.8-.7-1.1-1.2-.1-.3-.2-.5-.3-.9v-.3c-.1-1.9 0-3.7.4-5.5.7-3.7 1.8-7.3 3.5-10.6.5-1 1.2-1.9 2.1-2.6l.1-.1c1.3-.8 2.8-.9 3.8.1 1.1 1.1.8 2.2-.1 3.8l-.1.1c-.1.3-.2.5-.5 1 0 .1 0 .1-.1.2-.3.5-.6 1.1-.8 1.7-.8 1.8-1.5 3.7-2.1 5.7.1-.1.1-.2.2-.2.5-.6.9-1.1 1.8-2.2 1.1-1.3 2.2-2.7 3.4-4 .9-1 1.3-1.4 1.8-2 2.2-2.4 4-4.1 6-5.4 1.7-1 3.1-1.3 4.2-1 .7.2 1.2.7 1.5 1.3v.3c.2.5.1 1.1-.3 1.5-.2.2-.5.3-.7.3-.3.1-.6 0-1-.1.1 0 .1 0 0 0z" fill="url(#w)"/><path d="m50.1 18.3c1.2.1 2.6-.8 3.1-2 .4-.7.4-1.5.1-2.2-.3-.4-.8-.7-1.3-.7-1.2-.1-2.4.9-3 2.1-.3.7-.3 1.5 0 2.1.2.3.6.6 1.1.7z" fill="url(#x)" stroke="url(#y)" stroke-width=".5"/><path d="m50.1 18.3c1.2.1 2.6-.8 3.1-2 .4-.7.4-1.5.1-2.2-.3-.4-.8-.7-1.3-.7-1.2-.1-2.4.9-3 2.1-.3.7-.3 1.5 0 2.1.2.3.6.6 1.1.7z" fill="none"/><path d="m56.1 24.2c-1.9 3.3-3.6 6.6-5.2 9.7-.2.3-.3.7-.5 1-.7 1.4-1.4 3-1.6 4.5-.2 1 .2 2 1 2.6.3.2.6.4 1 .4.6 0 1.2-.2 1.7-.5 1-.7 7.9-7 8.2-7.6 0 0 .6-.7 0-1.2-.5-.4-1 0-1.2.2-.8.7-4.6 4-6.4 5 .9-1.8 1.9-3.5 2.9-5.2.6-1.1 1.3-2.2 1.9-3.3.3-.6.7-1.2 1-1.8.9-1.4 1.7-2.9 2.2-4.4v-.1c.1-.5 0-1-.4-1.4-.6-.4-1.4-.6-2.1-.3-1.3.5-2 1.6-2.5 2.4z" fill="none"/><path d="m48.8 49.8c4.4 1.5 7.4 4.9 5.6 5.8-.4.2-.8.1-1.3-.1.1 0-.9-.5-1.2-.6-.5-.2-1.1-.4-1.7-.6-9.2-1.8-20.6-1.1-30.5 2.1-3.6 5.5-11 8.3-13.4 5.6-2.3-2.6 2.4-6.9 9.8-9.4 8.3-15.3 16-32.2 22.3-47.3 0 .1.2-.6.4-.9.2-.5.5-1 .7-1.5 1.1-2 2.3-3.1 3.7-2.7 1.1.3 1.5 1.3 1.4 2.7 0 .5-.1 1-.2 1.5 0 .2-.2.9-.1.7-.7 3.4-2.6 7.8-6.6 16.2-3.8 7.8-11.9 23.3-15.9 30 12.1-3.3 21-3.5 27-1.5z" fill="url(#z)"/><path d="m74.6 22c.2-.1.4 0 .6 0 .2.1.7.4 1.1 0 .2-.2.3-.6.1-.9v-.1c-.2-.5-.7-.9-1.2-1-.9-.3-2.1 0-3.7.9-2.9 1.9-5.4 4.7-7.6 7.2-1.1 1.3-2.3 2.7-3.3 4-.6.7-1.2 1.5-1.8 2.2l-1.5 1.8-.6.7c.2-.7.4-1.5.6-2.2.7-2.2 1.4-4.3 2.3-6.3.2-.6.5-1.2.8-1.8.2-.4.4-.7.5-1.1l.1-.2c.4-.7 1.2-2.1.2-3.1-.8-.8-2.2-.5-3.1 0-.8.6-1.5 1.4-1.9 2.4-1.6 3.3-2.8 6.9-3.4 10.5-.4 1.8-.5 3.6-.4 5.4v.2c.1.5.3 1.3 1 1.6.2.1.4.2.7.2.6 0 1.2-.3 1.6-.8.6-.8 1.2-1.7 1.9-2.5.4-.5.7-.9 1-1.3 2.6-3.2 4.9-5.9 7.1-8.4l.3-.4c2.1-2.3 4.2-4.7 6.8-6.4.7-.2 1.2-.4 1.8-.6z" fill="url(#A)"/><path d="m76.4 21.2c-.2-.5-.7-.9-1.2-1-.9-.3-2.1 0-3.7.9-2.9 1.9-5.4 4.7-7.6 7.2l-3.3 3.9c.8.2 1.7.3 2.5.4.9-1 1.8-2.1 2.7-3l.3-.4c2.1-2.3 4.2-4.7 6.8-6.4.5-.4 1.1-.6 1.7-.8.2-.1.4 0 .6 0 .2.1.7.4 1.1 0 .2-.1.3-.5.1-.8z" fill="url(#C)"/><path d="m85.1 35.4c3.6-2.6 9-7.8 9-7.8.5-.4.7-.6 1-.5.4.1.5.6-.8 2.3-1.8 2.3-3.8 4.4-6 6.4-1-.2-2.1-.3-3.2-.4zm-8.3-.9c-1.4-.2-2.9-.3-4.5-.5.5-1.6 1.4-3.3 2.7-5.1 2.2-2.9 4.9-5.3 8.1-7 3.9-2.1 5.8-1.3 6.8-.2 1.6 1.7 1.2 4-.9 6.2-.8.8-1.7 1.4-2.7 1.9-2.7 1.4-5.5 2.9-9 3.4-.1.4-.3.8-.5 1.3zm8.3-7.3c1.8-1.8 3-3.8 2.6-4.4-.1-.1-.2-.2-.3-.2h-.1c-.9-.1-2.7 1-4 2.1-1.8 1.5-3.4 3.6-4.8 6.4 2.8-1 5-2.3 6.6-3.9z" fill="url(#D)"/><path d="m61.1 25.4c.4-.7 1.2-2.1.2-3.1-.8-.8-2.2-.5-3.1 0-.8.6-1.5 1.4-1.9 2.4-1 2-1.8 4-2.4 6.1 1.4.3 2.9.7 4.4 1 .4-1.2.9-2.3 1.3-3.4.2-.6.5-1.2.8-1.8.2-.4.4-.7.5-1.1z" fill="url(#E)"/><path d="m50.1 18.9c-.8-.1-1.4-.5-1.7-1.1-.4-.8-.4-1.8 0-2.7.7-1.5 2.3-2.5 3.6-2.4.7 0 1.4.4 1.8 1.1.5.9.5 1.9 0 2.7-.7 1.4-2.2 2.5-3.7 2.4z" fill="url(#F)"/><path d="m44.2 24c-1.9 3.3-3.6 6.7-5.3 9.9-.2.3-.3.7-.5 1-.7 1.4-1.4 3-1.6 4.5-.2 1 .2 2 1 2.6.3.2.6.4 1 .4.6 0 1.2-.2 1.7-.5 1-.7 7.9-7 8.2-7.6 0 0 .6-.7 0-1.2-.5-.4-1 0-1.2.2-.8.7-4.6 4-6.4 5 .9-1.8 1.9-3.5 2.9-5.2.6-1.1 1.3-2.2 1.9-3.3.3-.6.7-1.2 1-1.8.9-1.4 1.7-3 2.2-4.6v.1c.1-.5 0-1.1-.4-1.5-.6-.4-1.4-.6-2.1-.3-1.1.5-1.9 1.5-2.4 2.3z" fill="url(#G)"/><path d="m46.6 28.7c-1.3-.4-2.9-1-4.2-1.4l1.8-3.3c.4-.8 1.2-1.8 2.5-2.2.7-.3 1.5-.2 2.1.3.4.4.5 1 .4 1.5v-.1c-.6 1.6-1.3 3.2-2.2 4.6-.2.2-.3.4-.4.6z" fill="url(#H)"/><path d="m50.1 18.3c1.2.1 2.6-.8 3.1-2 .4-.7.4-1.5.1-2.2-.3-.4-.8-.7-1.3-.7-1.2-.1-2.4.9-3 2.1-.3.7-.3 1.5 0 2.1.2.3.6.6 1.1.7z" fill="none"/><path d="m51.9 13.3c-1.2-.1-2.4.9-3 2.1-.3.7-.3 1.5 0 2.1.3.4.7.7 1.2.8 1.2.1 2.5-.8 3-2 .4-.7.4-1.5.1-2.2-.2-.5-.7-.7-1.3-.8z" fill="url(#I)"/><path d="m20.5 52.3c3.9-6.3 13.2-24 16.6-31.2 2.9-6.1 5.7-12.1 6.6-16.1.1-.6.9-3.7-.7-4.3-2.1-.6-3.7 4-4.1 4.8-3.2 7.7-12 28.4-22.4 47.6-7.3 2.4-11.6 6.5-9.8 8.5s8.8.2 12.4-5.7c10.5-3.4 22-4 31-2.2 2.5.5 3.2 1.7 3.9 1.3 1.2-.5-4.5-11-33.5-2.7z" fill="url(#J)"/><path d="m42.9.8c-2.1-.6-3.7 4-4.1 4.8-1.4 3.5-4 9.5-7.3 16.9 1.2.7 2.6 1.3 3.9 2 .6-1.3 1.2-2.4 1.7-3.4 2.9-6.1 5.7-12.1 6.6-16.1.1-.5.9-3.7-.8-4.2z" fill="url(#K)"/></g></g></g></svg>