<svg viewBox="0 0 1142.29 260.03" xmlns="http://www.w3.org/2000/svg" xmlns:xlink="http://www.w3.org/1999/xlink"><linearGradient id="a" gradientUnits="userSpaceOnUse" x1="582.05" x2="-145.66" y1="237.22" y2="-101.2"><stop offset="0" stop-color="#faf1ba"/><stop offset=".1" stop-color="#f6e8a9"/><stop offset=".24" stop-color="#eeda8c"/><stop offset=".33" stop-color="#d9b341"/><stop offset=".46" stop-color="#efdc90"/><stop offset=".59" stop-color="#e9d27d"/><stop offset=".65" stop-color="#d7b762"/><stop offset=".73" stop-color="#bd8f3a"/><stop offset="1" stop-color="#b38739"/></linearGradient><linearGradient id="b" gradientUnits="userSpaceOnUse" x1="360.91" x2="897.11" y1="77.64" y2="189.63"><stop offset="0" stop-color="#faf1ba"/><stop offset=".11" stop-color="#fbeda9"/><stop offset=".16" stop-color="#fbeb9f"/><stop offset=".24" stop-color="#efd77d"/><stop offset=".36" stop-color="#d9b341"/><stop offset=".55" stop-color="#bd8f3a"/><stop offset=".72" stop-color="#d0aa3a"/><stop offset=".86" stop-color="#f5e8ae"/><stop offset="1" stop-color="#b38739"/></linearGradient><linearGradient id="c" x1="372.64" x2="908.85" xlink:href="#b" y1="19.72" y2="131.71"/><linearGradient id="d" gradientUnits="userSpaceOnUse" x1="541.69" x2="1082.28" y1="-57.63" y2="194.45"><stop offset="0" stop-color="#faf1ba"/><stop offset=".11" stop-color="#fbeda9"/><stop offset=".16" stop-color="#fbeb9f"/><stop offset=".22" stop-color="#efd77d"/><stop offset=".31" stop-color="#d9b341"/><stop offset=".45" stop-color="#fcfc97"/><stop offset=".58" stop-color="#eed57b"/><stop offset=".72" stop-color="#d0aa3a"/><stop offset=".98" stop-color="#b38739"/></linearGradient><linearGradient id="e" gradientUnits="userSpaceOnUse" x1="1183.16" x2="-232.56" y1="110.33" y2="-32"><stop offset="0" stop-color="#faf1ba"/><stop offset=".04" stop-color="#f5e8a9"/><stop offset=".12" stop-color="#e9d17c"/><stop offset=".21" stop-color="#d9b341"/><stop offset=".26" stop-color="#efdc90"/><stop offset=".3" stop-color="#e9d27d"/><stop offset=".34" stop-color="#d7b762"/><stop offset=".4" stop-color="#bd8f3a"/><stop offset="1" stop-color="#b38739"/></linearGradient><linearGradient id="f" x1="1184.25" x2="-231.46" xlink:href="#e" y1="99.4" y2="-42.92"/><linearGradient id="g" x1="1185.05" x2="-230.67" xlink:href="#e" y1="91.49" y2="-50.84"/><linearGradient id="h" x1="1186" x2="-229.72" xlink:href="#e" y1="82.07" y2="-60.25"/><linearGradient id="i" gradientUnits="userSpaceOnUse" x1="417.45" x2="2667.87" y1="78.33" y2="-82.41"><stop offset="0" stop-color="#faf1ba"/><stop offset=".04" stop-color="#f5e8a9"/><stop offset=".12" stop-color="#e9d17c"/><stop offset=".21" stop-color="#d9b341"/><stop offset=".3" stop-color="#e9d27d"/><stop offset=".34" stop-color="#d7b762"/><stop offset=".4" stop-color="#bd8f3a"/><stop offset="1" stop-color="#b38739"/></linearGradient><linearGradient id="j" x1="417.49" x2="2667.9" xlink:href="#i" y1="85.45" y2="-75.29"/><linearGradient id="k" gradientTransform="translate(-.01 .03)" gradientUnits="userSpaceOnUse" x1="585.25" x2="526.62" y1="156.02" y2="285.47"><stop offset="0" stop-color="#868288"/><stop offset=".08" stop-color="#a09da2"/><stop offset=".21" stop-color="#c9c7ca"/><stop offset=".33" stop-color="#e7e6e7"/><stop offset=".43" stop-color="#f9f8f9"/><stop offset=".51" stop-color="#fff"/><stop offset=".59" stop-color="#f8f8f8"/><stop offset=".71" stop-color="#e5e5e6"/><stop offset=".85" stop-color="#c6c5c8"/><stop offset="1" stop-color="#9f9ca1"/></linearGradient><linearGradient id="l" x1="552.58" x2="580.73" xlink:href="#k" y1="188.24" y2="188.24"/><linearGradient id="m" gradientTransform="matrix(.99994698 -.01029726 .01029726 .99994698 146.21 254.29)" gradientUnits="userSpaceOnUse" x1="309.91" x2="362.59" y1="-103.05" y2="-68.28"><stop offset="0" stop-color="#fff"/><stop offset=".13" stop-color="#f8f8f8"/><stop offset=".31" stop-color="#e5e5e6"/><stop offset=".5" stop-color="#c9cacc"/><stop offset=".6" stop-color="#c2c3c5"/><stop offset=".75" stop-color="#afb0b2"/><stop offset=".92" stop-color="#8f9193"/><stop offset="1" stop-color="#7f8183"/></linearGradient><linearGradient id="n" x1="318.18" x2="349.33" xlink:href="#m" y1="-77.29" y2="-50.27"/><linearGradient id="o" gradientTransform="matrix(1 .05 -.05 1 -1927.38 1859.16)" gradientUnits="userSpaceOnUse" x1="2332.24" x2="2329.51" y1="-1754.74" y2="-1798.25"><stop offset=".17" stop-color="#8d9092"/><stop offset=".51" stop-color="#c9cacc"/><stop offset=".77" stop-color="#d9dbde"/><stop offset=".93" stop-color="#fcfcfc"/></linearGradient><linearGradient id="p" gradientTransform="matrix(.99994698 -.01029726 .01029726 .99994698 146.21 254.29)" gradientUnits="userSpaceOnUse" x1="362.54" x2="367.88" y1="-62.88" y2="-102.72"><stop offset="0" stop-color="#fcfcfc"/><stop offset=".18" stop-color="#d1d3d4"/><stop offset=".88" stop-color="#a7abb0"/></linearGradient><linearGradient id="q" x1="588.04" x2="654.51" xlink:href="#k" y1="364.66" y2="189.68"/><linearGradient id="r" x1="629.5" x2="682.03" xlink:href="#k" y1="186.53" y2="186.53"/><linearGradient id="s" x1="618.16" x2="559.93" xlink:href="#k" y1="168.14" y2="296.7"/><linearGradient id="t" x1="586.82" x2="640.59" xlink:href="#k" y1="186.36" y2="186.36"/><linearGradient id="u" x1="541.8" x2="587.31" xlink:href="#k" y1="190.34" y2="149.8"/><linearGradient id="v" x1="578.51" x2="590.23" xlink:href="#k" y1="152.42" y2="152.42"/><linearGradient id="w" x1="588.57" x2="456.96" xlink:href="#k" y1="130.81" y2="429.07"/><linearGradient id="x" x1="537.76" x2="547.23" xlink:href="#k" y1="258.61" y2="117.08"/><linearGradient id="y" gradientUnits="userSpaceOnUse" x1="540.05" x2="568.51" y1="178.4" y2="120.73"><stop offset="0" stop-color="#fff"/><stop offset=".09" stop-color="#fff" stop-opacity=".97"/><stop offset=".22" stop-color="#fff" stop-opacity=".9"/><stop offset=".37" stop-color="#fefefe" stop-opacity=".77"/><stop offset=".54" stop-color="#fefefe" stop-opacity=".6"/><stop offset=".73" stop-color="#fdfdfd" stop-opacity=".37"/><stop offset=".93" stop-color="#fcfcfc" stop-opacity=".1"/><stop offset="1" stop-color="#fcfcfc" stop-opacity="0"/></linearGradient><linearGradient id="z" x1="611.44" x2="631.47" xlink:href="#y" y1="199.81" y2="159.23"/><linearGradient id="A" x1="592.22" x2="605.01" xlink:href="#y" y1="191.43" y2="165.52"/><linearGradient id="B" x1="662.59" x2="676.24" xlink:href="#y" y1="202.49" y2="174.84"/><linearGradient id="C" x1="639.6" x2="661.6" xlink:href="#y" y1="205.7" y2="161.14"/><linearGradient id="D" x1="580.6" x2="586.96" xlink:href="#y" y1="159.96" y2="147.06"/><linearGradient id="E" x1="565.47" x2="580.22" xlink:href="#y" y1="173.25" y2="173.25"/><path d="m1135.29 0a7 7 0 0 1 7 7v122a7 7 0 0 1 -7 7h-1128.29a7 7 0 0 1 -7-7v-122a7 7 0 0 1 7-7z"/><rect fill="url(#a)" height="115.86" rx="6" width="415.44" x="10.48" y="10.08"/><path d="m474.36 73.19q-4.27-3.19-16.87-3.19h-1.94q-10.73 0-14.3 4t-3.58 14.82l-.18 9.86.18 8.77q0 11.94 3.81 15.07t16.15 3.14l7.49-.13q7.13 0 10.32-3.86t3.19-10.87l.24-8.4v-3.9l-.24-9.31q0-12.83-4.27-16zm-5.36 25.58v6.63q0 5.23-2 6.52t-7.59 1.27h-2.77l-4.61-.3a4.05 4.05 0 0 1 -3.68-2.56 17.56 17.56 0 0 1 -.86-6.39v-12.3c0-.36 0-.86 0-1.49a28.42 28.42 0 0 1 .33-3 5.66 5.66 0 0 1 1.23-3 5 5 0 0 1 2.95-1.31 29.88 29.88 0 0 1 4.77-.33l5.5.12c3 0 4.89.77 5.62 2.31s1.1 4 1.1 7.49z" fill="url(#b)"/><path d="m465.25 13a13.72 13.72 0 0 0 -2.2 6.53 45.52 45.52 0 0 0 -2-5.37 7.47 7.47 0 0 0 -2.23-2.16 8.25 8.25 0 0 0 -3.17-1.28 25 25 0 0 0 -4.35-.32h-.69a20.28 20.28 0 0 0 -6.28.83 8.7 8.7 0 0 0 -3.92 2.49q-2.91 3.21-2.92 10.94v39.7h41.38v-13h-10.54v-21.7c0-3 .6-4.72 1.82-5.09a17.23 17.23 0 0 1 4.78-.54h3.94v-13.17h-7.87c-2.76 0-4.66.73-5.75 2.14zm-7 18.67v19.66h-10.71v-23.59l.44-2.11a3 3 0 0 1 1.41-1.76 8.19 8.19 0 0 1 3.05-.41q3.71 0 4.77 1.08t1.07 5.5z" fill="url(#c)"/><path d="m490.44 16.35v103.33a6 6 0 0 0 6 6h629.37a6 6 0 0 0 6-6v-103.33a6 6 0 0 0 -6-6h-629.37a6 6 0 0 0 -6 6zm631.63 103.58h-621.88a4 4 0 0 1 -4-4v-95.84a4 4 0 0 1 4-4h621.88a4 4 0 0 1 4 4v95.84a4 4 0 0 1 -4 4z" fill="url(#d)"/><path d="m119.15 39.57q-6.89-6.26-26.7-6.26h-64.74v69.51h73q9.8 0 16.35-4.63t7.65-10.48a115.83 115.83 0 0 0 1.29-11.88v-11.25q0-18.76-6.85-25.01zm-15.69 29q0 10-2.75 13.64t-13 3.66h-37.65v-35.46h37.94q10.58 0 13 3.58t2.42 13.92z"/><path d="m131.77 102.83h81.31v-15.74h-59.12v-12.3h55.19v-13.76h-55.19v-11.88h59.12v-15.84h-81.31z"/><path d="m259.62 33.77-40.8 69h24.79l7.24-12.52h47.27l6.88 12.57h24.6l-39.93-69zm-1 42.24 15.69-27.33 15.69 27.32z"/><path d="m357.77 85.42v-52.11h-22.43v69.52h73.36v-17.41z"/><path d="m819.29 39.57q-6.88-6.26-26.7-6.26h-64.74v69.51h73q9.79 0 16.35-4.63t7.65-10.48a115.83 115.83 0 0 0 1.32-11.88v-11.25q0-18.76-6.88-25.01zm-15.69 29q0 10-2.75 13.64t-13 3.66h-37.65v-35.46h38q10.56 0 13 3.58t2.42 13.92z" fill="url(#e)"/><path d="m831.91 102.83h81.31v-15.74h-59.12v-12.3h55.19v-13.76h-55.19v-11.88h59.12v-15.84h-81.31z" fill="url(#f)"/><path d="m959.77 33.77-40.81 69h24.79l7.25-12.47h47.27l6.91 12.52h24.57l-39.92-69zm-1 42.24 15.68-27.33 15.7 27.32z" fill="url(#g)"/><path d="m1057.91 85.42v-52.11h-22.43v69.52h73.37v-17.41z" fill="url(#h)"/><path d="m590.24 85.39-42.6-52.19h-34.23v69.63h20.24v-52.3l42.6 52.3h34.23v-69.63h-20.24z" fill="url(#i)"/><path d="m703.25 39.52q-6.72-6-25-6l-16.62-.31-14.77.31q-20.1 0-25.39 6.4t-5.28 27.18l.21 12.6q0 12 6.51 17.35t18.31 5.38l14.15.4h6.63l15.69-.4q21.65 0 27-7.19t5.31-28.4v-3.26q0-18.04-6.75-24.06zm-14.51 35.33q0 7.61-3.9 9.46t-12.61 1.85h-21.85q-8.82 0-11-3.36t-2.13-12.8v-4.63l.51-7.75q.62-4.86 4.31-6.21 3.48-1.41 10.77-1.41h20.72c.62 0 1.45 0 2.51.05a46.53 46.53 0 0 1 5 .56 9.55 9.55 0 0 1 5.07 2.06 8.34 8.34 0 0 1 2.26 4.94 49 49 0 0 1 .57 8z" fill="url(#j)"/><path d="m495.57 216.43c11.7-3 20-12.88 21.59-25.89a4.09 4.09 0 0 0 -.07-1.35 3.87 3.87 0 0 0 .21-1.34 31.9 31.9 0 0 0 -5.3-17.42 3.45 3.45 0 0 0 -.45-.56 28.4 28.4 0 0 0 -23.1-11.78 29.62 29.62 0 0 0 -12.7 2.86 4 4 0 0 0 -2 5.05c.26.68.52 1.38.77 2.07v.11c2.46 6.62 5.47 14.76 14.85 19.57-9.84 3.82-13.68 11.6-16.82 17.94-.34.7-.68 1.39-1 2.07a4 4 0 0 0 1.5 5.24 29.79 29.79 0 0 0 15.38 4.32 29 29 0 0 0 7.14-.89z"/><path d="m560.58 221.93a146.56 146.56 0 0 0 -32.88 4.32c8.13-14.39 20-37.05 27.49-52l3.63-7.37c6.68-13.88 12.82-27.08 14.69-36.18v-.27c2.17-9.92-1.36-13.25-4.7-14.29a7.1 7.1 0 0 0 -2.19-.34c-6.07 0-9.62 6.91-12.06 13l-5.56 13.36c-3.47 8.07-7 16.13-10.55 24-10.94 24.23-21.7 46.23-32 65.4-12.77 4.54-21.71 11.31-23.37 17.73a7.93 7.93 0 0 0 1.81 7.62c1.9 2.08 4.81 3.17 8.41 3.17a27.71 27.71 0 0 0 13.59-4.16 36.36 36.36 0 0 0 11.5-10.82 140 140 0 0 1 41.61-6.4 115.7 115.7 0 0 1 22.63 2.11 14 14 0 0 1 4.65 1.81 8.36 8.36 0 0 0 4.15 1.36 5.73 5.73 0 0 0 2.53-.59 5.22 5.22 0 0 0 2.61-6.08c-.05-.15-3.96-15.38-35.99-15.38z"/><path d="m686.54 176.54a3.72 3.72 0 0 0 -.25-.49 5.18 5.18 0 0 0 -3.84-2.49 6.2 6.2 0 0 0 -3.78.75 11.82 11.82 0 0 0 -2.06 1.52 1.29 1.29 0 0 0 -.17.16l-.06.06a12.11 12.11 0 0 0 -10.6-16.57h-.94c-3.33 0-7.13 1.11-11.3 3.32l-.54.31-.11.05c-1 .56-2.06 1.17-3.11 1.84q-2.29 1.46-4.47 3.13a6.33 6.33 0 0 0 -.24-4.66l-.09-.2-.11-.22a9.11 9.11 0 0 0 -.92-1.45 9.56 9.56 0 0 0 -1.19-1.27 9 9 0 0 0 -2.17-1.37 8.33 8.33 0 0 0 -.85-.36 9.48 9.48 0 0 0 -2.73-.47 9.6 9.6 0 0 0 -1.82.09 19.49 19.49 0 0 0 -7.25 2.8l-.14.08c-6.36 4.06-11.6 9.83-16.23 15.16.83-1.53 2.28-4.41 1.75-7.61a7 7 0 0 0 -.22-.95c0-.14-.08-.28-.12-.41a7.81 7.81 0 0 0 -.93-1.82 2.07 2.07 0 0 0 -.17-.24 8.81 8.81 0 0 0 -.79-.93 8.35 8.35 0 0 0 -6.07-2.44 12.33 12.33 0 0 0 -5.87 1.61l-.2.11-.19.11-.09.06-.19.13a17.19 17.19 0 0 0 -2.31 2 18.18 18.18 0 0 0 -3.35 4.89c-.46.93-.92 1.92-1.42 3l-.29.66-.12.29c-.34.81-.66 1.57-1 2.31l-.41 1c-.29.78-.59 1.61-.89 2.47l-.09.27c-.08.21-.15.41-.22.62a101.53 101.53 0 0 0 -3 10.91 6 6 0 0 0 -2.19-4.26 5.94 5.94 0 0 0 -3.89-1.45 6.17 6.17 0 0 0 -1.59.21l.18-.32c.66-1.23 1.4-2.47 2.21-3.81a53.27 53.27 0 0 0 4.86-9.54c.19-.51.36-1 .52-1.54a4.4 4.4 0 0 0 .18-1.53 7.94 7.94 0 0 0 -2.35-6.18 6.91 6.91 0 0 0 -1-.74h.25a4.31 4.31 0 0 0 .55.05h.46a11.5 11.5 0 0 0 8-3.62 12.11 12.11 0 0 0 1.73-2.2c.17-.29.43-.73.64-1.18a9.13 9.13 0 0 0 -.14-9.21 8 8 0 0 0 -2.77-2.63 8.26 8.26 0 0 0 -3.4-1 8 8 0 0 0 -1.89 0l-.4.05a11.69 11.69 0 0 0 -1.33.31 12.88 12.88 0 0 0 -6.71 5.18l-.06.09a13.68 13.68 0 0 0 -.78 1.31l-.13.27a12.27 12.27 0 0 0 -.69 2.1 9.94 9.94 0 0 0 -.25 2.22 8.83 8.83 0 0 0 .11 1.33 8.39 8.39 0 0 0 1.14 3.15 8 8 0 0 0 2.51 2.55 10.18 10.18 0 0 0 -4.74.33c-3.28.89-6.07 3.26-8.07 6.85-3.6 6.34-7 12.92-10.31 19.32l-1.41 2.75c-.32.7-.66 1.43-1 2.17-1.6 3.35-3.42 7.14-4 11.13a10.63 10.63 0 0 0 3.63 9.93l.3.25a8.73 8.73 0 0 0 4.59 1.76h.69a11.32 11.32 0 0 0 5.69-1.69l.17-.11c2-1.27 13.94-12.12 18.05-16.44l.1.1 1-1.37a7.53 7.53 0 0 0 .75-1.25 44.42 44.42 0 0 0 -.79 12.11 3.78 3.78 0 0 0 .06.47l.11.54c.29 1.31 1.07 4.77 4.41 6.55a8 8 0 0 0 3.32 1.06q.35 0 .69 0a8.57 8.57 0 0 0 6.72-3.47l.09-.12c1.26-1.77 2.63-3.52 4-5.25l.1-.14c.74-.94 1.48-1.88 2.14-2.75 3.43-4.22 6.61-8 9.72-11.63l2.7-3.11.47-.52c.86-1 1.71-1.94 2.61-2.93l2.43-2.72a88.75 88.75 0 0 1 8.42-8.49 42.33 42.33 0 0 1 3.84-2.91l.18-.12a7.45 7.45 0 0 1 1.12-.68l.2-.08.37.13a6.21 6.21 0 0 0 1.9.34h.17a6 6 0 0 0 1-.1 56.5 56.5 0 0 0 -6.57 7.38c-.37.51-.71 1-1 1.49l-.26.4c-.24.35-.47.71-.7 1.07l-.27.43c-.22.36-.44.72-.65 1.08l-.21.37c-.25.43-.49.87-.71 1.3l-.06.11a30 30 0 0 0 -3.77 14.57v.33a1.12 1.12 0 0 0 0 .2c.55 5 2.6 8.91 6.07 11.62a14.74 14.74 0 0 0 8.37 3.16q.49 0 1 0a18.87 18.87 0 0 0 6-1c8.15-2.66 14.43-7.83 20.51-12.84l.47-.38c1.84-1.63 3.62-3.3 5.42-5.12.56-.57 1.11-1.13 1.63-1.68l.18-.19c.54-.56 1.06-1.13 1.62-1.75l1.48-1.65.08-.09 1.44-1.67.36.04 1.26-1.49 1.4-1.69a21.83 21.83 0 0 0 2.41-3.47 7.28 7.28 0 0 0 1-3.94 5.15 5.15 0 0 0 -.53-1.87zm-28.94 15.91c-.59.44-1.14.82-1.62 1.14l-.21.16a33.55 33.55 0 0 1 -10.64 5.46 17.73 17.73 0 0 1 1-3.28l.15-.38a57.83 57.83 0 0 0 14-5.13c-.94.72-1.83 1.41-2.68 2.03z"/><path d="m569.4 170.43c-4.06 7.14-7.91 14.69-11.53 21.68v.06c-.33.73-.69 1.49-1.06 2.26-1.47 3.07-3.14 6.54-3.6 9.9a6.16 6.16 0 0 0 2.11 5.8l.08.06a4.17 4.17 0 0 0 2.2.87 6.54 6.54 0 0 0 3.8-1.08c2.28-1.46 17.28-15.43 18-16.64 0 0 1.23-1.63-.07-2.73-1.07-.9-2.18 0-2.72.46-1.81 1.5-10.19 8.69-14 11 2-3.87 4.16-7.66 6.28-11.35 1.36-2.38 2.76-4.83 4.12-7.3.7-1.32 1.48-2.61 2.3-4a46.92 46.92 0 0 0 4.93-10.06l-.09.21a3.66 3.66 0 0 0 -.78-3.28 4.85 4.85 0 0 0 -4.57-.64c-2.69.75-4.42 3.01-5.4 4.78z" fill="url(#k)" stroke="url(#l)" stroke-miterlimit="10"/><path d="m476.48 163.57c15.88-7.44 35.36 2.3 35.77 23.37-28.76.75-31.53-12.33-35.77-23.37z" fill="url(#m)"/><path d="m474.13 208.57c15 9.06 35.4 1.41 38-19.51-28.52-3.74-32.64 8.94-38 19.51z" fill="url(#n)"/><path d="m502.94 188.38a24.75 24.75 0 0 1 -21.2 10c-.61 0-1.22-.09-1.82-.17a74.38 74.38 0 0 0 -5.74 10.36c15 9.05 35.41 1.4 38-19.51a73.14 73.14 0 0 0 -9.24-.68z" fill="url(#o)"/><path d="m507.73 171.67a25.26 25.26 0 0 1 0 3.26 24.71 24.71 0 0 1 -3.7 11.78 74.09 74.09 0 0 0 8.22.21 27.76 27.76 0 0 0 -4.52-15.25z" fill="url(#p)"/><g stroke-miterlimit="10"><path d="m680.87 177c-.7-.09-1.27.3-2.3 1.2 0 0-13.22 12.82-21.09 18.11-3.73 2.83-11.22 7.08-15.44 6.49a3.24 3.24 0 0 1 -2-1c-1.49-3.14.49-7.91 2-11.29 7.61-1.11 13.73-4.36 19.66-7.51a24.76 24.76 0 0 0 5.82-4.18c4.74-4.82 5.48-9.9 2-13.58-2.12-2.25-6.43-4-14.94.5a53.21 53.21 0 0 0 -17.79 15.28c-4.67 6.44-6.9 12.36-6.8 18.07v.12a12 12 0 0 0 4.39 8.58 10.19 10.19 0 0 0 5.85 2.2 14.1 14.1 0 0 0 5.32-.77c7.35-2.4 13.31-7.3 19.06-12l.39-.22a120.13 120.13 0 0 0 14.18-15c2.89-3.58 2.66-4.85 1.69-5zm-22 .38c-3.41 3.61-8.27 6.41-14.49 8.36 3.14-6 6.62-10.64 10.6-14 2.76-2.34 6.67-4.65 8.7-4.53h.24a1 1 0 0 1 .75.46c.76 1.27-1.95 5.79-5.82 9.73z" fill="url(#q)" stroke="url(#r)"/><path d="m636 166a1.64 1.64 0 0 1 1.23.1h.1c.5.27 1.55.84 2.35.09a1.64 1.64 0 0 0 .23-2v-.11a4.47 4.47 0 0 0 -2.57-2.25c-2-.67-4.63 0-8.09 2-6.42 4.1-11.82 10.35-16.58 15.85-2.49 2.84-5 5.82-7.34 8.7-1.32 1.6-2.64 3.2-4 4.77-1.14 1.26-2.23 2.6-3.27 3.89l-1.27 1.54c.41-1.62.87-3.23 1.4-4.77a127.16 127.16 0 0 1 5.12-13.9 37.81 37.81 0 0 1 1.79-3.85c.41-.82.83-1.64 1.18-2.42l.19-.34c.84-1.53 2.58-4.71.42-6.88-1.81-1.82-4.74-1.13-6.71 0l-.1.07a12.86 12.86 0 0 0 -4.21 5.19 88.94 88.94 0 0 0 -7.5 23 41.83 41.83 0 0 0 -.9 11.84l.08.39c.23 1 .62 2.78 2.22 3.6a3.7 3.7 0 0 0 1.52.51 4 4 0 0 0 3.44-1.69c1.32-1.86 2.74-3.68 4.11-5.43.77-1 1.54-2 2.25-2.9 5.64-6.92 10.75-12.93 15.65-18.37l.75-.84c4.54-5.09 9.23-10.36 14.85-14.06a10.52 10.52 0 0 1 3.66-1.73z" fill="url(#s)" stroke="url(#t)"/><path d="m582.27 157.86h.07.07c2.56.13 5.47-1.86 6.6-4.46a4.77 4.77 0 0 0 .13-4.81 3.66 3.66 0 0 0 -2.86-1.63c-2.55-.31-5.36 2-6.66 4.52a5 5 0 0 0 0 4.65 3.73 3.73 0 0 0 2.65 1.73z" fill="url(#u)" stroke="url(#v)"/></g><g fill="none"><path d="m582.27 157.86h.07.07c2.56.13 5.47-1.86 6.6-4.46a4.77 4.77 0 0 0 .13-4.81 3.66 3.66 0 0 0 -2.86-1.63c-2.55-.31-5.36 2-6.66 4.52a5 5 0 0 0 0 4.65 3.73 3.73 0 0 0 2.65 1.73z"/><path d="m636 166a1.64 1.64 0 0 1 1.23.1h.1c.5.27 1.55.84 2.35.09a1.64 1.64 0 0 0 .23-2v-.11a4.47 4.47 0 0 0 -2.57-2.25c-2-.67-4.63 0-8.09 2-6.42 4.1-11.82 10.35-16.58 15.85-2.49 2.84-5 5.82-7.34 8.7-1.32 1.6-2.64 3.2-4 4.77-1.14 1.26-2.23 2.6-3.27 3.89l-1.27 1.54c.41-1.62.87-3.23 1.4-4.77a127.16 127.16 0 0 1 5.12-13.9 37.81 37.81 0 0 1 1.79-3.85c.41-.82.83-1.64 1.18-2.42l.19-.34c.84-1.53 2.58-4.71.42-6.88-1.81-1.82-4.74-1.13-6.71 0l-.1.07a12.86 12.86 0 0 0 -4.21 5.19 88.94 88.94 0 0 0 -7.5 23 41.83 41.83 0 0 0 -.9 11.84l.08.39c.23 1 .62 2.78 2.22 3.6a3.7 3.7 0 0 0 1.52.51 4 4 0 0 0 3.44-1.69c1.32-1.86 2.74-3.68 4.11-5.43.77-1 1.54-2 2.25-2.9 5.64-6.92 10.75-12.93 15.65-18.37l.75-.84c4.54-5.09 9.23-10.36 14.85-14.06a10.52 10.52 0 0 1 3.66-1.73z"/><path d="m680.87 177c-.7-.09-1.27.3-2.3 1.2 0 0-13.22 12.82-21.09 18.11-3.73 2.83-11.22 7.08-15.44 6.49a3.24 3.24 0 0 1 -2-1c-1.49-3.14.49-7.91 2-11.29 7.61-1.11 13.73-4.36 19.66-7.51a24.76 24.76 0 0 0 5.82-4.18c4.74-4.82 5.48-9.9 2-13.58-2.12-2.25-6.43-4-14.94.5a53.21 53.21 0 0 0 -17.79 15.28c-4.67 6.44-6.9 12.36-6.8 18.07v.12a12 12 0 0 0 4.39 8.58 10.19 10.19 0 0 0 5.85 2.2 14.1 14.1 0 0 0 5.32-.77c7.35-2.4 13.31-7.3 19.06-12l.39-.22a120.13 120.13 0 0 0 14.18-15c2.89-3.58 2.66-4.85 1.69-5zm-22 .38c-3.41 3.61-8.27 6.41-14.49 8.36 3.14-6 6.62-10.64 10.6-14 2.76-2.34 6.67-4.65 8.7-4.53h.24a1 1 0 0 1 .75.46c.76 1.27-1.95 5.79-5.82 9.73z"/><path d="m569.29 170.75c-4.06 7.14-7.8 14.37-11.42 21.35v.06c-.34.74-.7 1.49-1.07 2.26-1.47 3.07-3.13 6.55-3.6 9.91a6.14 6.14 0 0 0 2.12 5.8l.07.06a4.17 4.17 0 0 0 2.2.87 6.54 6.54 0 0 0 3.8-1.08c2.29-1.46 17.28-15.43 18-16.64 0 0 1.23-1.63-.07-2.73-1.07-.91-2.18 0-2.72.46-1.8 1.5-10.18 8.69-14 11 2-3.87 4.15-7.66 6.27-11.36 1.36-2.37 2.77-4.83 4.12-7.3.71-1.31 1.48-2.6 2.3-4a44.39 44.39 0 0 0 4.82-9.74v-.11a3 3 0 0 0 -.9-3 4.85 4.85 0 0 0 -4.57-.64c-2.64.8-4.37 3.08-5.35 4.83z"/></g><path d="m517.34 232.32c8.55-13.79 28.86-52.66 36.42-68.38 6.36-13.2 12.56-26.44 14.34-35.14.26-1.28 2-8.22-1.58-9.35-4.5-1.41-8.22 8.83-8.89 10.43-7 16.87-26.32 62.18-49.09 104.32-16.1 5.32-25.35 14.29-21.38 18.62s19.39.38 27.28-12.56c22.92-7.54 48.24-8.83 68.06-4.86 5.56 1.11 7 3.69 8.47 2.95 2.33-1.15-9.97-24.06-73.63-6.03z" fill="url(#w)"/><path d="m565.67 119.32a2.83 2.83 0 0 1 .85.13c3.62 1.13 1.84 8.07 1.58 9.35-1.78 8.7-8 21.94-14.34 35.14-7.56 15.72-27.87 54.59-36.42 68.38 17.85-5.06 31.66-6.89 42.24-6.89 27.16 0 33.07 12.1 31.39 12.92a1.27 1.27 0 0 1 -.56.13c-1.35 0-3-2.1-7.91-3.08a120.45 120.45 0 0 0 -23.5-2.2 144.63 144.63 0 0 0 -44.55 7.06c-5.84 9.58-15.77 14.27-22.18 14.27-2.24 0-4.05-.57-5.1-1.71-4-4.33 5.28-13.3 21.38-18.62 22.77-42.14 42-87.45 49.09-104.32.63-1.5 3.92-10.56 8-10.56m0-1c-4 0-6.93 6.12-8.78 10.73q-.1.28-.18.45c-16.24 38.83-33.14 74.74-48.86 103.88-11.85 4-21.05 10.43-22.43 15.74a4.51 4.51 0 0 0 1 4.37c1.23 1.34 3.25 2 5.84 2 6.9 0 16.91-5 22.84-14.44a143.37 143.37 0 0 1 43.93-6.85 118.89 118.89 0 0 1 23.32 2.18 17.68 17.68 0 0 1 5.67 2.18 5.16 5.16 0 0 0 2.43.92 2.32 2.32 0 0 0 1-.23c.26-.13 1.08-.66.74-2.14-.77-3.29-8.39-12.68-32.57-12.68-11.37 0-24.84 2.1-40.07 6.25 9-15.07 27.71-50.84 35.16-66.3 6.57-13.67 12.63-26.66 14.41-35.38l.06-.3c.48-2.19 1.94-8.87-2.32-10.2a3.83 3.83 0 0 0 -1.15-.18z" fill="url(#x)"/><path d="m566.52 119.45c-4.5-1.41-8.22 8.83-8.89 10.43-3.17 7.58-8.8 20.9-16.11 37.08q4.1 2.22 8.62 4.34c1.39-2.78 2.62-5.28 3.62-7.36 6.36-13.2 12.56-26.44 14.34-35.14.26-1.28 2.04-8.22-1.58-9.35z" fill="url(#y)"/><path d="m569.29 170.75c-4.06 7.14-7.8 14.37-11.42 21.35v.06c-.34.74-.7 1.49-1.07 2.26-1.47 3.07-3.13 6.55-3.6 9.91a6.14 6.14 0 0 0 2.12 5.8l.07.06a4.17 4.17 0 0 0 2.2.87 6.54 6.54 0 0 0 3.8-1.08c2.29-1.46 17.28-15.43 18-16.64 0 0 1.23-1.63-.07-2.73-1.07-.91-2.18 0-2.72.46-1.8 1.5-10.18 8.69-14 11 2-3.87 4.15-7.66 6.27-11.36 1.36-2.37 2.77-4.83 4.12-7.3.71-1.31 1.48-2.6 2.3-4a44.39 44.39 0 0 0 4.82-9.74v-.11a3 3 0 0 0 -.9-3 4.85 4.85 0 0 0 -4.57-.64c-2.64.8-4.37 3.08-5.35 4.83z" fill="none"/><path d="m639.83 164.14a4.47 4.47 0 0 0 -2.57-2.25c-2-.67-4.63 0-8.09 2-6.42 4.1-11.82 10.35-16.58 15.85-2.45 2.8-4.88 5.73-7.22 8.57 1.81.33 3.65.64 5.52.95q3-3.45 5.81-6.61l.75-.84c4.54-5.09 9.23-10.36 14.85-14.06a10.52 10.52 0 0 1 3.7-1.75 1.64 1.64 0 0 1 1.23.1h.1c.5.27 1.55.84 2.35.09a1.64 1.64 0 0 0 .23-2z" fill="url(#z)"/><path d="m606.43 173.38c.84-1.53 2.58-4.71.42-6.88-1.81-1.82-4.74-1.13-6.71 0l-.1.07a12.86 12.86 0 0 0 -4.21 5.19 81.09 81.09 0 0 0 -5.21 13.47c3.14.75 6.38 1.47 9.72 2.14.91-2.55 1.88-5 2.93-7.38a37.81 37.81 0 0 1 1.79-3.85c.41-.82.83-1.64 1.18-2.42z" fill="url(#A)"/><path d="m680.87 177c-.7-.09-1.27.3-2.3 1.2 0 0-11.38 11-19.3 16.85q3.66.3 7.19.54a124.35 124.35 0 0 0 12.7-13.67c2.91-3.5 2.68-4.77 1.71-4.92z" fill="url(#B)"/><path d="m667.53 178.88c4.74-4.82 5.48-9.9 2-13.58-2.12-2.25-6.43-4-14.94.5a53.21 53.21 0 0 0 -17.79 15.28 37.55 37.55 0 0 0 -5.8 11.08c3.34.42 6.64.8 9.88 1.16.37-1 .78-1.91 1.15-2.75 7.61-1.11 13.73-4.36 19.66-7.51a24.76 24.76 0 0 0 5.84-4.18zm-23.17 6.88c3.14-6 6.62-10.64 10.6-14 2.76-2.34 6.67-4.65 8.7-4.53h.24a1 1 0 0 1 .75.46c.78 1.22-1.93 5.74-5.8 9.68-3.41 3.63-8.27 6.44-14.49 8.39z" fill="url(#C)"/><path d="m582.27 157.86h.07.07c2.56.13 5.47-1.86 6.6-4.46a4.77 4.77 0 0 0 .13-4.81 3.66 3.66 0 0 0 -2.86-1.63c-2.55-.31-5.36 2-6.66 4.52a5 5 0 0 0 0 4.65 3.73 3.73 0 0 0 2.65 1.73z" fill="url(#u)" stroke="url(#v)" stroke-miterlimit="10"/><path d="m586.28 147c-2.55-.31-5.36 2-6.66 4.53a5 5 0 0 0 0 4.64 3.73 3.73 0 0 0 2.68 1.71h.07.07c2.56.13 5.47-1.86 6.6-4.46a4.77 4.77 0 0 0 .13-4.81 3.66 3.66 0 0 0 -2.89-1.61z" fill="url(#D)"/><path d="m579.24 166.67a4.85 4.85 0 0 0 -4.57-.64c-2.67.69-4.4 2.95-5.38 4.72q-2 3.45-3.82 6.92 4.37 1.61 9.06 3.09l.76-1.28a44.61 44.61 0 0 0 4.82-9.74v-.11a3 3 0 0 0 -.87-2.96z" fill="url(#E)"/></svg>