<svg width="36" height="52" xmlns="http://www.w3.org/2000/svg" xmlns:xlink="http://www.w3.org/1999/xlink">
    <defs>
        <path d="M26 0h126c14.36 0 26 11.64 26 26s-11.64 26-26 26H26C11.64 52 0 40.36 0 26S11.64 0 26 0z" id="a"/>
    </defs>
    <g fill="none" fill-rule="evenodd">
        <mask id="b" fill="#fff">
            <use xlink:href="#a"/>
        </mask>
        <g mask="url(#b)">
            <g transform="translate(-10 12)">
                <circle fill="#EBEBEB" cx="15" cy="15" r="15"/>
                <circle fill="#0FCA85" cx="15" cy="15" r="14.25"/>
                <path d="M12.499 4.317l-.75-3.204A14.268 14.268 0 0114.466.75l.123 3.288c-.716.027-1.415.122-2.09.28zM25.683 12.5l3.204-.75c.205.877.329 1.786.363 2.717l-3.288.123a10.976 10.976 0 00-.28-2.09zM17.5 25.683l.75 3.204c-.877.205-1.786.329-2.717.363l-.123-3.288a10.976 10.976 0 002.09-.28zM4.317 17.5l-3.204.75a14.268 14.268 0 01-.363-2.717l3.288-.123c.027.716.122 1.415.28 2.09zM15.54 4.044l.162-3.287c.93.045 1.838.18 2.713.395l-.788 3.196a10.962 10.962 0 00-2.087-.304zM25.956 15.54l3.287.162c-.045.93-.18 1.838-.395 2.713l-3.196-.788c.166-.673.27-1.371.304-2.087zM14.46 25.956l-.162 3.287c-.93-.045-1.838-.18-2.713-.395l.788-3.196c.673.166 1.371.27 2.087.304zM4.044 14.46l-3.287-.162c.045-.93.18-1.838.395-2.713l3.196.788a10.962 10.962 0 00-.304 2.087zm16.865-8.703l1.773-2.773A14.336 14.336 0 0126.938 7.2l-2.755 1.8a11.028 11.028 0 00-3.274-3.242zm3.334 15.152l2.773 1.773a14.336 14.336 0 01-4.215 4.256l-1.8-2.755a11.028 11.028 0 003.242-3.274zM9.09 24.243l-1.773 2.773A14.336 14.336 0 013.062 22.8l2.755-1.8a11.028 11.028 0 003.274 3.242zM5.757 9.09L2.984 7.318A14.336 14.336 0 017.2 3.062l1.8 2.755A11.028 11.028 0 005.757 9.09z" fill="#EBEBEB"/>
                <circle stroke="#EBEBEB" stroke-width=".5" fill-opacity=".4" fill="#000" cx="15" cy="15" r="9.5"/>
                <g fill="#FFF">
                    <path d="M18.774 17.676l.008.04a16.04 16.04 0 00-3.764 2.648 2.478 2.478 0 113.756-2.688zm-3.928-1.545l-.01.008a2.645 2.645 0 00-.906 3.164 2.116 2.116 0 11.916-3.172zm.522.501c-.97.617-.616 1.74-.616 1.74-.087-.64 1.22-1.237 1.22-1.237s.016-.048.032-.12l.019-.095c.049-.29.032-.725-.655-.288zm-3.11-.697c-.827.526-.525 1.485-.525 1.485-.075-.547 1.04-1.056 1.04-1.056s.313-.956-.515-.43z"/>
                    <path d="M15.03 9.119c.622.627 1.688 1.364 2.617 3.554.652 1.537.497 2.755.273 3.477-.134-.1-.279-.185-.43-.256.118-.508.136-1.343-.23-2.616-.559-1.939-1.677-2.512-2.303-2.897l-.078-.05-.809.109c-.809.108.336-1.947.96-1.321zm1.712 3.161l.172.41c-.017.214-.275 1.166-.834 1.646a8.063 8.063 0 01-1.691 1.11 2.175 2.175 0 00-.352-.194l-.246.111c.763-.327 1.4-.739 1.912-1.235a3.764 3.764 0 001.039-1.848z"/>
                </g>
            </g>
        </g>
        <g mask="url(#b)">
            <g transform="translate(1 29)"> 
                <circle fill="#EBEBEB" cx="15" cy="15" r="15"/>
                <circle fill="#0FCA85" cx="15" cy="15" r="14.25"/>
                <path d="M12.499 4.317l-.75-3.204A14.268 14.268 0 0114.466.75l.123 3.288c-.716.027-1.415.122-2.09.28zM25.683 12.5l3.204-.75c.205.877.329 1.786.363 2.717l-3.288.123a10.976 10.976 0 00-.28-2.09zM17.5 25.683l.75 3.204c-.877.205-1.786.329-2.717.363l-.123-3.288a10.976 10.976 0 002.09-.28zM4.317 17.5l-3.204.75a14.268 14.268 0 01-.363-2.717l3.288-.123c.027.716.122 1.415.28 2.09zM15.54 4.044l.162-3.287c.93.045 1.838.18 2.713.395l-.788 3.196a10.962 10.962 0 00-2.087-.304zM25.956 15.54l3.287.162c-.045.93-.18 1.838-.395 2.713l-3.196-.788c.166-.673.27-1.371.304-2.087zM14.46 25.956l-.162 3.287c-.93-.045-1.838-.18-2.713-.395l.788-3.196c.673.166 1.371.27 2.087.304zM4.044 14.46l-3.287-.162c.045-.93.18-1.838.395-2.713l3.196.788a10.962 10.962 0 00-.304 2.087zm16.865-8.703l1.773-2.773A14.336 14.336 0 0126.938 7.2l-2.755 1.8a11.028 11.028 0 00-3.274-3.242zm3.334 15.152l2.773 1.773a14.336 14.336 0 01-4.215 4.256l-1.8-2.755a11.028 11.028 0 003.242-3.274zM9.09 24.243l-1.773 2.773A14.336 14.336 0 013.062 22.8l2.755-1.8a11.028 11.028 0 003.274 3.242zM5.757 9.09L2.984 7.318A14.336 14.336 0 017.2 3.062l1.8 2.755A11.028 11.028 0 005.757 9.09z" fill="#EBEBEB"/>
                <circle stroke="#EBEBEB" stroke-width=".5" fill-opacity=".4" fill="#000" cx="15" cy="15" r="9.75"/>
                <g fill="#FFF">
                    <path d="M18.774 17.676a2.478 2.478 0 11-4.801 1.23 2.478 2.478 0 014.8-1.23zm-3.928-1.545l-.01.008a2.645 2.645 0 00-.906 3.164 2.116 2.116 0 11.916-3.172zm.522.501c-.97.617-.616 1.74-.616 1.74-.087-.64 1.22-1.237 1.22-1.237s.016-.048.032-.12l.019-.095c.049-.29.032-.725-.655-.288zm-3.11-.697c-.827.526-.525 1.485-.525 1.485-.075-.547 1.04-1.056 1.04-1.056s.313-.956-.515-.43z"/>
                    <path d="M15.03 9.119c.622.627 1.688 1.364 2.617 3.554.652 1.537.497 2.755.273 3.477-.134-.1-.279-.185-.43-.256.118-.508.136-1.343-.23-2.616-.559-1.939-1.677-2.512-2.303-2.897l-.078-.05-.809.109c-.809.108.336-1.947.96-1.321zm1.712 3.161l.172.41c-.017.214-.275 1.166-.834 1.646a8.063 8.063 0 01-1.691 1.11 2.175 2.175 0 00-.352-.194l-.246.111c.763-.327 1.4-.739 1.912-1.235a3.764 3.764 0 001.039-1.848z"/>
                </g>
            </g>
        </g>
    </g>
</svg>
