<svg width="252" height="215" xmlns="http://www.w3.org/2000/svg"><defs><radialGradient cx="50%" cy="50%" fx="50%" fy="50%" r="48.24%" gradientTransform="matrix(.99533 -.09639 .09657 .99345 -.046 .051)" id="radialGradient-2"><stop stop-color="#C7C7C7" stop-opacity="0" offset="0%"/><stop stop-color="#B1B1B1" stop-opacity=".307" offset="20.082%"/><stop stop-color="#8D8D8D" stop-opacity=".1" offset="61.565%"/><stop stop-color="#6A6A6A" stop-opacity="0" offset="100%"/></radialGradient><linearGradient x1="50%" y1="0%" x2="50%" y2="100%" id="linearGradient-1"><stop stop-color="#FFF" stop-opacity="0" offset="0%"/><stop stop-color="#FFF" offset="100%"/></linearGradient></defs><g id="Assets" stroke="none" stroke-width="1" fill="none" fill-rule="evenodd"><g id="Group-4-Copy" fill="url(#linearGradient-1)"><g id="Chip-Copy" transform="translate(42)"><path d="M0 0h167l-23.514 110.232c-.07.89-.846 2.8-2.33 5.73-2.225 4.395-16.462 22.972-55.855 22.972-39.392 0-53.981-16.279-57.106-20.784-2.083-3.003-3.314-5.542-3.695-7.616L0 0z" id="Volume"/></g></g><path d="M490.992-215.562L750-219.756c-1.262-25.017-.188-12.519-3.256-37.48L490.915-216.48c-.015-.107-.047-.228-.063-.346-.029-.116-.055-.227-.087-.34l249.851-68.497c-7.54-24.115-3.345-12.226-12.573-35.674L490.461-218.028c-.05-.115-.102-.22-.145-.321-.056-.104-.113-.21-.173-.308l224.868-128.647c-13.232-21.33-6.244-10.92-20.946-31.236L489.644-219.422c-.083-.086-.156-.184-.237-.274a3.8 3.8 0 00-.237-.257l185.923-180.405c-18.062-17.355-8.737-9.006-27.992-25.058L488.483-220.567c-.092-.068-.183-.134-.278-.209-.1-.066-.201-.13-.295-.193l135.352-220.929c-21.952-12.411-10.778-6.613-33.512-17.408l-102.652 237.92a8.411 8.411 0 00-.33-.128c-.111-.043-.218-.087-.333-.117l75.947-247.75c-24.337-6.523-12.083-3.71-36.795-8.47l-40.046 256.02c-.113-.02-.222-.04-.35-.053-.109-.008-.233-.013-.345-.026L496.8-480.763c-25.124-.288-12.571-.588-37.545.886l24.664 257.993c-.117.013-.231.022-.357.04-.115.02-.218.039-.338.063l-52.79-253.762c-24.493 5.995-12.354 2.56-36.396 10.296l88.303 243.714c-.107.04-.222.083-.327.135-.11.038-.222.092-.327.141L367.262-453.86c-22.128 11.882-11.289 5.554-32.517 18.967l146.15 214.095c-.092.077-.188.141-.282.207-.092.073-.186.148-.274.222L311.766-417.315c-18.45 16.936-9.531 8.152-26.736 26.35l194.66 171.248c-.072.085-.15.171-.23.269-.064.086-.141.184-.216.284l-212.165-149.05c-13.727 21.058-7.24 10.29-19.466 32.326L478.78-218.379c-.05.094-.105.208-.154.312-.047.108-.092.22-.137.33l-242.63-91.54c-8.056 23.898-4.46 11.83-10.793 36.246l253.162 56.17c-.021.12-.044.236-.064.347-.017.116-.034.227-.047.347l-257.755-28.305c-1.85 25.05 3.996 12.327 3.913 37.454l253.806-8.226c.006.116.013.234.023.347l.039.357-256.738 36.521c4.433 24.837 1.779 12.528 7.972 36.966l248.958-72.591.112.338c.038.103.087.21.128.323L239.045-113.6c10.51 22.915 4.861 11.66 16.928 33.713l223.002-132.279c.068.1.135.207.192.3.073.094.143.194.212.288L272.12-55.818c15.754 19.459 7.54 10.022 24.63 28.328l183.224-183.393a16.206 16.206 0 00.524.468L318.307-8.195C338.434 6.803 328.132-.32 349.27 13.22L481.252-209.9c.1.06.205.11.314.176.103.05.208.097.317.148l-106.795 236.2c23.38 9.565 11.538 5.204 35.496 13.066l72.158-248.948c.118.04.218.065.334.09.124.028.239.049.355.07L438.988 46.224c24.77 3.394 12.318 2.128 37.365 3.775l7.995-259.005c.113.006.237 0 .344.006.13-.006.24-.015.357-.019l20.228 258.332c25.017-2.853 12.568-.984 37.34-5.62l-56.663-252.85c.118-.027.227-.055.342-.09l.334-.103 84.044 245.1c23.503-9.006 11.912-4.081 34.754-14.765L487.476-209.713c.1-.05.206-.107.308-.167.1-.06.197-.12.299-.175L630.468 6.38c20.43-14.514 10.49-6.906 29.835-22.817L488.81-210.626c.09-.07.176-.154.253-.233.09-.092.171-.17.263-.255l191.57 174.377c16.22-19.13 8.456-9.29 23.29-29.536L489.877-211.835c.07-.098.134-.201.198-.292.05-.103.11-.21.17-.308l228.93 121.27c11.005-22.675 5.908-11.144 15.28-34.606l-243.84-87.505c.038-.11.072-.224.115-.338.021-.107.06-.224.087-.336l251.938 60.319c4.975-24.656 2.938-12.284 6.13-37.12L490.968-214.85c.004-.12.017-.237.02-.364.004-.115 0-.237.004-.348z" id="Shines" fill="url(#radialGradient-2)"/></g></svg>