<?xml version="1.0" encoding="UTF-8"?>
<svg width="31px" height="40px" viewBox="0 0 31 40" version="1.1" xmlns="http://www.w3.org/2000/svg" xmlns:xlink="http://www.w3.org/1999/xlink">
    <!-- Generator: Sketch 60 (88103) - https://sketch.com -->
    <title>rng-chips</title>
    <desc>Created with Sketch.</desc>
    <defs>
        <path d="M26,0 C40.3594035,-2.63777963e-15 52,11.6405965 52,26 C52,40.3594035 40.3594035,52 26,52 C11.6405965,52 1.75851975e-15,40.3594035 0,26 C-1.75851975e-15,11.6405965 11.6405965,2.63777963e-15 26,0 Z" id="path-1"></path>
    </defs>
    <g id="Page-1" stroke="none" stroke-width="1" fill="none" fill-rule="evenodd">
        <g id="assets" transform="translate(-240.000000, -107.000000)">
            <g id="rng-chips" transform="translate(240.000000, 95.000000)">
                <mask id="mask-2" fill="white">
                    <use xlink:href="#path-1"></use>
                </mask>
                <g id="Mask"></g>
                <g id="red" mask="url(#mask-2)">
                    <g transform="translate(-10.000000, 12.000000)">
                        <circle id="bg" stroke="none" fill="#FB4A2D" cx="15" cy="15" r="15"></circle>
                        <path d="M16.3891924,27.0366067 L16.7202288,29.9024339 C16.1557421,29.9668838 15.5817384,30 15,30 C14.4182616,30 13.8442579,29.9668838 13.2797712,29.9024339 L13.6114396,27.0366788 C14.0670957,27.0886704 14.5304281,27.1153846 15,27.1153846 C15.469789,27.1153846 15.9333327,27.0886457 16.3891924,27.0366067 Z M21.8457839,25.7033994 C22.0050968,25.9793374 21.9105534,26.332178 21.6346154,26.4914909 C21.3586773,26.6508038 21.0058367,26.5562605 20.8465238,26.2803224 C20.6872109,26.0043844 20.7817543,25.6515438 21.0576923,25.4922309 C21.3336304,25.3329179 21.686471,25.4274613 21.8457839,25.7033994 Z M8.94230769,25.4922309 C9.21824574,25.6515438 9.3127891,26.0043844 9.15347619,26.2803224 C8.99416329,26.5562605 8.64132267,26.6508038 8.36538462,26.4914909 C8.08944656,26.332178 7.9949032,25.9793374 8.15421611,25.7033994 C8.31352902,25.4274613 8.66636964,25.3329179 8.94230769,25.4922309 Z M4.05509257,20.2019317 C4.45641504,21.0448129 4.95223613,21.8340214 5.52885611,22.5558575 L3.27359404,24.354586 C2.5598878,23.4610954 1.94616884,22.484236 1.44938566,21.4409562 L4.05509257,20.2019317 Z M25.9449074,20.2019317 L28.5506143,21.4409562 C28.0538312,22.484236 27.4401122,23.4610954 26.726406,24.354586 L24.4711439,22.5558575 C25.0477639,21.8340214 25.543585,21.0448129 25.9449074,20.2019317 Z M2.30769231,14.4230769 C2.62631812,14.4230769 2.88461538,14.6813742 2.88461538,15 C2.88461538,15.3186258 2.62631812,15.5769231 2.30769231,15.5769231 C1.98906649,15.5769231 1.73076923,15.3186258 1.73076923,15 C1.73076923,14.6813742 1.98906649,14.4230769 2.30769231,14.4230769 Z M27.6923077,14.4230769 C28.0109335,14.4230769 28.2692308,14.6813742 28.2692308,15 C28.2692308,15.3186258 28.0109335,15.5769231 27.6923077,15.5769231 C27.3736819,15.5769231 27.1153846,15.3186258 27.1153846,15 C27.1153846,14.6813742 27.3736819,14.4230769 27.6923077,14.4230769 Z M3.27359404,5.64541402 L5.52885611,7.44414252 C4.95223613,8.16597859 4.45641504,8.95518708 4.05509257,9.79806826 L1.44938566,8.55904385 C1.94616884,7.515764 2.5598878,6.53890455 3.27359404,5.64541402 Z M26.726406,5.64541402 C27.4401122,6.53890455 28.0538312,7.515764 28.5506143,8.55904385 L25.9449074,9.79806826 C25.543585,8.95518708 25.0477639,8.16597859 24.4711439,7.44414252 L26.726406,5.64541402 Z M9.15347619,3.71967757 C9.3127891,3.99561562 9.21824574,4.34845624 8.94230769,4.50776915 C8.66636964,4.66708206 8.31352902,4.5725387 8.15421611,4.29660064 C7.9949032,4.02066259 8.08944656,3.66782197 8.36538462,3.50850907 C8.64132267,3.34919616 8.99416329,3.44373952 9.15347619,3.71967757 Z M21.6346154,3.50850907 C21.9105534,3.66782197 22.0050968,4.02066259 21.8457839,4.29660064 C21.686471,4.5725387 21.3336304,4.66708206 21.0576923,4.50776915 C20.7817543,4.34845624 20.6872109,3.99561562 20.8465238,3.71967757 C21.0058367,3.44373952 21.3586773,3.34919616 21.6346154,3.50850907 Z M15,0 C15.5817384,0 16.1557421,0.0331161623 16.7202288,0.0975661486 L16.3891924,2.96339333 C15.9333327,2.91135433 15.469789,2.88461538 15,2.88461538 C14.5304281,2.88461538 14.0670957,2.91132962 13.6114396,2.9633212 L13.2797712,0.0975661486 C13.8442579,0.0331161623 14.4182616,0 15,0 Z" id="shape" stroke="none" fill="#FFFFFF"></path>
                        <circle id="border-inner" stroke="#FFFFFF" stroke-width="0.704603572" fill="#D72E13" cx="15" cy="15" r="10.0323136"></circle>
                    </g>
                </g>
                <g id="green" mask="url(#mask-2)">
                    <g transform="translate(1.000000, 29.000000)">
                        <circle id="bg" stroke="none" fill="#30C630" cx="15" cy="15" r="15"></circle>
                        <path d="M16.3891924,27.0366067 L16.7202288,29.9024339 C16.1557421,29.9668838 15.5817384,30 15,30 C14.4182616,30 13.8442579,29.9668838 13.2797712,29.9024339 L13.6114396,27.0366788 C14.0670957,27.0886704 14.5304281,27.1153846 15,27.1153846 C15.469789,27.1153846 15.9333327,27.0886457 16.3891924,27.0366067 Z M21.8457839,25.7033994 C22.0050968,25.9793374 21.9105534,26.332178 21.6346154,26.4914909 C21.3586773,26.6508038 21.0058367,26.5562605 20.8465238,26.2803224 C20.6872109,26.0043844 20.7817543,25.6515438 21.0576923,25.4922309 C21.3336304,25.3329179 21.686471,25.4274613 21.8457839,25.7033994 Z M8.94230769,25.4922309 C9.21824574,25.6515438 9.3127891,26.0043844 9.15347619,26.2803224 C8.99416329,26.5562605 8.64132267,26.6508038 8.36538462,26.4914909 C8.08944656,26.332178 7.9949032,25.9793374 8.15421611,25.7033994 C8.31352902,25.4274613 8.66636964,25.3329179 8.94230769,25.4922309 Z M4.05509257,20.2019317 C4.45641504,21.0448129 4.95223613,21.8340214 5.52885611,22.5558575 L3.27359404,24.354586 C2.5598878,23.4610954 1.94616884,22.484236 1.44938566,21.4409562 L4.05509257,20.2019317 Z M25.9449074,20.2019317 L28.5506143,21.4409562 C28.0538312,22.484236 27.4401122,23.4610954 26.726406,24.354586 L24.4711439,22.5558575 C25.0477639,21.8340214 25.543585,21.0448129 25.9449074,20.2019317 Z M2.30769231,14.4230769 C2.62631812,14.4230769 2.88461538,14.6813742 2.88461538,15 C2.88461538,15.3186258 2.62631812,15.5769231 2.30769231,15.5769231 C1.98906649,15.5769231 1.73076923,15.3186258 1.73076923,15 C1.73076923,14.6813742 1.98906649,14.4230769 2.30769231,14.4230769 Z M27.6923077,14.4230769 C28.0109335,14.4230769 28.2692308,14.6813742 28.2692308,15 C28.2692308,15.3186258 28.0109335,15.5769231 27.6923077,15.5769231 C27.3736819,15.5769231 27.1153846,15.3186258 27.1153846,15 C27.1153846,14.6813742 27.3736819,14.4230769 27.6923077,14.4230769 Z M3.27359404,5.64541402 L5.52885611,7.44414252 C4.95223613,8.16597859 4.45641504,8.95518708 4.05509257,9.79806826 L1.44938566,8.55904385 C1.94616884,7.515764 2.5598878,6.53890455 3.27359404,5.64541402 Z M26.726406,5.64541402 C27.4401122,6.53890455 28.0538312,7.515764 28.5506143,8.55904385 L25.9449074,9.79806826 C25.543585,8.95518708 25.0477639,8.16597859 24.4711439,7.44414252 L26.726406,5.64541402 Z M9.15347619,3.71967757 C9.3127891,3.99561562 9.21824574,4.34845624 8.94230769,4.50776915 C8.66636964,4.66708206 8.31352902,4.5725387 8.15421611,4.29660064 C7.9949032,4.02066259 8.08944656,3.66782197 8.36538462,3.50850907 C8.64132267,3.34919616 8.99416329,3.44373952 9.15347619,3.71967757 Z M21.6346154,3.50850907 C21.9105534,3.66782197 22.0050968,4.02066259 21.8457839,4.29660064 C21.686471,4.5725387 21.3336304,4.66708206 21.0576923,4.50776915 C20.7817543,4.34845624 20.6872109,3.99561562 20.8465238,3.71967757 C21.0058367,3.44373952 21.3586773,3.34919616 21.6346154,3.50850907 Z M15,0 C15.5817384,0 16.1557421,0.0331161623 16.7202288,0.0975661486 L16.3891924,2.96339333 C15.9333327,2.91135433 15.469789,2.88461538 15,2.88461538 C14.5304281,2.88461538 14.0670957,2.91132962 13.6114396,2.9633212 L13.2797712,0.0975661486 C13.8442579,0.0331161623 14.4182616,0 15,0 Z" id="shape" stroke="none" fill="#FFFFFF"></path>
                        <circle id="border-inner" stroke="#FFFFFF" stroke-width="0.704603572" fill="#1C991C" cx="15" cy="15" r="10.0323136"></circle>
                    </g>
                </g>
            </g>
        </g>
    </g>
</svg>