<?xml version="1.0" encoding="UTF-8"?>
<svg width="62px" height="33px" viewBox="0 0 62 33" version="1.1" xmlns="http://www.w3.org/2000/svg" xmlns:xlink="http://www.w3.org/1999/xlink">
    <!-- Generator: Sketch 52.1 (67048) - http://www.bohemiancoding.com/sketch -->
    <title>selected</title>
    <desc>Created with Sketch.</desc>
    <defs>
        <linearGradient x1="39.4477624%" y1="-6.11696168%" x2="60.5928063%" y2="106.542684%" id="linearGradient-1">
            <stop stop-color="#FF3030" offset="0%"></stop>
            <stop stop-color="#D71B1B" offset="44%"></stop>
            <stop stop-color="#B20808" offset="100%"></stop>
        </linearGradient>
        <linearGradient x1="0.0016771497%" y1="49.9887968%" x2="100.027331%" y2="49.9887968%" id="linearGradient-2">
            <stop stop-color="#C7B45E" offset="0%"></stop>
            <stop stop-color="#DCCC6E" offset="23%"></stop>
            <stop stop-color="#9C853E" offset="99%"></stop>
        </linearGradient>
        <linearGradient x1="39.4829527%" y1="-6.26839164%" x2="60.5214051%" y2="106.592087%" id="linearGradient-3">
            <stop stop-color="#F4EEA9" offset="0%"></stop>
            <stop stop-color="#ECE493" offset="34%"></stop>
            <stop stop-color="#E6DD8E" offset="38%"></stop>
            <stop stop-color="#8D6C3A" offset="99%"></stop>
        </linearGradient>
        <linearGradient x1="22.9044221%" y1="102.755376%" x2="77.1380295%" y2="-2.3297491%" id="linearGradient-4">
            <stop stop-color="#F3EBB0" offset="10%"></stop>
            <stop stop-color="#DDD082" offset="61%"></stop>
            <stop stop-color="#D5C779" offset="70%"></stop>
            <stop stop-color="#BEAD60" offset="86%"></stop>
            <stop stop-color="#AB984B" offset="97%"></stop>
        </linearGradient>
    </defs>
    <g id="selected" stroke="none" stroke-width="1" fill="none" fill-rule="evenodd">
        <g>
            <path d="M34.0707965,32.7079646 C21.1784071,32.7079646 9.2740708,28.619469 3.74097345,22.2754867 C1.3900885,19.549823 0.333893805,16.640177 0.735929204,13.7714159 C1.81938053,5.90787611 13.8123009,0 28.6535398,0 C43.4947788,0 57.4161062,5.87380531 61.1025664,13.6692035 C62.5950856,16.613024 62.3894657,20.1319883 60.5642478,22.8819469 C56.7415044,28.919292 46.5952212,32.7079646 34.0707965,32.7079646 Z M28.619469,0.504247788 C14.0507965,0.470176991 2.25548673,6.20088496 1.23336283,13.8054867 C0.86539823,16.5311504 1.86026549,19.3453982 4.12256637,21.9347788 C9.57389381,28.1697345 21.3419469,32.2037168 34.1048673,32.2037168 C46.4453097,32.2037168 56.4348673,28.5376991 60.1690265,22.6638938 C61.9048994,20.0353172 62.0872635,16.6746067 60.6460177,13.8736283 C57.0617699,6.23495575 43.2971681,0.470176991 28.6535398,0.470176991 L28.619469,0.504247788 Z" id="Shape" fill="#F4F4F4" fill-rule="nonzero" opacity="0.2"></path>
            <path d="M28.6535398,0.470176991 C14.0507965,0.470176991 2.25548673,6.20088496 1.23336283,13.8054867 C0.86539823,16.5311504 1.86026549,19.3453982 4.12256637,21.9347788 C9.57389381,28.1697345 21.3419469,32.2037168 34.1048673,32.2037168 C46.4453097,32.2037168 56.4348673,28.5376991 60.1690265,22.6638938 C61.9048994,20.0353172 62.0872635,16.6746067 60.6460177,13.8736283 C57.0617699,6.23495575 43.2971681,0.470176991 28.6535398,0.470176991 Z" id="Path" fill="#000000" opacity="0.3"></path>
            <path d="M34.009469,31.5427434 C53.0482301,31.5427434 64.2847788,22.8887611 59.9032743,13.9076991 C56.2849558,6.39168142 42.5476106,1.13115044 28.7421239,1.13115044 C14.9366372,1.13115044 3.02548673,6.39168142 1.98292035,13.9145133 C0.735929204,22.8887611 14.9911504,31.5427434 34.009469,31.5427434 Z" id="Path" fill="url(#linearGradient-1)"></path>
            <path d="M34.009469,31.5427434 C53.0482301,31.5427434 64.2847788,22.8887611 59.9032743,13.9076991 C56.2849558,6.39168142 42.5476106,1.13115044 28.7421239,1.13115044 C14.9366372,1.13115044 3.02548673,6.39168142 1.98292035,13.9145133 C0.735929204,22.8887611 14.9911504,31.5427434 34.009469,31.5427434 Z M33.1713274,26.6978761 C19.25,26.6978761 8.26557522,20.5651327 8.58584071,13.8054867 C8.85840708,7.86353982 18.0643363,3.53654867 29.1577876,3.53654867 C40.2512389,3.53654867 50.9630973,7.86353982 53.2867257,13.8123009 C55.9442478,20.5446903 47.0858407,26.6978761 33.1713274,26.6978761 Z" id="Shape" fill="url(#linearGradient-2)" fill-rule="nonzero"></path>
            <path d="M53.2935398,13.8054867 C50.949469,7.86353982 40.2512389,3.53654867 29.1577876,3.53654867 C18.0643363,3.53654867 8.85840708,7.86353982 8.58584071,13.8054867 C8.35415929,18.6707965 14.0371681,23.229469 22.4322124,25.3895575 C14.2552212,23.2771681 8.72893805,18.8615929 8.95380531,14.1530088 C9.23318584,8.36778761 18.2823894,4.15663717 29.1918584,4.15663717 C40.1013274,4.15663717 50.6223894,8.36778761 52.9255752,14.1530088 C55.5353982,20.7014159 46.8337168,26.6910619 33.1645133,26.6910619 C47.0858407,26.6978761 55.9442478,20.5446903 53.2935398,13.8054867 Z" id="Path" fill="url(#linearGradient-3)"></path>
            <path d="M28.7421239,1.36283186 C42.9292035,1.36283186 56.2236283,6.81415929 59.719292,14.0167257 C61.0551155,16.603512 60.888307,19.7103203 59.2831858,22.1392035 C55.739823,27.7949558 46.0432743,31.3110619 33.9822124,31.3110619 C21.4918584,31.3110619 10.0576991,27.4406195 4.84486726,21.4577876 C2.75973451,19.0660177 1.83982301,16.469823 2.18734513,13.9622124 C3.20946903,6.77327434 14.6163717,1.36283186 28.7421239,1.36283186 Z M28.7421239,1.12433628 C14.9434513,1.13115044 3.02548673,6.39168142 1.98292035,13.9145133 C0.735929204,22.8887611 14.9911504,31.5427434 34.009469,31.5427434 C53.0277876,31.5427434 64.2847788,22.8887611 59.9032743,13.9076991 C56.2849558,6.39168142 42.5476106,1.13115044 28.7421239,1.13115044 L28.7421239,1.12433628 Z" id="Shape" fill="url(#linearGradient-4)" fill-rule="nonzero"></path>
            <path d="M16.6197345,17.5123894 C16.7031501,17.7624312 16.760244,18.0204955 16.7900885,18.2823894 C16.818394,18.4808286 16.7774861,18.6829616 16.6742478,18.8547788 C16.5472343,19.0300631 16.3647514,19.1573209 16.1563717,19.2159292 C15.8245271,19.3122545 15.479629,19.3559416 15.1342478,19.3453982 L14.8548673,19.3453982 L14.5550442,19.3453982 L14.2688496,19.3045133 L14.0235398,19.25 L14.200708,18.5685841 L14.5414159,18.6435398 C14.6616023,18.6532819 14.78238,18.6532819 14.9025664,18.6435398 C15.0627805,18.6511815 15.2228471,18.6256637 15.3727434,18.5685841 C15.4638762,18.5404937 15.5414899,18.479858 15.5907965,18.3982301 C15.6216773,18.2890742 15.6216773,18.1734922 15.5907965,18.0643363 C15.5586295,17.9121823 15.5176759,17.7620192 15.4681416,17.6146018 L14.6913274,15.2092035 L15.8497345,15.2092035 L16.6197345,17.5123894 Z" id="Path" fill="#F7E893"></path>
            <path d="M22.33,19.1954867 L21.7099115,18.3982301 L19.2976991,18.3982301 L19.1341593,19.1886726 L17.9212389,19.1886726 L18.8888496,15.1615044 L20.2039823,15.1615044 L23.6110619,19.1750442 L22.33,19.1750442 L22.33,19.1954867 Z M20.5310619,16.9195575 L20.2857522,16.6061062 L20.0336283,16.2722124 L19.7610619,15.8906195 L19.7133628,16.2653982 C19.7133628,16.369882 19.6974631,16.4811799 19.6656637,16.599292 L19.6111504,16.9127434 L19.4339823,17.7713274 L21.2124779,17.7713274 L20.5310619,16.9195575 Z" id="Shape" fill="#F7E893" fill-rule="nonzero"></path>
            <path d="M28.619469,18.820708 C28.4124448,18.9723546 28.1823645,19.0896956 27.9380531,19.1682301 C27.5980016,19.2710022 27.2438255,19.3192989 26.8886726,19.3113274 C26.4826024,19.3148969 26.0776016,19.2691341 25.6825664,19.1750442 C25.323591,19.0898159 24.9791683,18.9520469 24.6604425,18.7661947 C24.3590701,18.5871258 24.0915186,18.356478 23.87,18.0847788 C23.646366,17.8131237 23.4774461,17.5007376 23.3725664,17.1648673 C23.2716192,16.8835442 23.2389228,16.58227 23.2771681,16.2858407 C23.3121887,16.0272532 23.4320185,15.7875937 23.6178761,15.6044248 C23.8321428,15.4045288 24.09168,15.259562 24.3742478,15.1819469 C24.7487755,15.0762214 25.1367276,15.0257187 25.5258407,15.0320354 C25.7536785,15.0287663 25.9814443,15.0424322 26.2072566,15.0729204 C26.391042,15.0979861 26.5731007,15.1343979 26.7523894,15.1819469 C26.9080862,15.2233292 27.0606519,15.2757025 27.2089381,15.3386726 L27.6041593,15.529469 L27.1612389,16.1018584 C26.9467876,15.9752609 26.718043,15.8746133 26.479823,15.8020354 C26.2581111,15.739246 26.028838,15.7071478 25.7984071,15.7066372 C25.4014861,15.6676527 25.0063045,15.7960868 24.7081416,16.0609735 C24.4807605,16.3780395 24.4466992,16.7946348 24.6195575,17.1444248 C24.6886023,17.3574996 24.7921951,17.5577791 24.9261947,17.7372566 C25.0595561,17.9160789 25.220574,18.0724962 25.4031858,18.2006195 C25.590942,18.331561 25.7978087,18.4326959 26.0164602,18.5004425 C26.2478482,18.573714 26.4892371,18.6104971 26.7319469,18.609469 C26.944439,18.6082895 27.1556252,18.5761524 27.3588496,18.5140708 C27.5659216,18.4521332 27.7599126,18.3528283 27.9312389,18.2210619 L28.619469,18.820708 Z" id="Path" fill="#F7E893"></path>
            <polygon id="Path" fill="#F7E893" points="33.0214159 19.1750442 30.3502655 17.4715044 30.9022124 19.1818584 29.7438053 19.1818584 28.4423009 15.1615044 29.600708 15.1615044 30.0913274 16.6810619 31.5223009 15.1546903 32.9600885 15.1546903 31.1202655 17.0353982 34.5273451 19.1750442"></polygon>
            <path d="M38.6090265,16.4561947 C38.6775598,16.6548755 38.6775598,16.8707882 38.6090265,17.069469 C38.5441643,17.2454676 38.4216893,17.3943588 38.2615044,17.4919469 C38.0522695,17.6155038 37.8207063,17.6965509 37.5800885,17.7304425 C37.2785899,17.7827869 36.9729899,17.8078735 36.6669912,17.8053982 L36.1150442,17.8053982 L36.5511504,19.1682301 L35.3927434,19.1682301 L34.0707965,15.1478761 L35.7675221,15.1478761 C36.4110862,15.1234374 37.0524079,15.2372953 37.6482301,15.4817699 C38.0960412,15.6497391 38.4473809,16.0060624 38.6090265,16.4561947 Z M37.4165487,16.4561947 C37.3808666,16.3426189 37.317665,16.2396236 37.2325664,16.1563717 C37.1407305,16.0705651 37.034665,16.0013919 36.919115,15.9519469 C36.7906157,15.8962795 36.6554984,15.8573474 36.5170796,15.8361062 C36.3638074,15.8121801 36.2088402,15.8007855 36.0537168,15.8020354 L35.4336283,15.8020354 L35.8765487,17.1648673 L36.4761947,17.1648673 C36.5986804,17.1739778 36.7216736,17.1739778 36.8441593,17.1648673 C36.9692814,17.1440701 37.0894397,17.1001661 37.1984956,17.0353982 C37.2901916,16.9868755 37.3641465,16.910535 37.4097345,16.8173451 C37.458224,16.7042097 37.458224,16.5761442 37.4097345,16.4630088 L37.4165487,16.4561947 Z" id="Shape" fill="#F7E893" fill-rule="nonzero"></path>
            <path d="M45.3277876,17.1716814 C45.4425029,17.4717954 45.4638791,17.7995641 45.389115,18.1120354 C45.3216608,18.378849 45.1713654,18.6174132 44.959823,18.7934513 C44.7290825,18.975503 44.4617986,19.1056586 44.1761947,19.1750442 C43.8465955,19.2585545 43.5077069,19.2997707 43.1676991,19.2976991 C42.8076383,19.2967512 42.4488086,19.2556115 42.0978761,19.1750442 C41.7456465,19.0985498 41.4060829,18.9723606 41.0893805,18.8002655 C40.7756364,18.6219107 40.4945176,18.3914855 40.2580531,18.1188496 C40.0088498,17.8392842 39.8229072,17.5092361 39.7129204,17.1512389 C39.6007932,16.8510252 39.5725255,16.5259467 39.6311504,16.210885 C39.6834929,15.9477086 39.8197805,15.7086076 40.0195575,15.529469 C40.2404495,15.3411999 40.501515,15.2060053 40.7827434,15.1342478 C41.1244313,15.0391925 41.4774604,14.9910521 41.8321239,14.9911504 C42.2151482,14.9906511 42.5969655,15.0340914 42.9700885,15.1206195 C43.3255191,15.200335 43.6675134,15.331165 43.9853982,15.5090265 C44.2953652,15.6871035 44.572044,15.9176692 44.8030973,16.1904425 C45.0436064,16.477963 45.2222246,16.8120022 45.3277876,17.1716814 Z M44.1216814,17.1716814 C43.99152,16.7373386 43.7206475,16.3585964 43.3516814,16.0950442 C42.9519897,15.8202638 42.4733478,15.6838509 41.9888496,15.7066372 C41.596465,15.6618769 41.2070247,15.8120533 40.9462832,16.1086726 C40.7463952,16.4390061 40.7209402,16.8462864 40.8781416,17.1989381 C40.9444539,17.4008247 41.0409452,17.5915099 41.1643363,17.7645133 C41.2887528,17.9418184 41.4405577,18.0982235 41.6140708,18.2278761 C41.7968662,18.3605267 41.9991606,18.4639727 42.2137168,18.5345133 C42.4464878,18.6125338 42.6905227,18.6516714 42.9360177,18.650354 C43.1687115,18.6591 43.4007019,18.6196616 43.6174336,18.5345133 C43.7798839,18.4695016 43.921325,18.3610634 44.0262832,18.2210619 C44.1386843,18.0762727 44.2030117,17.899968 44.2102655,17.7168142 C44.2163971,17.5221808 44.1863607,17.3280993 44.1216814,17.1444248 L44.1216814,17.1716814 Z" id="Shape" fill="#F7E893" fill-rule="nonzero"></path>
            <polygon id="Path" fill="#F7E893" points="48.2374336 15.8156637 49.3140708 19.1409735 48.1556637 19.1409735 47.0790265 15.8156637 45.2732743 15.8156637 45.0484071 15.1342478 49.8183186 15.1342478 50.0431858 15.8156637"></polygon>
            <path d="M36.7964602,9.53982301 C36.4421239,9.53982301 36.2376991,9.71699115 36.3330973,9.93504425 L36.3330973,9.98955752 L33.4370796,10.2348673 L32.3672566,8.68123894 C32.6602655,8.68123894 32.8238053,8.49044248 32.7352212,8.29283186 C32.5525031,8.02851083 32.2451063,7.87868719 31.9243363,7.89761062 C31.57,7.89761062 31.3655752,8.07477876 31.4609735,8.29283186 C31.5244579,8.41055049 31.6250759,8.50398147 31.7471681,8.55858407 L29.900531,9.96230088 L26.8341593,8.56539823 C26.9097364,8.49898466 26.9319999,8.39045024 26.8886726,8.29964602 C26.7059544,8.03532499 26.3985577,7.88550135 26.0777876,7.90442478 C25.7234513,7.90442478 25.5190265,8.08159292 25.6144248,8.29964602 C25.7680101,8.52889142 26.0203292,8.6727133 26.2958407,8.6880531 L26.5752212,10.2621239 L23.3453097,10.01 C23.3481601,9.98737556 23.3481601,9.96448285 23.3453097,9.94185841 C23.1629197,9.67278697 22.852065,9.51995008 22.5276106,9.53982301 C22.1732743,9.53982301 21.9688496,9.71699115 22.0642478,9.93504425 C22.2469659,10.1993653 22.5543627,10.3491889 22.8751327,10.3302655 C23.0177604,10.341943 23.1599813,10.3033746 23.2771681,10.2212389 L27.2225664,12.5857522 C27.2225664,12.5857522 30.1662832,11.4273451 34.8612389,12.5857522 L36.7010619,10.2689381 C36.8432054,10.330116 36.9960571,10.3625391 37.1507965,10.3643363 C37.5051327,10.3643363 37.7095575,10.1871681 37.6141593,9.96911504 C37.4383762,9.68965194 37.1263135,9.52581903 36.7964602,9.53982301 Z" id="Path" fill="#F7E893"></path>
            <polygon id="Path" fill="#FFF6D2" points="29.0419469 2.42584071 28.1424779 3.07318584 26.8273451 2.47353982 27.7336283 1.82619469"></polygon>
            <polygon id="Path" fill="#FFF0B3" points="16.9127434 3.98628319 16.810531 4.81761062 15.1206195 4.57911504 15.229646 3.75460177"></polygon>
            <polygon id="Path" fill="#FFF0B3" points="8.23831858 8.51088496 9.10371681 9.4239823 7.19575221 9.66929204 6.33035398 8.74938053"></polygon>
            <polygon id="Path" fill="#FFF0B3" points="5.36955752 15.1410619 7.1139823 15.7952212 5.67619469 16.5584071 3.91814159 15.9042478"></polygon>
            <polygon id="Path" fill="#FFF0B3" points="9.75106195 22.1800885 11.9179646 22.3095575 11.4682301 23.4202655 9.28769912 23.2907965"></polygon>
            <polygon id="Path" fill="#FFF0B3" points="20.6128319 27.4951327 22.5548673 27.0181416 23.2907965 28.1561062 21.3419469 28.6330973"></polygon>
            <polygon id="Path" fill="#FFF0B3" points="34.779469 29.26 35.8833628 28.3060177 37.5732743 29.1237168 36.4693805 30.0845133"></polygon>
            <polygon id="Path" fill="#FFF0B3" points="47.5764602 27.0590265 47.5492035 25.9210619 49.6275221 26.2004425 49.6684071 27.3452212"></polygon>
            <polygon id="Path" fill="#FFF0B3" points="55.2832743 21.8461947 54.2134513 20.8445133 56.0669027 20.5583186 57.1435398 21.5531858"></polygon>
            <polygon id="Path" fill="#FFF0B3" points="57.1367257 15.0661062 55.399115 14.4460177 56.5575221 13.7237168 58.2883186 14.3438053"></polygon>
            <polygon id="Path" fill="#FFF0B3" points="51.8557522 8.66079646 49.9682301 8.53132743 50.1930973 7.61823009 52.0738053 7.74769912"></polygon>
            <polygon id="Path" fill="#FFF0B3" points="41.620885 4.10893805 40.1285841 4.42238938 39.4880531 3.59787611 40.980354 3.28442478"></polygon>
        </g>
    </g>
</svg>