<?xml version="1.0" encoding="UTF-8"?>
<svg width="62px" height="33px" viewBox="0 0 62 33" version="1.1" xmlns="http://www.w3.org/2000/svg" xmlns:xlink="http://www.w3.org/1999/xlink">
    <!-- Generator: Sketch 52.1 (67048) - http://www.bohemiancoding.com/sketch -->
    <title>selected</title>
    <desc>Created with Sketch.</desc>
    <defs>
        <linearGradient x1="39.4340859%" y1="-6.07476636%" x2="60.5822397%" y2="106.52648%" id="linearGradient-1">
            <stop stop-color="#7B1539" offset="0%"></stop>
            <stop stop-color="#791438" offset="21%"></stop>
            <stop stop-color="#6E1034" offset="43%"></stop>
            <stop stop-color="#59072D" offset="92%"></stop>
        </linearGradient>
        <linearGradient x1="-0.000670042299%" y1="50.0155763%" x2="99.9928814%" y2="50.0155763%" id="linearGradient-2">
            <stop stop-color="#C7B45E" offset="0%"></stop>
            <stop stop-color="#DCCC6E" offset="23%"></stop>
            <stop stop-color="#9C853E" offset="99%"></stop>
        </linearGradient>
        <linearGradient x1="39.6498061%" y1="-6.85628179%" x2="60.4313091%" y2="106.893954%" id="linearGradient-3">
            <stop stop-color="#F4EEA9" offset="0%"></stop>
            <stop stop-color="#ECE493" offset="34%"></stop>
            <stop stop-color="#E6DD8E" offset="38%"></stop>
            <stop stop-color="#8D6C3A" offset="99%"></stop>
        </linearGradient>
        <linearGradient x1="22.8856773%" y1="102.741433%" x2="77.1194269%" y2="-2.32087227%" id="linearGradient-4">
            <stop stop-color="#F3EBB0" offset="10%"></stop>
            <stop stop-color="#DDD082" offset="61%"></stop>
            <stop stop-color="#D5C779" offset="70%"></stop>
            <stop stop-color="#BEAD60" offset="86%"></stop>
            <stop stop-color="#AB984B" offset="97%"></stop>
        </linearGradient>
        <linearGradient x1="2.43150638%" y1="49.4609378%" x2="102.374641%" y2="49.4609378%" id="linearGradient-5">
            <stop stop-color="#B69553" offset="6%"></stop>
            <stop stop-color="#D0BD67" offset="21%"></stop>
            <stop stop-color="#EEDF8A" offset="34%"></stop>
            <stop stop-color="#E5D681" offset="42%"></stop>
            <stop stop-color="#CEBE6B" offset="55%"></stop>
            <stop stop-color="#B99D54" offset="70%"></stop>
            <stop stop-color="#B08F4A" offset="76%"></stop>
            <stop stop-color="#CDB864" offset="89%"></stop>
            <stop stop-color="#EADB85" offset="100%"></stop>
        </linearGradient>
        <linearGradient x1="62.4735561%" y1="100.017815%" x2="46.2262719%" y2="0.0337629025%" id="linearGradient-6">
            <stop stop-color="#C4AD5C" offset="6%"></stop>
            <stop stop-color="#B5974E" offset="10%"></stop>
            <stop stop-color="#A88342" offset="15%"></stop>
            <stop stop-color="#A37C3E" offset="18%"></stop>
            <stop stop-color="#A3803E" offset="25%"></stop>
            <stop stop-color="#B0924B" offset="31%"></stop>
            <stop stop-color="#CEBE6B" offset="43%"></stop>
            <stop stop-color="#E5D681" offset="59%"></stop>
            <stop stop-color="#EEDF8A" offset="69%"></stop>
            <stop stop-color="#CAB469" offset="86%"></stop>
            <stop stop-color="#C2A85A" offset="98%"></stop>
        </linearGradient>
        <linearGradient x1="-31.4816977%" y1="126.577828%" x2="-31.4816977%" y2="16.6969791%" id="linearGradient-7">
            <stop stop-color="#C4AD5C" offset="6%"></stop>
            <stop stop-color="#B5974E" offset="10%"></stop>
            <stop stop-color="#A88342" offset="15%"></stop>
            <stop stop-color="#A37C3E" offset="18%"></stop>
            <stop stop-color="#A3803E" offset="25%"></stop>
            <stop stop-color="#B0924B" offset="31%"></stop>
            <stop stop-color="#CEBE6B" offset="43%"></stop>
            <stop stop-color="#E5D681" offset="59%"></stop>
            <stop stop-color="#EEDF8A" offset="69%"></stop>
            <stop stop-color="#CAB469" offset="86%"></stop>
            <stop stop-color="#C2A85A" offset="98%"></stop>
        </linearGradient>
        <linearGradient x1="4.89261005%" y1="126.484928%" x2="4.89261005%" y2="16.9063917%" id="linearGradient-8">
            <stop stop-color="#C4AD5C" offset="6%"></stop>
            <stop stop-color="#B5974E" offset="10%"></stop>
            <stop stop-color="#A88342" offset="15%"></stop>
            <stop stop-color="#A37C3E" offset="18%"></stop>
            <stop stop-color="#A3803E" offset="25%"></stop>
            <stop stop-color="#B0924B" offset="31%"></stop>
            <stop stop-color="#CEBE6B" offset="43%"></stop>
            <stop stop-color="#E5D681" offset="59%"></stop>
            <stop stop-color="#EEDF8A" offset="69%"></stop>
            <stop stop-color="#CAB469" offset="86%"></stop>
            <stop stop-color="#C2A85A" offset="98%"></stop>
        </linearGradient>
        <linearGradient x1="14.1770075%" y1="114.569814%" x2="14.1770075%" y2="4.60411523%" id="linearGradient-9">
            <stop stop-color="#C4AD5C" offset="6%"></stop>
            <stop stop-color="#B5974E" offset="10%"></stop>
            <stop stop-color="#A88342" offset="15%"></stop>
            <stop stop-color="#A37C3E" offset="18%"></stop>
            <stop stop-color="#A3803E" offset="25%"></stop>
            <stop stop-color="#B0924B" offset="31%"></stop>
            <stop stop-color="#CEBE6B" offset="43%"></stop>
            <stop stop-color="#E5D681" offset="59%"></stop>
            <stop stop-color="#EEDF8A" offset="69%"></stop>
            <stop stop-color="#CAB469" offset="86%"></stop>
            <stop stop-color="#C2A85A" offset="98%"></stop>
        </linearGradient>
        <linearGradient x1="1.51480483%" y1="120.914514%" x2="1.51480483%" y2="11.0045035%" id="linearGradient-10">
            <stop stop-color="#C4AD5C" offset="6%"></stop>
            <stop stop-color="#B5974E" offset="10%"></stop>
            <stop stop-color="#A88342" offset="15%"></stop>
            <stop stop-color="#A37C3E" offset="18%"></stop>
            <stop stop-color="#A3803E" offset="25%"></stop>
            <stop stop-color="#B0924B" offset="31%"></stop>
            <stop stop-color="#CEBE6B" offset="43%"></stop>
            <stop stop-color="#E5D681" offset="59%"></stop>
            <stop stop-color="#EEDF8A" offset="69%"></stop>
            <stop stop-color="#CAB469" offset="86%"></stop>
            <stop stop-color="#C2A85A" offset="98%"></stop>
        </linearGradient>
        <linearGradient x1="-17.8706418%" y1="126.10025%" x2="-17.8706418%" y2="16.469986%" id="linearGradient-11">
            <stop stop-color="#C4AD5C" offset="6%"></stop>
            <stop stop-color="#B5974E" offset="10%"></stop>
            <stop stop-color="#A88342" offset="15%"></stop>
            <stop stop-color="#A37C3E" offset="18%"></stop>
            <stop stop-color="#A3803E" offset="25%"></stop>
            <stop stop-color="#B0924B" offset="31%"></stop>
            <stop stop-color="#CEBE6B" offset="43%"></stop>
            <stop stop-color="#E5D681" offset="59%"></stop>
            <stop stop-color="#EEDF8A" offset="69%"></stop>
            <stop stop-color="#CAB469" offset="86%"></stop>
            <stop stop-color="#C2A85A" offset="98%"></stop>
        </linearGradient>
        <linearGradient x1="55.7571401%" y1="100.361058%" x2="38.4460569%" y2="0.334140463%" id="linearGradient-12">
            <stop stop-color="#BCA156" offset="0%"></stop>
            <stop stop-color="#D6C56C" offset="42%"></stop>
            <stop stop-color="#DBCC70" offset="49%"></stop>
            <stop stop-color="#CEBE6B" offset="100%"></stop>
        </linearGradient>
    </defs>
    <g id="selected" stroke="none" stroke-width="1" fill="none" fill-rule="evenodd">
        <g>
            <path d="M28.0432099,0.475308642 C13.4037037,0.475308642 1.58277778,6.22179012 0.551358025,13.8409877 C0.180617284,16.5787654 1.18351852,19.4020988 3.45074074,21.9925309 C8.91679012,28.2523457 20.7139506,32.2924691 33.5092593,32.2924691 C45.867284,32.2924691 55.9010494,28.6135802 59.6512346,22.6912346 C61.3919021,20.069499 61.5879921,16.7141809 60.1645679,13.9075309 C56.5617284,6.25030864 42.735,0.475308642 28.0432099,0.475308642 Z" id="Path" fill="#000000" opacity="0.25"></path>
            <path d="M33.5092593,32.7677778 C20.5808642,32.7677778 8.64111111,28.6611111 3.08950617,22.3109877 C0.731975309,19.6064815 -0.308950617,16.6358025 0.0808024691,13.7839506 C1.14074074,5.92234568 13.1660494,0 28.0432099,0 C42.9203704,0 56.8849383,5.89382716 60.5828395,13.7079012 C62.0791329,16.6607894 61.8721647,20.1901425 60.0409877,22.9479012 C56.2195062,28.9938272 46.0479012,32.7677778 33.5092593,32.7677778 Z M28.0432099,0.475308642 C13.4037037,0.475308642 1.58277778,6.22179012 0.551358025,13.8409877 C0.180617284,16.5787654 1.18351852,19.4020988 3.45074074,21.9925309 C8.91679012,28.2523457 20.7139506,32.2924691 33.5092593,32.2924691 C45.867284,32.2924691 55.9010494,28.6135802 59.6512346,22.6912346 C61.3919021,20.069499 61.5879921,16.7141809 60.1645679,13.9075309 C56.5617284,6.25030864 42.735,0.475308642 28.0432099,0.475308642 Z" id="Shape" fill="#FFFFFF" fill-rule="nonzero" opacity="0.15"></path>
            <path d="M33.4284568,31.6080247 C52.5216049,31.6080247 63.7911728,22.9288889 59.4278395,13.9265432 C55.772716,6.38339506 41.9935185,1.09320988 28.1477778,1.09320988 C14.302037,1.09320988 2.35277778,6.37864198 1.30709877,13.9265432 C0.0617901235,22.9241358 14.3353086,31.6080247 33.4284568,31.6080247 Z" id="Path" fill="url(#linearGradient-1)"></path>
            <path d="M33.4237037,31.6080247 C52.5168519,31.6080247 63.7864198,22.9288889 59.4230864,13.9265432 C55.767963,6.38339506 41.9887654,1.09320988 28.1430247,1.09320988 C14.297284,1.09320988 2.34802469,6.37864198 1.30234568,13.9265432 C0.057037037,22.9241358 14.3305556,31.6080247 33.4237037,31.6080247 Z M32.7962963,28.3426543 C17.3202469,28.3426543 5.10006173,21.6550617 5.45654321,14.3400617 C5.77975309,7.88061728 16.0083951,3.17981481 28.3426543,3.17981481 C40.6769136,3.17981481 52.5833951,7.88061728 55.1785802,14.3400617 C58.1254938,21.6550617 48.2770988,28.3426543 32.7962963,28.3426543 Z" id="Shape" fill="url(#linearGradient-2)" fill-rule="nonzero"></path>
            <path d="M55.1880864,14.2592593 C52.5833951,7.71901235 40.6816667,3.13703704 28.3426543,3.13703704 C16.003642,3.13703704 5.76549383,7.72376543 5.44703704,14.2592593 C5.18561728,19.577963 11.497716,24.582963 20.8565432,26.95 C11.7353704,24.6304938 5.60864198,19.7870988 5.86055556,14.6252469 C6.17901235,8.28462963 16.2365432,3.66462963 28.3759259,3.66462963 C40.5153086,3.66462963 52.2221605,8.27987654 54.7840741,14.6204938 C57.6882099,21.8071605 48.0061728,28.3711728 32.7962963,28.3711728 C48.2866049,28.3711728 58.1445062,21.6265432 55.1880864,14.2592593 Z" id="Path" fill="url(#linearGradient-3)"></path>
            <path d="M28.1430247,1.34037037 C42.3452469,1.34037037 55.7109259,6.79691358 59.2091975,14.026358 C60.5542327,16.616493 60.3979794,19.7306573 58.8004321,22.1731481 C55.2403704,27.8483333 45.5203086,31.3703704 33.4237037,31.3703704 C20.9135802,31.3703704 9.43012346,27.4918519 4.2017284,21.4887037 C2.11037037,19.0883951 1.1882716,16.4837037 1.54,13.9598148 C2.53814815,6.76839506 13.9740741,1.34512346 28.157284,1.34512346 L28.1430247,1.34037037 Z M28.157284,1.10746914 C14.3162963,1.10746914 2.36228395,6.38339506 1.31660494,13.9408025 C0.057037037,22.9241358 14.3305556,31.6080247 33.4237037,31.6080247 C52.5168519,31.6080247 63.7864198,22.9241358 59.4135802,13.9265432 C55.7584568,6.38339506 41.9792593,1.09320988 28.1335185,1.09320988 L28.157284,1.10746914 Z" id="Shape" fill="url(#linearGradient-4)" fill-rule="nonzero"></path>
            <path d="M28.1905556,2.32901235 C27.9010938,2.47029802 27.5626716,2.47029802 27.2732099,2.32901235 C27.0403086,2.21493827 26.9927778,2.04382716 27.1543827,1.925 C27.4438444,1.78371433 27.7822667,1.78371433 28.0717284,1.925 C28.3046296,2.03907407 28.3569136,2.21493827 28.1905556,2.32901235 Z" id="Path" fill="#FFF0B3"></path>
            <path d="M15.5045679,4.15895062 C15.5045679,4.34432099 15.1290741,4.45839506 14.7535802,4.40135802 C14.4446296,4.35382716 14.2307407,4.2017284 14.2545062,4.04962963 C14.2782716,3.86425926 14.6347531,3.75018519 15.0054938,3.80722222 C15.3096914,3.85950617 15.5235802,4.00685185 15.5045679,4.15895062 Z" id="Path" fill="#FFF0B3"></path>
            <path d="M6.73037037,8.81222222 C6.8967284,8.98808642 6.73037037,9.18296296 6.35962963,9.22574074 C6.09311689,9.26754337 5.82120048,9.19698279 5.60864198,9.0308642 C5.44228395,8.855 5.60864198,8.66012346 5.97938272,8.61734568 C6.24589546,8.57554305 6.51781187,8.64610363 6.73037037,8.81222222 Z" id="Path" fill="#FFF0B3"></path>
            <path d="M4.235,15.6043827 C4.59148148,15.7422222 4.64851852,15.9941358 4.35858025,16.1414815 C4.06253694,16.2594695 3.73252479,16.2594695 3.43648148,16.1414815 C3.08,16.003642 3.02296296,15.7517284 3.31290123,15.5996296 L3.32716049,15.5996296 C3.61967637,15.4873894 3.94367542,15.4890857 4.235,15.6043827 Z" id="Path" fill="#FFF0B3"></path>
            <path d="M8.84549383,22.6294444 C9.32080247,22.6674691 9.67253086,22.9098765 9.57271605,23.152284 C9.49191358,23.3471605 9.1354321,23.4754938 8.73617284,23.4469753 C8.2608642,23.4089506 7.9091358,23.1617901 8.00895062,22.9241358 C8.08024691,22.7197531 8.44623457,22.5961728 8.84549383,22.6294444 Z" id="Path" fill="#FFF0B3"></path>
            <path d="M20.2671605,27.9053704 L20.295679,27.9053704 C20.7244301,27.7881178 21.1832389,27.9055295 21.502963,28.214321 C21.6408025,28.432963 21.4601852,28.6611111 21.0751852,28.7466667 L21.0561728,28.7466667 C20.6274217,28.8639193 20.168613,28.7465076 19.8488889,28.437716 C19.7015432,28.2190741 19.8821605,27.9909259 20.2671605,27.9053704 Z" id="Path" fill="#FFF0B3"></path>
            <path d="M34.374321,29.5119136 C34.7971065,29.2719168 35.3110633,29.2559113 35.747963,29.4691358 C36.0996914,29.645 36.1804938,29.920679 35.9333333,30.1108025 C35.5093086,30.3524657 34.9931324,30.368485 34.5549383,30.1535802 C34.2222222,29.977716 34.1271605,29.7067901 34.374321,29.5119136 Z" id="Path" fill="#FFF0B3"></path>
            <path d="M47.0983333,27.4966049 C47.0983333,27.2066667 47.6116667,27.0212963 48.1535185,27.0973457 C48.6003086,27.1638889 48.9282716,27.392037 48.9187654,27.6296914 C48.9187654,27.9196296 48.4101852,28.105 47.8635802,28.0289506 C47.4167901,27.9671605 47.0888272,27.7390123 47.0983333,27.4966049 Z" id="Path" fill="#FFF0B3"></path>
            <path d="M55.3069136,22.3395062 C55.0312346,22.0590741 55.2546296,21.7501235 55.7822222,21.6788272 C56.1906179,21.6139031 56.6075735,21.7224494 56.9324691,21.9782716 C57.2081481,22.2587037 56.9847531,22.5676543 56.4571605,22.6389506 C56.0487648,22.7038747 55.6318092,22.5953284 55.3069136,22.3395062 Z" id="Path" fill="#FFF0B3"></path>
            <path d="M57.037037,15.3762346 C56.5997531,15.2098765 56.4951852,14.9009259 56.8088889,14.7203086 C57.1525472,14.5766585 57.5394281,14.5766585 57.8830864,14.7203086 C58.3156173,14.8866667 58.4249383,15.1956173 58.1112346,15.3762346 C57.7675762,15.5198847 57.3806954,15.5198847 57.037037,15.3762346 Z" id="Path" fill="#FFF0B3"></path>
            <path d="M52.0558025,8.79320988 C51.6185185,8.75518519 51.2858025,8.53179012 51.3523457,8.31790123 C51.4093827,8.14203704 51.7183333,8.03271605 52.0795679,8.06123457 C52.5168519,8.09925926 52.8495679,8.32265432 52.7782716,8.53654321 C52.7259877,8.71716049 52.417037,8.82648148 52.0558025,8.79320988 Z" id="Path" fill="#FFF0B3"></path>
            <path d="M41.2948148,4.07339506 C41.0022224,4.14182256 40.6946966,4.0618303 40.4725309,3.85950617 C40.372716,3.71691358 40.4725309,3.57432099 40.7434568,3.52203704 C41.0360492,3.45360953 41.343575,3.5336018 41.5657407,3.73592593 C41.6655556,3.87851852 41.5514815,4.0258642 41.2948148,4.07339506 Z" id="Path" fill="#FFF0B3"></path>
            <g id="Group" opacity="0.6" style="mix-blend-mode: darken;" transform="translate(19.962963, 5.703704)" fill="#000000">
                <path d="M17.5864198,2.12938272 C17.2061728,2.12938272 16.9590123,2.36703704 17.0303086,2.6617284 C17.0722542,2.80530288 17.1630398,2.92971281 17.2869753,3.01345679 C16.7498765,3.37944444 14.6632716,4.77685185 14.1594444,4.87191358 C13.8443655,4.30111603 13.5940671,3.6968925 13.4132099,3.07049383 C13.7364198,3.07049383 13.9455556,2.85660494 13.8885185,2.59518519 C13.775155,2.29987776 13.4869346,2.10900332 13.1708025,2.11987654 C12.8380864,2.11987654 12.6194444,2.32901235 12.6954938,2.59518519 C12.7673121,2.80185081 12.9361316,2.96000808 13.147037,3.01820988 C12.9271871,3.58011922 12.5749983,4.08068391 12.1203704,4.47740741 C12.4514858,4.74650083 12.837661,4.93958844 13.2516049,5.04302469 C12.5243827,5.07154321 11.6925926,4.62475309 10.9035802,3.83098765 C10.3166494,3.12334221 9.79186404,2.36637915 9.33506173,1.56851852 C9.64401235,1.52098765 9.81037037,1.30709877 9.76759259,1.04567901 C9.63628723,0.712212508 9.30814283,0.498537083 8.95006173,0.513333333 C8.56981481,0.513333333 8.32265432,0.750987654 8.39395062,1.04567901 C8.50245876,1.33716221 8.76863552,1.54049168 9.07839506,1.56851852 C9.02353389,2.31448989 8.88156001,3.05147791 8.65537037,3.76444444 C8.2608642,4.60098765 7.63820988,5.0762963 6.87296296,5.04777778 C7.51462963,4.79111111 7.64296296,4.61049383 7.72851852,4.48216049 C7.11625662,4.10867926 6.55946402,3.65108533 6.07444444,3.12277778 C6.22143088,3.05134061 6.29864228,2.88701891 6.25981481,2.7282716 C6.14645131,2.43296418 5.85823091,2.24208974 5.54209877,2.25296296 C5.20938272,2.25296296 4.99074074,2.46209877 5.06679012,2.7282716 C5.17489703,3.01706354 5.45239797,3.20713268 5.76074074,3.20358025 C5.87116071,3.75558239 5.91108867,4.31936515 5.8795679,4.88141975 C5.30919753,4.78160494 2.37654321,3.29864198 1.77765432,2.98018519 C1.83927172,2.88974145 1.85836516,2.77691657 1.82993827,2.67123457 C1.69863291,2.33776806 1.37048851,2.12409264 1.01240741,2.13888889 C0.632160494,2.13888889 0.385,2.37654321 0.456296296,2.67123457 C0.587601654,3.00470107 0.915746056,3.2183765 1.27382716,3.20358025 C1.37529259,3.20376747 1.47567435,3.18271968 1.56851852,3.14179012 C2.7627779,4.1099558 3.85961129,5.1924619 4.84339506,6.37388889 C6.67808642,6.79216049 7.47660494,6.69234568 7.82833333,6.43092593 C8.092346,6.20687203 8.4435404,6.11426853 8.7837037,6.17901235 C9.38984087,6.36585939 9.86914823,6.83278611 10.0717901,7.43382716 C10.2599279,7.95674517 10.1912708,8.53768999 9.88641975,9.00234568 C10.5518519,9.04987654 11.0414198,9.06888889 11.0414198,9.06888889 C12.4742266,9.09978004 13.9047765,8.93994206 15.2954321,8.59358025 C15.8087654,6.1267284 17.0112963,3.84049383 17.6149383,3.1512963 C17.6939701,3.17278285 17.7754473,3.18396599 17.8573457,3.1845679 C18.2375926,3.1845679 18.4847531,2.94691358 18.4134568,2.65222222 C18.2778871,2.31906878 17.9455199,2.10895155 17.5864198,2.12938272 Z" id="Path"></path>
                <path d="M11.0984568,9.2732716 C11.0984568,9.2732716 10.5851235,9.2732716 9.91493827,9.2067284 L9.43962963,9.17345679 L9.62024691,8.88351852 C9.89643517,8.46105867 9.96137758,7.93449852 9.79611111,7.45759259 C9.63194072,6.95843238 9.24577753,6.56349276 8.7504321,6.38814815 C8.47734121,6.33436665 8.19495779,6.41378699 7.98993827,6.60203704 C7.51462963,6.97277778 6.44518519,6.96802469 4.76734568,6.60203704 L4.64851852,6.57351852 L4.57722222,6.49271605 C3.64124901,5.37919403 2.61074425,4.34868926 1.49722222,3.41271605 C1.42295958,3.42048014 1.3480898,3.42048014 1.27382716,3.41271605 C0.778347512,3.43305413 0.32434156,3.13737798 0.142592593,2.67598765 C0.0427777778,2.26722222 0.385,1.93925926 0.912592593,1.93925926 C1.40807224,1.91892118 1.86207819,2.21459733 2.04382716,2.67598765 C2.06269806,2.75729388 2.06269806,2.84184192 2.04382716,2.92314815 C3.6741358,3.75018519 4.98598765,4.34907407 5.57061728,4.5867284 C5.57385042,4.17423303 5.54044763,3.76226533 5.47080247,3.35567901 C5.13792087,3.28408515 4.86613482,3.04469744 4.75308642,2.72351852 C4.66277778,2.35277778 4.97648148,2.04858025 5.45654321,2.04858025 C5.91058135,2.029368 6.32676322,2.30045895 6.49271605,2.72351852 C6.53507808,2.87906292 6.49571124,3.04547731 6.38814815,3.16555556 C6.82173692,3.61234547 7.31048737,4.00206805 7.84259259,4.32530864 L7.9091358,4.36333333 C8.1050448,4.15647412 8.26562136,3.91882083 8.38444444,3.65987654 C8.59065449,3.02116669 8.72301938,2.36093698 8.77895062,1.69209877 C8.4658125,1.5938725 8.21850372,1.3518632 8.11351852,1.04092593 C8.0137037,0.632160494 8.35592593,0.304197531 8.88351852,0.304197531 C9.37899817,0.283859455 9.83300412,0.5795356 10.0147531,1.04092593 C10.0822484,1.31611604 9.93017132,1.59766415 9.66302469,1.69209877 C10.0800619,2.40774203 10.5570823,3.08670106 11.0889506,3.72166667 C11.3186854,3.95712413 11.5701295,4.17037419 11.8399383,4.35858025 L11.882716,4.32530864 C12.2876816,3.98741894 12.6123989,3.56366283 12.8333333,3.08475309 C12.6484209,2.98078305 12.5093142,2.81114082 12.4435802,2.60944444 C12.3532716,2.2387037 12.6669753,1.93450617 13.147037,1.93450617 C13.6010752,1.91529393 14.017257,2.18638487 14.1832099,2.60944444 C14.2154159,2.74964944 14.1889741,2.8969256 14.1100072,3.01717073 C14.0310402,3.13741586 13.9063967,3.22020136 13.7649383,3.24635802 C13.9081887,3.71196576 14.0894144,4.16503002 14.3067901,4.60098765 C15.2215441,4.113528 16.105679,3.57066597 16.9542593,2.9754321 C16.8801728,2.88864847 16.8265646,2.78630567 16.7974074,2.67598765 C16.6975926,2.26722222 17.0398148,1.93925926 17.5674074,1.93925926 C18.0628871,1.91892118 18.516893,2.21459733 18.698642,2.67598765 C18.807963,3.11802469 18.3849383,3.47450617 17.7908025,3.40320988 C16.7206335,5.0040106 15.9716168,6.79745355 15.5853704,8.68388889 L15.5853704,8.77419753 L15.4760494,8.80746914 C14.0449305,9.16169132 12.5720704,9.31841258 11.0984568,9.2732716 Z M10.285679,8.8217284 L11.0033951,8.85975309 C12.3640194,8.88718457 13.7227648,8.7450831 15.0482716,8.4367284 C15.428612,6.6840021 16.1019067,5.00799622 17.0398148,3.47925926 C16.0511728,4.13993827 14.7345679,4.98598765 14.2592593,5.06679012 L14.0453704,5.10481481 L14.3305556,5.19987654 L13.308642,5.22839506 C12.4911111,5.26166667 11.5642593,4.7958642 10.6944444,3.91179012 C10.1893792,3.30125602 9.72722316,2.65646095 9.3112963,1.98203704 C9.23485333,2.61276238 9.09959365,3.2349569 8.90728395,3.84049383 C8.60200034,4.68270885 7.79724918,5.23955088 6.90148148,5.22839506 L5.83203704,5.18561728 L6.06969136,5.09055556 L5.83679012,5.05253086 C4.61695165,4.61244115 3.43171554,4.08178584 2.29098765,3.465 C3.24134745,4.3137288 4.13375859,5.22519499 4.96222222,6.1932716 C6.3358642,6.49746914 7.2437037,6.52123457 7.5954321,6.25981481 C7.93163685,5.9821644 8.37639815,5.87360062 8.80271605,5.96512346 C9.51598946,6.16043412 10.0879937,6.69335731 10.3332099,7.39104938 C10.5043571,7.85592314 10.4873034,8.36923907 10.285679,8.8217284 Z M6.03166667,3.39845679 C6.12143898,3.90014483 6.15016635,4.4108536 6.11722222,4.91944444 L6.11722222,5.09530864 L6.72561728,4.85290123 C6.96421116,4.77293186 7.18641424,4.65055915 7.38154321,4.49166667 C6.89360943,4.17682689 6.44103621,3.81030632 6.03166667,3.39845679 Z M12.4720988,4.49166667 C12.733708,4.64532313 13.0130181,4.76662352 13.3038889,4.85290123 L14.0311111,5.09530864 L13.9265432,4.91944444 C13.6547374,4.4364482 13.4333455,3.92676896 13.2658642,3.39845679 C13.0678286,3.80823156 12.7991314,4.17990254 12.4720988,4.49641975 L12.4720988,4.49166667 Z M1.03617284,2.3432716 C0.803271605,2.3432716 0.65117284,2.49061728 0.693950617,2.67123457 C0.805687445,2.93753299 1.10937053,3.06617652 1.37839506,2.96117284 L1.46395062,2.92314815 L1.5067284,2.86135802 C1.54479306,2.80577775 1.55692743,2.73643846 1.54,2.67123457 C1.45913836,2.46569179 1.2568554,2.33401703 1.03617284,2.3432716 Z M5.58012346,2.45734568 C5.39475309,2.45734568 5.27117284,2.57617284 5.30444444,2.72351852 C5.36754285,2.88308129 5.52262535,2.98710005 5.69419753,2.98493827 L5.80351852,2.98493827 L5.8795679,2.94216049 C5.96311043,2.9020344 6.00683543,2.8086219 5.9841358,2.71876543 C5.91809319,2.5551258 5.75645609,2.45053709 5.58012346,2.45734568 Z M17.5531481,2.93265432 L17.6624691,2.96117284 C17.9951852,3.0467284 18.204321,2.8708642 18.1377778,2.65697531 C18.0574974,2.45312748 17.8576719,2.32181358 17.6387037,2.32901235 C17.4058025,2.32901235 17.2537037,2.47635802 17.2964815,2.65697531 C17.3240892,2.74476581 17.3811773,2.82032358 17.4580864,2.8708642 L17.5531481,2.93265432 Z M13.2278395,2.32901235 C13.0424691,2.32901235 12.9141358,2.44783951 12.9521605,2.59518519 C12.991698,2.71116596 13.0859887,2.80011949 13.2040741,2.83283951 L13.308642,2.85185185 L13.3894444,2.85185185 C13.5748148,2.85185185 13.6888889,2.73302469 13.6556173,2.5904321 C13.5852328,2.41989882 13.4114322,2.31561847 13.2278395,2.33376543 L13.2278395,2.32901235 Z M8.99283951,0.712962963 C8.75993827,0.712962963 8.60783951,0.860308642 8.65061728,1.04092593 C8.71330675,1.22153801 8.87810724,1.34701111 9.06888889,1.35938272 L9.14969136,1.35938272 L9.22574074,1.35938272 C9.42061728,1.3308642 9.52993827,1.19777778 9.49191358,1.04092593 C9.41008775,0.838948897 9.21061694,0.7097678 8.99283951,0.717716049 L8.99283951,0.712962963 Z" id="Shape" fill-rule="nonzero"></path>
            </g>
            <path d="M37.2832099,7.70475309 C36.902963,7.70475309 36.6558025,7.94240741 36.7270988,8.23709877 C36.7690443,8.38067326 36.8598299,8.50508318 36.9837654,8.58882716 C36.4466667,8.95481481 34.3600617,10.3522222 33.8562346,10.447284 C33.5411556,9.8764864 33.2908572,9.27226287 33.11,8.6458642 C33.4332099,8.6458642 33.6423457,8.43197531 33.5853086,8.17055556 C33.4719451,7.87524813 33.1837247,7.68437369 32.8675926,7.69524691 C32.5348765,7.69524691 32.3162346,7.90438272 32.392284,8.17055556 C32.4641022,8.37722119 32.6329217,8.53537845 32.8438272,8.59358025 C32.6239773,9.15548959 32.2717884,9.65605428 31.8171605,10.0527778 C32.1482759,10.3218712 32.5344511,10.5149588 32.9483951,10.6183951 C32.2211728,10.6469136 31.3893827,10.2001235 30.6003704,9.40635802 C29.9996033,8.69566053 29.462047,7.93385731 28.9938272,7.12962963 C29.3027778,7.08209877 29.4691358,6.86820988 29.426358,6.60679012 C29.2950527,6.27332362 28.9669083,6.05964819 28.6088272,6.07444444 C28.2285802,6.07444444 27.9814198,6.31209877 28.052716,6.60679012 C28.1647985,6.90565215 28.4423101,7.1105265 28.7609259,7.12962963 C28.7060648,7.875601 28.5640909,8.61258902 28.3379012,9.32555556 C27.9433951,10.1620988 27.3207407,10.6374074 26.5554938,10.6088889 C27.1971605,10.3522222 27.3254938,10.1716049 27.4110494,10.0432716 C26.7987875,9.66979037 26.2419949,9.21219645 25.7569753,8.68388889 C25.9039617,8.61245172 25.9811731,8.44813002 25.9423457,8.28938272 C25.8289822,7.99407529 25.5407618,7.80320085 25.2246296,7.81407407 C24.8919136,7.81407407 24.6732716,8.02320988 24.749321,8.28938272 C24.8574279,8.57817465 25.1349288,8.76824379 25.4432716,8.76469136 C25.5469487,9.32236726 25.578895,9.89101092 25.5383333,10.4567901 C24.967963,10.3569753 22.0353086,8.87401235 21.4364198,8.55555556 C21.4980372,8.46511182 21.5171306,8.35228694 21.4887037,8.24660494 C21.3573983,7.91313843 21.0292539,7.69946301 20.6711728,7.71425926 C20.2909259,7.71425926 20.0437654,7.95191358 20.1150617,8.24660494 C20.2439963,8.57335689 20.5623729,8.78560794 20.9135802,8.77895062 C21.0150457,8.77913784 21.1154274,8.75809005 21.2082716,8.71716049 C22.402531,9.68532617 23.4993644,10.7678323 24.4831481,11.9492593 C26.3178395,12.3675309 27.116358,12.267716 27.4680864,12.0062963 C27.7380269,11.7718921 28.101929,11.6769612 28.4519753,11.7496296 C29.0581125,11.9364767 29.5374198,12.4034034 29.7400617,13.0044444 C29.9281995,13.5273625 29.8595424,14.1083073 29.5546914,14.572963 C30.2201235,14.6204938 30.7096914,14.6395062 30.7096914,14.6395062 C32.1424982,14.6703973 33.5730481,14.5105593 34.9637037,14.1641975 C35.477037,11.6973457 36.6795679,9.41111111 37.2832099,8.72191358 C37.3622417,8.74340013 37.4437189,8.75458328 37.5256173,8.75518519 C37.9058642,8.75518519 38.1530247,8.51753086 38.0817284,8.22283951 C37.94823,7.90169285 37.6308832,7.6957952 37.2832099,7.70475309 Z" id="Path" fill="url(#linearGradient-5)"></path>
            <path d="M28.6611111,6.21228395 C28.9320842,6.20167939 29.1800568,6.36381531 29.2790123,6.6162963 C29.3265432,6.81117284 29.1887037,6.97753086 28.9510494,7.01080247 L28.8702469,7.01080247 L28.7846914,7.01080247 C28.5506649,6.98944846 28.3494307,6.83621512 28.2666049,6.6162963 C28.2095679,6.39290123 28.3996914,6.21228395 28.6896296,6.21228395 L28.6611111,6.21228395 Z M28.9462963,7.2817284 C29.4013864,8.04721535 29.9146474,8.77658625 30.4815432,9.46339506 C31.294321,10.285679 32.1593827,10.7419753 32.9198765,10.7419753 L32.9959259,10.7419753 L33.6518519,10.7134568 L33.000679,10.4948148 C32.6630128,10.4015799 32.3421887,10.255605 32.0500617,10.062284 C32.4621645,9.68193748 32.7865448,9.21645181 33.000679,8.69814815 C33.1718218,9.30846449 33.4093083,9.89819603 33.7088889,10.4567901 L33.7801852,10.5756173 L33.9275309,10.5470988 C34.4408642,10.452037 36.3040741,9.19722222 37.1120988,8.6458642 L37.1453704,8.62209877 C36.4894444,9.37308642 35.3344444,11.6450617 34.8306173,14.0358642 C33.4796074,14.3566251 32.0931708,14.5035746 30.7049383,14.4731481 L29.8303704,14.4256173 C30.0594849,13.9835387 30.1006119,13.467737 29.9444444,12.9949383 C29.7211277,12.3332084 29.1888086,11.822182 28.5185185,11.6260494 C28.4245747,11.6075315 28.3290838,11.5979824 28.2333333,11.5975309 C27.9274674,11.6023961 27.6323953,11.7113716 27.3967901,11.9064815 C27.1294571,12.0618914 26.8208899,12.1315678 26.512716,12.1061111 C25.8794552,12.0850746 25.2501664,11.9974521 24.6352469,11.8446914 C23.6568607,10.6837887 22.5698029,9.6190132 21.3888889,8.66487654 C22.4583333,9.21148148 24.9774691,10.4710494 25.5430864,10.5661111 L25.7046914,10.5946296 L25.7046914,10.4758025 C25.7372994,9.9042807 25.6973725,9.33093025 25.5858642,8.76944444 L25.5858642,8.69814815 L25.6333951,8.74567901 C26.0975986,9.24864376 26.6247958,9.68957227 27.2019136,10.0575309 C26.994459,10.2585474 26.7418161,10.4068732 26.4651852,10.4900617 L25.9185802,10.7087037 L26.5840123,10.7372222 L26.6648148,10.7372222 C27.4974187,10.7078674 28.2297576,10.17833 28.5185185,9.39685185 C28.736056,8.71092436 28.8779079,8.00325873 28.9415432,7.28648148 L28.9462963,7.2817284 Z M37.3354938,7.83308642 C37.6064669,7.82248186 37.8544395,7.98461778 37.9533951,8.23709877 C38.0104321,8.46049383 37.8203086,8.64111111 37.5303704,8.64111111 C37.4693961,8.64094533 37.4086949,8.63295834 37.3497531,8.61734568 L37.235679,8.58882716 L37.0740741,8.49851852 C36.9794216,8.43590456 36.9102965,8.34148984 36.8791975,8.23234568 C36.8221605,8.00895062 37.012284,7.82833333 37.3022222,7.82833333 L37.3354938,7.83308642 Z M32.8818519,7.82833333 C33.111385,7.81885346 33.3215341,7.95640559 33.4046914,8.17055556 C33.4522222,8.35592593 33.3001235,8.5032716 33.0624691,8.51277778 L32.9579012,8.51277778 L32.8533333,8.47950617 C32.6990448,8.4381713 32.5758347,8.3221038 32.5253704,8.17055556 C32.4778395,7.9804321 32.6394444,7.82833333 32.8818519,7.82833333 Z M20.6901852,7.82833333 C20.9611582,7.81772877 21.2091308,7.97986469 21.3080864,8.23234568 C21.3296327,8.31182818 21.3157688,8.39674456 21.2700617,8.46524691 L21.2177778,8.54604938 L21.1132099,8.58882716 C21.0428786,8.62008944 20.9667811,8.63628039 20.8898148,8.63635802 C20.6188418,8.64696259 20.3708692,8.48482667 20.2719136,8.23234568 C20.2148765,8.00895062 20.405,7.82833333 20.6949383,7.82833333 L20.6901852,7.82833333 Z M25.2388889,7.94240741 C25.468422,7.93292753 25.6785711,8.07047967 25.7617284,8.28462963 C25.7895078,8.39911618 25.7342308,8.51756676 25.628642,8.56981481 L25.5288272,8.62685185 L25.3909877,8.62685185 C25.1691266,8.63035609 24.9683599,8.49588028 24.8871605,8.28938272 C24.8396296,8.09925926 25.0012346,7.94716049 25.243642,7.94716049 L25.2388889,7.94240741 Z M28.6278395,6.07444444 C28.2475926,6.07444444 28.0004321,6.31209877 28.0717284,6.60679012 C28.1809665,6.89972599 28.4493907,7.10335814 28.7609259,7.12962963 C28.7060648,7.875601 28.5640909,8.61258902 28.3379012,9.32555556 C28.0813345,10.0668129 27.40066,10.5782589 26.617284,10.6183951 L26.5459877,10.6183951 C27.1876543,10.3617284 27.3159877,10.1811111 27.4015432,10.0527778 C26.7892813,9.67929654 26.2324887,9.22170262 25.7474691,8.69339506 C25.8944556,8.6219579 25.971667,8.4576362 25.9328395,8.29888889 C25.819476,8.00358147 25.5312556,7.81270703 25.2151235,7.82358025 C24.8824074,7.82358025 24.6637654,8.03271605 24.7398148,8.29888889 C24.8479217,8.58768083 25.1254227,8.77774996 25.4337654,8.77419753 C25.5398138,9.32836045 25.5749517,9.89376091 25.5383333,10.4567901 C24.967963,10.3569753 22.0353086,8.87401235 21.4364198,8.55555556 C21.4980372,8.46511182 21.5171306,8.35228694 21.4887037,8.24660494 C21.3573983,7.91313843 21.0292539,7.69946301 20.6711728,7.71425926 C20.2909259,7.71425926 20.0437654,7.95191358 20.1150617,8.24660494 C20.2439963,8.57335689 20.5623729,8.78560794 20.9135802,8.77895062 C21.0150457,8.77913784 21.1154274,8.75809005 21.2082716,8.71716049 C22.402531,9.68532617 23.4993644,10.7678323 24.4831481,11.9492593 C25.1378547,12.1165769 25.8088153,12.2122008 26.4841975,12.2344444 C26.8280659,12.2647942 27.1726679,12.1848865 27.4680864,12.0062963 C27.6745988,11.8317118 27.9344832,11.7327881 28.2048148,11.7258642 C28.2861851,11.7261398 28.3673477,11.734097 28.4472222,11.7496296 C29.0533594,11.9364767 29.5326667,12.4034034 29.7353086,13.0044444 C29.9234465,13.5273625 29.8547893,14.1083073 29.5499383,14.572963 C30.2153704,14.6204938 30.7049383,14.6395062 30.7049383,14.6395062 C32.1377451,14.6703973 33.568295,14.5105593 34.9589506,14.1641975 C35.472284,11.6973457 36.6748148,9.41111111 37.2784568,8.72191358 C37.3574886,8.74340013 37.4389658,8.75458328 37.5208642,8.75518519 C37.9011111,8.75518519 38.1482716,8.51753086 38.0769753,8.22283951 C37.94567,7.889373 37.6175255,7.67569758 37.2594444,7.69049383 C36.8791975,7.69049383 36.632037,7.92814815 36.7033333,8.22283951 C36.7452789,8.366414 36.8360645,8.49082392 36.96,8.5745679 C36.4229012,8.94055556 34.3362963,10.337963 33.8324691,10.4330247 C33.5173901,9.86222714 33.2670917,9.25800362 33.0862346,8.63160494 C33.4094444,8.63160494 33.6185802,8.41771605 33.5615432,8.1562963 C33.4481797,7.86098888 33.1599593,7.67011443 32.8438272,7.68098765 C32.5111111,7.68098765 32.2924691,7.89012346 32.3685185,8.1562963 C32.4403368,8.36296193 32.6091563,8.52111919 32.8200617,8.57932099 C32.6002118,9.14123033 32.248023,9.64179502 31.7933951,10.0385185 C32.1245104,10.3076119 32.5106857,10.5006995 32.9246296,10.6041358 L32.8533333,10.6041358 C32.1403704,10.6041358 31.3370988,10.1620988 30.5766049,9.39209877 C29.9847423,8.68500698 29.4551746,7.92802721 28.9938272,7.12962963 C29.3027778,7.08209877 29.4691358,6.86820988 29.426358,6.60679012 C29.2950527,6.27332362 28.9669083,6.05964819 28.6088272,6.07444444 L28.6278395,6.07444444 Z" id="Shape" fill="#C8AA39" fill-rule="nonzero"></path>
            <g id="Group" opacity="0.6" transform="translate(11.882716, 11.407407)" fill="#000000">
                <path d="M6.90148148,11.6545679 C6.53267328,11.6830677 6.16408274,11.5967312 5.8462963,11.4074074 C5.57724624,11.2180887 5.4175546,10.9093515 5.41851852,10.5803704 L5.22839506,6.96802469 C4.79111111,7.1058642 4.51067901,7.2104321 4.35858025,7.26746914 L4.03537037,7.3862963 L3.27962963,6.60203704 L3.50777778,6.46419753 C4.04025779,6.1550501 4.59285347,5.88192809 5.16185185,5.64666667 L4.98123457,2.37654321 C3.73117284,2.30049383 1.94401235,2.37654321 1.97728395,3.55530864 C1.99071802,3.62964458 2.02167629,3.69970804 2.06759259,3.75969136 L2.15790123,3.82623457 C2.17346512,3.75712407 2.20079755,3.69120466 2.2387037,3.63135802 C2.46206029,3.34294631 2.84302517,3.22675202 3.18932099,3.34141975 C3.69714975,3.42794351 4.085524,3.84156209 4.13993827,4.35382716 C4.13993827,4.74833333 3.84524691,5.47080247 2.5904321,5.39950617 C1.8289004,5.39482136 1.11052614,5.04524752 0.63691358,4.44888889 C0.0128768458,3.53962115 0.143974758,2.31133455 0.945864198,1.55425926 C2.14364198,0.270925926 4.11141975,0.204382716 4.85765432,0.175864198 L4.93845679,0.175864198 C6.77790123,0.104567901 8.81697531,0.532345679 10.7895062,0.950617284 L11.4691975,1.09320988 L12.4198148,1.29283951 C14.1641975,1.67783951 15.6661728,2.01055556 16.1652469,1.33561728 C16.2996505,1.16833001 16.529476,1.11184748 16.7261111,1.19777778 C17.0914569,1.3989723 17.2996731,1.80039803 17.2537037,2.21493827 C17.2537037,2.90888889 16.7498765,3.6408642 15.3952469,3.6408642 C13.7032037,3.55097034 12.0221923,3.31400658 10.3712346,2.93265432 C9.36358025,2.73302469 8.40345679,2.54290123 7.79981481,2.49537037 L7.94240741,4.77685185 C8.64109468,4.6188802 9.37228872,4.69400287 10.0242593,4.99074074 C10.4958557,5.22173169 10.7045794,5.78111129 10.4995679,6.2645679 C10.4116839,6.51913704 10.3019543,6.76563106 10.1716049,7.0012963 L10.1050617,7.12012346 L9.0308642,7.12012346 L9.08314815,6.74938272 C9.10495634,6.6603595 9.08188443,6.56629707 9.02135802,6.49746914 C8.68700824,6.35017166 8.31644084,6.30550506 7.95666667,6.3691358 L7.95666667,6.54975309 L8.15154321,10.6659259 C8.18397159,10.9478799 8.07123165,11.2270455 7.85209877,11.4074074 C7.56867153,11.5867206 7.23635446,11.673123 6.90148148,11.6545679 Z" id="Path"></path>
                <path d="M12.8808642,11.5880247 C12.6540537,11.5943933 12.4277138,11.5638936 12.210679,11.497716 C12.036171,11.4484017 11.8741493,11.3625302 11.7353704,11.2458025 C11.6298712,11.1572529 11.5522796,11.0400401 11.5119753,10.9083333 C11.493085,10.8417068 11.4819211,10.7731285 11.4787037,10.7039506 L11.3741358,6.65432099 C11.3756338,6.63851278 11.3756338,6.62259834 11.3741358,6.60679012 L11.2553086,6.67333333 L11.0176543,6.83493827 L10.3997531,6.24080247 L10.6183951,6.0887037 C10.7286026,6.01139993 10.8428375,5.94000311 10.9606173,5.87481481 C11.0979069,5.80012449 11.2409566,5.73654685 11.3883951,5.68469136 C11.5434953,5.62917821 11.7023278,5.58470509 11.8637037,5.55160494 C12.0546688,5.51369698 12.248889,5.49459335 12.4435802,5.4945679 C12.7201794,5.48563525 12.9959672,5.5291807 13.256358,5.62290123 C13.4577546,5.69604212 13.6375407,5.81862351 13.7791975,5.97938272 C13.8836315,6.10160331 13.9541129,6.24912252 13.9835802,6.40716049 C14.0018714,6.50764223 14.01299,6.60929807 14.0168519,6.71135802 L14.1309259,10.8275309 C14.1320854,10.9029728 14.1224826,10.9781948 14.1024074,11.0509259 C14.0697438,11.161903 14.003284,11.2599311 13.912284,11.331358 C13.7981044,11.4211438 13.6672443,11.4873817 13.527284,11.5262346 C13.3161118,11.5790337 13.0982149,11.599862 12.8808642,11.5880247 Z" id="Path"></path>
                <path d="M16.5122222,11.5880247 C16.2854384,11.5938948 16.059178,11.5634058 15.842037,11.497716 C15.6690972,11.4492231 15.5075275,11.3668226 15.3667284,11.2553086 C15.2560313,11.1666651 15.173468,11.0477738 15.1290741,10.9130864 C15.1077064,10.8452382 15.0949318,10.774978 15.0910494,10.7039506 L15.0054938,6.65432099 C15.0070208,6.63851416 15.0070208,6.62259695 15.0054938,6.60679012 C14.9639029,6.62523017 14.9241217,6.64750764 14.8866667,6.67333333 L14.6490123,6.83493827 L14.0311111,6.24080247 L14.2497531,6.0887037 C14.3614331,6.01114645 14.4772639,5.93974391 14.5967284,5.87481481 C14.734018,5.80012449 14.8770677,5.73654685 15.0245062,5.68469136 C15.1795967,5.62914786 15.3384314,5.58467414 15.4998148,5.55160494 C15.8897356,5.47071199 16.2930276,5.48046905 16.6785802,5.58012346 C16.8500718,5.62997869 17.0111097,5.71049764 17.1538889,5.81777778 C17.2717953,5.90767462 17.3717601,6.0189258 17.4485802,6.14574074 L17.4770988,6.19802469 L17.543642,6.13623457 C17.6269897,6.05893598 17.714244,5.98595961 17.8050617,5.91759259 C17.9001278,5.84418785 18.0001841,5.77748371 18.1045062,5.71796296 C18.2145909,5.65539542 18.3308723,5.60442274 18.4514815,5.5658642 C18.5837896,5.52454813 18.7216384,5.50371052 18.8602469,5.50407407 C19.153631,5.49271287 19.4410355,5.5890779 19.6682716,5.775 C19.8560016,5.94127837 19.9633186,6.18014531 19.962963,6.43092593 C19.9653025,6.56164202 19.9541529,6.69225082 19.9296914,6.82067901 C19.8982425,6.97216007 19.852077,7.12020824 19.7918519,7.26271605 L19.7348148,7.40530864 L19.0123457,7.40530864 L18.9600617,7.12962963 C18.9546703,7.09400194 18.9359903,7.06173646 18.9077778,7.03932099 C18.7690781,7.02391624 18.6287117,7.03521009 18.4942593,7.07259259 C18.3817145,7.10855447 18.2720757,7.15304557 18.1662963,7.20567901 C18.0582198,7.25957439 17.9534647,7.31988792 17.8525926,7.3862963 L17.657716,7.51938272 L17.7337654,10.8465432 C17.7334799,10.9187681 17.7238949,10.9906555 17.7052469,11.0604321 C17.6757305,11.1704451 17.6125836,11.268489 17.5246296,11.3408642 C17.4124234,11.4309616 17.2830462,11.4972674 17.1443827,11.5357407 C16.9374213,11.5844216 16.7243692,11.6020425 16.5122222,11.5880247 Z" id="Path"></path>
                <path d="M34.4979012,11.6878395 L34.3600617,11.6878395 C34.1841975,11.6878395 33.9750617,11.6878395 33.7374074,11.6498148 L33.6138272,11.6498148 C33.2540732,11.6124637 32.8979846,11.5456971 32.5491358,11.4501852 C31.5034568,11.1317284 30.6193827,10.4995679 30.3009259,9.89592593 C30.0557559,9.52127761 30.1052501,9.02633533 30.4197531,8.70765432 C30.9344055,8.22103158 31.7075536,8.13018668 32.3209877,8.48425926 C32.8866049,8.7837037 32.9959259,9.21148148 32.8533333,9.48240741 C32.6757724,9.74525604 32.3537155,9.8702899 32.0453086,9.79611111 L31.8741975,9.75808642 C31.9122222,9.85314815 32.1783951,10.1240741 32.9056173,10.2001235 C33.299709,10.2368588 33.6971715,10.1948506 34.0748765,10.0765432 C34.2977337,10.0014997 34.4985726,9.87250557 34.6595062,9.70104938 C34.827215,9.51369709 34.9434872,9.28606565 34.9969753,9.04037037 C35.0628805,8.72692479 35.0628805,8.40319867 34.9969753,8.08975309 C34.892543,7.48353587 34.5757866,6.93426675 34.1033951,6.54024691 C33.5937401,6.19396451 32.9835009,6.02677567 32.3685185,6.06493827 C32.1443119,6.07666822 31.9216091,6.1084829 31.7030864,6.16 C31.5791421,6.19352934 31.4606803,6.24475606 31.351358,6.31209877 C31.2662964,6.36569858 31.1894488,6.43133919 31.1232099,6.50697531 C31.0713089,6.56751083 31.0251629,6.63275181 30.9853704,6.70185185 L30.8903086,6.87296296 L29.9444444,6.65432099 L29.8161111,1.35938272 L30.1488272,1.40216049 C30.1488272,1.40216049 31.2325309,1.54 32.2734568,1.62080247 C34.5264198,1.7491358 35.0540123,1.38790123 35.1633333,1.14549383 C35.2624851,0.954021127 35.4875173,0.864819192 35.6909259,0.936358025 C36.1339454,1.14066258 36.4256276,1.57543417 36.4466667,2.06283951 C36.5464815,2.91364198 35.971358,3.48876543 34.9351852,3.59333333 C33.9352317,3.64847618 32.9325114,3.62622882 31.9359877,3.52679012 L31.2087654,3.47925926 L31.2610494,5.0762963 C31.3948105,5.02189679 31.5312403,4.97430499 31.6698148,4.9337037 C31.8834977,4.87637647 32.1011592,4.83506845 32.3209877,4.81012346 C33.2675545,4.70251767 34.2261683,4.79481663 35.1348148,5.08104938 C35.4807494,5.19257136 35.8150347,5.33742834 36.132963,5.51358025 C36.4520599,5.6893696 36.7475322,5.90498451 37.012284,6.15524691 C37.2759861,6.40642336 37.5017452,6.69462648 37.6824691,7.01080247 C37.8686366,7.34373365 37.99871,7.70504874 38.0674691,8.08024691 C38.1792457,8.58617069 38.1645528,9.11185032 38.0246914,9.61074074 C37.8941269,10.0460198 37.6515525,10.4393837 37.3212346,10.7514815 C36.9697524,11.0751704 36.550966,11.3170277 36.0949383,11.4596914 C35.7583976,11.5677127 35.410858,11.6378583 35.0587654,11.6688272 L35.087284,11.6688272 L34.4979012,11.6688272 L34.4979012,11.6878395 Z" id="Path"></path>
                <path d="M26.892963,11.5785185 C26.6749038,11.5796225 26.4576211,11.5524622 26.2465432,11.497716 C26.0262184,11.441571 25.8182862,11.3448583 25.6333951,11.2125309 C25.4567144,11.0870433 25.3091821,10.9249199 25.2008642,10.7372222 C25.0924676,10.5374507 25.0368443,10.3133216 25.0392593,10.0860494 L24.9964815,6.50697531 L24.2882716,6.50697531 L24.2882716,5.55635802 L24.5591975,5.55635802 C24.6990671,5.54947387 24.8377479,5.52715742 24.972716,5.48981481 C25.1752471,5.43752488 25.3701585,5.35924083 25.5525926,5.25691358 C25.7601939,5.1418882 25.9479587,4.99424408 26.1087037,4.81962963 C26.2798439,4.63078915 26.4007898,4.4019726 26.4604321,4.15419753 L26.5032099,3.98783951 L27.6391975,3.98783951 L27.6391975,5.55635802 L28.1858025,5.55635802 C28.1255701,5.46823012 28.0940296,5.36364839 28.0954938,5.25691358 C28.0893297,5.1006545 28.1604217,4.95136115 28.2856173,4.85765432 C28.4238162,4.7586466 28.5910492,4.7084767 28.7609259,4.71506173 C28.8951917,4.71314559 29.028241,4.74072899 29.150679,4.7958642 C29.2614119,4.8457715 29.3602493,4.91868435 29.4406173,5.00975309 C29.5072733,5.08478804 29.558907,5.17191994 29.592716,5.26641975 C29.6199849,5.34601862 29.6344244,5.42944688 29.6354938,5.51358025 C29.6473007,5.78467465 29.5332842,6.0460354 29.3265432,6.22179012 C29.0510167,6.42030789 28.7147102,6.51615524 28.3759259,6.49271605 L27.662963,6.49271605 L27.6962346,10.1668519 C27.6880105,10.2204063 27.6880105,10.2749024 27.6962346,10.3284568 C27.7614803,10.335571 27.8274058,10.324034 27.886358,10.2951852 C27.9510117,10.2575041 28.0101857,10.2111245 28.0622222,10.1573457 C28.1279694,10.0929049 28.1840072,10.0192553 28.2285802,9.9387037 L28.3379012,9.73907407 L29.1934568,10.0575309 L29.0508642,10.3141975 C28.9890741,10.4282716 28.9082716,10.5566049 28.822716,10.6896914 C28.7165498,10.849494 28.5848832,10.9907947 28.432963,11.107963 C28.2481202,11.2504347 28.0409256,11.3612598 27.8198148,11.4359259 C27.5208489,11.5342743 27.2076652,11.5824564 26.892963,11.5785185 Z" id="Path"></path>
                <path d="M22.1303704,11.5880247 C21.8221371,11.5908807 21.5150022,11.5508892 21.2177778,11.4691975 C20.9657708,11.3986244 20.7219905,11.3014309 20.4905556,11.1792593 C20.2932007,11.0765278 20.1068621,10.9538947 19.9344444,10.8132716 C19.8030875,10.706072 19.6821399,10.5867157 19.5732099,10.4567901 L19.3973457,10.2381481 L20.0627778,9.83888889 L20.3004321,10.062284 C20.4178358,10.1680721 20.5489273,10.257598 20.6901852,10.3284568 C20.7708889,10.3682061 20.8552543,10.4000421 20.9420988,10.4235185 C21.0209934,10.4456716 21.1025604,10.456867 21.1845062,10.4567901 C21.3854091,10.4663408 21.5848826,10.4185331 21.7596296,10.3189506 C21.885051,10.2435545 21.9568843,10.1035717 21.945,9.95771605 C21.9378937,9.86474383 21.9012547,9.77647735 21.8404321,9.70580247 C21.7313844,9.56579659 21.61053,9.43540109 21.4791975,9.31604938 C21.3207613,9.16711934 21.1480658,9.00868313 20.9611111,8.84074074 C20.7652852,8.6745521 20.578086,8.49845795 20.4002469,8.31314815 C20.2201004,8.13349217 20.060668,7.9342017 19.9249383,7.71901235 C19.7958359,7.50817862 19.7237665,7.26740146 19.7158025,7.02030864 C19.7058121,6.77619374 19.7686857,6.53462686 19.8964198,6.32635802 C20.0172986,6.13435546 20.1797258,5.97192821 20.3717284,5.85104938 C20.5867809,5.72150453 20.8210018,5.62685359 21.065679,5.57061728 C21.611653,5.46164864 22.1737791,5.46164864 22.7197531,5.57061728 C22.9756144,5.61344438 23.2238242,5.69351209 23.4564815,5.8082716 C23.6732187,5.92005938 23.8592611,6.08325448 23.9983333,6.28358025 C24.1350252,6.44661478 24.2194902,6.64701207 24.2407407,6.8587037 C24.2369356,7.04060667 24.1577465,7.21275697 24.0220988,7.33401235 C23.8430064,7.48774247 23.6113187,7.56610743 23.375679,7.55265432 C23.1397105,7.56249467 22.9062268,7.50122589 22.7054938,7.37679012 C22.5238973,7.26577138 22.4097587,7.07137917 22.4012963,6.8587037 C22.393905,6.73817958 22.4389606,6.62034165 22.5248765,6.53549383 C22.5600738,6.5019823 22.598257,6.47175398 22.6389506,6.44518519 C22.5474716,6.43284923 22.4547506,6.43284923 22.3632716,6.44518519 C22.3136957,6.45647779 22.2668476,6.47747865 22.2254321,6.50697531 C22.1872131,6.53390198 22.1562001,6.56981178 22.1351235,6.61154321 C22.1112002,6.66195266 22.099787,6.71738819 22.1018519,6.77314815 C22.1077278,6.85802237 22.1450072,6.93766485 22.2064198,6.99654321 C22.332539,7.1337693 22.469212,7.26090701 22.6151852,7.37679012 C22.7926337,7.51938272 22.9859259,7.6667284 23.1950617,7.81882716 C23.4168572,7.9826911 23.6280037,8.16049872 23.8272222,8.35117284 C24.029032,8.55398863 24.2032278,8.78252071 24.3453086,9.0308642 C24.4924769,9.25937957 24.5731213,9.52435409 24.5782099,9.79611111 C24.5993391,10.3269385 24.3462204,10.8313808 23.9080247,11.1317284 C23.671595,11.2951414 23.4074844,11.4143133 23.1285185,11.4834568 C22.801646,11.5608702 22.4661898,11.5960132 22.1303704,11.5880247 Z" id="Path"></path>
            </g>
            <g id="Group" opacity="0.6" transform="translate(22.814815, 14.734568)" fill="#000000">
                <path d="M0.25191358,1.03141975 C0.249191645,0.931631122 0.273848813,0.83300245 0.323209877,0.746234568 C0.376249432,0.652314208 0.449264991,0.571185809 0.537098765,0.508580247 C0.635914898,0.439621954 0.744992723,0.386687128 0.860308642,0.351728395 C1.12401616,0.273818639 1.40462581,0.273818639 1.66833333,0.351728395 C1.78527769,0.386296846 1.89598101,0.439241913 1.9962963,0.508580247 C2.08631943,0.57158443 2.16237071,0.652490049 2.21969136,0.746234568 C2.27316744,0.831949525 2.30270954,0.930423184 2.30524691,1.03141975 C2.3082143,1.13123506 2.28354081,1.22992903 2.23395062,1.31660494 C2.18035183,1.40880465 2.10737478,1.48826854 2.02006173,1.54950617 C1.92132692,1.61860299 1.81222627,1.67154889 1.69685185,1.70635802 C1.56745187,1.74561545 1.43280865,1.7648502 1.29759259,1.76339506 C1.15923789,1.76515077 1.02141662,1.74591989 0.88882716,1.70635802 C0.77074363,1.67089809 0.65860589,1.61803316 0.556111111,1.54950617 C0.464214954,1.48916197 0.38639978,1.40972564 0.327962963,1.31660494 C0.277388839,1.23012835 0.251113575,1.13159611 0.25191358,1.03141975 Z" id="Path"></path>
                <path d="M1.59703704,2.27197531 C1.40550411,2.27368658 1.21481221,2.24644488 1.03141975,2.19117284 C0.862669335,2.1409856 0.702437144,2.06567647 0.556111111,1.96777778 C0.422221906,1.87855303 0.308813643,1.76190453 0.223395062,1.62555556 C0.144864114,1.49999433 0.102132086,1.35536285 0.0998148148,1.20728395 C0.0979286753,1.06719071 0.134067021,0.929207932 0.204382716,0.808024691 C0.278013047,0.680192949 0.378567981,0.569906892 0.499074074,0.484814815 C0.632816351,0.391196551 0.780354045,0.319031374 0.936358025,0.270925926 C1.29938497,0.163971383 1.6855533,0.163971383 2.04858025,0.270925926 C2.21819557,0.321073356 2.37866987,0.398101017 2.52388889,0.499074074 C2.6558219,0.591047858 2.76745087,0.709148068 2.85185185,0.846049383 C2.92891893,0.970521509 2.97156448,1.11322007 2.9754321,1.2595679 C2.97867965,1.40132569 2.94247736,1.54119817 2.8708642,1.66358025 C2.79668104,1.7896918 2.69616403,1.89831501 2.57617284,1.98203704 C2.44378521,2.07388 2.29784359,2.14444518 2.14364198,2.19117284 C1.96664623,2.24590852 1.78229925,2.27315981 1.59703704,2.27197531 Z" id="Path"></path>
            </g>
            <path d="M19.2214815,16.3743827 L19.0979012,16.4076543 L18.9125309,13.4607407 C20.2909259,13.4607407 24.3548148,14.6252469 26.8026543,14.6204938 C29.1079012,14.6204938 28.3426543,12.2439506 27.9481481,12.7667901 C27.2494444,13.7174074 25.1438272,13.0662346 22.9574074,12.6099383 C20.7709877,12.153642 18.537037,11.6260494 16.5312346,11.7068519 C15.8705556,11.7306173 13.9075309,11.7543827 12.7287654,13.0091975 C11.55,14.2640123 12.0680864,16.2888272 14.026358,16.3981481 C15.124321,16.4599383 15.2954321,15.8087654 15.290679,15.5711111 C15.2665333,15.2314052 15.0168162,14.9504735 14.682284,14.8866667 C14.4635388,14.8220519 14.2273884,14.895146 14.0833951,15.072037 C13.9503086,15.290679 14.0833951,15.3762346 14.0168519,15.4095062 C13.7842432,15.4589659 13.5427009,15.3832586 13.3799383,15.2098765 C13.2645376,15.0964721 13.1908401,14.9474021 13.1708025,14.7868519 C13.1185185,12.9569136 16.7451235,13.422716 16.8401852,13.4132099 L17.0540741,17.1111111 C16.4466318,17.3557315 15.8573482,17.6432257 15.290679,17.9714198 L15.6233951,18.3183951 C16.1029815,18.135176 16.5915996,17.9765337 17.0873457,17.8430864 L17.2964815,21.8641975 C17.2866386,22.0998053 17.3955027,22.324672 17.5864198,22.4630864 C17.8255295,22.6006222 18.1003016,22.6635219 18.3754321,22.6437037 C18.6461291,22.6648258 18.9167364,22.6017395 19.1501852,22.4630864 C19.3250453,22.3168153 19.4099296,22.0892531 19.3735802,21.8641975 L19.1739506,17.7432716 L19.1739506,17.3630247 C19.9819753,17.2774691 21.0751852,17.3059877 20.9848765,18.0902469 L21.3366049,18.0902469 C21.4587966,17.8679684 21.5621419,17.635839 21.6455556,17.3962963 C21.7738889,16.9209877 21.7073457,16.664321 21.3508642,16.445679 C20.6707105,16.1761983 19.9181373,16.1510005 19.2214815,16.3743827 Z" id="Path" fill="url(#linearGradient-6)"></path>
            <path d="M18.3849383,22.7102469 C18.0855953,22.7308195 17.7871059,22.6595137 17.5293827,22.5058642 C17.3254176,22.3563054 17.206693,22.1170842 17.2109259,21.8641975 L17.0065432,17.9238889 C16.3411111,18.1140123 15.9466049,18.2661111 15.7517284,18.3374074 L15.6138889,18.3896914 L15.1766049,17.9143827 L15.233642,17.8811111 C15.7914661,17.5575502 16.3711628,17.2732606 16.9685185,17.0303086 L16.7641358,13.4417284 C15.4380247,13.3324074 13.2183333,13.3609259 13.2611111,14.7678395 C13.2788826,14.9079273 13.3423686,15.0382406 13.4417284,15.1385802 C13.5740438,15.2815838 13.7660541,15.3538078 13.9598148,15.3334568 C13.9348338,15.2285571 13.9555663,15.1179839 14.0168519,15.0292593 C14.180121,14.8282556 14.4475894,14.7440872 14.6965432,14.8153704 C15.0738039,14.8836196 15.3572082,15.1982961 15.3857407,15.5806173 C15.3857407,15.9133333 15.1290741,16.5312346 14.0501235,16.4646914 C13.3885735,16.4562178 12.7664391,16.1486458 12.3580247,15.6281481 C11.802247,14.7791791 11.934383,13.6540212 12.6717284,12.9569136 C13.8124691,11.7306173 15.7184568,11.6640741 16.4314198,11.6403086 L16.5122222,11.6403086 C18.313642,11.5690123 20.3146914,11.9967901 22.2872222,12.4055556 L22.9669136,12.5481481 L23.9175309,12.7477778 C25.7474691,13.1517901 27.3302469,13.5035185 27.9006173,12.7477778 C27.9575672,12.6564746 28.0724856,12.6201846 28.1715432,12.6622222 C28.3711728,12.7382716 28.5137654,13.0709877 28.5090123,13.4417284 C28.5042593,13.8124691 28.3711728,14.7155556 26.8501852,14.7155556 C25.1702495,14.6181539 23.5019678,14.3748297 21.8641975,13.9883333 C20.9253887,13.7657563 19.9725953,13.6069574 19.0123457,13.5130247 L19.1882099,16.2935802 C19.9084366,16.064901 20.6863655,16.0985775 21.3841358,16.388642 C21.7567719,16.5848427 21.9061987,17.0415416 21.7216049,17.4200617 C21.6318877,17.6685642 21.5205561,17.9087224 21.3888889,18.1377778 L21.3888889,18.1662963 L20.8708025,18.1662963 L20.8708025,18.0759877 C20.9129288,17.9006246 20.8521763,17.7165259 20.7139506,17.600679 C20.2549073,17.3728952 19.7326464,17.3059386 19.2309877,17.4105556 L19.2309877,17.7432716 L19.4591358,21.8641975 C19.4884952,22.1037358 19.3912992,22.341326 19.2024691,22.4916049 C18.9592356,22.6475227 18.6735308,22.7239322 18.3849383,22.7102469 Z M17.1681481,17.7195062 L17.382037,21.8641975 C17.3721844,22.0679743 17.4605466,22.2641383 17.6196914,22.3917901 C17.8408902,22.5161106 18.0938801,22.5723306 18.3469136,22.5533951 C18.6010959,22.5718207 18.8548378,22.5121167 19.0741358,22.382284 C19.2261471,22.2551636 19.3060869,22.0615317 19.2880247,21.8641975 L19.0741358,17.3107407 L19.1311728,17.3107407 C19.9582099,17.2251852 20.5570988,17.3107407 20.8327778,17.5483951 C20.9800057,17.6616 21.0646888,17.8380232 21.0609259,18.0237037 L21.2605556,18.0237037 C21.3753907,17.8135626 21.4723776,17.5941498 21.5504938,17.3677778 C21.6740741,16.9209877 21.6075309,16.6880864 21.2985802,16.502716 C20.647839,16.2495089 19.9301567,16.2260333 19.2642593,16.4361728 L19.0218519,16.497963 L18.8269753,13.3799383 L18.9077778,13.3799383 C19.8989711,13.4648442 20.8824312,13.623723 21.8499383,13.8552469 C23.4681961,14.2292912 25.115701,14.4630587 26.7741358,14.5539506 C28.1715432,14.5539506 28.2951235,13.6603704 28.2998765,13.3894444 C28.3266256,13.1610782 28.2499207,12.9327069 28.0907407,12.7667901 C28.0907407,12.7667901 28.047963,12.7667901 28.0146914,12.8190741 C27.392037,13.6651235 25.7569753,13.2943827 23.87,12.8856173 L22.9431481,12.6859877 L22.2634568,12.5433951 C20.3241975,12.1346296 18.3183951,11.7116049 16.5597531,11.7829012 L16.4789506,11.7829012 C15.7802469,11.8066667 13.9265432,11.8732099 12.8190741,13.0614815 C12.1191835,13.7168609 11.9872164,14.7785956 12.5053704,15.5853704 C12.872185,16.0554451 13.4348542,16.3306447 14.0311111,16.3316049 C15.2098765,16.3981481 15.2098765,15.5853704 15.2098765,15.5520988 C15.1934031,15.2536422 14.9758499,15.0047301 14.682284,14.9484568 C14.4927859,14.888749 14.2861437,14.9532062 14.1641975,15.1100617 C14.1152132,15.1770782 14.0978595,15.2621115 14.1166667,15.342963 C14.1166667,15.3809877 14.1166667,15.4380247 14.0691358,15.4665432 C13.7920909,15.5348818 13.4999071,15.4454005 13.308642,15.233642 C13.1774817,15.1069851 13.093617,14.9392557 13.0709877,14.7583333 C13.037716,13.641358 14.3353086,13.1280247 16.721358,13.3324074 L16.8021605,13.3324074 L16.9114815,13.3324074 L16.9114815,13.422716 L17.1253704,17.158642 L17.0873457,17.158642 C16.5042673,17.3951371 15.9374201,17.6698278 15.3904938,17.9809259 L15.618642,18.2138272 C15.8277778,18.1330247 16.2603086,17.9714198 17.0112963,17.7385185 L17.1681481,17.7195062 Z" id="Shape" fill="#C8AA39" fill-rule="nonzero"></path>
            <path d="M24.692284,17.1111111 C24.4844573,17.0400765 24.2653424,17.0078537 24.0458642,17.0160494 C23.8751896,17.015192 23.704844,17.0311121 23.537284,17.0635802 C23.3855259,17.0937656 23.2361931,17.1350704 23.0904938,17.1871605 C22.9578112,17.2338606 22.8290689,17.2910795 22.7054938,17.3582716 C22.5941733,17.4188295 22.4862732,17.4854737 22.382284,17.5579012 L22.5201235,17.6909877 C22.5710187,17.6558484 22.6251288,17.6256104 22.6817284,17.600679 C22.7406808,17.5773353 22.8037079,17.5660228 22.8670988,17.5674074 C22.9778427,17.556682 23.0871312,17.5989873 23.1617901,17.6814815 C23.2214453,17.7575815 23.2548023,17.8509809 23.2568519,17.9476543 L23.3851852,22.0162963 C23.3891071,22.0678854 23.3986703,22.1188894 23.4137037,22.1683951 C23.4359835,22.2408931 23.4789318,22.3053156 23.537284,22.3537654 C23.6227573,22.4233879 23.7213576,22.4751127 23.8272222,22.5058642 C23.9984801,22.5557136 24.1765426,22.5781719 24.3548148,22.5724074 C24.5327305,22.5771801 24.7104092,22.5563708 24.8824074,22.5106173 C24.9893445,22.4812883 25.0894733,22.4312239 25.1770988,22.3632716 C25.2380831,22.3163024 25.2829354,22.2515157 25.3054321,22.1779012 C25.3132339,22.122723 25.3132339,22.0667215 25.3054321,22.0115432 L25.191358,17.9048765 C25.1976432,17.8146773 25.1976432,17.7241499 25.191358,17.6339506 C25.1717592,17.5268481 25.1242077,17.426826 25.0535185,17.3440123 C24.9553036,17.236411 24.8308299,17.1561583 24.692284,17.1111111 Z" id="Path" fill="url(#linearGradient-7)"></path>
            <path d="M24.364321,22.6484568 C24.1747599,22.6547641 23.9854109,22.6306943 23.8034568,22.5771605 C23.6832432,22.5392915 23.5717603,22.4778951 23.4754938,22.3965432 C23.4059967,22.337727 23.3548541,22.2601883 23.3281481,22.1731481 C23.3126488,22.1188911 23.3030866,22.0631116 23.2996296,22.0067901 L23.1712963,17.9381481 C23.1716439,17.855818 23.1449231,17.7756555 23.0952469,17.71 C23.0714815,17.6814815 23.0239506,17.6387037 22.8908642,17.6387037 C22.8390817,17.6363051 22.7873481,17.6443885 22.7387654,17.6624691 C22.6854361,17.6860373 22.6345013,17.7146882 22.5866667,17.7480247 L22.5248765,17.7860494 L22.2682099,17.5388889 L22.3204938,17.5008642 C22.4259974,17.4267941 22.5354827,17.3585641 22.6484568,17.2964815 C22.7750868,17.2274905 22.907005,17.1686835 23.042963,17.1206173 C23.1980304,17.0674114 23.3569266,17.0260984 23.5182716,16.997037 C23.6921439,16.9638754 23.8688646,16.9479546 24.0458642,16.9495062 C24.2797827,16.9400617 24.5134339,16.9739009 24.7350617,17.049321 C24.8847856,17.1025183 25.0187867,17.1923971 25.1248148,17.3107407 C25.2047532,17.4027161 25.258876,17.5142419 25.2816667,17.6339506 C25.2977375,17.7266435 25.3072672,17.8203522 25.3101852,17.9143827 L25.4290123,22.0353086 C25.4297208,22.0963383 25.4217183,22.1571568 25.4052469,22.2159259 C25.3801754,22.2985575 25.3304164,22.3715373 25.2626543,22.4250617 C25.1678581,22.4977926 25.0596373,22.5510954 24.9441975,22.5819136 C24.7553149,22.6329382 24.559852,22.6553683 24.364321,22.6484568 Z M22.8433333,17.5056173 C22.9873138,17.4975106 23.1271886,17.555209 23.2235802,17.6624691 C23.2927981,17.7507419 23.331196,17.8592579 23.3329012,17.9714198 L23.4612346,22.0400617 C23.4642567,22.0867197 23.4722231,22.1329251 23.485,22.1779012 C23.5039184,22.2340158 23.5385651,22.2835112 23.5848148,22.3204938 C23.6576385,22.3806922 23.7416316,22.4259192 23.8319753,22.4535802 C23.9866599,22.4962944 24.1468851,22.5155214 24.307284,22.5106173 C24.4770809,22.5155819 24.6467212,22.4963773 24.8111111,22.4535802 C24.9108541,22.4277573 25.0045313,22.3825338 25.0867901,22.3204938 C25.1382144,22.2804307 25.1763223,22.2257541 25.1961111,22.163642 C25.2033262,22.1131991 25.2033262,22.0619861 25.1961111,22.0115432 L25.077284,17.8906173 C25.0738228,17.8029236 25.0642938,17.7155748 25.0487654,17.6291975 C25.0306215,17.5357595 24.9879726,17.4488214 24.9251852,17.377284 C24.8428716,17.2887401 24.740033,17.2218134 24.6257407,17.1824074 C24.4440886,17.1274441 24.2545028,17.1033442 24.0648765,17.1111111 C23.9052925,17.1118637 23.7461409,17.1277788 23.5895679,17.158642 C23.4410944,17.1874937 23.2949401,17.2272096 23.152284,17.2774691 C23.0228841,17.3228218 22.8973191,17.3784518 22.7767901,17.4438272 C22.6817284,17.4961111 22.5961728,17.5483951 22.5153704,17.600679 L22.6294444,17.543642 C22.6990302,17.5164061 22.7733912,17.5034737 22.8480864,17.5056173 L22.8433333,17.5056173 Z" id="Shape" fill="#C8AA39" fill-rule="nonzero"></path>
            <path d="M30.8332716,18.3896914 L31.0091358,18.3896914 C31.0647869,18.2594537 31.1077631,18.1241581 31.1374691,17.985679 C31.1590846,17.8713363 31.1686431,17.7550412 31.1659877,17.6387037 C31.1778448,17.458686 31.105927,17.2832769 30.9711111,17.1633951 C30.8254169,17.0487594 30.6428666,16.9912899 30.4577778,17.0017901 C30.3545425,17.0019575 30.251946,17.0179882 30.1535802,17.049321 C30.05113,17.0816697 29.9523584,17.1246832 29.8588889,17.1776543 C29.7644852,17.2314789 29.6739563,17.2918316 29.587963,17.3582716 C29.5035677,17.4237073 29.4226546,17.4935147 29.3455556,17.5674074 C29.1620719,17.7380809 28.9935157,17.9241287 28.8417284,18.1235185 C28.8417284,18.0696502 28.8417284,18.0046914 28.8417284,17.928642 C28.8257497,17.760448 28.7721427,17.5980024 28.6848765,17.4533333 C28.6325443,17.3686458 28.5648375,17.2944908 28.4852469,17.2346914 C28.3877757,17.1634688 28.2782995,17.1103406 28.162037,17.0778395 C28.0076411,17.0333061 27.8473787,17.012472 27.6867284,17.0160494 C27.5160538,17.015192 27.3457082,17.0311121 27.1781481,17.0635802 C27.0247938,17.0935892 26.8738681,17.1348952 26.7266049,17.1871605 C26.5939447,17.2339168 26.4652067,17.2911336 26.3416049,17.3582716 C26.2303084,17.4188708 26.1224105,17.4855136 26.0183951,17.5579012 L26.1562346,17.6909877 C26.2071597,17.6558964 26.2612651,17.625661 26.3178395,17.600679 C26.3767919,17.5773353 26.4398191,17.5660228 26.5032099,17.5674074 C26.6140599,17.5558992 26.7236909,17.5983371 26.7979012,17.6814815 C26.8578641,17.7574114 26.8912592,17.8509175 26.892963,17.9476543 L27.002284,22.0162963 C27.0054284,22.0679845 27.0150085,22.1190786 27.0308025,22.1683951 C27.0559348,22.2419465 27.1022343,22.306435 27.1638889,22.3537654 C27.2531929,22.422936 27.3548022,22.474547 27.4633333,22.5058642 C27.6347021,22.5551762 27.8126797,22.5776238 27.9909259,22.5724074 C28.1683957,22.5806829 28.3461248,22.5630701 28.5185185,22.5201235 C28.6221533,22.4921263 28.7191251,22.4436404 28.8037037,22.3775309 C28.8604769,22.3325439 28.9019759,22.2711254 28.9225309,22.2016667 C28.9292909,22.1480104 28.9292909,22.093718 28.9225309,22.0400617 L28.8417284,18.6225926 L29.1316667,18.422963 C29.240206,18.3513915 29.3528934,18.2863185 29.4691358,18.2280864 C29.5885954,18.1678725 29.7125478,18.1170203 29.8398765,18.0759877 C29.9642062,18.0354555 30.0941075,18.0146072 30.2248765,18.0141975 C30.3693968,18.0051928 30.5129103,18.0435743 30.633642,18.1235185 C30.7300797,18.1852945 30.8009692,18.2798139 30.8332716,18.3896914 Z" id="Path" fill="url(#linearGradient-8)"></path>
            <path d="M28.0004321,22.6484568 C27.809315,22.6546234 27.6184234,22.6305614 27.4348148,22.5771605 C27.3120431,22.5408341 27.1974512,22.4811172 27.0973457,22.4012963 C27.0243444,22.3437687 26.9698114,22.2661004 26.9404938,22.1779012 C26.9225945,22.1240304 26.9114193,22.0681545 26.9072222,22.0115432 L26.7979012,17.9429012 C26.7982489,17.8605711 26.771528,17.7804086 26.7218519,17.7147531 C26.6980864,17.6862346 26.6505556,17.6434568 26.5174691,17.6434568 C26.4656866,17.6410582 26.413953,17.6491416 26.3653704,17.6672222 C26.3120542,17.6908166 26.2611218,17.7194661 26.2132716,17.7527778 L26.1514815,17.7908025 L25.8948148,17.543642 L25.9470988,17.5056173 C26.0526233,17.4315788 26.1621069,17.36335 26.2750617,17.3012346 C26.4032132,17.2319941 26.5367309,17.1731827 26.674321,17.1253704 C26.829399,17.0721997 26.9882925,17.0308874 27.1496296,17.0017901 C27.4875009,16.9246151 27.838425,16.9246151 28.1762963,17.0017901 C28.3066438,17.0396447 28.4290387,17.1008422 28.5375309,17.1824074 C28.6268316,17.2500615 28.7026134,17.3339053 28.7609259,17.4295679 C28.8109572,17.5115838 28.8508575,17.5993646 28.8797531,17.6909877 C28.9017214,17.7591647 28.9176268,17.8291484 28.927284,17.9001235 C29.04133,17.7644606 29.1635533,17.635888 29.2932716,17.5151235 C29.3719349,17.4411265 29.4544357,17.3713181 29.5404321,17.3059877 C29.6295073,17.2377826 29.7232099,17.1758436 29.8208642,17.1206173 C29.9189375,17.0656282 30.0224819,17.0210245 30.1298148,16.9875309 C30.2373887,16.953169 30.3496026,16.9355354 30.4625309,16.9352469 C30.6756049,16.9246141 30.8852176,16.9922311 31.0519136,17.1253704 C31.19749,17.2538371 31.2791897,17.4398343 31.2753086,17.6339506 C31.2782452,17.7534467 31.2686871,17.8729227 31.2467901,17.9904321 C31.2157096,18.1321984 31.1711446,18.2706681 31.1137037,18.4039506 L31.1137037,18.4372222 L30.8047531,18.4372222 L30.8047531,18.3659259 C30.7825764,18.2743057 30.7286973,18.1934871 30.6526543,18.1377778 C30.550751,18.0731945 30.4307389,18.0431915 30.3104321,18.0522222 C30.1877804,18.0522484 30.0658904,18.0714942 29.9491975,18.1092593 C29.8267662,18.1491563 29.7075871,18.198417 29.592716,18.2566049 C29.4781947,18.3134308 29.3670993,18.3769139 29.26,18.4467284 L28.9938272,18.6320988 L29.0746296,22.0210494 C29.0821396,22.0794303 29.0821396,22.1385327 29.0746296,22.1969136 C29.0526712,22.2772549 29.0061372,22.3487177 28.9415432,22.4012963 C28.8500508,22.4736612 28.7450061,22.5269916 28.6325926,22.5581481 C28.4284711,22.6236767 28.2147368,22.6542102 28.0004321,22.6484568 Z M26.4841975,17.5056173 C26.628178,17.4975106 26.7680528,17.555209 26.8644444,17.6624691 C26.9333546,17.7509107 26.9717149,17.8593201 26.9737654,17.9714198 L27.0925926,22.0353086 C27.0964663,22.0822427 27.106043,22.1285301 27.1211111,22.1731481 C27.141573,22.2297225 27.1778712,22.27922 27.225679,22.3157407 C27.3037336,22.3760541 27.3924058,22.4211963 27.4870988,22.4488272 C27.6418786,22.4910559 27.8020309,22.5102742 27.9624074,22.5058642 C28.1306376,22.5108307 28.2987097,22.4916225 28.4614815,22.4488272 C28.5582412,22.4227855 28.6487652,22.3775235 28.7276543,22.3157407 C28.7774217,22.2770947 28.8139601,22.2239479 28.8322222,22.163642 C28.8382391,22.114711 28.8382391,22.0652272 28.8322222,22.0162963 L28.7514198,18.5750617 L29.0461111,18.370679 C29.1577292,18.2973477 29.2735903,18.2306879 29.3930864,18.1710494 C29.5155759,18.1089834 29.6427084,18.0565412 29.7733333,18.0141975 C29.9068712,17.970637 30.0463897,17.9481857 30.1868519,17.9476543 C30.3555603,17.9390112 30.5224706,17.985746 30.6621605,18.0807407 C30.7484922,18.1437638 30.8158938,18.2292488 30.857037,18.3279012 L30.909321,18.3279012 C30.9565496,18.211022 30.9931382,18.0901205 31.018642,17.9666667 C31.0398381,17.8554721 31.0493958,17.7423723 31.0471605,17.6291975 C31.05322,17.4781048 30.992354,17.3320264 30.8808025,17.2299383 C30.7561131,17.1338024 30.6006235,17.0864795 30.4435185,17.0968519 C30.3484277,17.0970049 30.2538981,17.1114247 30.1630864,17.1396296 C30.06558,17.170996 29.9715977,17.2124119 29.8826543,17.2632099 C29.7899912,17.3156402 29.7010557,17.3744011 29.6164815,17.4390741 C29.5337822,17.503046 29.4544575,17.5712652 29.3788272,17.6434568 C29.2053904,17.8137581 29.046407,17.9981788 28.9035185,18.1948148 L28.7514198,18.3944444 L28.7514198,18.1377778 C28.7514198,18.0854938 28.7514198,18.0237037 28.7514198,17.9476543 C28.7452147,17.8718705 28.7308729,17.7969743 28.708642,17.7242593 C28.6835656,17.6425946 28.6484406,17.5643617 28.6040741,17.491358 C28.558291,17.4158718 28.4986167,17.3497462 28.4282099,17.2964815 C28.342115,17.2339188 28.2455363,17.1872391 28.1430247,17.158642 C27.8302194,17.0868434 27.5052127,17.0868434 27.1924074,17.158642 C27.0439455,17.1875435 26.8977948,17.2272584 26.7551235,17.2774691 C26.6258044,17.3230254 26.5002552,17.3786484 26.3796296,17.4438272 C26.2845679,17.4961111 26.1990123,17.5483951 26.1182099,17.600679 L26.232284,17.543642 C26.3121813,17.5116441 26.3984152,17.4986277 26.4841975,17.5056173 Z" id="Shape" fill="#C8AA39" fill-rule="nonzero"></path>
            <path d="M48.9187654,18.3421605 C48.7534264,18.0622581 48.5485109,17.8077147 48.3103704,17.5864198 C48.0769419,17.3559349 47.8149791,17.1562681 47.5308642,16.992284 C47.228022,16.8292384 46.9095463,16.697071 46.5802469,16.5977778 C46.2701098,16.4959903 45.9521818,16.4196876 45.6296296,16.3696296 C45.3053435,16.3227787 44.9781463,16.2989537 44.6504938,16.2983333 C44.4279633,16.2972738 44.2056248,16.3115669 43.9850617,16.3411111 C43.784106,16.3690844 43.5855118,16.4119808 43.3909259,16.4694444 C43.218826,16.5192872 43.0504641,16.5812317 42.8870988,16.6548148 C42.7494111,16.7167366 42.6187488,16.7932218 42.4973457,16.882963 L42.4165432,14.4541358 C43.7333955,14.5877301 45.0577699,14.6321935 46.3806173,14.5872222 C48.6145679,14.354321 47.3312346,11.9635185 47.0317901,12.5576543 C46.7323457,13.1517901 45.1923457,13.2230864 43.8614815,13.147037 C42.7967901,13.0614815 41.7178395,12.9283951 41.7178395,12.9283951 L41.8271605,17.7147531 L42.2074074,17.8050617 C42.2536721,17.7239022 42.3078005,17.6474856 42.3690123,17.5769136 C42.450268,17.4843094 42.5447669,17.4042256 42.6494444,17.3392593 C42.7822965,17.2570578 42.9263972,17.1946142 43.0772222,17.1538889 C43.3220089,17.0942326 43.5718446,17.0576325 43.8234568,17.0445679 C44.5534043,17.0029524 45.275807,17.2107899 45.872037,17.6339506 C46.3996535,18.0725483 46.7549454,18.6837851 46.8749383,19.359321 C46.9513822,19.7101016 46.9513822,20.0732317 46.8749383,20.4240123 C46.81334,20.7018812 46.6806825,20.9590075 46.4899383,21.1702469 C46.3015754,21.3715915 46.0664962,21.5234134 45.8054938,21.612284 C45.3776123,21.7488352 44.9265132,21.7973405 44.4793827,21.7548765 C43.4574691,21.6455556 43.1532716,21.1987654 43.1057407,21.0704321 C43.0011728,20.79 43.1627778,20.680679 43.229321,20.6616667 C43.2958642,20.6426543 43.3148765,20.7519753 43.5953086,20.7947531 C43.7772554,20.8293997 43.962757,20.7551991 44.0706173,20.6046296 C44.108642,20.5285802 44.1894444,20.2291358 43.7093827,19.9772222 C43.2315341,19.7093752 42.6345741,19.7866516 42.240679,20.1673457 C41.527716,20.9468519 42.6732099,22.0115432 44.1419136,22.4535802 C44.4659038,22.5420126 44.7965363,22.6040062 45.1305556,22.6389506 L45.2446296,22.6389506 C45.4490123,22.6389506 45.6533951,22.6722222 45.8245062,22.6722222 L45.9623457,22.6722222 C46.4669658,22.6772063 46.96916,22.6017969 47.4500617,22.4488272 C47.8691252,22.3178248 48.2538764,22.0954159 48.5765432,21.7976543 C48.8807051,21.5105002 49.1036881,21.1481529 49.222963,20.7472222 C49.3512304,20.2818943 49.3626589,19.7921003 49.2562346,19.3212963 C49.1977594,18.9787324 49.0837716,18.6480073 48.9187654,18.3421605 Z" id="Path" fill="url(#linearGradient-9)"></path>
            <path d="M45.9908642,22.7482716 L45.8530247,22.7482716 C45.6866667,22.7482716 45.487037,22.7482716 45.263642,22.715 L45.1448148,22.715 C44.8044411,22.6807632 44.4674346,22.6187667 44.1371605,22.5296296 C43.1865432,22.2349383 42.3595062,21.6835802 42.074321,21.1037037 C41.885517,20.7852635 41.9342634,20.3796932 42.1931481,20.1150617 C42.6171583,19.7069293 43.2588846,19.6257471 43.7711728,19.9154321 C44.2464815,20.1673457 44.2464815,20.4858025 44.1751852,20.6331481 C44.0494306,20.8182456 43.8228275,20.9069985 43.6048148,20.8565432 C43.4836994,20.8412941 43.3679894,20.7972918 43.2673457,20.7282099 C43.2150617,20.7519753 43.1247531,20.847037 43.2008025,21.0561728 C43.2768519,21.2653086 43.6238272,21.5885185 44.4888889,21.6835802 C44.923146,21.7238605 45.3610746,21.6769973 45.7769753,21.5457407 C46.028435,21.4607855 46.2552667,21.3155479 46.4376543,21.122716 C46.6217833,20.9162701 46.7494856,20.6657772 46.8083951,20.3954938 C46.8832673,20.0509549 46.8832673,19.6943538 46.8083951,19.3498148 C46.6930636,18.6912746 46.3477804,18.0950294 45.8340123,17.6672222 C45.2535739,17.2589668 44.5504456,17.0626278 43.8424691,17.1111111 C43.5973552,17.1234612 43.35391,17.1584664 43.1152469,17.215679 C42.9710026,17.2558797 42.8333247,17.3167141 42.7064815,17.3962963 C42.6070888,17.4589352 42.5174118,17.5358012 42.4403086,17.6244444 C42.3810898,17.6920913 42.3285608,17.7653137 42.2834568,17.8430864 L42.2834568,17.8858642 L41.7606173,17.767037 L41.7606173,17.7052469 L41.6180247,12.8333333 L41.6988272,12.8333333 C41.6988272,12.8333333 42.787284,12.9711728 43.837716,13.0519753 C45.6391358,13.1517901 46.6895679,12.9616667 46.9414815,12.4958642 C46.9832222,12.3956359 47.0947185,12.3440172 47.1981481,12.377037 C47.4405556,12.4388272 47.6734568,12.8523457 47.7352469,13.2848765 C47.797037,13.7174074 47.7352469,14.4921605 46.3996296,14.63 C45.4170672,14.683114 44.4318795,14.6608678 43.452716,14.5634568 L42.5020988,14.5016667 L42.5781481,16.7023457 C42.6624884,16.6512749 42.7497813,16.6052477 42.8395679,16.5645062 C43.0075115,16.4888653 43.1806484,16.4253288 43.3576543,16.3743827 C43.5569664,16.316484 43.7603329,16.2735863 43.9660494,16.2460494 C44.8661821,16.1438421 45.7777428,16.2312742 46.642037,16.502716 C46.9714037,16.6058544 47.2898127,16.7411782 47.5926543,16.9067284 C47.8877866,17.0693369 48.1609254,17.2689999 48.4054321,17.5008642 C48.6504952,17.7337513 48.8602572,18.0011579 49.0280864,18.2946296 C49.2043688,18.6082386 49.3280067,18.948644 49.3940741,19.302284 C49.500968,19.7828711 49.4879089,20.2823831 49.3560494,20.7567284 C49.2298176,21.182154 48.9898816,21.5650657 48.6620988,21.8641975 C48.3324086,22.1680669 47.9396221,22.3952987 47.5118519,22.5296296 C47.019703,22.682904 46.5062595,22.7567115 45.9908642,22.7482716 Z M45.6629012,22.605679 L45.9575926,22.605679 C46.4524964,22.610464 46.9450231,22.5366652 47.4167901,22.387037 C47.8267648,22.2584934 48.2032997,22.041012 48.5195062,21.7501235 C48.8168704,21.4675736 49.0348548,21.1119147 49.1516667,20.7187037 C49.2775348,20.2611116 49.2889607,19.7795904 49.1849383,19.3165432 C49.1214067,18.9830035 49.0042286,18.6619676 48.837963,18.3659259 C48.6828082,18.0785443 48.4857764,17.8158352 48.2533333,17.5864198 C48.0215848,17.3674538 47.7628257,17.178975 47.4833333,17.0255556 C47.1948366,16.8746675 46.8923937,16.7520986 46.5802469,16.6595679 C45.7465306,16.3983814 44.8674546,16.3141974 43.999321,16.4124074 C43.8016311,16.4389395 43.6062074,16.4802486 43.4146914,16.5359877 C43.2522261,16.5869029 43.0934216,16.6488366 42.9393827,16.721358 C42.805141,16.7803545 42.6776546,16.8536592 42.5591358,16.94 L42.4165432,17.049321 L42.3024691,14.3828395 L42.3785185,14.3828395 L43.4146914,14.4493827 C44.3828073,14.545505 45.3568385,14.5677504 46.3283333,14.5159259 C47.5451235,14.3875926 47.5879012,13.6175926 47.5498765,13.2943827 C47.5385533,12.9957891 47.3959036,12.7174483 47.1601235,12.5338889 C47.1316049,12.5338889 47.0983333,12.5719136 47.0888272,12.595679 C46.8369136,13.1185185 45.7437037,13.3276543 43.8472222,13.2183333 C42.9583951,13.147037 42.0553086,13.0424691 41.7796296,13.0091975 L41.8937037,17.6672222 L42.1408642,17.7242593 C42.1836529,17.65596 42.2313071,17.5908325 42.2834568,17.5293827 C42.3675608,17.433326 42.4652367,17.3500613 42.5733951,17.2822222 C42.7121392,17.1960404 42.8626303,17.1304006 43.0201852,17.0873457 C43.2711256,17.0254063 43.5273368,16.9872133 43.7854321,16.9732716 C44.5476336,16.9261365 45.3028507,17.1426321 45.924321,17.5864198 C46.4633907,18.0370958 46.826811,18.6629862 46.9509877,19.3545679 C47.0288034,19.7132144 47.0288034,20.0843782 46.9509877,20.4430247 C46.8954868,20.7286621 46.7678638,20.9953616 46.5802469,21.2177778 C46.3870142,21.4322254 46.143711,21.5955162 45.872037,21.6930864 C45.430573,21.8350836 44.9647183,21.8852276 44.5031481,21.8404321 C43.2911111,21.7120988 43.0534568,21.117963 43.0439506,21.0941975 C42.9203704,20.7662346 43.12,20.6188889 43.2055556,20.6188889 C43.2615748,20.6096161 43.3188524,20.6252373 43.3624074,20.6616667 C43.4359389,20.7119783 43.5209219,20.7430298 43.6095679,20.7519753 C43.7676166,20.7895512 43.9323968,20.7251543 44.0230864,20.5903704 C44.0230864,20.5618519 44.1609259,20.295679 43.7093827,20.0580247 C43.2642141,19.8128309 42.7112654,19.8860437 42.3452469,20.238642 C42.1177377,20.4696705 42.0747714,20.8251193 42.240679,21.1037037 C42.7046305,21.763722 43.3946764,22.2305178 44.1799383,22.4155556 C44.4915534,22.5007289 44.8094169,22.561123 45.1305556,22.5961728 L45.2446296,22.5961728 L45.6629012,22.605679 Z" id="Shape" fill="#C8AA39" fill-rule="nonzero"></path>
            <path d="M40.5770988,16.2983333 C40.514075,16.271415 40.4459755,16.2584437 40.3774691,16.2603086 C40.2740877,16.2565147 40.1722911,16.286553 40.0875309,16.3458642 C40.0148771,16.4006907 39.973968,16.487845 39.9782099,16.5787654 C39.9727637,16.6444182 39.9972102,16.7090268 40.0447531,16.7546296 C40.0872467,16.7896172 40.1354946,16.8169577 40.1873457,16.8354321 L40.3299383,16.882963 C40.3711317,16.882963 40.3933128,16.9067284 40.3964815,16.9542593 C40.3964815,17.049321 40.2269547,17.0968519 39.8879012,17.0968519 L38.8469753,17.0968519 L38.8469753,15.5283333 L38.3193827,15.5283333 C38.2518172,15.8083496 38.1144641,16.0667042 37.9201235,16.279321 C37.7410359,16.4699315 37.5323924,16.6304265 37.3022222,16.7546296 C37.0972679,16.8681769 36.878358,16.9544626 36.6510494,17.0112963 C36.4957759,17.0535115 36.3364343,17.0790062 36.1757407,17.0873457 L36.1757407,17.4675926 L36.8887037,17.4675926 L36.9362346,21.3746296 C36.933828,21.5657223 36.9813404,21.7541338 37.0740741,21.9212346 C37.1538837,22.0653042 37.2641895,22.1902093 37.397284,22.2872222 C37.5404408,22.3885094 37.7018433,22.4611405 37.8725926,22.5011111 C38.0479674,22.5465678 38.2285257,22.5689379 38.4096914,22.5676543 C38.6866596,22.5755457 38.9629933,22.5369875 39.2272222,22.4535802 C39.4208027,22.3888945 39.6023026,22.2925229 39.764321,22.1683951 C39.898001,22.0644691 40.0136266,21.9392081 40.1065432,21.7976543 C40.1920988,21.6645679 40.2665638,21.542572 40.3299383,21.4316667 L40.1350617,21.3603704 C40.0831392,21.4550832 40.0174669,21.5415784 39.9401852,21.617037 C39.8730103,21.6876747 39.7962037,21.7484799 39.712037,21.7976543 C39.619931,21.8518903 39.5147187,21.8798374 39.4078395,21.8784568 C39.2828237,21.884726 39.1597075,21.8459359 39.0608642,21.7691358 C38.9626964,21.6664321 38.9156189,21.5251994 38.9325309,21.3841358 L38.8945062,17.4866049 L39.8831481,17.4866049 C40.1542758,17.5099856 40.4250297,17.4376724 40.6483951,17.2822222 C40.8071259,17.1443496 40.8931165,16.9407799 40.8812963,16.7308642 C40.8811246,16.6726587 40.8714929,16.614868 40.8527778,16.5597531 C40.8338906,16.5042078 40.8048833,16.4526392 40.7672222,16.4076543 C40.71456,16.3551341 40.6489816,16.3174265 40.5770988,16.2983333 Z" id="Path" fill="url(#linearGradient-10)"></path>
            <path d="M38.3859259,22.6341975 C38.1966801,22.6346992 38.0081632,22.6107352 37.8250617,22.5629012 C37.6539035,22.5144964 37.4928866,22.4355981 37.3497531,22.33 C37.2053308,22.225514 37.0853225,22.0909101 36.9980247,21.9354938 C36.9015558,21.7689762 36.8476785,21.5812221 36.8411728,21.3888889 L36.793642,17.5626543 L36.080679,17.5626543 L36.080679,17.0398148 L36.1234568,17.0398148 C36.2842091,17.0320358 36.4436111,17.0065315 36.5987654,16.9637654 C36.8195113,16.9075419 37.032012,16.8228612 37.2309259,16.7118519 C37.4549003,16.586777 37.6571467,16.4262639 37.8298148,16.2365432 C38.0185706,16.0305916 38.1525866,15.7805374 38.2195679,15.509321 L38.2195679,15.4665432 L38.885,15.4665432 L38.885,17.0350617 L39.8356173,17.0350617 C40.2633951,17.0350617 40.2776543,16.9542593 40.2776543,16.9447531 C40.2289825,16.9346178 40.181275,16.9203055 40.1350617,16.9019753 C40.0712827,16.878747 40.0118404,16.8450095 39.9591975,16.8021605 C39.8937285,16.7430315 39.8587411,16.6573122 39.8641358,16.5692593 C39.8591536,16.4618885 39.9071006,16.3588912 39.9924691,16.2935802 C40.0905572,16.2233539 40.2094312,16.188194 40.3299383,16.1937654 C40.4151357,16.1931241 40.4994594,16.2109618 40.5770988,16.2460494 C40.710862,16.3050694 40.8141364,16.4169501 40.862284,16.555 C40.8834206,16.6162003 40.8946525,16.6803823 40.8955556,16.7451235 C40.9066364,16.969861 40.8137384,17.1872073 40.643642,17.3345062 C40.4051817,17.5009556 40.1158248,17.5783417 39.8261111,17.5531481 L38.937284,17.5531481 L38.9753086,21.3888889 C38.9753086,21.5932716 39.0323457,21.6788272 39.0751235,21.7168519 C39.1544072,21.7758659 39.2522059,21.804531 39.3508025,21.7976543 C39.4425401,21.8011853 39.5333373,21.7780733 39.6122222,21.7311111 C39.6908498,21.6857885 39.7628285,21.629805 39.8261111,21.5647531 C39.8998517,21.4920457 39.9623298,21.4087416 40.0114815,21.3175926 L40.04,21.2653086 L40.4012346,21.3888889 L40.3632099,21.4554321 C40.2998354,21.5695062 40.2253704,21.6930864 40.1398148,21.8261728 C40.0439114,21.9711124 39.925125,22.0995301 39.7880864,22.2064198 C39.6201379,22.3344931 39.4322571,22.4340539 39.2319753,22.5011111 C38.9593389,22.5922823 38.6733862,22.6372636 38.3859259,22.6341975 Z M36.247037,17.4058025 L36.96,17.4058025 L37.012284,21.3983951 C37.0015726,21.7288457 37.1567549,22.0427776 37.4258025,22.2349383 C37.5520365,22.3250997 37.6938394,22.391167 37.8440741,22.4298148 C38.0100135,22.4738774 38.1809645,22.4962448 38.3526543,22.496358 C38.6199066,22.5040269 38.8865672,22.4670799 39.1416667,22.387037 C39.3283387,22.3242402 39.5033812,22.2310984 39.6597531,22.111358 C39.7892785,22.0113844 39.9016551,21.8909808 39.9924691,21.7548765 C40.0621811,21.6471399 40.1239712,21.5473251 40.1778395,21.4554321 L40.1445679,21.4554321 C40.09537,21.5354154 40.0362825,21.6088755 39.9687037,21.6740741 C39.8985487,21.746679 39.8185502,21.8090777 39.7310494,21.8594444 C39.6273117,21.9201115 39.5089916,21.9513349 39.3888272,21.9497531 C39.2363745,21.9579283 39.0861137,21.9106552 38.9658025,21.8166667 C38.8485923,21.700869 38.7893121,21.5387203 38.8041975,21.3746296 L38.7661728,17.4200617 L39.821358,17.4200617 C40.0754159,17.441954 40.3291719,17.3747339 40.5390741,17.2299383 C40.68567,17.1026036 40.7661714,16.9153503 40.757716,16.721358 C40.7565824,16.669441 40.7469486,16.6180606 40.7291975,16.5692593 C40.7134422,16.5239364 40.6892511,16.482005 40.6579012,16.445679 C40.627805,16.4110781 40.5904886,16.3834964 40.5485802,16.3648765 C40.5004512,16.3447773 40.4486227,16.3350594 40.3964815,16.336358 C40.3099143,16.3317971 40.2243874,16.3569521 40.1540741,16.4076543 C40.0926698,16.4529309 40.0586172,16.5264129 40.0637654,16.6025309 C40.0637654,16.6880864 40.092284,16.7166049 40.097037,16.721358 C40.1298502,16.7477988 40.1667816,16.7686731 40.206358,16.7831481 L40.3441975,16.830679 C40.4196743,16.8436113 40.4765732,16.9063963 40.482037,16.9827778 C40.482037,17.1633951 40.1540741,17.1824074 39.9069136,17.1824074 L38.7661728,17.1824074 L38.7661728,15.6138889 L38.4096914,15.6138889 C38.3373788,15.8864274 38.2004226,16.1375137 38.0104321,16.3458642 C37.8262125,16.536778 37.6128331,16.6972137 37.3782716,16.8211728 C37.1688719,16.9382313 36.9452037,17.0276986 36.7128395,17.0873457 C36.5647551,17.1254595 36.4136956,17.1509011 36.2612963,17.1633951 L36.247037,17.4058025 Z" id="Shape" fill="#C8AA39" fill-rule="nonzero"></path>
            <path d="M34.9019136,17.2822222 C34.7112936,17.1881392 34.5079211,17.1224836 34.2982716,17.0873457 C34.0407966,17.0435623 33.7799229,17.0228833 33.5187654,17.0255556 C33.2754081,17.025432 33.0328937,17.0541508 32.7962963,17.1111111 C32.5800781,17.160392 32.3730983,17.2438257 32.1831481,17.3582716 C32.0121816,17.4617014 31.8674117,17.6032181 31.7601235,17.7717901 C31.6519411,17.9470035 31.5989469,18.1506997 31.6080247,18.3564198 C31.6137825,18.5583033 31.6728142,18.7550757 31.7791358,18.9267901 C31.8952733,19.1188172 32.0323679,19.2973591 32.1879012,19.4591358 C32.3581354,19.6362184 32.5374074,19.8043851 32.725,19.962963 C32.9151235,20.1245679 33.0909877,20.2830041 33.2525926,20.4382716 C33.4012399,20.5719347 33.5380081,20.7182448 33.661358,20.8755556 C33.7598721,20.9918974 33.8182154,21.1369222 33.827716,21.2890741 C33.8426438,21.5065902 33.7342999,21.7140964 33.547284,21.8261728 C33.3220483,21.9549638 33.065036,22.0175694 32.8058025,22.0067901 C32.6837851,22.0075218 32.5622429,21.9915294 32.4445679,21.9592593 C32.329796,21.9272734 32.2183752,21.8842969 32.1118519,21.8309259 C32.0124651,21.7814282 31.9171113,21.7242159 31.8266667,21.6598148 C31.751716,21.6075021 31.6802671,21.5503431 31.6127778,21.4887037 L31.3941358,21.6217901 C31.4874364,21.7325754 31.590868,21.8344157 31.7030864,21.9259877 C31.8501713,22.0481738 32.0094476,22.1548889 32.1783951,22.2444444 C32.3795586,22.3506544 32.5914776,22.4351033 32.8105556,22.496358 C33.0691398,22.5667606 33.3363569,22.6003627 33.604321,22.5961728 C33.9103841,22.599068 34.215534,22.5623222 34.5121605,22.4868519 C34.759103,22.4251933 34.992681,22.318875 35.201358,22.1731481 C35.5834542,21.9095599 35.8026429,21.4675891 35.7812346,21.0038889 C35.7783246,20.77952 35.712448,20.5604802 35.5911111,20.3717284 C35.4567901,20.1670334 35.2970829,19.980176 35.1158025,19.8156173 C34.929313,19.6451998 34.7324775,19.4864614 34.5264198,19.3403086 C34.3141152,19.1850412 34.11607,19.0266049 33.932284,18.865 C33.7628074,18.7369084 33.6038629,18.5954478 33.4569753,18.4419753 C33.3455191,18.3337157 33.2778374,18.1882 33.2668519,18.0332099 C33.2630271,17.944666 33.2809796,17.8565355 33.3191358,17.7765432 C33.3628908,17.696191 33.428907,17.6301748 33.5092593,17.5864198 C33.5793561,17.5367531 33.6584666,17.5012341 33.7421605,17.4818519 C33.8323811,17.4597152 33.9249429,17.448544 34.0178395,17.4485802 C34.1804516,17.444397 34.3422014,17.473512 34.4931481,17.5341358 C34.6230658,17.5911728 34.6880247,17.6703909 34.6880247,17.7717901 C34.6880247,17.8050617 34.6880247,17.8288272 34.6214815,17.8478395 L34.4741358,17.9143827 C34.4197767,17.9411886 34.3700376,17.9764874 34.3267901,18.0189506 C34.2820929,18.0661002 34.2596172,18.1300695 34.265,18.1948148 C34.2649268,18.3030122 34.320615,18.4036103 34.4123457,18.4609877 C34.538849,18.5348453 34.6843947,18.5695778 34.8306173,18.5608025 C34.9915453,18.5712531 35.1501823,18.5183741 35.2726543,18.4134568 C35.369248,18.3238745 35.4243293,18.1982204 35.4247531,18.0664815 C35.4295789,17.8968328 35.379574,17.7301497 35.2821605,17.5911728 C35.1809025,17.4602735 35.0507691,17.3545401 34.9019136,17.2822222 Z" id="Path" fill="url(#linearGradient-11)"></path>
            <path d="M33.6185802,22.6484568 C33.3407334,22.6504654 33.0639669,22.6136698 32.7962963,22.5391358 C32.5690005,22.4755087 32.3491207,22.3878754 32.1403704,22.277716 C31.971415,22.1844848 31.8121892,22.074619 31.6650617,21.9497531 C31.5476611,21.8538775 31.4394561,21.7472637 31.3418519,21.6312963 L31.2990741,21.5790123 L31.6317901,21.3793827 L31.6888272,21.4364198 C31.7518496,21.4944975 31.8185295,21.5484765 31.8884568,21.5980247 C31.9744463,21.6588245 32.0650272,21.7128552 32.1593827,21.7596296 C32.2599022,21.8091975 32.3649531,21.8489895 32.4730864,21.8784568 C32.5812973,21.9094365 32.6932457,21.9254291 32.8058025,21.9259877 C33.0517217,21.9363213 33.2955615,21.877009 33.5092593,21.7548765 C33.6748149,21.6548381 33.7730784,21.4728687 33.7659259,21.2795679 C33.7557783,21.1429961 33.7025187,21.0131758 33.6138272,20.9088272 C33.4948693,20.7551568 33.362878,20.6120338 33.219321,20.4810494 C33.057716,20.3337037 32.8818519,20.1768519 32.6917284,20.0057407 C32.4973612,19.8429619 32.311732,19.6700253 32.1356173,19.4876543 C31.9745347,19.3201796 31.8326481,19.1352487 31.7125926,18.9362963 C31.6004307,18.7544308 31.5381363,18.5462366 31.5319753,18.3326543 C31.5230351,18.1188167 31.5776133,17.9071197 31.6888272,17.7242593 C31.8008497,17.5479262 31.9521378,17.3998916 32.1308642,17.2917284 C32.326784,17.1734779 32.5401238,17.0868587 32.7630247,17.0350617 C33.2697871,16.9340293 33.7915092,16.9340293 34.2982716,17.0350617 C34.5193837,17.0718614 34.7339465,17.1407137 34.9351852,17.2394444 C35.1058259,17.3219247 35.2541624,17.4441801 35.367716,17.5959259 C35.4662117,17.7351842 35.5208336,17.9007051 35.5245679,18.0712346 C35.5258683,18.2182695 35.4634676,18.3586712 35.3534568,18.4562346 C35.2214395,18.5692453 35.0518254,18.6286102 34.8781481,18.6225926 C34.7114318,18.6310158 34.5459783,18.5896524 34.4028395,18.5037654 C34.2888107,18.4335491 34.2188144,18.3097095 34.2174691,18.1758025 C34.212174,18.0961713 34.2416475,18.018153 34.2982716,17.9619136 C34.3459198,17.9157644 34.4004358,17.8772825 34.4598765,17.8478395 L34.6119753,17.7765432 C34.6119753,17.7765432 34.6452469,17.7765432 34.6452469,17.7480247 C34.6452469,17.7195062 34.6024691,17.6291975 34.5074074,17.5864198 C34.3654632,17.5300012 34.2132337,17.5040898 34.0606173,17.5103704 C33.9742191,17.5093796 33.888024,17.5189568 33.8039506,17.5388889 C33.7287181,17.5566687 33.6576785,17.5889595 33.5948148,17.6339506 C33.5364166,17.6758152 33.4891043,17.7312848 33.4569753,17.7955556 C33.4216618,17.8679107 33.4053067,17.9480504 33.4094444,18.0284568 C33.4177671,18.1668181 33.47703,18.2971967 33.5758025,18.3944444 C33.7136401,18.5438052 33.8630324,18.6820726 34.0225926,18.807963 C34.207963,18.9553086 34.4028395,19.1074074 34.6119753,19.2832716 C34.8083158,19.4336887 34.9955969,19.5955758 35.1728395,19.7680864 C35.3544526,19.939398 35.5141084,20.1325815 35.6481481,20.3432099 C35.775291,20.5421342 35.8444249,20.7725806 35.8477778,21.008642 C35.8688088,21.489669 35.6407207,21.9476411 35.2441358,22.220679 C35.0281208,22.3708879 34.7865093,22.4804185 34.5311728,22.5438889 C34.2325829,22.616982 33.9259647,22.6521153 33.6185802,22.6484568 Z M31.4987037,21.6312963 C31.5771766,21.7161471 31.6613429,21.7955493 31.7506173,21.8689506 C31.8978892,21.9868187 32.057211,22.0887847 32.2259259,22.1731481 C32.4210769,22.2755902 32.6266298,22.3568553 32.8390741,22.4155556 C33.0867071,22.4839802 33.3426648,22.5175746 33.5995679,22.5153704 C33.8975268,22.5186204 34.1946632,22.4834752 34.483642,22.4108025 C34.7233804,22.3525511 34.9504891,22.251077 35.1538272,22.111358 C35.3290837,21.9884591 35.4724796,21.8255092 35.5720988,21.6360494 C35.6703405,21.4351333 35.7176764,21.2131443 35.7099383,20.9896296 C35.706965,20.7770309 35.6443865,20.5695338 35.529321,20.3907407 C35.4044435,20.1943413 35.2559938,20.013967 35.087284,19.853642 C34.9038924,19.6834978 34.7102366,19.5247635 34.5074074,19.3783333 C34.2982716,19.2214815 34.098642,19.0693827 33.9132716,18.9030247 C33.743755,18.7715149 33.5848301,18.6268932 33.437963,18.4704938 C33.3105849,18.3442519 33.235844,18.1743861 33.2288272,17.9951852 C33.2247069,17.8984569 33.2442872,17.8021871 33.2858642,17.7147531 C33.325809,17.6352788 33.3845452,17.5667532 33.4569753,17.5151235 C33.5344237,17.4609908 33.6215626,17.4222625 33.713642,17.4010494 C33.8117424,17.3778807 33.9122929,17.3667085 34.0130864,17.3677778 C34.1971626,17.3627035 34.3802224,17.3967234 34.5501852,17.4675926 C34.7545679,17.5626543 34.8020988,17.6862346 34.8020988,17.7765432 C34.8020988,17.8668519 34.8020988,17.8668519 34.702284,17.9001235 L34.5549383,17.9666667 C34.5060669,17.98952 34.4611432,18.020004 34.4218519,18.0569753 C34.3868108,18.0938805 34.3694747,18.1441554 34.374321,18.1948148 C34.3718666,18.2775252 34.4134818,18.3553275 34.483642,18.3991975 C34.5926193,18.4584742 34.7164432,18.48489 34.8401235,18.4752469 C34.9818413,18.485218 35.1218064,18.4391319 35.2298765,18.3469136 C35.3200867,18.2679727 35.3705837,18.1530486 35.367716,18.0332099 C35.3691977,17.8838731 35.3243635,17.7377468 35.2393827,17.6149383 C35.1466288,17.4888577 35.0241774,17.3876312 34.8829012,17.3202469 C34.7024902,17.2328317 34.5103743,17.171995 34.3125309,17.1396296 C33.8324099,17.0442222 33.3382074,17.0442222 32.8580864,17.1396296 C32.6487914,17.187161 32.4482893,17.2673618 32.2639506,17.377284 C32.0992247,17.4756726 31.9593583,17.61066 31.8551852,17.7717901 C31.7534266,17.938863 31.7037819,18.1324773 31.7125926,18.3279012 C31.7026284,18.5282533 31.7487156,18.7274162 31.845679,18.9030247 C31.9591285,19.0900005 32.0930395,19.263766 32.2449383,19.4211111 C32.4111237,19.5882289 32.5856248,19.7468663 32.7677778,19.8964198 C32.9579012,20.0580247 33.1385185,20.2196296 33.3001235,20.3717284 C33.4523383,20.5098684 33.5922865,20.6609489 33.7183951,20.8232716 C33.8300347,20.9570663 33.8936251,21.1244096 33.8990123,21.2985802 C33.910058,21.5264861 33.7974305,21.7426582 33.604321,21.8641975 C33.2432471,22.0584438 32.8217038,22.1077371 32.4255556,22.002037 C32.3025934,21.9675975 32.1832193,21.9214395 32.0690741,21.8641975 C31.9647305,21.8118409 31.8646141,21.7514533 31.7696296,21.6835802 L31.6080247,21.56 L31.4987037,21.6312963 Z" id="Shape" fill="#C8AA39" fill-rule="nonzero"></path>
            <path d="M23.0667284,15.7659877 C23.0640065,15.666199 23.0886636,15.5675704 23.1380247,15.4808025 C23.1910642,15.3868821 23.2640798,15.3057537 23.3519136,15.2431481 C23.4507297,15.1741899 23.5598075,15.121255 23.6751235,15.0862963 C23.938831,15.0083865 24.2194406,15.0083865 24.4831481,15.0862963 C24.6000925,15.1208647 24.7107958,15.1738098 24.8111111,15.2431481 C24.9011342,15.3061523 24.9771855,15.387058 25.0345062,15.4808025 C25.0879823,15.5665174 25.1175244,15.6649911 25.1200617,15.7659877 C25.1230291,15.865803 25.0983556,15.9644969 25.0487654,16.0511728 C24.9951666,16.1433725 24.9221896,16.2228364 24.8348765,16.2840741 C24.7361417,16.3531709 24.6270411,16.4061168 24.5116667,16.4409259 C24.3822667,16.4801834 24.2476235,16.4994181 24.1124074,16.497963 C23.9740527,16.4997187 23.8362314,16.4804878 23.703642,16.4409259 C23.5855584,16.405466 23.4734207,16.3526011 23.3709259,16.2840741 C23.2790298,16.2237299 23.2012146,16.1442935 23.1427778,16.0511728 C23.0922037,15.9646962 23.0659284,15.866164 23.0667284,15.7659877 Z" id="Path" fill="url(#linearGradient-12)"></path>
            <path d="M24.145679,16.6025309 C23.984734,16.605405 23.8243383,16.5829496 23.6703704,16.5359877 C23.537037,16.4944927 23.410522,16.4336374 23.2948765,16.3553704 C23.1860136,16.2837619 23.0936551,16.1897831 23.0239506,16.0796914 C22.96056,15.9783939 22.9260461,15.861704 22.9241358,15.7422222 C22.9212122,15.6291461 22.9491463,15.5174095 23.0049383,15.4190123 C23.0642795,15.3156825 23.145369,15.226484 23.2425926,15.1575926 C23.3502494,15.0826554 23.4689119,15.0249277 23.594321,14.9864815 C23.8860371,14.9009235 24.1961851,14.9009235 24.4879012,14.9864815 C24.6237226,15.0276036 24.7520928,15.090184 24.8681481,15.1718519 C24.973429,15.2466051 25.0623776,15.3420226 25.1295679,15.452284 C25.1917104,15.5523959 25.2261556,15.6672134 25.2293827,15.785 C25.2334309,15.8997038 25.2054512,16.0132682 25.1485802,16.112963 C25.0888076,16.2146625 25.0077339,16.302222 24.9109259,16.3696296 C24.8034285,16.4448381 24.6847217,16.5025873 24.5591975,16.5407407 C24.4250388,16.5810809 24.28577,16.6018912 24.145679,16.6025309 Z M23.1950617,15.785 C23.1973668,15.8691333 23.2219705,15.9511458 23.266358,16.0226543 C23.3126884,16.096592 23.3742658,16.1597898 23.4469753,16.2080247 C23.5350215,16.2660868 23.6311051,16.3109258 23.7321605,16.3411111 C23.9680526,16.4100311 24.2187375,16.4100311 24.4546296,16.3411111 C24.5597374,16.3093472 24.6591863,16.2612267 24.749321,16.1985185 C24.8265286,16.1447093 24.8913496,16.0750266 24.9394444,15.9941358 C25.0243502,15.8470748 25.0243502,15.6658882 24.9394444,15.5188272 C24.8934947,15.4419781 24.8319701,15.3755963 24.7588272,15.3239506 C24.6729807,15.2650293 24.5783256,15.2201083 24.4783951,15.1908642 C24.2436591,15.1302266 23.9966027,15.1368148 23.7654321,15.2098765 C23.658433,15.2427962 23.5573543,15.2925334 23.4659877,15.3572222 C23.3865452,15.4118775 23.3200297,15.4832601 23.2711111,15.566358 C23.2267467,15.6411101 23.203731,15.7265969 23.2045679,15.8135185 L23.1950617,15.785 Z" id="Shape" fill="#C8AA39" fill-rule="nonzero"></path>
        </g>
    </g>
</svg>