<svg viewBox="0 0 712 711" xmlns="http://www.w3.org/2000/svg">
  <defs>
    <radialGradient fx="50%" fy="50%" r="48.24%" gradientTransform="scale(1 .9973) rotate(-5.546 .514 .5)" id="a">
      <stop stop-color="#C7C7C7" stop-opacity="0" offset="0%"/>
      <stop stop-color="#B1B1B1" stop-opacity=".307" offset="20.082%"/>
      <stop stop-color="#8D8D8D" stop-opacity=".1" offset="61.565%"/>
      <stop stop-color="#6A6A6A" stop-opacity="0" offset="100%"/>
    </radialGradient>
  </defs>
  <path d="M968.344 369.414L1329 363.569c-1.758-34.864-.262-17.446-4.533-52.231l-356.23 56.796c-.02-.15-.065-.317-.089-.482-.04-.162-.076-.317-.12-.474l347.906-95.457c-10.5-33.607-4.659-17.037-17.508-49.715l-330.822 143.97c-.07-.159-.141-.305-.201-.447-.079-.144-.157-.293-.241-.429l313.118-179.282c-18.426-29.725-8.695-15.218-29.167-43.53L966.466 364.035c-.115-.12-.217-.257-.33-.382a5.295 5.295 0 0 0-.33-.36l258.89-251.41c-25.151-24.187-12.166-12.552-38.978-34.921L964.849 362.438c-.128-.094-.253-.186-.387-.29-.138-.092-.28-.181-.41-.27l188.47-307.885c-30.565-17.297-15.006-9.217-46.663-24.26L962.922 361.297c-.16-.066-.309-.123-.46-.178-.155-.06-.304-.12-.464-.163l105.753-345.263c-33.888-9.091-16.825-5.17-51.236-11.806l-55.762 356.79c-.157-.027-.309-.056-.486-.074-.152-.01-.325-.018-.482-.037L976.432-.17c-34.984-.4-17.505-.82-52.28 1.236l34.344 359.537c-.163.018-.322.031-.497.055-.16.029-.304.055-.471.089L884.02 7.104c-34.105 8.356-17.202 3.568-50.679 14.35l122.957 339.639c-.149.055-.308.115-.455.188-.152.052-.308.128-.455.196L796.055 37.321c-30.812 16.56-15.719 7.74-45.278 26.433l203.507 298.362c-.128.107-.261.196-.392.288-.128.102-.26.207-.382.309L718.78 88.25c-25.69 23.603-13.272 11.36-37.228 36.722l271.055 238.65c-.102.119-.209.239-.321.375-.09.12-.197.257-.301.395L656.555 156.68c-19.114 29.346-10.082 14.34-27.105 45.049l321.889 163.76c-.07.13-.147.29-.215.434-.065.152-.128.306-.19.46L613.081 238.814c-11.216 33.303-6.21 16.486-15.028 50.511l352.516 78.278c-.03.168-.06.33-.09.485-.023.162-.046.316-.065.484l-358.91-39.447c-2.577 34.91 5.563 17.18 5.448 52.197l353.413-11.465c.007.162.018.327.031.484l.055.498-357.496 50.896c6.173 34.612 2.477 17.459 11.102 51.516l346.66-101.164c.05.15.103.312.158.471.052.144.12.294.178.45L617.519 511.509c14.635 31.934 6.77 16.25 23.571 46.983l310.52-184.345c.095.139.19.288.268.42.102.13.198.269.295.4l-288.6 217.066c21.937 27.118 10.5 13.967 34.296 39.478L953 375.934a22.587 22.587 0 0 0 .73.652L727.89 658.4c28.023 20.901 13.678 10.973 43.111 29.843l183.781-310.94c.139.084.285.155.437.246.144.07.29.136.442.207L806.952 706.924c32.557 13.33 16.067 7.251 49.427 18.208l100.476-346.934c.165.055.304.092.466.126.173.04.332.068.495.097L895.93 734.239c34.492 4.73 17.152 2.965 52.029 5.261l11.133-360.948c.157.008.33 0 .479.008.18-.008.335-.021.497-.027l28.167 360.012c34.835-3.976 17.5-1.372 51.995-7.832l-78.901-352.37c.164-.04.316-.08.476-.126l.465-.144 117.028 341.57c32.726-12.551 16.587-5.688 48.393-20.576L963.447 377.565c.139-.07.288-.15.43-.233.138-.084.274-.168.415-.244l198.265 301.622c28.447-20.226 14.607-9.625 41.545-31.798l-238.797-270.62c.125-.096.246-.214.353-.324.125-.128.238-.238.366-.356l266.752 243.012c22.586-26.66 11.774-12.947 32.429-41.161L966.793 374.607c.097-.136.186-.28.275-.406.07-.144.154-.293.238-.429l318.773 169c15.324-31.6 8.227-15.53 21.278-48.226L967.82 372.6c.052-.154.1-.311.16-.47.028-.15.083-.312.12-.47l350.812 84.06c6.927-34.36 4.091-17.118 8.536-51.73L968.31 370.406c.005-.168.024-.33.029-.508.005-.16 0-.33.005-.484z" transform="translate(-604 -14)" fill="url(#a)" fill-rule="evenodd"/>
</svg>