<svg width="176" height="169" xmlns="http://www.w3.org/2000/svg" xmlns:xlink="http://www.w3.org/1999/xlink"><defs><radialGradient cx="50%" cy="50%" fx="50%" fy="50%" r="50%" gradientTransform="matrix(0 1 -1.00491 0 1.002 0)" id="radialGradient-1"><stop stop-color="#FFF" offset="0%"/><stop stop-color="#FFF" stop-opacity="0" offset="100%"/></radialGradient><radialGradient cx="50%" cy="50%" fx="50%" fy="50%" r="50%" gradientTransform="matrix(0 1 -1.1192 0 1.06 0)" id="radialGradient-2"><stop stop-color="#FFF" offset="0%"/><stop stop-color="#FFF" stop-opacity="0" offset="100%"/></radialGradient><radialGradient cx="50%" cy="50%" fx="50%" fy="50%" r="50%" gradientTransform="matrix(0 1 -1.0067 0 1.003 0)" id="radialGradient-3"><stop stop-color="#FFF" offset="0%"/><stop stop-color="#FFF" stop-opacity="0" offset="100%"/></radialGradient><linearGradient x1="100%" y1="36.574%" x2="1.586%" y2="45.274%" id="linearGradient-4"><stop stop-color="#FFF" offset="0%"/><stop stop-color="#FFF" offset="33.153%"/><stop stop-color="#F0F1F2" stop-opacity=".348" offset="68.265%"/><stop stop-color="#FFF" offset="100%"/></linearGradient><linearGradient x1="50%" y1="99.828%" x2="50%" y2="0%" id="linearGradient-5"><stop stop-color="#FFF" offset="0%"/><stop stop-color="#070707" stop-opacity="0" offset="57.496%"/><stop stop-color="#FFF" offset="100%"/></linearGradient><polygon id="path-6" points="88 116.676711 51.5573144 143.159054 65.4821094 100.316506 29.034496 73.8409463 74.0831783 73.8451382 88 31 101.916822 73.8451382 146.965504 73.8409463 110.517891 100.316506 124.442686 143.159054"/><filter x="-14.5%" y="-16.9%" width="129%" height="124.3%" filterUnits="objectBoundingBox" id="filter-7"><feOffset in="SourceAlpha" result="shadowOffsetOuter1"/><feGaussianBlur stdDeviation="7" in="shadowOffsetOuter1" result="shadowBlurOuter1"/><feColorMatrix values="0 0 0 0 1 0 0 0 0 1 0 0 0 0 1 0 0 0 0.5 0" in="shadowBlurOuter1"/></filter></defs><g id="Assets" stroke="none" stroke-width="1" fill="none" fill-rule="evenodd"><g id="Star"><g id="Group"><ellipse id="Oval-Copy-2" fill="url(#radialGradient-1)" transform="rotate(-30 73.759 125.677)" cx="73.759" cy="125.677" rx="21.669" ry="2.262"/><ellipse id="Oval-Copy-3" fill="url(#radialGradient-2)" cx="27.5" cy="66.5" rx="21.5" ry="2.5"/><ellipse id="Oval-Copy-4" fill="url(#radialGradient-3)" transform="rotate(70 127.464 130.846)" cx="127.464" cy="130.846" rx="21.65" ry="2.264"/><path d="M88 7l19.353 59.21L170 66.206l-50.686 36.588L138.68 162 88 125.402 37.321 162l19.365-59.207L6 66.205l62.647.006L88 7zm0 35.432L76.65 77.157l-36.74-.003 29.725 21.458-11.356 34.723L88 111.87l29.721 21.464-11.356-34.723 29.725-21.458-36.74.003L88 42.432z" id="Combined-Shape" fill="url(#linearGradient-4)"/><path d="M88 0l20.77 64.177L176 64.17l-54.394 39.657L142.387 168 88 128.333 33.613 168l20.781-64.173L0 64.17l67.23.007L88 0zm0 56.684l-8.134 25.005-26.328-.003L74.84 97.138 66.7 122.142 88 106.686l21.299 15.456-8.139-25.004 21.302-15.452-26.328.003L88 56.684z" id="Combined-Shape-Copy" stroke-opacity=".375" stroke="#FFF" fill="url(#linearGradient-5)" fill-rule="nonzero" opacity=".304"/><path d="M123.219 139.249L137.443 161l-16.317-20.236 3.386 2.458-1.293-3.973zm-70.439 0l-1.292 3.973 3.384-2.457L38.557 161l14.223-21.751zM8 67.059l25.105 6.79h-4.182l3.383 2.455L8 67.059zm160 0l-24.307 9.245 3.384-2.454-4.183-.001L168 67.059zM88 9l1.291 25.945L88 30.975l-1.293 3.976L88 9z" id="Combined-Shape" fill="#FFF"/><path d="M88 116.446l1.616 1.156-4.477 12.922-3-9.889L88 116.446zM63.653 99.047l1.617 1.156-2.239 6.777-10.488.25 11.11-8.183zm47.338.968l7.902 5.646-6.31.148-1.853-5.606.261-.188zM107.16 67l-2.4 6.919-2.711.001-.839-2.537L107.16 67zm-41.006.97l7.9 5.646-.1.304-5.995-.002-1.805-5.948z" id="Combined-Shape" fill="#FFF" opacity=".2"/><g id="Star-Copy-3"><use fill="#000" filter="url(#filter-7)" xlink:href="#path-6"/><use fill="#FFF" xlink:href="#path-6"/></g></g></g></g></svg>