<svg xmlns="http://www.w3.org/2000/svg" viewBox="0 0 559 559.5"><title>Asset 1</title><g id="Layer_2" data-name="Layer 2"><g id="Layer_1-2" data-name="Layer 1"><path d="M274,220.25c-64-23-168-23-231,0-27,10-43,22-43,34s16,24,43,34c63,23,167,23,231,0,26-10,43-22,43-34S300,230.25,274,220.25Zm11-135c63,23,167,23,231,0,26-10,43-22,43-34,0-13-17-25-43-34-64-23-168-23-231,0-27,9-43,21-43,34C242,63.25,258,75.25,285,85.25Zm0,84c63,23,167,23,231,0,26-9,43-21,43-34v-50q-15,10.5-36,18c-68,25-177,25-245,0q-22.5-7.5-36-18v50C242,148.25,258,160.25,285,169.25Zm74,100c49,5,110,2,157-15,26-10,43-22,43-34v-51a152.25,152.25,0,0,1-36,19c-68,25-177,25-245,0a121,121,0,0,1-36-19v22c14,3,27,6,39,10,34,13,56,31,56,53v13Zm0,85c49,5,110,2,157-15,26-10,43-22,43-34v-51c-10,7-22,13-36,19-50,18-113,21-166,16l-20-2v64Zm0,85c49,4,110,1,157-16,26-9,43-21,43-34v-50q-15,10.5-36,18c-50,18-113,22-166,17l-20-3v65Zm-78,37c-68,25-177,25-245,0a121,121,0,0,1-36-19v51c0,12,16,24,43,34,63,23,167,23,231,0,26-10,43-22,43-34v-51A152.25,152.25,0,0,1,281,476.25Zm0-85c-68,25-177,25-245,0q-22.5-7.5-36-18v50c0,13,16,25,43,34,63,23,167,23,231,0,26-9,43-21,43-34v-50Q302,383.75,281,391.25Zm0-84c-68,24-177,24-245,0-15-6-27-12-36-19v51c0,12,16,24,43,34,63,23,167,23,231,0,26-10,43-22,43-34v-51C307,295.25,295,301.25,281,307.25Z"/></g></g></svg>