<svg width="145" height="145" viewBox="0 0 145 145" fill="none" xmlns="http://www.w3.org/2000/svg">
<path opacity="0.240737" fill-rule="evenodd" clip-rule="evenodd" d="M125.68 78.4615H137C141.416 78.4615 145 81.9766 145 86.3077V117.692C145 122.023 141.416 125.538 137 125.538H125.676C123.812 131.984 121.188 138.183 117.824 144.063L125.848 151.937C128.972 155.001 128.972 159.967 125.848 163.031L103.224 185.22C100.1 188.284 95.036 188.284 91.912 185.22L83.884 177.351C77.888 180.65 71.568 183.223 64.996 185.052V196.154C64.996 200.485 61.412 204 56.996 204H24.996C20.58 204 16.996 200.485 16.996 196.154V185.052C10.424 183.223 4.104 180.65 -1.892 177.351L-9.916 185.22C-13.04 188.284 -18.104 188.284 -21.228 185.22L-43.852 163.031C-46.976 159.967 -46.976 155.001 -43.852 151.937L-35.828 144.063C-39.192 138.183 -41.82 131.984 -43.68 125.538H-55C-59.416 125.538 -63 122.023 -63 117.692V86.3077C-63 81.9766 -59.416 78.4615 -55 78.4615H-43.676C-41.816 72.0159 -39.188 65.8214 -35.824 59.9368L-43.848 52.0671C-46.972 49.0032 -46.972 44.0365 -43.848 40.9726L-21.224 18.7798C-18.104 15.7158 -13.036 15.7198 -9.912 18.7798L-1.888 26.6495C4.108 23.3502 10.428 20.7727 17 18.9485V7.84615C17 3.51508 20.584 0 25 0H57C61.416 0 65 3.51508 65 7.84615V18.9485C71.576 20.7727 77.896 23.3502 83.892 26.6495L91.916 18.7798C93.416 17.3086 95.452 16.4808 97.572 16.4808C99.692 16.4808 101.728 17.3086 103.228 18.7798L125.852 40.9726C128.976 44.0365 128.976 49.0032 125.852 52.0671L117.828 59.9368C121.192 65.8214 123.816 72.0159 125.68 78.4615ZM41 163.145C75.3772 163.145 103.343 135.716 103.343 102C103.343 68.2839 75.3772 40.8555 41 40.8555C6.62279 40.8555 -21.3434 68.2839 -21.3434 102C-21.3434 135.716 6.62279 163.145 41 163.145Z" fill="white"/>
<path opacity="0.240737" d="M78.5 102L18.5 137.5L18.5 66.5L78.5 102Z" fill="white"/>
</svg>
