<?xml version="1.0" encoding="UTF-8"?>
<svg width="95px" height="44px" viewBox="0 0 95 44" version="1.1" xmlns="http://www.w3.org/2000/svg" xmlns:xlink="http://www.w3.org/1999/xlink">
    <!-- Generator: Sketch 49 (51002) - http://www.bohemiancoding.com/sketch -->
    <title>faster</title>
    <desc>Created with Sketch.</desc>
    <defs></defs>
    <g id="faster" stroke="none" stroke-width="1" fill="none" fill-rule="evenodd">
        <g id="Group-31" transform="translate(2.000000, 5.000000)">
            <g id="Group-5">
                <path d="M6.73779297,13.8759766 L9.68798828,13.8759766 C12.0258906,13.8759766 13.1948242,12.7317823 13.1948242,10.4433594 C13.1948242,9.55272992 12.9165067,8.82601193 12.3598633,8.26318359 C11.8032199,7.70035526 11.017746,7.41894531 10.003418,7.41894531 C9.17463778,7.41894531 8.45410462,7.66015384 7.84179687,8.14257812 C7.22948913,8.62500241 6.92333984,9.22493131 6.92333984,9.94238281 L0.670410156,9.94238281 C0.670410156,8.51984966 1.06623953,7.25195869 1.85791016,6.13867188 C2.64958078,5.02538506 3.74738881,4.15641588 5.15136719,3.53173828 C6.55534556,2.90706068 8.09846164,2.59472656 9.78076172,2.59472656 C12.7866361,2.59472656 15.1492427,3.28124313 16.8686523,4.65429688 C18.588062,6.02735062 19.4477539,7.91372498 19.4477539,10.3134766 C19.4477539,11.4762428 19.092126,12.5740508 18.3808594,13.6069336 C17.6695928,14.6398164 16.6336331,15.4778614 15.2729492,16.1210938 C16.7078522,16.6406276 17.833492,17.4291939 18.6499023,18.4868164 C19.4663127,19.5444389 19.8745117,20.8525313 19.8745117,22.4111328 C19.8745117,24.8232542 18.9467866,26.7529225 17.0913086,28.2001953 C15.2358306,29.6474682 12.799006,30.3710937 9.78076172,30.3710937 C8.01187267,30.3710937 6.36979924,30.0340203 4.85449219,29.3598633 C3.33918513,28.6857063 2.19189843,27.7517963 1.41259766,26.5581055 C0.633296885,25.3644146 0.243652344,24.0068435 0.243652344,22.4853516 L6.53369141,22.4853516 C6.53369141,23.3141317 6.86767244,24.0315725 7.53564453,24.6376953 C8.20361662,25.2438181 9.02619954,25.546875 10.003418,25.546875 C11.1043349,25.546875 11.9825814,25.2407257 12.6381836,24.628418 C13.2937858,24.0161102 13.621582,23.2337287 13.621582,22.28125 C13.621582,20.9205661 13.2814162,19.955732 12.6010742,19.3867187 C11.9207323,18.8177055 10.9806375,18.5332031 9.78076172,18.5332031 L6.73779297,18.5332031 L6.73779297,13.8759766 Z M33.4936523,11.9648437 L37.909668,2.984375 L45.3500977,2.984375 L37.7983398,16.3808594 L45.5541992,30 L38.0395508,30 L33.4936523,20.8525391 L28.9477539,30 L21.4516602,30 L29.1889648,16.3808594 L21.6557617,2.984375 L29.0776367,2.984375 L33.4936523,11.9648437 Z" id="3X" fill="#FFFFFF"></path>
                <g id="Group-4" transform="translate(53.000000, 0.000000)"></g>
            </g>
        </g>
        <g id="Group" transform="translate(61.000000, 8.000000)" fill="#FFFFFF">
            <path d="M23.1729906,11.3610771 C23.3533252,13.1644227 23.0828233,15.0579355 22.4516524,16.8612811 L19.8368013,15.2382701 C20.2876377,13.9759282 20.377805,12.623419 20.1974704,11.3610771 L23.1729906,11.3610771 Z" id="Shape"></path>
            <path d="M21.1893105,5.500204 C22.1811506,6.94288046 22.7221542,8.56589147 22.9926561,10.1889025 L20.0171359,10.1889025 C19.746634,9.10689514 19.2957976,8.0248878 18.6646267,7.03304774 L21.1893105,5.500204 Z" id="Shape"></path>
            <path d="M17.2219502,1.53284374 C18.4842921,2.25418197 19.6564667,3.33618931 20.6483068,4.59853121 L18.0334557,6.13137495 C17.4022848,5.41003672 16.5907793,4.77886577 15.7792738,4.2378621 L17.2219502,1.53284374 Z" id="Shape"></path>
            <path d="M12.1725826,0 C13.6152591,0.0901672787 14.9677683,0.450836393 16.3202774,0.991840065 L14.7874337,3.7870257 C13.9759282,3.42635659 13.0742554,3.24602203 12.1725826,3.15585475 L12.1725826,0 Z" id="Shape"></path>
            <path d="M7.03304774,0.991840065 C8.29538964,0.450836393 9.7380661,0.0901672787 11.0905753,0 L11.0905753,3.15585475 C10.1889025,3.24602203 9.37739698,3.42635659 8.47572419,3.7870257 L7.03304774,0.991840065 Z" id="Shape"></path>
            <path d="M2.70501836,4.59853121 C3.60669115,3.33618931 4.77886577,2.25418197 6.04120767,1.53284374 L7.57405141,4.2378621 C6.67237862,4.77886577 5.95104039,5.41003672 5.22970216,6.13137495 L2.70501836,4.59853121 Z" id="Shape"></path>
            <path d="M0.270501836,10.1889025 C0.541003672,8.56589147 1.17217462,6.94288046 2.07384741,5.500204 L4.59853121,7.03304774 C3.96736026,8.0248878 3.51652387,9.10689514 3.24602203,10.1889025 L0.270501836,10.1889025 Z" id="Shape"></path>
            <path d="M0.811505508,16.8612811 C0.180334557,15.0579355 -1.38777878e-17,13.1644227 0.0901672787,11.3610771 L3.06568747,11.3610771 C2.9755202,12.623419 3.06568747,13.9759282 3.42635659,15.2382701 L0.811505508,16.8612811 Z" id="Shape"></path>
            <path d="M19.4761322,13.25459 C17.9432885,12.3529172 13.0742554,9.10689514 12.2627499,8.83639331 C11.3610771,8.47572419 10.4594043,8.92656059 10.0987352,9.82823337 C9.82823337,10.6397389 10.2790698,11.6315789 11.0905753,11.9020808 C11.9020808,12.2627499 17.7629539,12.8939208 19.4761322,13.25459 Z M12.5332517,10.6397389 C12.9840881,9.46756426 11.0905753,8.74622603 10.6397389,10.0085679 C10.1889025,11.1807426 12.0824153,11.9020808 12.5332517,10.6397389 Z" id="Shape"></path>
        </g>
    </g>
</svg>