<?xml version="1.0" encoding="UTF-8"?>
<svg width="199px" height="109px" viewBox="0 0 199 109" version="1.1" xmlns="http://www.w3.org/2000/svg" xmlns:xlink="http://www.w3.org/1999/xlink">
    <!-- Generator: Sketch 51.1 (57501) - http://www.bohemiancoding.com/sketch -->
    <title>Group</title>
    <desc>Created with Sketch.</desc>
    <defs></defs>
    <g id="Page-1" stroke="none" stroke-width="1" fill="none" fill-rule="evenodd" opacity="0.241853">
        <g id="Group" transform="translate(-3.000000, -14.000000)" fill="#FFFFFF">
            <path d="M13,14 C7.4772,14 3,18.47715 3,24 L3,113 C3,118.523 7.4772,123 13,123 L144,123 C149.5228,123 154,118.523 154,113 L154,24 C154,18.47715 149.5228,14 144,14 L13,14 Z M127.9903,67.9985 C127.9925,68.0253 127.9947,68.0522 127.996,68.08 L127.9979,68.1178 L128.0007,68.1754 C128.0014,68.1896 128.0019,68.2039 128.0023,68.2182 C128.0027,68.234 128.003,68.2499 128.003,68.266 C128.003,68.329 128.001,68.391 127.998,68.453 C127.9972,68.4708 127.9959,68.4883 127.9946,68.5055 C127.9938,68.5161 127.9929,68.5265 127.9921,68.5369 L127.989,68.575 C127.988,68.5855 127.9872,68.5957 127.9865,68.606 C127.9857,68.6162 127.985,68.6265 127.984,68.637 C127.9819,68.658 127.9788,68.679 127.9758,68.6996 L127.972,68.726 C127.968,68.761 127.964,68.795 127.958,68.83 C127.957,68.834 127.956,68.839 127.956,68.843 C127.833,69.617 127.469,70.341 126.911,70.9 C125.863,72.143 124.716,73.31 123.563,74.455 C117.333,80.638 110.183,86.152 102.354,90.153 C97.351,92.709 92.007,94.771 86.463,95.763 C80.367,96.853 74.264,96.798 68.2,95.509 C57.708,93.279 48.203,87.74 39.891,81.118 C36.032,78.044 32.237,74.68 29.047,70.899 C27.651,69.245 27.651,67.286 29.047,65.632 C30.095,64.389 31.242,63.221 32.395,62.077 C38.625,55.894 45.775,50.379 53.604,46.379 C58.606,43.823 63.95,41.761 69.495,40.769 C75.591,39.679 81.693,39.734 87.757,41.022 C98.249,43.252 107.754,48.792 116.065,55.414 C119.924,58.487 123.719,61.852 126.909,65.633 C127.467,66.191 127.831,66.916 127.954,67.689 C127.954,67.693 127.955,67.698 127.956,67.702 C127.962,67.736 127.966,67.771 127.97,67.806 L127.9738,67.8323 C127.9768,67.853 127.9799,67.874 127.982,67.895 C127.983,67.9051 127.9838,67.9155 127.9845,67.926 L127.9846,67.9267 L127.9859,67.9443 L127.987,67.957 L127.9902,67.9979 L127.9903,67.9985 Z M78.241,87.482 C67.614,87.482 59,78.868 59,68.241 C59,57.615 67.614,49 78.241,49 C88.868,49 97.482,57.614 97.482,68.241 C97.482,78.868 88.868,87.482 78.241,87.482 Z M84.738,68.369 C84.738,71.8865 81.8865,74.738 78.369,74.738 C74.8515,74.738 72,71.8865 72,68.369 C72,64.8515 74.8515,62 78.369,62 C81.8865,62 84.738,64.8515 84.738,68.369 Z" id="Shape"></path>
            <path d="M158,43.1957 C158,38.7786 160.898,34.8848 165.129,33.6166 L189.129,26.4236 C195.545,24.5008 202,29.3051 202,36.0026 L202,101.4403 C202,108.1378 195.545,112.9422 189.129,111.0194 L165.129,103.8263 C160.898,102.5582 158,98.6643 158,94.2473 L158,43.1957 Z" id="Shape"></path>
        </g>
    </g>
</svg>