<?xml version="1.0" encoding="utf-8"?>
<!-- Generator: Adobe Illustrator 21.1.0, SVG Export Plug-In . SVG Version: 6.00 Build 0)  -->
<svg version="1.1" id="Layer_1" xmlns="http://www.w3.org/2000/svg" xmlns:xlink="http://www.w3.org/1999/xlink" x="0px" y="0px"
	 viewBox="0 0 1137.8 323.1" style="enable-background:new 0 0 1137.8 323.1;" xml:space="preserve">
<style type="text/css">
	.st0{fill:#00CD00;}
	.st1{fill:#FF3333;}
	.st2{fill:#00004D;}
</style>
<title>logo-origin</title>
<path class="st0" d="M398.6,192.3h-56.9c-9.5,0-14.2-4.7-14.2-14.2V85.6h21.3v85.3h49.8V192.3L398.6,192.3z M412.9,85.6v106.7h21.3
	V85.6H412.9z M469.7,85.6h-21.3l31.3,106.6h29.8l31.3-106.6h-21.3l-24.8,84.7L469.7,85.6z M590.5,149.6l7.1-21.3h-28.4V107H619V85.6
	h-56.9c-9.5,0-14.2,4.7-14.2,14.2V178c0,9.5,4.7,14.2,14.2,14.2H619v-21.3h-49.8v-21.3H590.5z"/>
<path class="st1" d="M718.5,142.5c0-9.5-4.8-14.2-14.2-14.2h-28.3l-7.1,21.3h28.3v21.3h-42.6v-64h64V85.6h-71.1
	c-9.5,0-14.2,4.7-14.2,14.2V178c0,9.5,4.7,14.2,14.2,14.2h56.9c9.5,0,14.2-4.7,14.2-14.2L718.5,142.5L718.5,142.5z M732.7,192.3
	V99.8c0-9.5,4.7-14.2,14.2-14.2h56.9c9.5,0,14.2,4.7,14.2,14.2v92.5h-21.3v-28.5H754v28.5H732.7z M796.7,106.9H754v35.5h42.7
	L796.7,106.9L796.7,106.9z M903.4,107v85.3H882V107h-28.5v85.3h-21.3V99.9c0-9.5,4.7-14.2,14.2-14.2h92.4c9.5,0,14.2,4.7,14.2,14.2
	v92.4h-21.3l-0.1-85.3H903.4z M1009.8,149.6l7.1-21.3h-28.4V107h49.8V85.6h-56.9c-9.5,0-14.2,4.7-14.2,14.2V178
	c0,9.5,4.7,14.2,14.2,14.2h56.9v-21.3h-49.8v-21.3H1009.8z M1137.8,85.6h-71.1c-9.5,0-14.2,4.8-14.2,14.3v35.5
	c0,9.4,4.7,14.1,14.2,14.1h49.8v21.3l-64,0.1v21.3h71.1c9.5,0,14.2-4.7,14.2-14.2v-35.5c0-9.4-4.8-14.1-14.2-14.1h-49.8v-21.4h56.9
	L1137.8,85.6z"/>
<path class="st2" d="M334.2,207.8H359v5.3h-18.9v9.1h16.8v5.3h-16.8V241h-5.9L334.2,207.8L334.2,207.8z M400.2,241.6
	c-2,0-4-0.3-5.9-0.9c-1.7-0.6-3.2-1.5-4.5-2.8c-1.3-1.3-2.2-2.9-2.9-4.6c-0.7-2-1-4.2-1-6.4v-19.1h5.9v18.9c0,3.1,0.7,5.5,2.2,7.1
	c1.6,1.7,3.9,2.5,6.2,2.4c2.3,0.1,4.5-0.7,6.1-2.3c1.5-1.6,2.2-3.9,2.2-6.9v-19.2h5.8v18.8c0,2.2-0.3,4.4-1,6.5
	c-0.6,1.7-1.6,3.3-2.9,4.7c-1.3,1.3-2.8,2.2-4.5,2.8C404.2,241.3,402.2,241.6,400.2,241.6L400.2,241.6z M452,213.2h-10.5v-5.4h27
	v5.4h-10.5V241H452V213.2z M509.5,241.6c-2,0-4-0.3-5.8-0.9c-1.7-0.6-3.2-1.5-4.5-2.8c-1.3-1.3-2.2-2.9-2.8-4.6c-0.7-2-1-4.2-1-6.4
	v-19.2h5.8v18.9c0,3.1,0.7,5.5,2.2,7.1c1.6,1.7,3.9,2.5,6.2,2.4c2.3,0.1,4.5-0.7,6.1-2.3c1.5-1.6,2.2-3.9,2.2-6.9v-19.2h5.8v18.8
	c0,2.2-0.3,4.4-1,6.5c-0.6,1.8-1.6,3.3-2.9,4.7c-1.3,1.3-2.8,2.2-4.5,2.8C513.5,241.3,511.5,241.6,509.5,241.6L509.5,241.6z
	 M567.5,224.3c1.8,0.1,3.6-0.4,5-1.5c1.2-1,1.9-2.5,1.9-4.1v-0.1c0.1-1.6-0.6-3.1-1.8-4.1c-1.5-1-3.3-1.5-5.1-1.4h-8.5v11.2
	L567.5,224.3z M553.1,207.8h14.8c1.9,0,3.8,0.3,5.6,0.9c1.5,0.5,2.9,1.4,4,2.5c0.9,0.9,1.5,2,2,3.2c0.5,1.3,0.7,2.6,0.7,4v0.1
	c0,1.3-0.2,2.5-0.6,3.7c-0.4,1.1-0.9,2-1.6,2.9c-0.7,0.8-1.6,1.6-2.5,2.1c-1,0.6-2.1,1.1-3.2,1.4l9,12.6h-6.8l-8.2-11.6h-7.3v11.6
	h-5.8L553.1,207.8L553.1,207.8z M608.7,207.8h24.7v5.2h-18.8v8.6h16.7v5.2h-16.7v8.9h19.1v5.2h-24.9L608.7,207.8L608.7,207.8z
	 M692,236.3c1.6,0,3.1-0.3,4.5-0.9c1.3-0.6,2.5-1.4,3.5-2.5c1-1.1,1.8-2.4,2.3-3.7c0.6-1.5,0.8-3,0.8-4.6v-0.1
	c0-1.6-0.3-3.1-0.8-4.6c-0.5-1.4-1.3-2.7-2.3-3.8c-1-1.1-2.2-1.9-3.6-2.5c-2.9-1.3-6.2-1.3-9.1,0c-1.3,0.6-2.5,1.4-3.5,2.5
	c-1,1.1-1.8,2.4-2.3,3.7c-0.6,1.5-0.8,3-0.8,4.6v0.1c0,1.6,0.3,3.1,0.8,4.6c0.5,1.4,1.3,2.7,2.3,3.8c1,1.1,2.2,1.9,3.6,2.5
	C688.9,236,690.4,236.3,692,236.3L692,236.3z M691.9,241.7c-2.4,0-4.8-0.4-7-1.4c-4.1-1.7-7.3-5-9-9.1c-0.9-2.1-1.3-4.4-1.3-6.6
	v-0.1c0-2.3,0.4-4.5,1.3-6.6c0.8-2,2.1-3.9,3.6-5.5c3.3-3.3,7.8-5.2,12.5-5.1c2.4,0,4.8,0.4,7,1.4c2,0.9,3.9,2.1,5.5,3.7
	c1.5,1.6,2.7,3.4,3.6,5.4c0.9,2.1,1.3,4.4,1.3,6.6v0.1c0,2.3-0.4,4.5-1.3,6.6c-0.8,2-2.1,3.9-3.6,5.5
	C701.1,239.9,696.6,241.7,691.9,241.7L691.9,241.7z M727.6,207.8h24.8v5.3h-18.9v9.1h16.8v5.3h-16.8v13.5h-5.9L727.6,207.8
	L727.6,207.8z M794.6,207.8h5.8v33.3h-5.9L794.6,207.8L794.6,207.8z M846.3,241.6c-2.4,0-4.8-0.4-7.1-1.3c-4.1-1.6-7.3-4.9-8.9-9
	c-0.8-2.2-1.3-4.5-1.2-6.8v-0.1c0-2.3,0.4-4.5,1.3-6.6c1.6-4.2,4.9-7.5,9-9.2c2.2-0.9,4.5-1.4,6.9-1.4c1.3,0,2.7,0.1,4,0.3
	c1.1,0.2,2.2,0.5,3.3,0.9c1,0.4,2,0.8,2.9,1.4c0.9,0.6,1.8,1.2,2.6,1.9l-3.7,4.4c-0.6-0.5-1.3-1-2-1.5c-0.7-0.4-1.4-0.8-2.1-1.1
	c-0.8-0.3-1.6-0.6-2.4-0.7c-0.9-0.2-1.9-0.2-2.9-0.2c-1.5,0-2.9,0.3-4.3,1c-1.3,0.6-2.5,1.5-3.4,2.5c-1,1.1-1.8,2.4-2.3,3.7
	c-0.6,1.4-0.8,3-0.8,4.5v0.1c0,1.6,0.3,3.2,0.8,4.8c0.5,1.4,1.3,2.7,2.3,3.8c1,1.1,2.2,1.9,3.6,2.5c1.5,0.6,3,0.9,4.6,0.9
	c1.5,0,3-0.3,4.5-0.8c1.3-0.4,2.5-1,3.6-1.8v-6.2h-8.5v-5.1h14.2v14c-0.9,0.7-1.8,1.4-2.7,2c-2.1,1.4-4.5,2.3-7,2.8
	C849.1,241.5,847.7,241.7,846.3,241.6L846.3,241.6z M909.2,227.8l-5.8-13.3l-5.7,13.3H909.2z M900.8,207.5h5.4l14.6,33.5h-6.2
	l-3.4-8h-15.7l-3.4,8h-6L900.8,207.5z M947.8,207.8h6.2l10.1,15.7l10.1-15.7h6.2V241h-5.8v-23.9l-10.5,15.7H964l-10.4-15.6V241h-5.8
	L947.8,207.8L947.8,207.8z M1010.6,207.8h5.8V241h-5.8V207.8L1010.6,207.8z M1046.6,207.8h5.4l17.8,23v-23h5.8V241h-4.9l-18.3-23.7
	V241h-5.8L1046.6,207.8L1046.6,207.8z M1121.2,241.6c-2.4,0-4.8-0.4-7.1-1.3c-4.1-1.6-7.3-4.9-8.9-9c-0.8-2.2-1.3-4.5-1.2-6.8v-0.1
	c0-2.3,0.4-4.5,1.3-6.6c1.6-4.2,4.9-7.5,9-9.2c2.2-0.9,4.5-1.4,6.9-1.4c1.3,0,2.7,0.1,4,0.3c1.1,0.2,2.2,0.5,3.3,0.9
	c1,0.4,2,0.8,2.9,1.4c0.9,0.6,1.8,1.2,2.6,1.9l-3.7,4.4c-0.6-0.5-1.3-1-2-1.5c-0.7-0.4-1.4-0.8-2.1-1.1c-0.8-0.3-1.6-0.6-2.4-0.7
	c-0.9-0.2-1.9-0.3-2.9-0.3c-1.5,0-2.9,0.3-4.3,1c-1.3,0.6-2.5,1.5-3.4,2.5c-1,1.1-1.8,2.4-2.3,3.7c-0.6,1.4-0.8,3-0.8,4.5v0.1
	c0,1.6,0.3,3.2,0.8,4.8c0.5,1.4,1.3,2.7,2.3,3.8c1,1.1,2.2,1.9,3.6,2.5c1.5,0.6,3,0.9,4.6,0.9c1.5,0,3-0.2,4.4-0.7
	c1.3-0.4,2.5-1,3.6-1.8v-6.2h-8.5v-5.1h14.1v14c-0.9,0.7-1.8,1.4-2.7,2c-2.1,1.4-4.5,2.3-7,2.8
	C1123.9,241.5,1122.5,241.6,1121.2,241.6z"/>
<polygon class="st0" points="0,142.7 0,159 0,200.6 0,241.1 16.8,250.8 71.1,282.1 107.1,302.9 127.1,314.5 127.1,273.9 87,250.8 
	51.9,230.6 39.8,223.6 39.8,173.6 39.8,165.7 39.8,149.4 39.8,108.8 0,85.8 0,126.4 "/>
<polygon class="st1" points="182.2,201 182.2,185.6 284.4,126.6 284.4,86.1 182.2,145.1 142.4,168.1 142.4,208.6 142.4,224 
	142.4,264.5 142.4,282.5 142.4,323.1 177.3,302.9 182.2,300.1 213.3,282.1 213.4,282.1 232.6,271 267.7,250.7 284.4,241.1 
	284.4,200.6 284.4,182.6 284.4,159 284.4,142.1 244.5,165 213.4,183 213.4,223.6 244.5,205.6 244.5,223.6 232.6,230.4 213.4,241.6 
	197.5,250.7 182.2,259.5 182.2,241.6 "/>
<path class="st2" d="M103.8,65.9c-6.9-4-6.9-10.5,0-14.5s18.1-4,25.1,0s6.9,10.5,0,14.5S110.7,69.9,103.8,65.9L103.8,65.9z
	 M147.5,149l115.7-66.8l10.6-6.1l-63-36.4L142.2,0L73.5,39.6L10.5,76l10.6,6.1L136.9,149l5.3,3.1L147.5,149L147.5,149z M168.6,42.9
	c-6.9,4-18.1,4-25,0s-6.9-10.5,0-14.5s18.1-4,25.1,0S175.6,38.9,168.6,42.9L168.6,42.9z M199.5,75.3c-6.9-4-6.9-10.5,0-14.5
	s18.1-4,25.1,0s6.9,10.5,0,14.5S206.4,79.3,199.5,75.3L199.5,75.3z M64,74.4c6.9-4,18.1-4,25.1,0s6.9,10.5,0,14.5s-18.1,4-25,0
	S57.1,78.4,64,74.4L64,74.4z M120,106.7c6.9-4,18.1-4,25.1,0s6.9,10.5,0,14.5s-18.1,4-25.1,0S113.1,110.7,120,106.7L120,106.7z
	 M159.8,83.7c6.9-4,18.1-4,25.1,0c6.9,4,6.9,10.5,0,14.5s-18.1,4-25.1,0S152.8,87.7,159.8,83.7L159.8,83.7z"/>
</svg>
